%TF.GenerationSoftware,KiCad,Pcbnew,(6.0.7)*%
%TF.CreationDate,2023-01-15T17:43:20+08:00*%
%TF.ProjectId,Rp2040 wearable dev boards w wireless,52703230-3430-4207-9765-617261626c65,rev?*%
%TF.SameCoordinates,Original*%
%TF.FileFunction,Copper,L4,Bot*%
%TF.FilePolarity,Positive*%
%FSLAX46Y46*%
G04 Gerber Fmt 4.6, Leading zero omitted, Abs format (unit mm)*
G04 Created by KiCad (PCBNEW (6.0.7)) date 2023-01-15 17:43:20*
%MOMM*%
%LPD*%
G01*
G04 APERTURE LIST*
%TA.AperFunction,ComponentPad*%
%ADD10O,1.158000X2.316000*%
%TD*%
%TA.AperFunction,ComponentPad*%
%ADD11O,1.200000X2.400000*%
%TD*%
%TA.AperFunction,SMDPad,CuDef*%
%ADD12R,4.560000X1.000000*%
%TD*%
%TA.AperFunction,SMDPad,CuDef*%
%ADD13C,2.000000*%
%TD*%
%TA.AperFunction,ViaPad*%
%ADD14C,0.800000*%
%TD*%
%TA.AperFunction,ViaPad*%
%ADD15C,0.500000*%
%TD*%
%TA.AperFunction,Conductor*%
%ADD16C,0.250000*%
%TD*%
%TA.AperFunction,Conductor*%
%ADD17C,0.150000*%
%TD*%
G04 APERTURE END LIST*
D10*
%TO.P,J2,S3,SHIELD*%
%TO.N,GND*%
X44956000Y-94675000D03*
%TO.P,J2,S4,SHIELD*%
X53596000Y-94675000D03*
D11*
%TO.P,J2,S5,SHIELD*%
X44956000Y-98500000D03*
%TO.P,J2,S6,SHIELD*%
X53596000Y-98500000D03*
%TD*%
D12*
%TO.P,J6,SH3*%
%TO.N,GND*%
X38428500Y-43490750D03*
%TO.P,J6,SH4*%
X38428500Y-49030750D03*
%TD*%
D13*
%TO.P,TP3,1,1*%
%TO.N,/Antenna*%
X43250000Y-46250000D03*
%TD*%
%TO.P,TP1,1,1*%
%TO.N,/VO*%
X60950000Y-94250000D03*
%TD*%
D14*
%TO.N,/Antenna*%
X43250000Y-46250000D03*
%TO.N,GND*%
X36710000Y-49050000D03*
X61000000Y-88600000D03*
X61750000Y-58150000D03*
X38500000Y-62750000D03*
X51250000Y-45250000D03*
X48250000Y-51500000D03*
X40991091Y-52993372D03*
X43718767Y-62531233D03*
X47500000Y-54250000D03*
X54800000Y-75550000D03*
X45750000Y-83000000D03*
X52750000Y-86000000D03*
X38500000Y-43500000D03*
X74000000Y-46500000D03*
X40250000Y-43500000D03*
X66762750Y-67312750D03*
X38440000Y-49030000D03*
X48500000Y-44000000D03*
X45000000Y-56000000D03*
X56300000Y-70150000D03*
X73600000Y-89250000D03*
X39000000Y-67000000D03*
X65355000Y-76845000D03*
X50500000Y-49750000D03*
X51600000Y-53950000D03*
X49750000Y-52750000D03*
X48700000Y-71700000D03*
X56750000Y-61600000D03*
X69300000Y-88200000D03*
X58500000Y-70150000D03*
X65250000Y-96000000D03*
X54150000Y-53950000D03*
X59850000Y-83400000D03*
X56300000Y-67950000D03*
X62950000Y-72900000D03*
X45250000Y-41000000D03*
X36750000Y-43500000D03*
X55000000Y-91850000D03*
X44000000Y-54750000D03*
X41250000Y-62500000D03*
X41000000Y-67000000D03*
X55500000Y-47000000D03*
X58500000Y-67950000D03*
X45250000Y-51000000D03*
X51600000Y-58150000D03*
X56500000Y-62600000D03*
X56900000Y-54000000D03*
X51650000Y-61550000D03*
X60000000Y-52250000D03*
X57400000Y-69000000D03*
X51000000Y-83150000D03*
X53750000Y-49250000D03*
X59250000Y-53950000D03*
X39000000Y-56000000D03*
X40250000Y-49000000D03*
X61350000Y-53950000D03*
X61400000Y-61550000D03*
X49400000Y-68050000D03*
X57725000Y-51975000D03*
X53500000Y-75550000D03*
D15*
X49000000Y-86500000D03*
D14*
X43000000Y-64750000D03*
X71100000Y-55300000D03*
X57250000Y-75000000D03*
%TO.N,/Vmain*%
X54875500Y-68050000D03*
X57457337Y-62602950D03*
X52000000Y-49500000D03*
X61095000Y-80655000D03*
X44950000Y-73550000D03*
X47250000Y-42750000D03*
X48250500Y-61000000D03*
X53500000Y-73450000D03*
X59810000Y-71400000D03*
X47250000Y-51500000D03*
X42700000Y-73550000D03*
X66990000Y-52260000D03*
X42250000Y-63000000D03*
X71100000Y-56300000D03*
X39875000Y-61375000D03*
X48000000Y-57500000D03*
X57200000Y-71550000D03*
X46125000Y-69375000D03*
%TO.N,/VBUS*%
X70350000Y-84750000D03*
X51375000Y-96625000D03*
X55450000Y-87300000D03*
X68550000Y-91500000D03*
X53900000Y-87300000D03*
X61000000Y-86100000D03*
%TO.N,/VO*%
X60800000Y-94200000D03*
X66500000Y-86000000D03*
%TO.N,/VDD_PA*%
X39250000Y-57750000D03*
X37750000Y-61000000D03*
D15*
%TO.N,/CSN*%
X45000000Y-61250000D03*
X46250000Y-61500000D03*
%TO.N,/SCK*%
X45000000Y-59500000D03*
X47750000Y-65750000D03*
%TO.N,/GPIO 16*%
X52000000Y-53000000D03*
X65450000Y-42750000D03*
%TO.N,/GPIO 17*%
X64500000Y-42750000D03*
X52000000Y-52250000D03*
%TO.N,/IMU SDA {slash} GPIO 18*%
X51750000Y-66250000D03*
X47750000Y-45250000D03*
X49250000Y-63750000D03*
%TO.N,/IMU SCL {slash} GPIO 19*%
X47841329Y-44537011D03*
X52500000Y-66750000D03*
X50750000Y-64500000D03*
%TO.N,/External ADC SDA {slash} GPIO 20*%
X66000000Y-54250000D03*
X49750000Y-69750000D03*
%TO.N,/External ADC SCL {slash} GPIO 21*%
X66000000Y-55250000D03*
X50750000Y-70500000D03*
%TO.N,/ADC 1*%
X54778479Y-70005921D03*
X54500000Y-39500000D03*
%TO.N,/ADC 2*%
X52750000Y-70250000D03*
X53500000Y-43000000D03*
%TO.N,/ADC 3*%
X52500000Y-39500000D03*
X54750000Y-70750000D03*
%TO.N,/ADC 4*%
X51500000Y-43000000D03*
X52250000Y-70750000D03*
%TO.N,/CE*%
X47250000Y-62000000D03*
X44250000Y-61250000D03*
X59250000Y-64500000D03*
X52000000Y-65000000D03*
%TO.N,/SWCLK*%
X56150000Y-66600000D03*
X63800000Y-58300000D03*
%TO.N,/SWD*%
X67150000Y-57300000D03*
X55500000Y-66600000D03*
%TO.N,/AUX_CL*%
X48450000Y-42700000D03*
X47500000Y-49750000D03*
%TO.N,/RUN*%
X55000000Y-63250000D03*
X60250000Y-62500000D03*
D14*
X50750000Y-39250000D03*
D15*
%TO.N,/CC2*%
X47000000Y-88750000D03*
X50750000Y-95500000D03*
D14*
%TO.N,/R18-Power_on*%
X65400000Y-84500000D03*
X43900000Y-76650000D03*
%TD*%
D16*
%TO.N,/Vmain*%
X54750000Y-72000000D02*
X56750000Y-72000000D01*
X53500000Y-73050000D02*
X53500000Y-73450000D01*
X53500000Y-73450000D02*
X53500000Y-73250000D01*
X56750000Y-72000000D02*
X57200000Y-71550000D01*
X53500000Y-73250000D02*
X54750000Y-72000000D01*
%TO.N,/VO*%
X66500000Y-86000000D02*
X65400000Y-86000000D01*
X62800000Y-94200000D02*
X60800000Y-94200000D01*
X63900000Y-87500000D02*
X63900000Y-93100000D01*
X63900000Y-93100000D02*
X62800000Y-94200000D01*
X65400000Y-86000000D02*
X63900000Y-87500000D01*
%TO.N,/VDD_PA*%
X37750000Y-61000000D02*
X38750000Y-61000000D01*
X39250000Y-60500000D02*
X39250000Y-57750000D01*
X38750000Y-61000000D02*
X39250000Y-60500000D01*
D17*
%TO.N,/CSN*%
X45500000Y-61500000D02*
X46250000Y-61500000D01*
X45250000Y-61250000D02*
X45500000Y-61500000D01*
X45000000Y-61250000D02*
X45250000Y-61250000D01*
%TO.N,/SCK*%
X45000000Y-59835319D02*
X43750000Y-61085319D01*
X43750000Y-61085319D02*
X43750000Y-61750000D01*
X43750000Y-61750000D02*
X47750000Y-65750000D01*
X45000000Y-59500000D02*
X45000000Y-59835319D01*
%TO.N,/GPIO 16*%
X52000000Y-53000000D02*
X54750000Y-50250000D01*
X60250000Y-46500000D02*
X63250000Y-46500000D01*
X54750000Y-50250000D02*
X56500000Y-50250000D01*
X56500000Y-50250000D02*
X60250000Y-46500000D01*
X63250000Y-46500000D02*
X65450000Y-44300000D01*
X65450000Y-44300000D02*
X65450000Y-42750000D01*
%TO.N,/GPIO 17*%
X56075000Y-49925000D02*
X60000000Y-46000000D01*
X64500000Y-44250000D02*
X64500000Y-42750000D01*
X54325000Y-49925000D02*
X56075000Y-49925000D01*
X60000000Y-46000000D02*
X62750000Y-46000000D01*
X52000000Y-52250000D02*
X54325000Y-49925000D01*
X62750000Y-46000000D02*
X64500000Y-44250000D01*
%TO.N,/IMU SDA {slash} GPIO 18*%
X48825000Y-54075000D02*
X48825000Y-63325000D01*
X48500000Y-47250000D02*
X48825000Y-47575000D01*
X47750000Y-45250000D02*
X47750000Y-46500000D01*
X48825000Y-47575000D02*
X48825000Y-54075000D01*
X48825000Y-63325000D02*
X51750000Y-66250000D01*
X47750000Y-46500000D02*
X48500000Y-47250000D01*
%TO.N,/IMU SCL {slash} GPIO 19*%
X49339681Y-63175000D02*
X49339681Y-54489681D01*
X49175000Y-47425000D02*
X48220000Y-46470000D01*
X48220000Y-44915682D02*
X47841329Y-44537011D01*
X49175000Y-54325000D02*
X49175000Y-47425000D01*
X52500000Y-66750000D02*
X52500000Y-66335319D01*
X49339681Y-54489681D02*
X49175000Y-54325000D01*
X48220000Y-46470000D02*
X48220000Y-44915682D01*
X52500000Y-66335319D02*
X49339681Y-63175000D01*
%TO.N,/External ADC SDA {slash} GPIO 20*%
X66000000Y-54250000D02*
X68000000Y-56250000D01*
X68000000Y-56250000D02*
X68000000Y-62000000D01*
X59866727Y-67750000D02*
X55916727Y-71700000D01*
X62250000Y-67750000D02*
X59866727Y-67750000D01*
X68000000Y-62000000D02*
X62250000Y-67750000D01*
X50950000Y-71700000D02*
X49750000Y-70500000D01*
X49750000Y-70500000D02*
X49750000Y-69750000D01*
X55916727Y-71700000D02*
X50950000Y-71700000D01*
%TO.N,/External ADC SCL {slash} GPIO 21*%
X66000000Y-55485319D02*
X66000000Y-55250000D01*
X59943173Y-67320000D02*
X62180000Y-67320000D01*
X67620000Y-61880000D02*
X67620000Y-57105319D01*
X62180000Y-67320000D02*
X67620000Y-61880000D01*
X50750000Y-70500000D02*
X51500000Y-71250000D01*
X51500000Y-71250000D02*
X55000000Y-71250000D01*
X56513173Y-70750000D02*
X59943173Y-67320000D01*
X67620000Y-57105319D02*
X66000000Y-55485319D01*
X55500000Y-70750000D02*
X56513173Y-70750000D01*
X55000000Y-71250000D02*
X55500000Y-70750000D01*
%TO.N,/ADC 1*%
X54778479Y-70005921D02*
X54778479Y-69278479D01*
X64750000Y-56000000D02*
X64750000Y-48000000D01*
X67750000Y-40000000D02*
X67000000Y-39250000D01*
X54778479Y-69278479D02*
X54250000Y-68750000D01*
X63250000Y-65000000D02*
X63250000Y-57500000D01*
X54250000Y-66500000D02*
X54750000Y-66000000D01*
X63250000Y-57500000D02*
X64750000Y-56000000D01*
X54750000Y-66000000D02*
X62250000Y-66000000D01*
X62250000Y-66000000D02*
X63250000Y-65000000D01*
X64750000Y-48000000D02*
X67750000Y-45000000D01*
X67000000Y-39250000D02*
X65750000Y-39250000D01*
X54750000Y-39250000D02*
X65750000Y-39250000D01*
X67750000Y-45000000D02*
X67750000Y-40000000D01*
X54250000Y-68750000D02*
X54250000Y-66500000D01*
X54500000Y-39500000D02*
X54750000Y-39250000D01*
X66000000Y-39250000D02*
X65750000Y-39250000D01*
%TO.N,/ADC 2*%
X62750000Y-57146447D02*
X64250000Y-55646447D01*
X53750000Y-42500000D02*
X53500000Y-42750000D01*
X53500000Y-42750000D02*
X53500000Y-43000000D01*
X54542893Y-65500000D02*
X61750000Y-65500000D01*
X61750000Y-65500000D02*
X62750000Y-64500000D01*
X55250000Y-41000000D02*
X53750000Y-42500000D01*
X52750000Y-70250000D02*
X52750000Y-69500000D01*
X62750000Y-64500000D02*
X62750000Y-57146447D01*
X55250000Y-40500000D02*
X55250000Y-41000000D01*
X67250000Y-44750000D02*
X67250000Y-40353554D01*
X55948223Y-39801777D02*
X55250000Y-40500000D01*
X53500000Y-66542892D02*
X54542893Y-65500000D01*
X67250000Y-40353554D02*
X66698223Y-39801777D01*
X53500000Y-68750000D02*
X53500000Y-66542892D01*
X64250000Y-47750000D02*
X67250000Y-44750000D01*
X66698223Y-39801777D02*
X55948223Y-39801777D01*
X64250000Y-55646447D02*
X64250000Y-47750000D01*
X52750000Y-69500000D02*
X53500000Y-68750000D01*
%TO.N,/ADC 3*%
X64500000Y-47896446D02*
X64500000Y-55750000D01*
X54250000Y-70250000D02*
X54750000Y-70750000D01*
X53750000Y-68750000D02*
X54250000Y-69250000D01*
X67500000Y-40250000D02*
X67500000Y-44896446D01*
X54646446Y-65750000D02*
X53750000Y-66646446D01*
X54250000Y-69250000D02*
X54250000Y-70250000D01*
X64500000Y-55750000D02*
X63000000Y-57250000D01*
X53750000Y-40750000D02*
X54750000Y-40750000D01*
X66750000Y-39500000D02*
X67500000Y-40250000D01*
X54750000Y-40750000D02*
X55000000Y-40500000D01*
X67500000Y-44896446D02*
X64500000Y-47896446D01*
X53750000Y-66646446D02*
X53750000Y-68750000D01*
X55000000Y-39750000D02*
X55250000Y-39500000D01*
X55250000Y-39500000D02*
X66750000Y-39500000D01*
X62000000Y-65750000D02*
X54646446Y-65750000D01*
X52500000Y-39500000D02*
X53750000Y-40750000D01*
X63000000Y-64750000D02*
X62000000Y-65750000D01*
X55000000Y-40500000D02*
X55000000Y-39750000D01*
X63000000Y-57250000D02*
X63000000Y-64750000D01*
%TO.N,/ADC 4*%
X64000000Y-47646446D02*
X66948223Y-44698223D01*
X52250000Y-69646446D02*
X52948223Y-68948223D01*
X62500000Y-64250000D02*
X62500000Y-57000000D01*
X51750000Y-44000000D02*
X51500000Y-43750000D01*
X66500000Y-40051777D02*
X56448223Y-40051777D01*
X52948223Y-68948223D02*
X53250000Y-68646446D01*
X56448223Y-40051777D02*
X55750000Y-40750000D01*
X53000000Y-44000000D02*
X51750000Y-44000000D01*
X55750000Y-40750000D02*
X55750000Y-43000000D01*
X53250000Y-66250000D02*
X54250000Y-65250000D01*
X61500000Y-65250000D02*
X62500000Y-64250000D01*
X51500000Y-43750000D02*
X51500000Y-43000000D01*
X62750000Y-56750000D02*
X64000000Y-55500000D01*
X66948223Y-44698223D02*
X66948223Y-40448223D01*
X64000000Y-55500000D02*
X64000000Y-47750000D01*
X52250000Y-70750000D02*
X52250000Y-69646446D01*
X54750000Y-44000000D02*
X53000000Y-44000000D01*
X55750000Y-43000000D02*
X54750000Y-44000000D01*
X54250000Y-65250000D02*
X61500000Y-65250000D01*
X53250000Y-68646446D02*
X53250000Y-66250000D01*
X64000000Y-47750000D02*
X64000000Y-47646446D01*
X66948223Y-40448223D02*
X66551777Y-40051777D01*
X66551777Y-40051777D02*
X66500000Y-40051777D01*
X62500000Y-57000000D02*
X62750000Y-56750000D01*
%TO.N,/CE*%
X52000000Y-64750000D02*
X52000000Y-65000000D01*
X52250000Y-64500000D02*
X52000000Y-64750000D01*
X47250000Y-62000000D02*
X45000000Y-62000000D01*
X45000000Y-62000000D02*
X44250000Y-61250000D01*
X59250000Y-64500000D02*
X52250000Y-64500000D01*
%TO.N,/SWCLK*%
X63800000Y-58300000D02*
X63800000Y-64896446D01*
X63800000Y-64896446D02*
X61876446Y-66820000D01*
X56370000Y-66820000D02*
X61876446Y-66820000D01*
X56150000Y-66600000D02*
X56370000Y-66820000D01*
%TO.N,/SWD*%
X55500000Y-66614681D02*
X55500000Y-66600000D01*
X55955319Y-67070000D02*
X55500000Y-66614681D01*
X66500000Y-57300000D02*
X65500000Y-58300000D01*
X67150000Y-57300000D02*
X66500000Y-57300000D01*
X65500000Y-63550000D02*
X61980000Y-67070000D01*
X65500000Y-58300000D02*
X65500000Y-63550000D01*
X61980000Y-67070000D02*
X55955319Y-67070000D01*
%TO.N,/AUX_CL*%
X46500000Y-49500000D02*
X46750000Y-49750000D01*
X48450000Y-42700000D02*
X48450000Y-43050000D01*
X46500000Y-45000000D02*
X46500000Y-49500000D01*
X46750000Y-49750000D02*
X47500000Y-49750000D01*
X48450000Y-43050000D02*
X46500000Y-45000000D01*
%TO.N,/RUN*%
X50250000Y-39750000D02*
X50250000Y-47500000D01*
X49750000Y-54000000D02*
X49750000Y-61500000D01*
X49750000Y-61500000D02*
X50750000Y-62500000D01*
X59250000Y-63500000D02*
X55250000Y-63500000D01*
X51500000Y-63250000D02*
X55000000Y-63250000D01*
X51250000Y-50500000D02*
X51250000Y-52500000D01*
X50250000Y-47500000D02*
X51250000Y-48500000D01*
X60250000Y-62500000D02*
X59250000Y-63500000D01*
X51250000Y-48500000D02*
X51250000Y-50500000D01*
X50750000Y-62500000D02*
X51500000Y-63250000D01*
X51250000Y-52500000D02*
X49750000Y-54000000D01*
X50750000Y-39250000D02*
X50250000Y-39750000D01*
X55250000Y-63500000D02*
X55000000Y-63250000D01*
%TO.N,/CC2*%
X47000000Y-96250000D02*
X47500000Y-96750000D01*
X47500000Y-96750000D02*
X50250000Y-96750000D01*
X47000000Y-88750000D02*
X47000000Y-96250000D01*
X50250000Y-96750000D02*
X50750000Y-96250000D01*
X50750000Y-96250000D02*
X50750000Y-95500000D01*
D16*
%TO.N,/R18-Power_on*%
X43900000Y-80200000D02*
X43900000Y-76650000D01*
X54650000Y-84500000D02*
X53150000Y-83000000D01*
X46000000Y-82300000D02*
X43900000Y-80200000D01*
X65400000Y-84500000D02*
X54650000Y-84500000D01*
X53150000Y-83000000D02*
X52450000Y-82300000D01*
X52450000Y-82300000D02*
X46000000Y-82300000D01*
%TD*%
%TA.AperFunction,NonConductor*%
G36*
X53678081Y-53520002D02*
G01*
X53724574Y-53573658D01*
X53734678Y-53643932D01*
X53724015Y-53679548D01*
X53666447Y-53802163D01*
X53644391Y-53943823D01*
X53645555Y-53952725D01*
X53645555Y-53952728D01*
X53646814Y-53962354D01*
X53662980Y-54085979D01*
X53666597Y-54094199D01*
X53692793Y-54153733D01*
X53720720Y-54217203D01*
X53726497Y-54224076D01*
X53726498Y-54224077D01*
X53784917Y-54293575D01*
X53812970Y-54326948D01*
X53932313Y-54406390D01*
X54069157Y-54449142D01*
X54078129Y-54449306D01*
X54078132Y-54449307D01*
X54143463Y-54450504D01*
X54212499Y-54451770D01*
X54221533Y-54449307D01*
X54342158Y-54416421D01*
X54342160Y-54416420D01*
X54350817Y-54414060D01*
X54472991Y-54339045D01*
X54480583Y-54330658D01*
X54563178Y-54239407D01*
X54569200Y-54232754D01*
X54611774Y-54144881D01*
X54627795Y-54111814D01*
X54627795Y-54111813D01*
X54631710Y-54103733D01*
X54655496Y-53962354D01*
X54655647Y-53950000D01*
X54643756Y-53866968D01*
X54636596Y-53816968D01*
X54636595Y-53816965D01*
X54635323Y-53808082D01*
X54576247Y-53678150D01*
X54566261Y-53607861D01*
X54595861Y-53543329D01*
X54655651Y-53505045D01*
X54690948Y-53500000D01*
X56394399Y-53500000D01*
X56462520Y-53520002D01*
X56509013Y-53573658D01*
X56519117Y-53643932D01*
X56488842Y-53709406D01*
X56477377Y-53722388D01*
X56416447Y-53852163D01*
X56415066Y-53861035D01*
X56399291Y-53962354D01*
X56394391Y-53993823D01*
X56395555Y-54002725D01*
X56395555Y-54002728D01*
X56396814Y-54012354D01*
X56412980Y-54135979D01*
X56470720Y-54267203D01*
X56476497Y-54274076D01*
X56476498Y-54274077D01*
X56557190Y-54370072D01*
X56562970Y-54376948D01*
X56570447Y-54381925D01*
X56671425Y-54449142D01*
X56682313Y-54456390D01*
X56819157Y-54499142D01*
X56828129Y-54499306D01*
X56828132Y-54499307D01*
X56893463Y-54500504D01*
X56962499Y-54501770D01*
X56971533Y-54499307D01*
X57092158Y-54466421D01*
X57092160Y-54466420D01*
X57100817Y-54464060D01*
X57222991Y-54389045D01*
X57319200Y-54282754D01*
X57381710Y-54153733D01*
X57405496Y-54012354D01*
X57405647Y-54000000D01*
X57396331Y-53934950D01*
X57386596Y-53866968D01*
X57386595Y-53866965D01*
X57385323Y-53858082D01*
X57325984Y-53727572D01*
X57309334Y-53708249D01*
X57280019Y-53643587D01*
X57290318Y-53573341D01*
X57336959Y-53519814D01*
X57404786Y-53500000D01*
X58709960Y-53500000D01*
X58778081Y-53520002D01*
X58824574Y-53573658D01*
X58834678Y-53643932D01*
X58824015Y-53679548D01*
X58766447Y-53802163D01*
X58744391Y-53943823D01*
X58745555Y-53952725D01*
X58745555Y-53952728D01*
X58746814Y-53962354D01*
X58762980Y-54085979D01*
X58766597Y-54094199D01*
X58792793Y-54153733D01*
X58820720Y-54217203D01*
X58826497Y-54224076D01*
X58826498Y-54224077D01*
X58884917Y-54293575D01*
X58912970Y-54326948D01*
X59032313Y-54406390D01*
X59169157Y-54449142D01*
X59178129Y-54449306D01*
X59178132Y-54449307D01*
X59243463Y-54450504D01*
X59312499Y-54451770D01*
X59321533Y-54449307D01*
X59442158Y-54416421D01*
X59442160Y-54416420D01*
X59450817Y-54414060D01*
X59572991Y-54339045D01*
X59580583Y-54330658D01*
X59663178Y-54239407D01*
X59669200Y-54232754D01*
X59711774Y-54144881D01*
X59727795Y-54111814D01*
X59727795Y-54111813D01*
X59731710Y-54103733D01*
X59755496Y-53962354D01*
X59755647Y-53950000D01*
X59743756Y-53866968D01*
X59736596Y-53816968D01*
X59736595Y-53816965D01*
X59735323Y-53808082D01*
X59676247Y-53678150D01*
X59666261Y-53607861D01*
X59695861Y-53543329D01*
X59755651Y-53505045D01*
X59790948Y-53500000D01*
X60809960Y-53500000D01*
X60878081Y-53520002D01*
X60924574Y-53573658D01*
X60934678Y-53643932D01*
X60924015Y-53679548D01*
X60866447Y-53802163D01*
X60844391Y-53943823D01*
X60845555Y-53952725D01*
X60845555Y-53952728D01*
X60846814Y-53962354D01*
X60862980Y-54085979D01*
X60866597Y-54094199D01*
X60892793Y-54153733D01*
X60920720Y-54217203D01*
X60926497Y-54224076D01*
X60926498Y-54224077D01*
X60984917Y-54293575D01*
X61012970Y-54326948D01*
X61132313Y-54406390D01*
X61269157Y-54449142D01*
X61278129Y-54449306D01*
X61278132Y-54449307D01*
X61343463Y-54450504D01*
X61412499Y-54451770D01*
X61421533Y-54449307D01*
X61542158Y-54416421D01*
X61542160Y-54416420D01*
X61550817Y-54414060D01*
X61672991Y-54339045D01*
X61679436Y-54331925D01*
X61680583Y-54330658D01*
X61682560Y-54329447D01*
X61685923Y-54326655D01*
X61686326Y-54327140D01*
X61741125Y-54293575D01*
X61812105Y-54295111D01*
X61870987Y-54334778D01*
X61899076Y-54399982D01*
X61900000Y-54415211D01*
X61900000Y-57523594D01*
X61879998Y-57591715D01*
X61826342Y-57638208D01*
X61773230Y-57649592D01*
X61721764Y-57649278D01*
X61681376Y-57649031D01*
X61543529Y-57688428D01*
X61422280Y-57764930D01*
X61327377Y-57872388D01*
X61266447Y-58002163D01*
X61244391Y-58143823D01*
X61245555Y-58152725D01*
X61245555Y-58152728D01*
X61246814Y-58162354D01*
X61262980Y-58285979D01*
X61320720Y-58417203D01*
X61326497Y-58424076D01*
X61326498Y-58424077D01*
X61333792Y-58432754D01*
X61412970Y-58526948D01*
X61532313Y-58606390D01*
X61669157Y-58649142D01*
X61678130Y-58649307D01*
X61678133Y-58649307D01*
X61776310Y-58651107D01*
X61844053Y-58672355D01*
X61889554Y-58726854D01*
X61900000Y-58777086D01*
X61900000Y-61045775D01*
X61879998Y-61113896D01*
X61826342Y-61160389D01*
X61756068Y-61170493D01*
X61705471Y-61151509D01*
X61612095Y-61090985D01*
X61474739Y-61049907D01*
X61465763Y-61049852D01*
X61465762Y-61049852D01*
X61405555Y-61049484D01*
X61331376Y-61049031D01*
X61193529Y-61088428D01*
X61072280Y-61164930D01*
X61066338Y-61171658D01*
X61066337Y-61171659D01*
X61028122Y-61214930D01*
X60977377Y-61272388D01*
X60916447Y-61402163D01*
X60894391Y-61543823D01*
X60895555Y-61552725D01*
X60895555Y-61552728D01*
X60896814Y-61562354D01*
X60912980Y-61685979D01*
X60949605Y-61769215D01*
X60970720Y-61817203D01*
X60969054Y-61817936D01*
X60985144Y-61875825D01*
X60964157Y-61943649D01*
X60909833Y-61989360D01*
X60859157Y-62000000D01*
X57313450Y-62000000D01*
X57245329Y-61979998D01*
X57198836Y-61926342D01*
X57188732Y-61856068D01*
X57200058Y-61819062D01*
X57231710Y-61753733D01*
X57255496Y-61612354D01*
X57255647Y-61600000D01*
X57235323Y-61458082D01*
X57175984Y-61327572D01*
X57122636Y-61265659D01*
X57088260Y-61225763D01*
X57088257Y-61225760D01*
X57082400Y-61218963D01*
X56962095Y-61140985D01*
X56824739Y-61099907D01*
X56815763Y-61099852D01*
X56815762Y-61099852D01*
X56755555Y-61099484D01*
X56681376Y-61099031D01*
X56543529Y-61138428D01*
X56422280Y-61214930D01*
X56327377Y-61322388D01*
X56266447Y-61452163D01*
X56265066Y-61461035D01*
X56249291Y-61562354D01*
X56244391Y-61593823D01*
X56245555Y-61602725D01*
X56245555Y-61602728D01*
X56246814Y-61612354D01*
X56262980Y-61735979D01*
X56266597Y-61744199D01*
X56301382Y-61823254D01*
X56310510Y-61893661D01*
X56280123Y-61957826D01*
X56219870Y-61995377D01*
X56186053Y-62000000D01*
X52189226Y-62000000D01*
X52121105Y-61979998D01*
X52074612Y-61926342D01*
X52064508Y-61856068D01*
X52075834Y-61819062D01*
X52127795Y-61711814D01*
X52127795Y-61711813D01*
X52131710Y-61703733D01*
X52155496Y-61562354D01*
X52155647Y-61550000D01*
X52143756Y-61466968D01*
X52136596Y-61416968D01*
X52136595Y-61416965D01*
X52135323Y-61408082D01*
X52075984Y-61277572D01*
X52057598Y-61256234D01*
X51988260Y-61175763D01*
X51988257Y-61175760D01*
X51982400Y-61168963D01*
X51862095Y-61090985D01*
X51724739Y-61049907D01*
X51715763Y-61049852D01*
X51715762Y-61049852D01*
X51655555Y-61049484D01*
X51581376Y-61049031D01*
X51443529Y-61088428D01*
X51426724Y-61099031D01*
X51343235Y-61151708D01*
X51274950Y-61171142D01*
X51206998Y-61150572D01*
X51160954Y-61096531D01*
X51150000Y-61045146D01*
X51150000Y-58686984D01*
X51170002Y-58618863D01*
X51223658Y-58572370D01*
X51293932Y-58562266D01*
X51345816Y-58582096D01*
X51382313Y-58606390D01*
X51519157Y-58649142D01*
X51528129Y-58649306D01*
X51528132Y-58649307D01*
X51593463Y-58650504D01*
X51662499Y-58651770D01*
X51671533Y-58649307D01*
X51792158Y-58616421D01*
X51792160Y-58616420D01*
X51800817Y-58614060D01*
X51922991Y-58539045D01*
X52019200Y-58432754D01*
X52081710Y-58303733D01*
X52105496Y-58162354D01*
X52105647Y-58150000D01*
X52085323Y-58008082D01*
X52025984Y-57877572D01*
X52007598Y-57856234D01*
X51938260Y-57775763D01*
X51938257Y-57775760D01*
X51932400Y-57768963D01*
X51812095Y-57690985D01*
X51674739Y-57649907D01*
X51665763Y-57649852D01*
X51665762Y-57649852D01*
X51605555Y-57649484D01*
X51531376Y-57649031D01*
X51393529Y-57688428D01*
X51345034Y-57719026D01*
X51343235Y-57720161D01*
X51274950Y-57739595D01*
X51206998Y-57719026D01*
X51160954Y-57664985D01*
X51150000Y-57613599D01*
X51150000Y-54486984D01*
X51170002Y-54418863D01*
X51223658Y-54372370D01*
X51293932Y-54362266D01*
X51345816Y-54382096D01*
X51382313Y-54406390D01*
X51519157Y-54449142D01*
X51528129Y-54449306D01*
X51528132Y-54449307D01*
X51593463Y-54450504D01*
X51662499Y-54451770D01*
X51671533Y-54449307D01*
X51792158Y-54416421D01*
X51792160Y-54416420D01*
X51800817Y-54414060D01*
X51922991Y-54339045D01*
X51930583Y-54330658D01*
X52013178Y-54239407D01*
X52019200Y-54232754D01*
X52061774Y-54144881D01*
X52077795Y-54111814D01*
X52077795Y-54111813D01*
X52081710Y-54103733D01*
X52105496Y-53962354D01*
X52105647Y-53950000D01*
X52093756Y-53866968D01*
X52086596Y-53816968D01*
X52086595Y-53816965D01*
X52085323Y-53808082D01*
X52026247Y-53678150D01*
X52016261Y-53607861D01*
X52045861Y-53543329D01*
X52105651Y-53505045D01*
X52140948Y-53500000D01*
X53609960Y-53500000D01*
X53678081Y-53520002D01*
G37*
%TD.AperFunction*%
%TA.AperFunction,Conductor*%
%TO.N,GND*%
G36*
X45692121Y-50270002D02*
G01*
X45738614Y-50323658D01*
X45750000Y-50376000D01*
X45750000Y-56624000D01*
X45729998Y-56692121D01*
X45676342Y-56738614D01*
X45624000Y-56750000D01*
X38626000Y-56750000D01*
X38557879Y-56729998D01*
X38511386Y-56676342D01*
X38500000Y-56624000D01*
X38500000Y-55126000D01*
X38520002Y-55057879D01*
X38573658Y-55011386D01*
X38626000Y-55000000D01*
X39500000Y-55000000D01*
X39500000Y-51876000D01*
X39520002Y-51807879D01*
X39573658Y-51761386D01*
X39626000Y-51750000D01*
X41000000Y-51750000D01*
X41471282Y-50336155D01*
X41511799Y-50277855D01*
X41577404Y-50250716D01*
X41590816Y-50250000D01*
X45624000Y-50250000D01*
X45692121Y-50270002D01*
G37*
%TD.AperFunction*%
%TD*%
M02*
