%TF.GenerationSoftware,KiCad,Pcbnew,(6.0.7)*%
%TF.CreationDate,2022-11-29T14:59:17+08:00*%
%TF.ProjectId,Rp2040 wearable dev boards w wireless,52703230-3430-4207-9765-617261626c65,rev?*%
%TF.SameCoordinates,Original*%
%TF.FileFunction,Copper,L1,Top*%
%TF.FilePolarity,Positive*%
%FSLAX46Y46*%
G04 Gerber Fmt 4.6, Leading zero omitted, Abs format (unit mm)*
G04 Created by KiCad (PCBNEW (6.0.7)) date 2022-11-29 14:59:17*
%MOMM*%
%LPD*%
G01*
G04 APERTURE LIST*
G04 Aperture macros list*
%AMRoundRect*
0 Rectangle with rounded corners*
0 $1 Rounding radius*
0 $2 $3 $4 $5 $6 $7 $8 $9 X,Y pos of 4 corners*
0 Add a 4 corners polygon primitive as box body*
4,1,4,$2,$3,$4,$5,$6,$7,$8,$9,$2,$3,0*
0 Add four circle primitives for the rounded corners*
1,1,$1+$1,$2,$3*
1,1,$1+$1,$4,$5*
1,1,$1+$1,$6,$7*
1,1,$1+$1,$8,$9*
0 Add four rect primitives between the rounded corners*
20,1,$1+$1,$2,$3,$4,$5,0*
20,1,$1+$1,$4,$5,$6,$7,0*
20,1,$1+$1,$6,$7,$8,$9,0*
20,1,$1+$1,$8,$9,$2,$3,0*%
G04 Aperture macros list end*
%TA.AperFunction,SMDPad,CuDef*%
%ADD10RoundRect,0.135000X-0.135000X-0.185000X0.135000X-0.185000X0.135000X0.185000X-0.135000X0.185000X0*%
%TD*%
%TA.AperFunction,SMDPad,CuDef*%
%ADD11RoundRect,0.075000X0.075000X-0.125000X0.075000X0.125000X-0.075000X0.125000X-0.075000X-0.125000X0*%
%TD*%
%TA.AperFunction,SMDPad,CuDef*%
%ADD12RoundRect,0.135000X0.185000X-0.135000X0.185000X0.135000X-0.185000X0.135000X-0.185000X-0.135000X0*%
%TD*%
%TA.AperFunction,SMDPad,CuDef*%
%ADD13R,0.520000X1.000000*%
%TD*%
%TA.AperFunction,SMDPad,CuDef*%
%ADD14R,0.270000X1.000000*%
%TD*%
%TA.AperFunction,SMDPad,CuDef*%
%ADD15R,1.000000X2.000000*%
%TD*%
%TA.AperFunction,ComponentPad*%
%ADD16O,1.158000X2.316000*%
%TD*%
%TA.AperFunction,ComponentPad*%
%ADD17O,1.200000X2.400000*%
%TD*%
%TA.AperFunction,SMDPad,CuDef*%
%ADD18RoundRect,0.075000X-0.125000X-0.075000X0.125000X-0.075000X0.125000X0.075000X-0.125000X0.075000X0*%
%TD*%
%TA.AperFunction,SMDPad,CuDef*%
%ADD19RoundRect,0.135000X0.135000X0.185000X-0.135000X0.185000X-0.135000X-0.185000X0.135000X-0.185000X0*%
%TD*%
%TA.AperFunction,SMDPad,CuDef*%
%ADD20RoundRect,0.100000X-0.100000X0.130000X-0.100000X-0.130000X0.100000X-0.130000X0.100000X0.130000X0*%
%TD*%
%TA.AperFunction,SMDPad,CuDef*%
%ADD21RoundRect,0.100000X0.130000X0.100000X-0.130000X0.100000X-0.130000X-0.100000X0.130000X-0.100000X0*%
%TD*%
%TA.AperFunction,SMDPad,CuDef*%
%ADD22R,3.500000X2.400000*%
%TD*%
%TA.AperFunction,SMDPad,CuDef*%
%ADD23RoundRect,0.140000X0.170000X-0.140000X0.170000X0.140000X-0.170000X0.140000X-0.170000X-0.140000X0*%
%TD*%
%TA.AperFunction,SMDPad,CuDef*%
%ADD24RoundRect,0.100000X-0.100000X0.637500X-0.100000X-0.637500X0.100000X-0.637500X0.100000X0.637500X0*%
%TD*%
%TA.AperFunction,SMDPad,CuDef*%
%ADD25RoundRect,0.218750X0.256250X-0.218750X0.256250X0.218750X-0.256250X0.218750X-0.256250X-0.218750X0*%
%TD*%
%TA.AperFunction,SMDPad,CuDef*%
%ADD26RoundRect,0.250000X-1.500000X0.250000X-1.500000X-0.250000X1.500000X-0.250000X1.500000X0.250000X0*%
%TD*%
%TA.AperFunction,SMDPad,CuDef*%
%ADD27RoundRect,0.250001X-1.449999X0.499999X-1.449999X-0.499999X1.449999X-0.499999X1.449999X0.499999X0*%
%TD*%
%TA.AperFunction,SMDPad,CuDef*%
%ADD28RoundRect,0.250000X1.250000X0.550000X-1.250000X0.550000X-1.250000X-0.550000X1.250000X-0.550000X0*%
%TD*%
%TA.AperFunction,SMDPad,CuDef*%
%ADD29RoundRect,0.140000X0.140000X0.170000X-0.140000X0.170000X-0.140000X-0.170000X0.140000X-0.170000X0*%
%TD*%
%TA.AperFunction,SMDPad,CuDef*%
%ADD30R,0.660400X0.203200*%
%TD*%
%TA.AperFunction,SMDPad,CuDef*%
%ADD31R,0.203200X0.660400*%
%TD*%
%TA.AperFunction,SMDPad,CuDef*%
%ADD32R,1.752600X1.600200*%
%TD*%
%TA.AperFunction,SMDPad,CuDef*%
%ADD33RoundRect,0.135000X-0.185000X0.135000X-0.185000X-0.135000X0.185000X-0.135000X0.185000X0.135000X0*%
%TD*%
%TA.AperFunction,SMDPad,CuDef*%
%ADD34R,0.850000X0.300000*%
%TD*%
%TA.AperFunction,SMDPad,CuDef*%
%ADD35R,0.300000X0.850000*%
%TD*%
%TA.AperFunction,SMDPad,CuDef*%
%ADD36R,2.700000X2.700000*%
%TD*%
%TA.AperFunction,SMDPad,CuDef*%
%ADD37RoundRect,0.218750X0.218750X0.256250X-0.218750X0.256250X-0.218750X-0.256250X0.218750X-0.256250X0*%
%TD*%
%TA.AperFunction,SMDPad,CuDef*%
%ADD38RoundRect,0.150000X0.650000X0.150000X-0.650000X0.150000X-0.650000X-0.150000X0.650000X-0.150000X0*%
%TD*%
%TA.AperFunction,SMDPad,CuDef*%
%ADD39RoundRect,0.250000X-0.325000X-0.650000X0.325000X-0.650000X0.325000X0.650000X-0.325000X0.650000X0*%
%TD*%
%TA.AperFunction,SMDPad,CuDef*%
%ADD40R,2.500000X1.800000*%
%TD*%
%TA.AperFunction,SMDPad,CuDef*%
%ADD41RoundRect,0.150000X-0.150000X0.512500X-0.150000X-0.512500X0.150000X-0.512500X0.150000X0.512500X0*%
%TD*%
%TA.AperFunction,SMDPad,CuDef*%
%ADD42RoundRect,0.100000X0.100000X-0.130000X0.100000X0.130000X-0.100000X0.130000X-0.100000X-0.130000X0*%
%TD*%
%TA.AperFunction,SMDPad,CuDef*%
%ADD43RoundRect,0.147500X-0.172500X0.147500X-0.172500X-0.147500X0.172500X-0.147500X0.172500X0.147500X0*%
%TD*%
%TA.AperFunction,SMDPad,CuDef*%
%ADD44RoundRect,0.075000X-0.075000X0.125000X-0.075000X-0.125000X0.075000X-0.125000X0.075000X0.125000X0*%
%TD*%
%TA.AperFunction,SMDPad,CuDef*%
%ADD45RoundRect,0.050000X0.387500X0.050000X-0.387500X0.050000X-0.387500X-0.050000X0.387500X-0.050000X0*%
%TD*%
%TA.AperFunction,SMDPad,CuDef*%
%ADD46RoundRect,0.050000X0.050000X0.387500X-0.050000X0.387500X-0.050000X-0.387500X0.050000X-0.387500X0*%
%TD*%
%TA.AperFunction,SMDPad,CuDef*%
%ADD47R,3.200000X3.200000*%
%TD*%
%TA.AperFunction,SMDPad,CuDef*%
%ADD48R,4.560000X0.850000*%
%TD*%
%TA.AperFunction,SMDPad,CuDef*%
%ADD49R,4.560000X1.000000*%
%TD*%
%TA.AperFunction,SMDPad,CuDef*%
%ADD50RoundRect,0.250000X-1.250000X-0.550000X1.250000X-0.550000X1.250000X0.550000X-1.250000X0.550000X0*%
%TD*%
%TA.AperFunction,SMDPad,CuDef*%
%ADD51R,0.900000X1.700000*%
%TD*%
%TA.AperFunction,SMDPad,CuDef*%
%ADD52R,0.800000X1.100000*%
%TD*%
%TA.AperFunction,SMDPad,CuDef*%
%ADD53RoundRect,0.150000X-0.587500X-0.150000X0.587500X-0.150000X0.587500X0.150000X-0.587500X0.150000X0*%
%TD*%
%TA.AperFunction,SMDPad,CuDef*%
%ADD54RoundRect,0.075000X0.125000X0.075000X-0.125000X0.075000X-0.125000X-0.075000X0.125000X-0.075000X0*%
%TD*%
%TA.AperFunction,SMDPad,CuDef*%
%ADD55R,0.610000X2.000000*%
%TD*%
%TA.AperFunction,SMDPad,CuDef*%
%ADD56R,2.680000X3.600000*%
%TD*%
%TA.AperFunction,SMDPad,CuDef*%
%ADD57R,1.400000X1.150000*%
%TD*%
%TA.AperFunction,SMDPad,CuDef*%
%ADD58RoundRect,0.100000X-0.130000X-0.100000X0.130000X-0.100000X0.130000X0.100000X-0.130000X0.100000X0*%
%TD*%
%TA.AperFunction,SMDPad,CuDef*%
%ADD59R,2.000000X0.610000*%
%TD*%
%TA.AperFunction,SMDPad,CuDef*%
%ADD60R,3.600000X2.680000*%
%TD*%
%TA.AperFunction,SMDPad,CuDef*%
%ADD61RoundRect,0.250000X1.500000X-0.250000X1.500000X0.250000X-1.500000X0.250000X-1.500000X-0.250000X0*%
%TD*%
%TA.AperFunction,SMDPad,CuDef*%
%ADD62RoundRect,0.250001X1.449999X-0.499999X1.449999X0.499999X-1.449999X0.499999X-1.449999X-0.499999X0*%
%TD*%
%TA.AperFunction,SMDPad,CuDef*%
%ADD63R,1.500000X2.000000*%
%TD*%
%TA.AperFunction,SMDPad,CuDef*%
%ADD64R,3.800000X2.000000*%
%TD*%
%TA.AperFunction,SMDPad,CuDef*%
%ADD65R,0.200000X0.565000*%
%TD*%
%TA.AperFunction,SMDPad,CuDef*%
%ADD66R,0.400000X0.565000*%
%TD*%
%TA.AperFunction,SMDPad,CuDef*%
%ADD67RoundRect,0.147500X0.172500X-0.147500X0.172500X0.147500X-0.172500X0.147500X-0.172500X-0.147500X0*%
%TD*%
%TA.AperFunction,ViaPad*%
%ADD68C,0.800000*%
%TD*%
%TA.AperFunction,ViaPad*%
%ADD69C,0.500000*%
%TD*%
%TA.AperFunction,Conductor*%
%ADD70C,0.250000*%
%TD*%
%TA.AperFunction,Conductor*%
%ADD71C,0.150000*%
%TD*%
%TA.AperFunction,Conductor*%
%ADD72C,0.300000*%
%TD*%
%TA.AperFunction,Conductor*%
%ADD73C,0.400000*%
%TD*%
%TA.AperFunction,Conductor*%
%ADD74C,0.200000*%
%TD*%
G04 APERTURE END LIST*
D10*
%TO.P,R2,1*%
%TO.N,/PROG*%
X71640000Y-89250000D03*
%TO.P,R2,2*%
%TO.N,GND*%
X72660000Y-89250000D03*
%TD*%
D11*
%TO.P,C30,1*%
%TO.N,/VDD_PA*%
X38500000Y-57750000D03*
%TO.P,C30,2*%
%TO.N,GND*%
X38500000Y-57250000D03*
%TD*%
D12*
%TO.P,R16,1*%
%TO.N,/Vmain*%
X48250000Y-60010000D03*
%TO.P,R16,2*%
%TO.N,/IMU SCL {slash} GPIO 19*%
X48250000Y-58990000D03*
%TD*%
D13*
%TO.P,J2,1,GND*%
%TO.N,GND*%
X46176000Y-94300000D03*
%TO.P,J2,2,VBUS*%
%TO.N,/VBUS*%
X46926000Y-94300000D03*
D14*
%TO.P,J2,3,CC1*%
%TO.N,/CC1*%
X47526000Y-94300000D03*
%TO.P,J2,4,SBU2*%
%TO.N,unconnected-(J2-Pad4)*%
X48026000Y-94300000D03*
%TO.P,J2,5,D-*%
%TO.N,/USB-*%
X48526000Y-94300000D03*
%TO.P,J2,6,D+*%
%TO.N,/USB+*%
X49026000Y-94300000D03*
%TO.P,J2,7,D+*%
X49526000Y-94300000D03*
%TO.P,J2,8,D-*%
%TO.N,/USB-*%
X50026000Y-94300000D03*
%TO.P,J2,9,CC2*%
%TO.N,/CC2*%
X50526000Y-94300000D03*
%TO.P,J2,10,SBU1*%
%TO.N,unconnected-(J2-Pad10)*%
X51026000Y-94300000D03*
D13*
%TO.P,J2,11,VBUS*%
%TO.N,/VBUS*%
X51626000Y-94300000D03*
%TO.P,J2,12,GND*%
%TO.N,GND*%
X52376000Y-94300000D03*
D15*
%TO.P,J2,S1,SHIELD*%
X47876000Y-98500000D03*
%TO.P,J2,S2,SHIELD*%
X50676000Y-98500000D03*
D16*
%TO.P,J2,S3,SHIELD*%
X44956000Y-94675000D03*
%TO.P,J2,S4,SHIELD*%
X53596000Y-94675000D03*
D17*
%TO.P,J2,S5,SHIELD*%
X44956000Y-98500000D03*
%TO.P,J2,S6,SHIELD*%
X53596000Y-98500000D03*
%TD*%
D18*
%TO.P,C32,1*%
%TO.N,/Antenna*%
X43250000Y-48000000D03*
%TO.P,C32,2*%
%TO.N,GND*%
X43750000Y-48000000D03*
%TD*%
D19*
%TO.P,R19,1*%
%TO.N,/Vmain*%
X47010000Y-57500000D03*
%TO.P,R19,2*%
%TO.N,Net-(IC1-Pad6)*%
X45990000Y-57500000D03*
%TD*%
D20*
%TO.P,C10,1*%
%TO.N,/Vmain*%
X53500000Y-74280000D03*
%TO.P,C10,2*%
%TO.N,GND*%
X53500000Y-74920000D03*
%TD*%
D21*
%TO.P,C14,1*%
%TO.N,/Vmain*%
X50820000Y-68050000D03*
%TO.P,C14,2*%
%TO.N,GND*%
X50180000Y-68050000D03*
%TD*%
D22*
%TO.P,Y1,1,1*%
%TO.N,/XOUTC*%
X54050000Y-58000000D03*
%TO.P,Y1,2,2*%
%TO.N,/XIN*%
X59250000Y-58000000D03*
%TD*%
D23*
%TO.P,C8,1*%
%TO.N,/VBUS*%
X52250000Y-88480000D03*
%TO.P,C8,2*%
%TO.N,GND*%
X52250000Y-87520000D03*
%TD*%
D24*
%TO.P,U6,1,CH0*%
%TO.N,/ACH0*%
X62275000Y-44887500D03*
%TO.P,U6,2,CH1*%
%TO.N,/ACH1*%
X61625000Y-44887500D03*
%TO.P,U6,3,CH2*%
%TO.N,/ACH2*%
X60975000Y-44887500D03*
%TO.P,U6,4,CH3*%
%TO.N,/ACH3*%
X60325000Y-44887500D03*
%TO.P,U6,5,CH4*%
%TO.N,/ACH4*%
X59675000Y-44887500D03*
%TO.P,U6,6,CH5*%
%TO.N,/ACH5*%
X59025000Y-44887500D03*
%TO.P,U6,7,CH6*%
%TO.N,/ACH6*%
X58375000Y-44887500D03*
%TO.P,U6,8,CH7*%
%TO.N,/ACH7*%
X57725000Y-44887500D03*
%TO.P,U6,9,GND*%
%TO.N,GND*%
X57725000Y-50612500D03*
%TO.P,U6,10,REFin/REFout*%
%TO.N,/REFin{slash}REFout*%
X58375000Y-50612500D03*
%TO.P,U6,11,COM*%
%TO.N,/COM*%
X59025000Y-50612500D03*
%TO.P,U6,12,A0*%
%TO.N,GND*%
X59675000Y-50612500D03*
%TO.P,U6,13,A1*%
X60325000Y-50612500D03*
%TO.P,U6,14,SCL*%
%TO.N,/External ADC SCL {slash} GPIO 21*%
X60975000Y-50612500D03*
%TO.P,U6,15,SDA*%
%TO.N,/External ADC SDA {slash} GPIO 20*%
X61625000Y-50612500D03*
%TO.P,U6,16,VDD*%
%TO.N,/ADC VDD*%
X62275000Y-50612500D03*
%TD*%
D11*
%TO.P,C31,1*%
%TO.N,/L2-C31*%
X38000000Y-53000000D03*
%TO.P,C31,2*%
%TO.N,/Antenna*%
X38000000Y-52500000D03*
%TD*%
D25*
%TO.P,D3,1,K*%
%TO.N,GND*%
X52300000Y-82787500D03*
%TO.P,D3,2,A*%
%TO.N,/SW1 *%
X52300000Y-81212500D03*
%TD*%
D10*
%TO.P,R1,1*%
%TO.N,/~{USB BOOT}*%
X62540000Y-82350000D03*
%TO.P,R1,2*%
%TO.N,/QSPI_SS*%
X63560000Y-82350000D03*
%TD*%
D12*
%TO.P,R9,1*%
%TO.N,/CC2*%
X46750000Y-84010000D03*
%TO.P,R9,2*%
%TO.N,GND*%
X46750000Y-82990000D03*
%TD*%
D26*
%TO.P,SW2,1,A*%
%TO.N,/Vmain*%
X43800000Y-73550000D03*
%TO.P,SW2,2,B*%
%TO.N,/R18-Power_on*%
X43800000Y-75550000D03*
D27*
%TO.P,SW2,MP*%
%TO.N,N/C*%
X38050000Y-77900000D03*
X38050000Y-71200000D03*
%TD*%
D28*
%TO.P,C19,1*%
%TO.N,/Vmain*%
X44450000Y-67000000D03*
%TO.P,C19,2*%
%TO.N,GND*%
X40050000Y-67000000D03*
%TD*%
D21*
%TO.P,C16,1*%
%TO.N,/Vmain*%
X50070000Y-71700000D03*
%TO.P,C16,2*%
%TO.N,GND*%
X49430000Y-71700000D03*
%TD*%
D29*
%TO.P,C24,1*%
%TO.N,/XC1*%
X40480000Y-56000000D03*
%TO.P,C24,2*%
%TO.N,GND*%
X39520000Y-56000000D03*
%TD*%
D10*
%TO.P,R4,1*%
%TO.N,/XOUTC*%
X54040000Y-60900000D03*
%TO.P,R4,2*%
%TO.N,/XOUT*%
X55060000Y-60900000D03*
%TD*%
D19*
%TO.P,R14,1*%
%TO.N,GND*%
X41260000Y-63500000D03*
%TO.P,R14,2*%
%TO.N,/IREF*%
X40240000Y-63500000D03*
%TD*%
D30*
%TO.P,U7,1,NC*%
%TO.N,unconnected-(U7-Pad1)*%
X47475999Y-46523999D03*
%TO.P,U7,2,NC*%
%TO.N,unconnected-(U7-Pad2)*%
X47475999Y-46924001D03*
%TO.P,U7,3,NC*%
%TO.N,unconnected-(U7-Pad3)*%
X47475999Y-47324000D03*
%TO.P,U7,4,NC*%
%TO.N,unconnected-(U7-Pad4)*%
X47475999Y-47724000D03*
%TO.P,U7,5,NC*%
%TO.N,unconnected-(U7-Pad5)*%
X47475999Y-48123999D03*
%TO.P,U7,6,NC*%
%TO.N,unconnected-(U7-Pad6)*%
X47475999Y-48524001D03*
D31*
%TO.P,U7,7,AUX_CL*%
%TO.N,/AUX_CL*%
X47999998Y-49048000D03*
%TO.P,U7,8,VDDIO*%
%TO.N,/Vmain*%
X48400000Y-49048000D03*
%TO.P,U7,9,SDO/ADO*%
%TO.N,GND*%
X48799999Y-49048000D03*
%TO.P,U7,10,REGOUT*%
%TO.N,/REGOUT*%
X49199999Y-49048000D03*
%TO.P,U7,11,FSYNC*%
%TO.N,GND*%
X49599998Y-49048000D03*
%TO.P,U7,12,INT*%
X50000000Y-49048000D03*
D30*
%TO.P,U7,13,VDD*%
%TO.N,/Vmain*%
X50523999Y-48524001D03*
%TO.P,U7,14,NC*%
%TO.N,unconnected-(U7-Pad14)*%
X50523999Y-48123999D03*
%TO.P,U7,15,NC*%
%TO.N,unconnected-(U7-Pad15)*%
X50523999Y-47724000D03*
%TO.P,U7,16,NC*%
%TO.N,unconnected-(U7-Pad16)*%
X50523999Y-47324000D03*
%TO.P,U7,17,NC*%
%TO.N,unconnected-(U7-Pad17)*%
X50523999Y-46924001D03*
%TO.P,U7,18,GND*%
%TO.N,GND*%
X50523999Y-46523999D03*
D31*
%TO.P,U7,19,RESV*%
%TO.N,unconnected-(U7-Pad19)*%
X50000000Y-46000000D03*
%TO.P,U7,20,RESV*%
%TO.N,GND*%
X49599998Y-46000000D03*
%TO.P,U7,21,AUX_DA*%
%TO.N,/AUX_DA*%
X49199999Y-46000000D03*
%TO.P,U7,22,nCS*%
%TO.N,GND*%
X48799999Y-46000000D03*
%TO.P,U7,23,SCL/SCLK*%
%TO.N,/IMU SCL {slash} GPIO 19*%
X48400000Y-46000000D03*
%TO.P,U7,24,SDA/SDI*%
%TO.N,/IMU SDA {slash} GPIO 18*%
X47999998Y-46000000D03*
D32*
%TO.P,U7,25*%
%TO.N,N/C*%
X48999999Y-47524000D03*
%TD*%
D33*
%TO.P,R17,1*%
%TO.N,/Vmain*%
X48250000Y-61990000D03*
%TO.P,R17,2*%
%TO.N,/IMU SDA {slash} GPIO 18*%
X48250000Y-63010000D03*
%TD*%
D34*
%TO.P,IC1,1,CE*%
%TO.N,/CE*%
X43950000Y-60500000D03*
%TO.P,IC1,2,CSN*%
%TO.N,/CSN*%
X43950000Y-60000000D03*
%TO.P,IC1,3,SCK*%
%TO.N,/SCK*%
X43950000Y-59500000D03*
%TO.P,IC1,4,MOSI*%
%TO.N,/MOSI*%
X43950000Y-59000000D03*
%TO.P,IC1,5,MISO*%
%TO.N,/MISO*%
X43950000Y-58500000D03*
D35*
%TO.P,IC1,6,IRQ*%
%TO.N,Net-(IC1-Pad6)*%
X43000000Y-57550000D03*
%TO.P,IC1,7,VDD_1*%
%TO.N,/Vmain*%
X42500000Y-57550000D03*
%TO.P,IC1,8,VSS_1*%
%TO.N,GND*%
X42000000Y-57550000D03*
%TO.P,IC1,9,XC2*%
%TO.N,/XC2*%
X41500000Y-57550000D03*
%TO.P,IC1,10,XC1*%
%TO.N,/XC1*%
X41000000Y-57550000D03*
D34*
%TO.P,IC1,11,VDD_PA*%
%TO.N,/VDD_PA*%
X40050000Y-58500000D03*
%TO.P,IC1,12,ANT1*%
%TO.N,/ANT 1*%
X40050000Y-59000000D03*
%TO.P,IC1,13,ANT2*%
%TO.N,/ANT 2*%
X40050000Y-59500000D03*
%TO.P,IC1,14,VSS_2*%
%TO.N,GND*%
X40050000Y-60000000D03*
%TO.P,IC1,15,VDD_2*%
%TO.N,/Vmain*%
X40050000Y-60500000D03*
D35*
%TO.P,IC1,16,IREF*%
%TO.N,/IREF*%
X41000000Y-61450000D03*
%TO.P,IC1,17,VSS_3*%
%TO.N,GND*%
X41500000Y-61450000D03*
%TO.P,IC1,18,VDD_3*%
%TO.N,/Vmain*%
X42000000Y-61450000D03*
%TO.P,IC1,19,DVDD*%
%TO.N,/DVDD_RADIO*%
X42500000Y-61450000D03*
%TO.P,IC1,20,VSS_4*%
%TO.N,GND*%
X43000000Y-61450000D03*
D36*
%TO.P,IC1,21,THERMAL_PAD*%
%TO.N,unconnected-(IC1-Pad21)*%
X42000000Y-59500000D03*
%TD*%
D12*
%TO.P,R18,1*%
%TO.N,/VO*%
X66500000Y-85010000D03*
%TO.P,R18,2*%
%TO.N,/R18-Power_on*%
X66500000Y-83990000D03*
%TD*%
D37*
%TO.P,D1,1,K*%
%TO.N,/LED_BLUE*%
X73037500Y-85100000D03*
%TO.P,D1,2,A*%
%TO.N,/VBUS*%
X71462500Y-85100000D03*
%TD*%
D10*
%TO.P,R13,1*%
%TO.N,/XC1*%
X41990000Y-51250000D03*
%TO.P,R13,2*%
%TO.N,/XC2*%
X43010000Y-51250000D03*
%TD*%
D11*
%TO.P,C29,1*%
%TO.N,/VDD_PA*%
X37750000Y-57750000D03*
%TO.P,C29,2*%
%TO.N,GND*%
X37750000Y-57250000D03*
%TD*%
D38*
%TO.P,U2,1,~{CS}*%
%TO.N,/QSPI_SS*%
X66650000Y-80655000D03*
%TO.P,U2,2,DO(IO1)*%
%TO.N,/QSPI_SD1*%
X66650000Y-79385000D03*
%TO.P,U2,3,IO2*%
%TO.N,/QSPI_SD2*%
X66650000Y-78115000D03*
%TO.P,U2,4,GND*%
%TO.N,GND*%
X66650000Y-76845000D03*
%TO.P,U2,5,DI(IO0)*%
%TO.N,/QSPI_SD0*%
X59450000Y-76845000D03*
%TO.P,U2,6,CLK*%
%TO.N,/QSPI_SCLK*%
X59450000Y-78115000D03*
%TO.P,U2,7,IO3*%
%TO.N,/QSPI_SD3*%
X59450000Y-79385000D03*
%TO.P,U2,8,VCC*%
%TO.N,/Vmain*%
X59450000Y-80655000D03*
%TD*%
D20*
%TO.P,C18,1*%
%TO.N,/Vmain*%
X62000000Y-72230000D03*
%TO.P,C18,2*%
%TO.N,GND*%
X62000000Y-72870000D03*
%TD*%
D39*
%TO.P,C21,1*%
%TO.N,/Vmain*%
X52525000Y-47000000D03*
%TO.P,C21,2*%
%TO.N,GND*%
X55475000Y-47000000D03*
%TD*%
D21*
%TO.P,C12,1*%
%TO.N,/REFin{slash}REFout*%
X55320000Y-49250000D03*
%TO.P,C12,2*%
%TO.N,GND*%
X54680000Y-49250000D03*
%TD*%
D40*
%TO.P,D2,1,K*%
%TO.N,/VI*%
X58700000Y-87300000D03*
%TO.P,D2,2,A*%
%TO.N,/VBUS*%
X54700000Y-87300000D03*
%TD*%
D11*
%TO.P,C1,1*%
%TO.N,/XIN*%
X59250000Y-55250000D03*
%TO.P,C1,2*%
%TO.N,GND*%
X59250000Y-54750000D03*
%TD*%
D20*
%TO.P,C13,1*%
%TO.N,/Vmain*%
X56950000Y-73580000D03*
%TO.P,C13,2*%
%TO.N,GND*%
X56950000Y-74220000D03*
%TD*%
D41*
%TO.P,U1,1,STAT*%
%TO.N,/STAT*%
X70250000Y-86962500D03*
%TO.P,U1,2,VSS*%
%TO.N,GND*%
X69300000Y-86962500D03*
%TO.P,U1,3,VBAT*%
%TO.N,/VBAT*%
X68350000Y-86962500D03*
%TO.P,U1,4,VDD*%
%TO.N,/VBUS*%
X68350000Y-89237500D03*
%TO.P,U1,5,PROG*%
%TO.N,/PROG*%
X70250000Y-89237500D03*
%TD*%
D12*
%TO.P,R8,1*%
%TO.N,/CC1*%
X48000000Y-84010000D03*
%TO.P,R8,2*%
%TO.N,GND*%
X48000000Y-82990000D03*
%TD*%
D42*
%TO.P,C17,1*%
%TO.N,/Vmain*%
X56850000Y-64170000D03*
%TO.P,C17,2*%
%TO.N,GND*%
X56850000Y-63530000D03*
%TD*%
D19*
%TO.P,R5,1*%
%TO.N,/VBUS*%
X53710000Y-84900000D03*
%TO.P,R5,2*%
%TO.N,GND*%
X52690000Y-84900000D03*
%TD*%
D23*
%TO.P,C25,1*%
%TO.N,/XC2*%
X44250000Y-51730000D03*
%TO.P,C25,2*%
%TO.N,GND*%
X44250000Y-50770000D03*
%TD*%
D43*
%TO.P,L3,1,1*%
%TO.N,/ANT 2*%
X36750000Y-60015000D03*
%TO.P,L3,2,2*%
%TO.N,/VDD_PA*%
X36750000Y-60985000D03*
%TD*%
%TO.P,L1,1,1*%
%TO.N,/ANT 1*%
X38250000Y-59015000D03*
%TO.P,L1,2,2*%
%TO.N,/ANT 2*%
X38250000Y-59985000D03*
%TD*%
D18*
%TO.P,C27,1*%
%TO.N,/Vmain*%
X42250000Y-63750000D03*
%TO.P,C27,2*%
%TO.N,GND*%
X42750000Y-63750000D03*
%TD*%
D20*
%TO.P,C3,1*%
%TO.N,/Vmain*%
X59500000Y-82030000D03*
%TO.P,C3,2*%
%TO.N,GND*%
X59500000Y-82670000D03*
%TD*%
D44*
%TO.P,C22,1*%
%TO.N,/Vmain*%
X47500000Y-52500000D03*
%TO.P,C22,2*%
%TO.N,GND*%
X47500000Y-53000000D03*
%TD*%
D45*
%TO.P,U5,1,IOVDD*%
%TO.N,/Vmain*%
X60837500Y-71650000D03*
%TO.P,U5,2,GPIO0*%
%TO.N,/GPIO 0*%
X60837500Y-71250000D03*
%TO.P,U5,3,GPIO1*%
%TO.N,/GPIO 1*%
X60837500Y-70850000D03*
%TO.P,U5,4,GPIO2*%
%TO.N,/GPIO 2*%
X60837500Y-70450000D03*
%TO.P,U5,5,GPIO3*%
%TO.N,/GPIO 3*%
X60837500Y-70050000D03*
%TO.P,U5,6,GPIO4*%
%TO.N,/GPIO 4*%
X60837500Y-69650000D03*
%TO.P,U5,7,GPIO5*%
%TO.N,/GPIO 5*%
X60837500Y-69250000D03*
%TO.P,U5,8,GPIO6*%
%TO.N,/GPIO 6*%
X60837500Y-68850000D03*
%TO.P,U5,9,GPIO7*%
%TO.N,/GPIO 7*%
X60837500Y-68450000D03*
%TO.P,U5,10,IOVDD*%
%TO.N,/Vmain*%
X60837500Y-68050000D03*
%TO.P,U5,11,GPIO8*%
%TO.N,/GPIO 8*%
X60837500Y-67650000D03*
%TO.P,U5,12,GPIO9*%
%TO.N,/GPIO 9*%
X60837500Y-67250000D03*
%TO.P,U5,13,GPIO10*%
%TO.N,/GPIO 10*%
X60837500Y-66850000D03*
%TO.P,U5,14,GPIO11*%
%TO.N,/GPIO 11*%
X60837500Y-66450000D03*
D46*
%TO.P,U5,15,GPIO12*%
%TO.N,/GPIO 12*%
X60000000Y-65612500D03*
%TO.P,U5,16,GPIO13*%
%TO.N,/GPIO 13*%
X59600000Y-65612500D03*
%TO.P,U5,17,GPIO14*%
%TO.N,/GPIO 14*%
X59200000Y-65612500D03*
%TO.P,U5,18,GPIO15*%
%TO.N,/CE*%
X58800000Y-65612500D03*
%TO.P,U5,19,TESTEN*%
%TO.N,GND*%
X58400000Y-65612500D03*
%TO.P,U5,20,XIN*%
%TO.N,/XIN*%
X58000000Y-65612500D03*
%TO.P,U5,21,XOUT*%
%TO.N,/XOUT*%
X57600000Y-65612500D03*
%TO.P,U5,22,IOVDD*%
%TO.N,/Vmain*%
X57200000Y-65612500D03*
%TO.P,U5,23,DVDD*%
%TO.N,/DVDD_RP2040*%
X56800000Y-65612500D03*
%TO.P,U5,24,SWCLK*%
%TO.N,/SWCLK*%
X56400000Y-65612500D03*
%TO.P,U5,25,SWD*%
%TO.N,/SWD*%
X56000000Y-65612500D03*
%TO.P,U5,26,RUN*%
%TO.N,/RUN*%
X55600000Y-65612500D03*
%TO.P,U5,27,GPIO16*%
%TO.N,/GPIO 16*%
X55200000Y-65612500D03*
%TO.P,U5,28,GPIO17*%
%TO.N,/GPIO 17*%
X54800000Y-65612500D03*
D45*
%TO.P,U5,29,GPIO18*%
%TO.N,/IMU SDA {slash} GPIO 18*%
X53962500Y-66450000D03*
%TO.P,U5,30,GPIO19*%
%TO.N,/IMU SCL {slash} GPIO 19*%
X53962500Y-66850000D03*
%TO.P,U5,31,GPIO20*%
%TO.N,/MISO*%
X53962500Y-67250000D03*
%TO.P,U5,32,GPIO21*%
%TO.N,/CSN*%
X53962500Y-67650000D03*
%TO.P,U5,33,IOVDD*%
%TO.N,/Vmain*%
X53962500Y-68050000D03*
%TO.P,U5,34,GPIO22*%
%TO.N,/SCK*%
X53962500Y-68450000D03*
%TO.P,U5,35,GPIO23*%
%TO.N,/MOSI*%
X53962500Y-68850000D03*
%TO.P,U5,36,GPIO24*%
%TO.N,/External ADC SDA {slash} GPIO 20*%
X53962500Y-69250000D03*
%TO.P,U5,37,GPIO25*%
%TO.N,/External ADC SCL {slash} GPIO 21*%
X53962500Y-69650000D03*
%TO.P,U5,38,GPIO26_ADC0*%
%TO.N,/ADC 1*%
X53962500Y-70050000D03*
%TO.P,U5,39,GPIO27_ADC1*%
%TO.N,/ADC 2*%
X53962500Y-70450000D03*
%TO.P,U5,40,GPIO28_ADC2*%
%TO.N,/ADC 3*%
X53962500Y-70850000D03*
%TO.P,U5,41,GPIO29_ADC3*%
%TO.N,/ADC 4*%
X53962500Y-71250000D03*
%TO.P,U5,42,IOVDD*%
%TO.N,/Vmain*%
X53962500Y-71650000D03*
D46*
%TO.P,U5,43,ADC_AVDD*%
X54800000Y-72487500D03*
%TO.P,U5,44,VREG_IN*%
X55200000Y-72487500D03*
%TO.P,U5,45,VREG_VOUT*%
%TO.N,/DVDD_RP2040*%
X55600000Y-72487500D03*
%TO.P,U5,46,USB_DM*%
%TO.N,/USB_R-*%
X56000000Y-72487500D03*
%TO.P,U5,47,USB_DP*%
%TO.N,/USB_R+*%
X56400000Y-72487500D03*
%TO.P,U5,48,USB_VDD*%
%TO.N,/Vmain*%
X56800000Y-72487500D03*
%TO.P,U5,49,IOVDD*%
X57200000Y-72487500D03*
%TO.P,U5,50,DVDD*%
%TO.N,/DVDD_RP2040*%
X57600000Y-72487500D03*
%TO.P,U5,51,QSPI_SD3*%
%TO.N,/QSPI_SD3*%
X58000000Y-72487500D03*
%TO.P,U5,52,QSPI_SCLK*%
%TO.N,/QSPI_SCLK*%
X58400000Y-72487500D03*
%TO.P,U5,53,QSPI_SD0*%
%TO.N,/QSPI_SD0*%
X58800000Y-72487500D03*
%TO.P,U5,54,QSPI_SD2*%
%TO.N,/QSPI_SD2*%
X59200000Y-72487500D03*
%TO.P,U5,55,QSPI_SD1*%
%TO.N,/QSPI_SD1*%
X59600000Y-72487500D03*
%TO.P,U5,56,QSPI_SS*%
%TO.N,/QSPI_SS*%
X60000000Y-72487500D03*
D47*
%TO.P,U5,57,GND*%
%TO.N,GND*%
X57400000Y-69050000D03*
%TD*%
D10*
%TO.P,R11,1*%
%TO.N,/Vmain*%
X47240000Y-70500000D03*
%TO.P,R11,2*%
%TO.N,/External ADC SCL {slash} GPIO 21*%
X48260000Y-70500000D03*
%TD*%
D48*
%TO.P,J6,1*%
%TO.N,/Antenna*%
X38428500Y-46260750D03*
D49*
%TO.P,J6,SH1*%
%TO.N,GND*%
X38428500Y-43490750D03*
%TO.P,J6,SH2*%
X38428500Y-49030750D03*
%TD*%
D29*
%TO.P,C5,1*%
%TO.N,/VI*%
X56930000Y-91850000D03*
%TO.P,C5,2*%
%TO.N,GND*%
X55970000Y-91850000D03*
%TD*%
D50*
%TO.P,C11,1*%
%TO.N,/ADC VDD*%
X66800000Y-46500000D03*
%TO.P,C11,2*%
%TO.N,GND*%
X71200000Y-46500000D03*
%TD*%
D18*
%TO.P,C28,1*%
%TO.N,/DVDD_RADIO*%
X43750000Y-63750000D03*
%TO.P,C28,2*%
%TO.N,GND*%
X44250000Y-63750000D03*
%TD*%
D20*
%TO.P,C4,1*%
%TO.N,/DVDD_RP2040*%
X55450000Y-74280000D03*
%TO.P,C4,2*%
%TO.N,GND*%
X55450000Y-74920000D03*
%TD*%
%TO.P,C20,1*%
%TO.N,/Vmain*%
X54800000Y-74280000D03*
%TO.P,C20,2*%
%TO.N,GND*%
X54800000Y-74920000D03*
%TD*%
D23*
%TO.P,C9,1*%
%TO.N,/VO*%
X61000000Y-90255000D03*
%TO.P,C9,2*%
%TO.N,GND*%
X61000000Y-89295000D03*
%TD*%
D25*
%TO.P,D4,1,K*%
%TO.N,GND*%
X63900000Y-73487500D03*
%TO.P,D4,2,A*%
%TO.N,/LED_GREEN*%
X63900000Y-71912500D03*
%TD*%
D51*
%TO.P,SW1,1,1*%
%TO.N,/SW1 *%
X53950000Y-81050000D03*
%TO.P,SW1,2,2*%
%TO.N,/~{USB BOOT}*%
X57350000Y-81050000D03*
D52*
%TO.P,SW1,3*%
%TO.N,N/C*%
X55650000Y-82690000D03*
%TD*%
D12*
%TO.P,R6,1*%
%TO.N,/USB+*%
X56700000Y-77410000D03*
%TO.P,R6,2*%
%TO.N,/USB_R+*%
X56700000Y-76390000D03*
%TD*%
D53*
%TO.P,Q1,1,G*%
%TO.N,/VBUS*%
X63012500Y-87000000D03*
%TO.P,Q1,2,S*%
%TO.N,/VI*%
X63012500Y-88900000D03*
%TO.P,Q1,3,D*%
%TO.N,/VBAT*%
X64887500Y-87950000D03*
%TD*%
D33*
%TO.P,R3,1*%
%TO.N,/LED_BLUE*%
X74900000Y-85090000D03*
%TO.P,R3,2*%
%TO.N,/STAT*%
X74900000Y-86110000D03*
%TD*%
D54*
%TO.P,C26,1*%
%TO.N,/Vmain*%
X39000000Y-61750000D03*
%TO.P,C26,2*%
%TO.N,GND*%
X38500000Y-61750000D03*
%TD*%
D55*
%TO.P,J4,1,Pin_1*%
%TO.N,/GPIO 16*%
X65450000Y-41000000D03*
%TO.P,J4,2,Pin_2*%
%TO.N,/GPIO 17*%
X64450000Y-41000000D03*
%TO.P,J4,3,Pin_3*%
%TO.N,/ACH0*%
X63450000Y-41000000D03*
%TO.P,J4,4,Pin_4*%
%TO.N,/ACH1*%
X62450000Y-41000000D03*
%TO.P,J4,5,Pin_5*%
%TO.N,/ACH2*%
X61450000Y-41000000D03*
%TO.P,J4,6,Pin_6*%
%TO.N,/ACH3*%
X60450000Y-41000000D03*
%TO.P,J4,7,Pin_7*%
%TO.N,/ACH4*%
X59450000Y-41000000D03*
%TO.P,J4,8,Pin_8*%
%TO.N,/ACH5*%
X58450000Y-41000000D03*
%TO.P,J4,9,Pin_9*%
%TO.N,/ACH6*%
X57450000Y-41000000D03*
%TO.P,J4,10,Pin_10*%
%TO.N,/ACH7*%
X56450000Y-41000000D03*
%TO.P,J4,11,Pin_11*%
%TO.N,/COM*%
X55450000Y-41000000D03*
%TO.P,J4,12,Pin_12*%
%TO.N,/ADC 1*%
X54450000Y-41000000D03*
%TO.P,J4,13,Pin_13*%
%TO.N,/ADC 2*%
X53450000Y-41000000D03*
%TO.P,J4,14,Pin_14*%
%TO.N,/ADC 3*%
X52450000Y-41000000D03*
%TO.P,J4,15,Pin_15*%
%TO.N,/ADC 4*%
X51450000Y-41000000D03*
%TO.P,J4,16,Pin_16*%
%TO.N,/RUN*%
X50450000Y-41000000D03*
%TO.P,J4,17,Pin_17*%
%TO.N,/AUX_DA*%
X49450000Y-41000000D03*
%TO.P,J4,18,Pin_18*%
%TO.N,/AUX_CL*%
X48450000Y-41000000D03*
%TO.P,J4,19,Pin_19*%
%TO.N,/Vmain*%
X47450000Y-41000000D03*
%TO.P,J4,20,Pin_20*%
%TO.N,GND*%
X46450000Y-41000000D03*
D56*
%TO.P,J4,MP*%
%TO.N,N/C*%
X43460000Y-38200000D03*
X68440000Y-38200000D03*
%TD*%
D20*
%TO.P,C7,1*%
%TO.N,/DVDD_RP2040*%
X57600000Y-73580000D03*
%TO.P,C7,2*%
%TO.N,GND*%
X57600000Y-74220000D03*
%TD*%
D42*
%TO.P,C6,1*%
%TO.N,/DVDD_RP2040*%
X56200000Y-64170000D03*
%TO.P,C6,2*%
%TO.N,GND*%
X56200000Y-63530000D03*
%TD*%
D57*
%TO.P,Y2,1,1*%
%TO.N,/XC1*%
X41000000Y-54550000D03*
%TO.P,Y2,2,2*%
%TO.N,GND*%
X44000000Y-54550000D03*
%TO.P,Y2,3,3*%
%TO.N,/XC2*%
X44000000Y-52950000D03*
%TO.P,Y2,4,4*%
%TO.N,GND*%
X41000000Y-52950000D03*
%TD*%
D20*
%TO.P,C23,1*%
%TO.N,/REGOUT*%
X49750000Y-51180000D03*
%TO.P,C23,2*%
%TO.N,GND*%
X49750000Y-51820000D03*
%TD*%
D11*
%TO.P,C2,1*%
%TO.N,/XOUTC*%
X54050000Y-55250000D03*
%TO.P,C2,2*%
%TO.N,GND*%
X54050000Y-54750000D03*
%TD*%
D20*
%TO.P,C15,1*%
%TO.N,/Vmain*%
X54150000Y-74280000D03*
%TO.P,C15,2*%
%TO.N,GND*%
X54150000Y-74920000D03*
%TD*%
D58*
%TO.P,C33,1*%
%TO.N,/Vmain*%
X65342750Y-67487250D03*
%TO.P,C33,2*%
%TO.N,GND*%
X65982750Y-67487250D03*
%TD*%
D59*
%TO.P,J3,1,Pin_1*%
%TO.N,/GPIO 0*%
X69250000Y-74300000D03*
%TO.P,J3,2,Pin_2*%
%TO.N,/GPIO 1*%
X69250000Y-73300000D03*
%TO.P,J3,3,Pin_3*%
%TO.N,/GPIO 2*%
X69250000Y-72300000D03*
%TO.P,J3,4,Pin_4*%
%TO.N,/GPIO 3*%
X69250000Y-71300000D03*
%TO.P,J3,5,Pin_5*%
%TO.N,/GPIO 4*%
X69250000Y-70300000D03*
%TO.P,J3,6,Pin_6*%
%TO.N,/GPIO 5*%
X69250000Y-69300000D03*
%TO.P,J3,7,Pin_7*%
%TO.N,/GPIO 6*%
X69250000Y-68300000D03*
%TO.P,J3,8,Pin_8*%
%TO.N,/GPIO 7*%
X69250000Y-67300000D03*
%TO.P,J3,9,Pin_9*%
%TO.N,/GPIO 8*%
X69250000Y-66300000D03*
%TO.P,J3,10,Pin_10*%
%TO.N,/GPIO 9*%
X69250000Y-65300000D03*
%TO.P,J3,11,Pin_11*%
%TO.N,/GPIO 10*%
X69250000Y-64300000D03*
%TO.P,J3,12,Pin_12*%
%TO.N,/GPIO 11*%
X69250000Y-63300000D03*
%TO.P,J3,13,Pin_13*%
%TO.N,/GPIO 12*%
X69250000Y-62300000D03*
%TO.P,J3,14,Pin_14*%
%TO.N,/GPIO 13*%
X69250000Y-61300000D03*
%TO.P,J3,15,Pin_15*%
%TO.N,/GPIO 14*%
X69250000Y-60300000D03*
%TO.P,J3,16,Pin_16*%
%TO.N,/RUN*%
X69250000Y-59300000D03*
%TO.P,J3,17,Pin_17*%
%TO.N,/SWCLK*%
X69250000Y-58300000D03*
%TO.P,J3,18,Pin_18*%
%TO.N,/SWD*%
X69250000Y-57300000D03*
%TO.P,J3,19,Pin_19*%
%TO.N,/Vmain*%
X69250000Y-56300000D03*
%TO.P,J3,20,Pin_20*%
%TO.N,GND*%
X69250000Y-55300000D03*
D60*
%TO.P,J3,MP*%
%TO.N,N/C*%
X72050000Y-52310000D03*
X72050000Y-77290000D03*
%TD*%
D61*
%TO.P,J1,1,Pin_1*%
%TO.N,GND*%
X68150000Y-96000000D03*
%TO.P,J1,2,Pin_2*%
%TO.N,/VBAT*%
X68150000Y-94000000D03*
D62*
%TO.P,J1,MP*%
%TO.N,N/C*%
X73900000Y-91650000D03*
X73900000Y-98350000D03*
%TD*%
D12*
%TO.P,R7,1*%
%TO.N,/USB-*%
X55700000Y-77410000D03*
%TO.P,R7,2*%
%TO.N,/USB_R-*%
X55700000Y-76390000D03*
%TD*%
D33*
%TO.P,R10,1*%
%TO.N,/ADC VDD*%
X65500000Y-51240000D03*
%TO.P,R10,2*%
%TO.N,/Vmain*%
X65500000Y-52260000D03*
%TD*%
D63*
%TO.P,U4,1,GND*%
%TO.N,GND*%
X63300000Y-91850000D03*
%TO.P,U4,2,VO*%
%TO.N,/VO*%
X61000000Y-91850000D03*
%TO.P,U4,3,VI*%
%TO.N,/VI*%
X58700000Y-91850000D03*
D64*
%TO.P,U4,4*%
%TO.N,N/C*%
X61000000Y-98150000D03*
%TD*%
D10*
%TO.P,R12,1*%
%TO.N,/Vmain*%
X47240000Y-69500000D03*
%TO.P,R12,2*%
%TO.N,/External ADC SDA {slash} GPIO 20*%
X48260000Y-69500000D03*
%TD*%
D65*
%TO.P,U3,1,D1+*%
%TO.N,/CC2*%
X48000000Y-86918000D03*
%TO.P,U3,2,D1-*%
%TO.N,/CC1*%
X48500000Y-86918000D03*
D66*
%TO.P,U3,3,GND*%
%TO.N,GND*%
X49000000Y-86918000D03*
D65*
%TO.P,U3,4,D2+*%
%TO.N,/USB+*%
X49500000Y-86918000D03*
%TO.P,U3,5,D2-*%
%TO.N,/USB-*%
X50000000Y-86918000D03*
%TO.P,U3,6,NC*%
X50000000Y-86082000D03*
%TO.P,U3,7,NC*%
%TO.N,/USB+*%
X49500000Y-86082000D03*
D66*
%TO.P,U3,8,GND*%
%TO.N,GND*%
X49000000Y-86082000D03*
D65*
%TO.P,U3,9,NC*%
%TO.N,/CC1*%
X48500000Y-86082000D03*
%TO.P,U3,10,NC*%
%TO.N,/CC2*%
X48000000Y-86082000D03*
%TD*%
D12*
%TO.P,R15,1*%
%TO.N,/GPIO 0*%
X65350000Y-73360000D03*
%TO.P,R15,2*%
%TO.N,/LED_GREEN*%
X65350000Y-72340000D03*
%TD*%
D67*
%TO.P,L2,1,1*%
%TO.N,/ANT 1*%
X36750000Y-58735000D03*
%TO.P,L2,2,2*%
%TO.N,/L2-C31*%
X36750000Y-57765000D03*
%TD*%
D68*
%TO.N,/Antenna*%
X43250000Y-46250000D03*
%TO.N,GND*%
X36710000Y-49050000D03*
X61000000Y-88600000D03*
X61750000Y-58150000D03*
X38500000Y-62750000D03*
X51250000Y-45250000D03*
X48250000Y-51500000D03*
X40991091Y-52993372D03*
X43718767Y-62531233D03*
X47500000Y-54250000D03*
X54800000Y-75550000D03*
X45750000Y-83000000D03*
X52750000Y-86000000D03*
X38500000Y-43500000D03*
X74000000Y-46500000D03*
X40250000Y-43500000D03*
X66762750Y-67312750D03*
X38440000Y-49030000D03*
X48500000Y-44000000D03*
X45000000Y-56000000D03*
X56300000Y-70150000D03*
X73600000Y-89250000D03*
X39000000Y-67000000D03*
X65355000Y-76845000D03*
X50500000Y-49750000D03*
X51600000Y-53950000D03*
X49750000Y-52750000D03*
X48700000Y-71700000D03*
X56750000Y-61600000D03*
X69300000Y-88200000D03*
X58500000Y-70150000D03*
X65250000Y-96000000D03*
X54150000Y-53950000D03*
X59850000Y-83400000D03*
X56300000Y-67950000D03*
X62950000Y-72900000D03*
X45250000Y-41000000D03*
X36750000Y-43500000D03*
X55000000Y-91850000D03*
X44000000Y-54750000D03*
X41250000Y-62500000D03*
X41000000Y-67000000D03*
X55500000Y-47000000D03*
X58500000Y-67950000D03*
X45250000Y-51000000D03*
X51600000Y-58150000D03*
X56500000Y-62600000D03*
X56900000Y-54000000D03*
X51650000Y-61550000D03*
X60000000Y-52250000D03*
X57400000Y-69000000D03*
X51000000Y-83150000D03*
X53750000Y-49250000D03*
X59250000Y-53950000D03*
X39000000Y-56000000D03*
X40250000Y-49000000D03*
X61350000Y-53950000D03*
X61400000Y-61550000D03*
X49400000Y-68050000D03*
X57725000Y-51975000D03*
X53500000Y-75550000D03*
D69*
X49000000Y-86500000D03*
D68*
X43000000Y-64750000D03*
X71100000Y-55300000D03*
X57250000Y-75000000D03*
%TO.N,/Vmain*%
X54875500Y-68050000D03*
X57457337Y-62602950D03*
X52000000Y-49500000D03*
X61095000Y-80655000D03*
X44950000Y-73550000D03*
X47250000Y-42750000D03*
X48250500Y-61000000D03*
X53500000Y-73450000D03*
X59810000Y-71400000D03*
X47250000Y-51500000D03*
X42700000Y-73550000D03*
X66990000Y-52260000D03*
X42250000Y-63000000D03*
X71100000Y-56300000D03*
X39875000Y-61375000D03*
X48000000Y-57500000D03*
X57200000Y-71550000D03*
X46125000Y-69375000D03*
%TO.N,/VBUS*%
X70350000Y-84750000D03*
X51375000Y-96625000D03*
X55450000Y-87300000D03*
X68550000Y-91500000D03*
X53900000Y-87300000D03*
X61000000Y-86100000D03*
%TO.N,/VO*%
X60800000Y-94200000D03*
X66500000Y-86000000D03*
%TO.N,/VDD_PA*%
X39250000Y-57750000D03*
X37750000Y-61000000D03*
D69*
%TO.N,/CSN*%
X45000000Y-61250000D03*
X46250000Y-61500000D03*
%TO.N,/SCK*%
X45000000Y-59500000D03*
X47750000Y-65750000D03*
%TO.N,/GPIO 16*%
X52000000Y-53000000D03*
X65450000Y-42750000D03*
%TO.N,/GPIO 17*%
X64500000Y-42750000D03*
X52000000Y-52250000D03*
%TO.N,/IMU SDA {slash} GPIO 18*%
X51750000Y-66250000D03*
X47750000Y-45250000D03*
X49250000Y-63750000D03*
%TO.N,/IMU SCL {slash} GPIO 19*%
X47841329Y-44537011D03*
X52500000Y-66750000D03*
X50750000Y-64500000D03*
%TO.N,/External ADC SDA {slash} GPIO 20*%
X66000000Y-54250000D03*
X49750000Y-69750000D03*
%TO.N,/External ADC SCL {slash} GPIO 21*%
X66000000Y-55250000D03*
X50750000Y-70500000D03*
%TO.N,/ADC 1*%
X54778479Y-70005921D03*
X54500000Y-39500000D03*
%TO.N,/ADC 2*%
X52750000Y-70250000D03*
X53500000Y-43000000D03*
%TO.N,/ADC 3*%
X52500000Y-39500000D03*
X54750000Y-70750000D03*
%TO.N,/ADC 4*%
X51500000Y-43000000D03*
X52250000Y-70750000D03*
%TO.N,/CE*%
X47250000Y-62000000D03*
X44250000Y-61250000D03*
X59250000Y-64500000D03*
X52000000Y-65000000D03*
%TO.N,/SWCLK*%
X56150000Y-66600000D03*
X63800000Y-58300000D03*
%TO.N,/SWD*%
X67150000Y-57300000D03*
X55500000Y-66600000D03*
%TO.N,/AUX_CL*%
X48450000Y-42700000D03*
X47500000Y-49750000D03*
%TO.N,/RUN*%
X55000000Y-63250000D03*
X60250000Y-62500000D03*
D68*
X50750000Y-39250000D03*
D69*
%TO.N,/CC2*%
X47000000Y-88750000D03*
X50750000Y-95500000D03*
D68*
%TO.N,/R18-Power_on*%
X65400000Y-84500000D03*
X43900000Y-76650000D03*
%TD*%
D70*
%TO.N,/Antenna*%
X40000000Y-50500000D02*
X40750000Y-50500000D01*
X38439250Y-46250000D02*
X38428500Y-46260750D01*
X43250000Y-46250000D02*
X38439250Y-46250000D01*
X43250000Y-48000000D02*
X43250000Y-46250000D01*
X40750000Y-50500000D02*
X43250000Y-48000000D01*
X38000000Y-52500000D02*
X40000000Y-50500000D01*
D71*
%TO.N,/XIN*%
X59250000Y-58000000D02*
X59250000Y-55250000D01*
X58000000Y-65612500D02*
X58000000Y-64950000D01*
X58000000Y-64950000D02*
X59250000Y-63700000D01*
X59250000Y-63700000D02*
X59250000Y-58000000D01*
D72*
%TO.N,GND*%
X51250000Y-45250000D02*
X49750000Y-45250000D01*
D73*
X59675000Y-51675000D02*
X59750000Y-51750000D01*
D72*
X50000000Y-49048000D02*
X50000000Y-49250000D01*
D73*
X56500000Y-62600000D02*
X56200000Y-62900000D01*
D72*
X48500000Y-44000000D02*
X48799999Y-44299999D01*
X51250000Y-45250000D02*
X50750000Y-45750000D01*
X50523999Y-46523999D02*
X50523999Y-46226001D01*
X38500000Y-61250000D02*
X39250000Y-60500000D01*
D73*
X47500000Y-53000000D02*
X47500000Y-54250000D01*
X54800000Y-75550000D02*
X54800000Y-74850000D01*
D72*
X49750000Y-45250000D02*
X49599998Y-45400002D01*
D73*
X54150000Y-53950000D02*
X54050000Y-54050000D01*
X57250000Y-75000000D02*
X56950000Y-74700000D01*
X53500000Y-74850000D02*
X53500000Y-75550000D01*
X57250000Y-75000000D02*
X57600000Y-74650000D01*
X51362500Y-82787500D02*
X51000000Y-83150000D01*
D72*
X39250000Y-60500000D02*
X39250000Y-60000000D01*
X42750000Y-56000000D02*
X45000000Y-56000000D01*
X41250000Y-62500000D02*
X41260000Y-62510000D01*
D73*
X54750000Y-49250000D02*
X53750000Y-49250000D01*
X63300000Y-95500000D02*
X63800000Y-96000000D01*
X49750000Y-51750000D02*
X49750000Y-52750000D01*
D72*
X42000000Y-56750000D02*
X42750000Y-56000000D01*
X48799999Y-50450001D02*
X48750000Y-50500000D01*
X37750000Y-57250000D02*
X38000000Y-57250000D01*
D73*
X59750000Y-51750000D02*
X60000000Y-52000000D01*
D72*
X41260000Y-62510000D02*
X41260000Y-63500000D01*
D73*
X66650000Y-76845000D02*
X65355000Y-76845000D01*
X66762750Y-67312750D02*
X66087250Y-67312750D01*
D72*
X48799999Y-49048000D02*
X48799999Y-50450001D01*
X42000000Y-57550000D02*
X42000000Y-56750000D01*
X41500000Y-61450000D02*
X41500000Y-62250000D01*
D73*
X61000000Y-89525000D02*
X61000000Y-88600000D01*
X48250000Y-51500000D02*
X48250000Y-51000000D01*
X69300000Y-86962500D02*
X69300000Y-88200000D01*
X58400000Y-67850000D02*
X58500000Y-67950000D01*
X59500000Y-83050000D02*
X59850000Y-83400000D01*
D72*
X38000000Y-57000000D02*
X38000000Y-57250000D01*
D73*
X63300000Y-91850000D02*
X63300000Y-95500000D01*
X62950000Y-72900000D02*
X62100000Y-72900000D01*
X71200000Y-46500000D02*
X74000000Y-46500000D01*
D72*
X39000000Y-56000000D02*
X38000000Y-57000000D01*
X48000000Y-82990000D02*
X46750000Y-82990000D01*
D73*
X58400000Y-65612500D02*
X58400000Y-67850000D01*
X62100000Y-72900000D02*
X62000000Y-72800000D01*
D72*
X49599998Y-49349998D02*
X50000000Y-49750000D01*
D73*
X49500000Y-71700000D02*
X48700000Y-71700000D01*
D72*
X38000000Y-57250000D02*
X38500000Y-57250000D01*
D73*
X54050000Y-54050000D02*
X54050000Y-54750000D01*
X54800000Y-75550000D02*
X54800000Y-75500000D01*
X52750000Y-86000000D02*
X52690000Y-85940000D01*
D72*
X43750000Y-50250000D02*
X44250000Y-50750000D01*
D73*
X56500000Y-62600000D02*
X56850000Y-62950000D01*
X56850000Y-62950000D02*
X56850000Y-63600000D01*
D72*
X48799999Y-44299999D02*
X48799999Y-46000000D01*
D73*
X52300000Y-82787500D02*
X51362500Y-82787500D01*
X60325000Y-51675000D02*
X60000000Y-52000000D01*
D72*
X50000000Y-49250000D02*
X50500000Y-49750000D01*
X43000000Y-61812466D02*
X43718767Y-62531233D01*
X52250000Y-87520000D02*
X52250000Y-86500000D01*
D73*
X65250000Y-96000000D02*
X68150000Y-96000000D01*
X60325000Y-51675000D02*
X60250000Y-51750000D01*
X63900000Y-73487500D02*
X63537500Y-73487500D01*
D72*
X43000000Y-64000000D02*
X43000000Y-64750000D01*
X50523999Y-46226001D02*
X50750000Y-46000000D01*
X52376000Y-94300000D02*
X53221000Y-94300000D01*
D73*
X60000000Y-52000000D02*
X60000000Y-52250000D01*
D72*
X43750000Y-48000000D02*
X43750000Y-50250000D01*
X47876000Y-98500000D02*
X44956000Y-98500000D01*
X44250000Y-51000000D02*
X45250000Y-51000000D01*
D73*
X66087250Y-67312750D02*
X65912750Y-67487250D01*
X65355000Y-76845000D02*
X65350000Y-76850000D01*
X49000000Y-86082000D02*
X49000000Y-86918000D01*
X54150000Y-74850000D02*
X54150000Y-74900000D01*
X52690000Y-85940000D02*
X52690000Y-84900000D01*
X57600000Y-74650000D02*
X57600000Y-74150000D01*
D72*
X49599998Y-49048000D02*
X49599998Y-49349998D01*
X50750000Y-45750000D02*
X50750000Y-46000000D01*
X44250000Y-63750000D02*
X44250000Y-63062466D01*
X39250000Y-60000000D02*
X40050000Y-60000000D01*
X52250000Y-86500000D02*
X52750000Y-86000000D01*
X46176000Y-94300000D02*
X45331000Y-94300000D01*
X45750000Y-83000000D02*
X45760000Y-82990000D01*
X50676000Y-98500000D02*
X53596000Y-98500000D01*
D73*
X55450000Y-74850000D02*
X55450000Y-74900000D01*
X63800000Y-96000000D02*
X65250000Y-96000000D01*
X54150000Y-74900000D02*
X54800000Y-75550000D01*
X59250000Y-54750000D02*
X59250000Y-53950000D01*
D72*
X44250000Y-63062466D02*
X43718767Y-62531233D01*
X49599998Y-45400002D02*
X49599998Y-46000000D01*
D73*
X69250000Y-55300000D02*
X71100000Y-55300000D01*
D72*
X38500000Y-62750000D02*
X38500000Y-61250000D01*
D73*
X57725000Y-50612500D02*
X57725000Y-51975000D01*
D72*
X44250000Y-50750000D02*
X44250000Y-50770000D01*
D73*
X56200000Y-62900000D02*
X56200000Y-63600000D01*
X46450000Y-41000000D02*
X45250000Y-41000000D01*
X50250000Y-68050000D02*
X49400000Y-68050000D01*
X59500000Y-82600000D02*
X59500000Y-83050000D01*
X59675000Y-50612500D02*
X59675000Y-51675000D01*
D72*
X43000000Y-61450000D02*
X43000000Y-61812466D01*
X41500000Y-62250000D02*
X41250000Y-62500000D01*
D73*
X56950000Y-74700000D02*
X56950000Y-74150000D01*
D72*
X45760000Y-82990000D02*
X46750000Y-82990000D01*
D73*
X48250000Y-51000000D02*
X48750000Y-50500000D01*
D72*
X53221000Y-94300000D02*
X53596000Y-94675000D01*
X50000000Y-49750000D02*
X50500000Y-49750000D01*
D73*
X63537500Y-73487500D02*
X62950000Y-72900000D01*
D72*
X39750000Y-56000000D02*
X39000000Y-56000000D01*
X38500000Y-61750000D02*
X38500000Y-62750000D01*
D73*
X72660000Y-89250000D02*
X73600000Y-89250000D01*
X60325000Y-50612500D02*
X60325000Y-51675000D01*
X55000000Y-91850000D02*
X56200000Y-91850000D01*
X55450000Y-74900000D02*
X54800000Y-75550000D01*
D72*
X45331000Y-94300000D02*
X44956000Y-94675000D01*
D73*
X59675000Y-50612500D02*
X59675000Y-51425000D01*
D72*
X42750000Y-63750000D02*
X43000000Y-64000000D01*
D71*
%TO.N,/XOUTC*%
X54050000Y-58000000D02*
X54050000Y-55300000D01*
X54050000Y-55300000D02*
X54000000Y-55250000D01*
X54050000Y-60890000D02*
X54050000Y-58000000D01*
X54040000Y-60900000D02*
X54050000Y-60890000D01*
D70*
%TO.N,/Vmain*%
X48400000Y-49048000D02*
X48400000Y-49600000D01*
X39750000Y-61500000D02*
X39500000Y-61750000D01*
X59500000Y-82100000D02*
X59500000Y-80705000D01*
X61095000Y-80655000D02*
X61100000Y-80650000D01*
X53962500Y-68050000D02*
X54875500Y-68050000D01*
X69250000Y-56300000D02*
X71100000Y-56300000D01*
X59810000Y-71400000D02*
X59810000Y-70940000D01*
X47250000Y-51500000D02*
X47250000Y-52250000D01*
X42000000Y-61450000D02*
X42000000Y-62750000D01*
X57200000Y-71550000D02*
X57200000Y-72487500D01*
X54800000Y-72487500D02*
X55200000Y-72487500D01*
X59810000Y-71360000D02*
X60100000Y-71650000D01*
X59810000Y-70940000D02*
X59810000Y-68260000D01*
X59810000Y-68260000D02*
X60020000Y-68050000D01*
X48400000Y-49600000D02*
X47250000Y-50750000D01*
X42750000Y-56750000D02*
X46750000Y-56750000D01*
X47010000Y-57010000D02*
X47010000Y-57500000D01*
X54462500Y-72487500D02*
X53500000Y-73450000D01*
X42000000Y-62750000D02*
X42250000Y-63000000D01*
X47240000Y-69500000D02*
X46250000Y-69500000D01*
X54150000Y-74350000D02*
X54150000Y-73900000D01*
X59810000Y-71550000D02*
X59910000Y-71650000D01*
X46750000Y-56750000D02*
X47010000Y-57010000D01*
X54800000Y-72487500D02*
X53962500Y-71650000D01*
X56850000Y-64300000D02*
X57200000Y-64650000D01*
X64850000Y-68050000D02*
X65412750Y-67487250D01*
X46250000Y-69500000D02*
X46125000Y-69375000D01*
X60837500Y-71650000D02*
X61350000Y-71650000D01*
X55200000Y-73750000D02*
X55200000Y-72487500D01*
X56800000Y-72487500D02*
X57200000Y-72487500D01*
X59810000Y-70940000D02*
X59810000Y-71360000D01*
X56850000Y-64100000D02*
X56850000Y-64300000D01*
X48250000Y-60999500D02*
X48250000Y-60260000D01*
X54800000Y-74150000D02*
X55200000Y-73750000D01*
X52000000Y-49000000D02*
X52000000Y-49500000D01*
X39875000Y-61375000D02*
X39750000Y-61500000D01*
X46125000Y-69375000D02*
X44450000Y-67700000D01*
X47450000Y-41000000D02*
X47450000Y-42550000D01*
X51524001Y-48524001D02*
X52525000Y-47523002D01*
X42500000Y-57550000D02*
X42500000Y-57000000D01*
X59810000Y-71400000D02*
X59810000Y-71550000D01*
X54800000Y-72487500D02*
X54462500Y-72487500D01*
X51524001Y-48524001D02*
X52000000Y-49000000D01*
X54800000Y-74350000D02*
X54800000Y-74150000D01*
X52525000Y-47523002D02*
X52525000Y-47000000D01*
X57200000Y-64650000D02*
X57200000Y-65612500D01*
X57457337Y-62602950D02*
X57457337Y-64392663D01*
X59500000Y-80705000D02*
X59450000Y-80655000D01*
X60020000Y-68050000D02*
X60837500Y-68050000D01*
X50000000Y-71700000D02*
X53912500Y-71700000D01*
X57457337Y-64392663D02*
X57200000Y-64650000D01*
X60837500Y-71650000D02*
X60100000Y-71650000D01*
X50523999Y-48524001D02*
X51524001Y-48524001D01*
X47240000Y-69500000D02*
X47240000Y-70500000D01*
X42250000Y-63000000D02*
X42250000Y-63750000D01*
X60837500Y-68050000D02*
X64850000Y-68050000D01*
X40050000Y-60500000D02*
X40050000Y-61200000D01*
X44450000Y-67700000D02*
X44450000Y-67000000D01*
X42500000Y-57000000D02*
X42750000Y-56750000D01*
X48000000Y-57500000D02*
X47010000Y-57500000D01*
X40050000Y-61200000D02*
X39875000Y-61375000D01*
X47250000Y-52250000D02*
X47500000Y-52500000D01*
X48250500Y-61000000D02*
X48250000Y-60999500D01*
X61350000Y-71650000D02*
X62000000Y-72300000D01*
X50750000Y-68050000D02*
X53962500Y-68050000D01*
X54150000Y-73900000D02*
X54800000Y-73250000D01*
X59910000Y-71650000D02*
X59870000Y-71610000D01*
X56800000Y-73150000D02*
X56800000Y-72487500D01*
X54800000Y-73250000D02*
X54800000Y-72487500D01*
X39500000Y-61750000D02*
X39000000Y-61750000D01*
X56950000Y-73300000D02*
X56800000Y-73150000D01*
X56950000Y-73650000D02*
X56950000Y-73300000D01*
X47450000Y-42550000D02*
X47250000Y-42750000D01*
X47250000Y-50750000D02*
X47250000Y-51500000D01*
X53500000Y-73450000D02*
X53500000Y-74350000D01*
X65500000Y-52260000D02*
X66990000Y-52260000D01*
X48250000Y-61000500D02*
X48250500Y-61000000D01*
X60100000Y-71650000D02*
X59910000Y-71650000D01*
X53912500Y-71700000D02*
X53962500Y-71650000D01*
X48250000Y-61990000D02*
X48250000Y-61000500D01*
X59450000Y-80655000D02*
X61095000Y-80655000D01*
%TO.N,/DVDD_RP2040*%
X56800000Y-67050000D02*
X56700000Y-67150000D01*
X56800000Y-65612500D02*
X56800000Y-67050000D01*
X56800000Y-65612500D02*
X56800000Y-65000000D01*
X56200000Y-64400000D02*
X56200000Y-64100000D01*
X57600000Y-72033884D02*
X57850000Y-71783884D01*
X56700000Y-67150000D02*
X55750000Y-67150000D01*
X55975000Y-70925000D02*
X55600000Y-71300000D01*
X57600000Y-73650000D02*
X57600000Y-72487500D01*
X55500000Y-67400000D02*
X55500000Y-71200000D01*
X57850000Y-71783884D02*
X57850000Y-71050000D01*
X55600000Y-72487500D02*
X55600000Y-74200000D01*
X55750000Y-67150000D02*
X55500000Y-67400000D01*
X55600000Y-71300000D02*
X55600000Y-72487500D01*
X55600000Y-74200000D02*
X55450000Y-74350000D01*
X55500000Y-71200000D02*
X55600000Y-71300000D01*
X57600000Y-72487500D02*
X57600000Y-72033884D01*
X57850000Y-71050000D02*
X57725000Y-70925000D01*
X56800000Y-65000000D02*
X56200000Y-64400000D01*
X57725000Y-70925000D02*
X55975000Y-70925000D01*
%TO.N,/VI*%
X60962500Y-87300000D02*
X58700000Y-87300000D01*
X58700000Y-87300000D02*
X58700000Y-91850000D01*
X62562500Y-88900000D02*
X60962500Y-87300000D01*
X58700000Y-91850000D02*
X56700000Y-91850000D01*
%TO.N,/VBUS*%
X46926000Y-94300000D02*
X47000000Y-94374000D01*
X61900000Y-87000000D02*
X61000000Y-86100000D01*
X70700000Y-85100000D02*
X70350000Y-84750000D01*
X51626000Y-94300000D02*
X51626000Y-89655500D01*
X51250000Y-96750000D02*
X51375000Y-96625000D01*
X47250000Y-96750000D02*
X51250000Y-96750000D01*
X54700000Y-85890000D02*
X53710000Y-84900000D01*
X54700000Y-87300000D02*
X54700000Y-85890000D01*
X51585999Y-94340001D02*
X51626000Y-94300000D01*
X51626000Y-89655500D02*
X51640750Y-89640750D01*
X47000000Y-94374000D02*
X47000000Y-96500000D01*
X52250000Y-89031500D02*
X52250000Y-88480000D01*
X68350000Y-91300000D02*
X68550000Y-91500000D01*
X68350000Y-89237500D02*
X68350000Y-91300000D01*
X71462500Y-85100000D02*
X70700000Y-85100000D01*
X51375000Y-96625000D02*
X51585999Y-96414001D01*
X51585999Y-96414001D02*
X51585999Y-94340001D01*
X62562500Y-87000000D02*
X61900000Y-87000000D01*
X47000000Y-96500000D02*
X47250000Y-96750000D01*
X51640750Y-89640750D02*
X52250000Y-89031500D01*
%TO.N,/VO*%
X66500000Y-85010000D02*
X66500000Y-86000000D01*
X61000000Y-90025000D02*
X61000000Y-91850000D01*
X61000000Y-91850000D02*
X61000000Y-94000000D01*
X61000000Y-94000000D02*
X60800000Y-94200000D01*
%TO.N,/ADC VDD*%
X64265000Y-51240000D02*
X63637500Y-50612500D01*
X65500000Y-51240000D02*
X64265000Y-51240000D01*
X63637500Y-50612500D02*
X66800000Y-47450000D01*
X62275000Y-50612500D02*
X63637500Y-50612500D01*
X66800000Y-47450000D02*
X66800000Y-46500000D01*
D71*
%TO.N,/REFin{slash}REFout*%
X58000000Y-49250000D02*
X58375000Y-49625000D01*
X55250000Y-49250000D02*
X58000000Y-49250000D01*
X58375000Y-49625000D02*
X58375000Y-50612500D01*
%TO.N,/XC1*%
X42250000Y-53750000D02*
X42250000Y-51510000D01*
X40250000Y-56000000D02*
X41000000Y-55250000D01*
X41000000Y-57550000D02*
X41000000Y-54550000D01*
X41000000Y-55250000D02*
X41000000Y-54550000D01*
X41000000Y-54550000D02*
X41450000Y-54550000D01*
X42250000Y-51510000D02*
X41990000Y-51250000D01*
X41450000Y-54550000D02*
X42250000Y-53750000D01*
%TO.N,/XC2*%
X43300000Y-52950000D02*
X44000000Y-52950000D01*
X42750000Y-53500000D02*
X43300000Y-52950000D01*
X41500000Y-57550000D02*
X41500000Y-56500000D01*
X44000000Y-52950000D02*
X44000000Y-51750000D01*
X42750000Y-55250000D02*
X42750000Y-53500000D01*
X41500000Y-56500000D02*
X42750000Y-55250000D01*
X44000000Y-51750000D02*
X44250000Y-51500000D01*
X42750000Y-53500000D02*
X42750000Y-51510000D01*
X42750000Y-51510000D02*
X43010000Y-51250000D01*
%TO.N,/REGOUT*%
X49199999Y-49699999D02*
X49199999Y-49048000D01*
X49750000Y-50250000D02*
X49199999Y-49699999D01*
X49750000Y-51250000D02*
X49750000Y-50250000D01*
D70*
%TO.N,/VDD_PA*%
X37750000Y-61000000D02*
X37735000Y-60985000D01*
X37735000Y-60985000D02*
X36500000Y-60985000D01*
X39250000Y-57750000D02*
X39300000Y-57750000D01*
X39300000Y-57750000D02*
X40050000Y-58500000D01*
X39525000Y-57975000D02*
X40050000Y-58500000D01*
X39300000Y-57750000D02*
X39525000Y-57975000D01*
X37750000Y-57750000D02*
X39250000Y-57750000D01*
D72*
%TO.N,/DVDD_RADIO*%
X42500000Y-61450000D02*
X42500000Y-62250000D01*
X42500000Y-62250000D02*
X43750000Y-63500000D01*
X43750000Y-63500000D02*
X43750000Y-63750000D01*
D70*
%TO.N,/L2-C31*%
X36750000Y-54250000D02*
X38000000Y-53000000D01*
X36750000Y-57515000D02*
X36750000Y-54250000D01*
D71*
%TO.N,/SW1 *%
X52237500Y-81050000D02*
X53950000Y-81050000D01*
X52100000Y-81187500D02*
X52237500Y-81050000D01*
%TO.N,/LED_GREEN*%
X64327500Y-72340000D02*
X63900000Y-71912500D01*
X65350000Y-72340000D02*
X64327500Y-72340000D01*
%TO.N,/CSN*%
X51650000Y-67650000D02*
X49000000Y-65000000D01*
X53962500Y-67650000D02*
X51650000Y-67650000D01*
X44375000Y-60000000D02*
X43950000Y-60000000D01*
X47250000Y-65000000D02*
X46500000Y-64250000D01*
X45000000Y-60625000D02*
X44375000Y-60000000D01*
X46250000Y-64000000D02*
X46250000Y-62250000D01*
X46500000Y-64250000D02*
X46250000Y-64000000D01*
X46250000Y-62250000D02*
X46250000Y-61500000D01*
X45000000Y-61250000D02*
X45000000Y-60625000D01*
X49000000Y-65000000D02*
X47250000Y-65000000D01*
%TO.N,/SCK*%
X47750000Y-67500000D02*
X47750000Y-67000000D01*
X53962500Y-68450000D02*
X50050000Y-68450000D01*
X47750000Y-66000000D02*
X47750000Y-65750000D01*
X50050000Y-68450000D02*
X49500000Y-69000000D01*
X48250000Y-68000000D02*
X47750000Y-67500000D01*
X49500000Y-69000000D02*
X49250000Y-69000000D01*
X47750000Y-67000000D02*
X47750000Y-66250000D01*
X47750000Y-66250000D02*
X47750000Y-66000000D01*
X45000000Y-59500000D02*
X43950000Y-59500000D01*
X49250000Y-69000000D02*
X48250000Y-68000000D01*
%TO.N,/MOSI*%
X49750000Y-69250000D02*
X49000000Y-69250000D01*
X47250000Y-67500000D02*
X47250000Y-66000000D01*
X45250000Y-59000000D02*
X43950000Y-59000000D01*
X50150000Y-68850000D02*
X49750000Y-69250000D01*
X53962500Y-68850000D02*
X50150000Y-68850000D01*
X49000000Y-69250000D02*
X47250000Y-67500000D01*
X45750000Y-64500000D02*
X45750000Y-59500000D01*
X45750000Y-59500000D02*
X45250000Y-59000000D01*
X47250000Y-66000000D02*
X45750000Y-64500000D01*
%TO.N,/MISO*%
X45750000Y-58500000D02*
X43950000Y-58500000D01*
X46750000Y-63750000D02*
X46750000Y-59500000D01*
X49000000Y-64500000D02*
X47500000Y-64500000D01*
X46750000Y-59500000D02*
X45750000Y-58500000D01*
X51750000Y-67250000D02*
X49000000Y-64500000D01*
X53962500Y-67250000D02*
X51750000Y-67250000D01*
X47500000Y-64500000D02*
X46750000Y-63750000D01*
%TO.N,/PROG*%
X70262500Y-89250000D02*
X70250000Y-89237500D01*
X71640000Y-89250000D02*
X70262500Y-89250000D01*
D70*
%TO.N,/ANT 1*%
X37970000Y-58735000D02*
X38250000Y-59015000D01*
X40035000Y-59015000D02*
X40050000Y-59000000D01*
X38250000Y-59015000D02*
X40035000Y-59015000D01*
X36500000Y-58735000D02*
X37970000Y-58735000D01*
%TO.N,/ANT 2*%
X38750000Y-59500000D02*
X40050000Y-59500000D01*
X38250000Y-59985000D02*
X38265000Y-59985000D01*
X38250000Y-59985000D02*
X36500000Y-59985000D01*
X38265000Y-59985000D02*
X38750000Y-59500000D01*
D71*
%TO.N,/STAT*%
X73450000Y-87250000D02*
X70537500Y-87250000D01*
X74900000Y-86110000D02*
X74590000Y-86110000D01*
X74590000Y-86110000D02*
X73450000Y-87250000D01*
X70537500Y-87250000D02*
X70250000Y-86962500D01*
D74*
%TO.N,/USB_R+*%
X56400000Y-72487500D02*
X56425001Y-72512501D01*
X56700000Y-76390000D02*
X56425001Y-76115001D01*
X56425001Y-76115001D02*
X56425001Y-72512501D01*
D70*
%TO.N,/VBAT*%
X66000000Y-87950000D02*
X66500000Y-87450000D01*
X66987500Y-86962500D02*
X66500000Y-87450000D01*
X68350000Y-86962500D02*
X66987500Y-86962500D01*
X64437500Y-87950000D02*
X66000000Y-87950000D01*
X66500000Y-93050000D02*
X67450000Y-94000000D01*
X67450000Y-94000000D02*
X68150000Y-94000000D01*
X66500000Y-87450000D02*
X66500000Y-93050000D01*
D74*
%TO.N,/USB+*%
X55376238Y-76940000D02*
X56023762Y-76940000D01*
X49526000Y-94974000D02*
X49526000Y-94300000D01*
X51171800Y-76960000D02*
X55356238Y-76960000D01*
X49500000Y-86082000D02*
X49500000Y-85658249D01*
X49500000Y-87341751D02*
X49525000Y-87366751D01*
X49500000Y-86918000D02*
X49500000Y-86082000D01*
X49026000Y-95026000D02*
X49250000Y-95250000D01*
X49525000Y-85633249D02*
X49525000Y-78606800D01*
X55356238Y-76960000D02*
X55376238Y-76940000D01*
X49526000Y-93315090D02*
X49526000Y-94300000D01*
X56043762Y-76960000D02*
X56250000Y-76960000D01*
X49026000Y-94300000D02*
X49026000Y-95026000D01*
X56023762Y-76940000D02*
X56043762Y-76960000D01*
X49525000Y-87366751D02*
X49525000Y-93314090D01*
X49525000Y-78606800D02*
X51171800Y-76960000D01*
X49500000Y-85658249D02*
X49525000Y-85633249D01*
X49250000Y-95250000D02*
X49526000Y-94974000D01*
X49500000Y-86918000D02*
X49500000Y-87341751D01*
X56250000Y-76960000D02*
X56700000Y-77410000D01*
X49525000Y-93314090D02*
X49526000Y-93315090D01*
%TO.N,/USB-*%
X50000000Y-93339090D02*
X50000000Y-86918000D01*
X50000000Y-86082000D02*
X50000000Y-85658249D01*
X49975000Y-78793200D02*
X51358200Y-77410000D01*
X50000000Y-87341751D02*
X49975000Y-87366751D01*
X48526000Y-94300000D02*
X48526000Y-95776000D01*
X51358200Y-77410000D02*
X55700000Y-77410000D01*
X50026000Y-95724000D02*
X50026000Y-94300000D01*
X50026000Y-93365090D02*
X50000000Y-93339090D01*
X50026000Y-93365090D02*
X50026000Y-94300000D01*
X48526000Y-95776000D02*
X48750000Y-96000000D01*
X48750000Y-96000000D02*
X49750000Y-96000000D01*
X49750000Y-96000000D02*
X50026000Y-95724000D01*
X50000000Y-85658249D02*
X49975000Y-85633249D01*
X50000000Y-86918000D02*
X50000000Y-87341751D01*
X50000000Y-86918000D02*
X50000000Y-86082000D01*
X49975000Y-85633249D02*
X49975000Y-78793200D01*
D71*
%TO.N,/GPIO 0*%
X66610000Y-73360000D02*
X67550000Y-74300000D01*
X67250000Y-72995000D02*
X67250000Y-74000000D01*
X60837500Y-71250000D02*
X65505000Y-71250000D01*
X65505000Y-71250000D02*
X67250000Y-72995000D01*
X65350000Y-73360000D02*
X66610000Y-73360000D01*
X67250000Y-74000000D02*
X67550000Y-74300000D01*
X67550000Y-74300000D02*
X69250000Y-74300000D01*
%TO.N,/GPIO 1*%
X68000000Y-73300000D02*
X69250000Y-73300000D01*
X65550000Y-70850000D02*
X68000000Y-73300000D01*
X60837500Y-70850000D02*
X65550000Y-70850000D01*
%TO.N,/GPIO 3*%
X60837500Y-70050000D02*
X67345000Y-70050000D01*
X68595000Y-71300000D02*
X69250000Y-71300000D01*
X67345000Y-70050000D02*
X68595000Y-71300000D01*
%TO.N,/GPIO 4*%
X67900000Y-69650000D02*
X68550000Y-70300000D01*
X60837500Y-69650000D02*
X67900000Y-69650000D01*
X68550000Y-70300000D02*
X69250000Y-70300000D01*
%TO.N,/GPIO 5*%
X60887500Y-69300000D02*
X69250000Y-69300000D01*
X60837500Y-69250000D02*
X60887500Y-69300000D01*
%TO.N,/GPIO 6*%
X68555000Y-68300000D02*
X69250000Y-68300000D01*
X60837500Y-68850000D02*
X68005000Y-68850000D01*
X68005000Y-68850000D02*
X68555000Y-68300000D01*
%TO.N,/GPIO 7*%
X60837500Y-68450000D02*
X67405000Y-68450000D01*
X68555000Y-67300000D02*
X69250000Y-67300000D01*
X67405000Y-68450000D02*
X68555000Y-67300000D01*
%TO.N,/GPIO 8*%
X62669670Y-67650000D02*
X64019670Y-66300000D01*
X60837500Y-67650000D02*
X62669670Y-67650000D01*
X64019670Y-66300000D02*
X69250000Y-66300000D01*
%TO.N,/GPIO 9*%
X64666116Y-65300000D02*
X69250000Y-65300000D01*
X60837500Y-67250000D02*
X62716116Y-67250000D01*
X62716116Y-67250000D02*
X64666116Y-65300000D01*
%TO.N,/GPIO 10*%
X65100000Y-64300000D02*
X69250000Y-64300000D01*
X62550000Y-66850000D02*
X65100000Y-64300000D01*
X60837500Y-66850000D02*
X62550000Y-66850000D01*
%TO.N,/GPIO 11*%
X62450000Y-66450000D02*
X65600000Y-63300000D01*
X65600000Y-63300000D02*
X69250000Y-63300000D01*
X60837500Y-66450000D02*
X62450000Y-66450000D01*
%TO.N,/GPIO 12*%
X65650000Y-62300000D02*
X69250000Y-62300000D01*
X62337500Y-65612500D02*
X65650000Y-62300000D01*
X60000000Y-65612500D02*
X62337500Y-65612500D01*
%TO.N,/GPIO 13*%
X59600000Y-65612500D02*
X59600000Y-65256802D01*
X59600000Y-65256802D02*
X63556802Y-61300000D01*
X63556802Y-61300000D02*
X69250000Y-61300000D01*
%TO.N,/GPIO 14*%
X64156802Y-60300000D02*
X69250000Y-60300000D01*
X59200000Y-65256802D02*
X64156802Y-60300000D01*
X59200000Y-65612500D02*
X59200000Y-65256802D01*
%TO.N,/GPIO 16*%
X51000000Y-53000000D02*
X49750000Y-54250000D01*
X55200000Y-65256802D02*
X55200000Y-65612500D01*
X52000000Y-53000000D02*
X51000000Y-53000000D01*
X53943198Y-64000000D02*
X55200000Y-65256802D01*
X49750000Y-54250000D02*
X49750000Y-61500000D01*
X49750000Y-61500000D02*
X52250000Y-64000000D01*
X52250000Y-64000000D02*
X53943198Y-64000000D01*
X65450000Y-41000000D02*
X65450000Y-42750000D01*
%TO.N,/GPIO 17*%
X49500000Y-54000000D02*
X50500000Y-53000000D01*
X64450000Y-42700000D02*
X64450000Y-41000000D01*
X50500000Y-53000000D02*
X51250000Y-52250000D01*
X53362500Y-65612500D02*
X49500000Y-61750000D01*
X49500000Y-61750000D02*
X49500000Y-54000000D01*
X54800000Y-65612500D02*
X53362500Y-65612500D01*
X51250000Y-52250000D02*
X52000000Y-52250000D01*
X64500000Y-42750000D02*
X64450000Y-42700000D01*
%TO.N,/IMU SDA {slash} GPIO 18*%
X48990000Y-63750000D02*
X48250000Y-63010000D01*
X51750000Y-66250000D02*
X52750000Y-66250000D01*
X47999998Y-45499998D02*
X47999998Y-46000000D01*
X52950000Y-66450000D02*
X52750000Y-66250000D01*
X53962500Y-66450000D02*
X52950000Y-66450000D01*
X47750000Y-45250000D02*
X47999998Y-45499998D01*
X49250000Y-63750000D02*
X48990000Y-63750000D01*
%TO.N,/IMU SCL {slash} GPIO 19*%
X47841329Y-44537011D02*
X47841329Y-44676648D01*
X47841329Y-44676648D02*
X48400000Y-45235319D01*
X50750000Y-64500000D02*
X49000000Y-62750000D01*
X48400000Y-45235319D02*
X48400000Y-46000000D01*
X52500000Y-66750000D02*
X52600000Y-66850000D01*
X52600000Y-66850000D02*
X53962500Y-66850000D01*
X49000000Y-62750000D02*
X49000000Y-59750000D01*
X48250000Y-59000000D02*
X48250000Y-58990000D01*
X49000000Y-59750000D02*
X48250000Y-59000000D01*
%TO.N,/External ADC SDA {slash} GPIO 20*%
X51000000Y-69750000D02*
X51500000Y-69250000D01*
X62250000Y-52750000D02*
X64250000Y-52750000D01*
X51500000Y-69250000D02*
X53962500Y-69250000D01*
X64250000Y-52750000D02*
X65750000Y-54250000D01*
X48510000Y-69750000D02*
X51000000Y-69750000D01*
X61625000Y-52125000D02*
X62250000Y-52750000D01*
X61625000Y-50612500D02*
X61625000Y-52125000D01*
X48260000Y-69500000D02*
X48510000Y-69750000D01*
X65750000Y-54250000D02*
X66000000Y-54250000D01*
%TO.N,/External ADC SCL {slash} GPIO 21*%
X63250000Y-53250000D02*
X62000000Y-53250000D01*
X61000000Y-52250000D02*
X61000000Y-51113909D01*
X50750000Y-70500000D02*
X48260000Y-70500000D01*
X62000000Y-53250000D02*
X61000000Y-52250000D01*
X51600000Y-69650000D02*
X50750000Y-70500000D01*
X61000000Y-51113909D02*
X60975000Y-51088909D01*
X65250000Y-55250000D02*
X63250000Y-53250000D01*
X53962500Y-69650000D02*
X51600000Y-69650000D01*
X66000000Y-55250000D02*
X65250000Y-55250000D01*
X60975000Y-51088909D02*
X60975000Y-50612500D01*
%TO.N,/ACH0*%
X63450000Y-41000000D02*
X63450000Y-41800000D01*
X63450000Y-41800000D02*
X62275000Y-42975000D01*
X62275000Y-42975000D02*
X62275000Y-44887500D01*
%TO.N,/ACH1*%
X61625000Y-44887500D02*
X61625000Y-42520000D01*
X61625000Y-42520000D02*
X62450000Y-41695000D01*
X62450000Y-41695000D02*
X62450000Y-41000000D01*
%TO.N,/ACH2*%
X60975000Y-44887500D02*
X60975000Y-42775000D01*
X61450000Y-42300000D02*
X61450000Y-41000000D01*
X60975000Y-42775000D02*
X61450000Y-42300000D01*
%TO.N,/ACH3*%
X60450000Y-43300000D02*
X60450000Y-41000000D01*
X60325000Y-44887500D02*
X60325000Y-43425000D01*
X60325000Y-44887500D02*
X60450000Y-44762500D01*
X60325000Y-43425000D02*
X60450000Y-43300000D01*
%TO.N,/ACH5*%
X59025000Y-44887500D02*
X59025000Y-42775000D01*
X58450000Y-42200000D02*
X58450000Y-41000000D01*
X59025000Y-42775000D02*
X58450000Y-42200000D01*
%TO.N,/ACH6*%
X58375000Y-43625000D02*
X57450000Y-42700000D01*
X58375000Y-44887500D02*
X58375000Y-43625000D01*
X57450000Y-42700000D02*
X57450000Y-41000000D01*
%TO.N,/ACH7*%
X56450000Y-42450000D02*
X56450000Y-41000000D01*
X57725000Y-44887500D02*
X57725000Y-43725000D01*
X57725000Y-43725000D02*
X56450000Y-42450000D01*
%TO.N,/COM*%
X59000000Y-48250000D02*
X59000000Y-50587500D01*
X55450000Y-44700000D02*
X59000000Y-48250000D01*
X59000000Y-50587500D02*
X59025000Y-50612500D01*
X55450000Y-41000000D02*
X55450000Y-44700000D01*
%TO.N,/ADC 1*%
X54450000Y-39550000D02*
X54450000Y-41000000D01*
X53962500Y-70050000D02*
X54734400Y-70050000D01*
X54500000Y-39500000D02*
X54450000Y-39550000D01*
X54734400Y-70050000D02*
X54778479Y-70005921D01*
%TO.N,/ADC 2*%
X53500000Y-42500000D02*
X53500000Y-43000000D01*
X53450000Y-41000000D02*
X53450000Y-42450000D01*
X53962500Y-70450000D02*
X52950000Y-70450000D01*
X52950000Y-70450000D02*
X52750000Y-70250000D01*
X53450000Y-42450000D02*
X53500000Y-42500000D01*
%TO.N,/ADC 3*%
X52500000Y-39500000D02*
X52450000Y-39550000D01*
X54650000Y-70850000D02*
X54750000Y-70750000D01*
X53962500Y-70850000D02*
X54650000Y-70850000D01*
X52450000Y-39550000D02*
X52450000Y-41000000D01*
%TO.N,/ADC 4*%
X53962500Y-71250000D02*
X52750000Y-71250000D01*
X51450000Y-41000000D02*
X51450000Y-42450000D01*
X52750000Y-71250000D02*
X52250000Y-70750000D01*
X51450000Y-42950000D02*
X51450000Y-41000000D01*
X51500000Y-43000000D02*
X51450000Y-42950000D01*
%TO.N,/~{USB BOOT}*%
X62540000Y-83310000D02*
X61850000Y-84000000D01*
X58050000Y-84000000D02*
X57350000Y-83300000D01*
X61850000Y-84000000D02*
X58050000Y-84000000D01*
X57350000Y-83300000D02*
X57350000Y-81050000D01*
X62540000Y-82350000D02*
X62540000Y-83310000D01*
%TO.N,/QSPI_SS*%
X64955000Y-82350000D02*
X66650000Y-80655000D01*
X66650000Y-80655000D02*
X67645000Y-80655000D01*
X60000000Y-74000000D02*
X60000000Y-72487500D01*
X67150000Y-74650000D02*
X60650000Y-74650000D01*
X67645000Y-80655000D02*
X69050000Y-79250000D01*
X69050000Y-76550000D02*
X67150000Y-74650000D01*
X60650000Y-74650000D02*
X60000000Y-74000000D01*
X63560000Y-82350000D02*
X64955000Y-82350000D01*
X69050000Y-79250000D02*
X69050000Y-76550000D01*
D74*
%TO.N,/USB_R-*%
X55700000Y-76390000D02*
X55974999Y-76115001D01*
X55974999Y-76115001D02*
X55974999Y-72512501D01*
X56000000Y-72487500D02*
X55974999Y-72512501D01*
D71*
%TO.N,/IREF*%
X40250000Y-62200000D02*
X40250000Y-63250000D01*
X41000000Y-61450000D02*
X40250000Y-62200000D01*
%TO.N,/XOUT*%
X57600000Y-64674264D02*
X57600000Y-65612500D01*
X58200000Y-64074264D02*
X57600000Y-64674264D01*
X58200000Y-61800000D02*
X58200000Y-64074264D01*
X55060000Y-60900000D02*
X57300000Y-60900000D01*
X57300000Y-60900000D02*
X58200000Y-61800000D01*
%TO.N,/CE*%
X44250000Y-60800000D02*
X43950000Y-60500000D01*
X44250000Y-61250000D02*
X44250000Y-60800000D01*
X47250000Y-63500000D02*
X47250000Y-62000000D01*
X49470000Y-64220000D02*
X47970000Y-64220000D01*
X58800000Y-64950000D02*
X59250000Y-64500000D01*
X58800000Y-65612500D02*
X58800000Y-64950000D01*
X52000000Y-65000000D02*
X50250000Y-65000000D01*
X50250000Y-65000000D02*
X50000000Y-64750000D01*
X47970000Y-64220000D02*
X47250000Y-63500000D01*
X58800000Y-65612500D02*
X58800000Y-65256802D01*
X50000000Y-64750000D02*
X49470000Y-64220000D01*
%TO.N,/QSPI_SD1*%
X68400000Y-76600000D02*
X66850000Y-75050000D01*
X60450000Y-75050000D02*
X59600000Y-74200000D01*
X67615000Y-79385000D02*
X68400000Y-78600000D01*
X59600000Y-74200000D02*
X59600000Y-72487500D01*
X66850000Y-75050000D02*
X60450000Y-75050000D01*
X66650000Y-79385000D02*
X67615000Y-79385000D01*
X68400000Y-78600000D02*
X68400000Y-76600000D01*
%TO.N,/QSPI_SD2*%
X59200000Y-75050000D02*
X59200000Y-72487500D01*
X66650000Y-78115000D02*
X62265000Y-78115000D01*
X62265000Y-78115000D02*
X59200000Y-75050000D01*
%TO.N,/QSPI_SD0*%
X59450000Y-76845000D02*
X58800000Y-76195000D01*
X58800000Y-76195000D02*
X58800000Y-72487500D01*
%TO.N,/QSPI_SCLK*%
X59450000Y-78115000D02*
X58665000Y-78115000D01*
X58400000Y-77850000D02*
X58400000Y-72487500D01*
X58665000Y-78115000D02*
X58400000Y-77850000D01*
%TO.N,/QSPI_SD3*%
X59450000Y-79385000D02*
X58635000Y-79385000D01*
X58635000Y-79385000D02*
X58000000Y-78750000D01*
X58000000Y-78750000D02*
X58000000Y-72487500D01*
%TO.N,/GPIO 2*%
X68555000Y-72300000D02*
X69250000Y-72300000D01*
X66705000Y-70450000D02*
X68555000Y-72300000D01*
X60837500Y-70450000D02*
X66705000Y-70450000D01*
%TO.N,/SWCLK*%
X63800000Y-58300000D02*
X69250000Y-58300000D01*
X56400000Y-65612500D02*
X56400000Y-66350000D01*
X56400000Y-65200000D02*
X56400000Y-65612500D01*
X56400000Y-66350000D02*
X56150000Y-66600000D01*
%TO.N,/SWD*%
X55500000Y-66585319D02*
X55500000Y-66600000D01*
X56000000Y-65612500D02*
X56000000Y-66085319D01*
X56000000Y-66085319D02*
X55500000Y-66585319D01*
X67150000Y-57300000D02*
X69250000Y-57300000D01*
%TO.N,/ACH4*%
X59450000Y-43600000D02*
X59450000Y-41000000D01*
X59675000Y-43825000D02*
X59450000Y-43600000D01*
X59675000Y-44887500D02*
X59675000Y-43825000D01*
%TO.N,/AUX_CL*%
X48450000Y-41000000D02*
X48450000Y-42700000D01*
X47999998Y-49048000D02*
X47999998Y-49250002D01*
X47999998Y-49250002D02*
X47500000Y-49750000D01*
%TO.N,/AUX_DA*%
X49450000Y-43300000D02*
X49450000Y-41000000D01*
X49199999Y-46000000D02*
X49199999Y-43550001D01*
X49199999Y-43550001D02*
X49450000Y-43300000D01*
%TO.N,/RUN*%
X64756802Y-59300000D02*
X61931802Y-62125000D01*
X50450000Y-39550000D02*
X50750000Y-39250000D01*
X60625000Y-62125000D02*
X60250000Y-62500000D01*
X55000000Y-63250000D02*
X55600000Y-63850000D01*
X61931802Y-62125000D02*
X60625000Y-62125000D01*
X50450000Y-41000000D02*
X50450000Y-39550000D01*
X64756802Y-59300000D02*
X69250000Y-59300000D01*
X55600000Y-63850000D02*
X55600000Y-65612500D01*
%TO.N,/LED_BLUE*%
X73037500Y-85100000D02*
X74890000Y-85100000D01*
X74890000Y-85100000D02*
X74900000Y-85090000D01*
%TO.N,/CC1*%
X48500000Y-86500000D02*
X48500000Y-84510000D01*
X48500000Y-86918000D02*
X48500000Y-86500000D01*
X48500000Y-84510000D02*
X48000000Y-84010000D01*
X47526000Y-89144500D02*
X47526000Y-94300000D01*
X48500000Y-88170500D02*
X47526000Y-89144500D01*
X48500000Y-86500000D02*
X48500000Y-88170500D01*
%TO.N,/CC2*%
X47000000Y-88750000D02*
X48000000Y-87750000D01*
X48000000Y-86918000D02*
X48000000Y-86082000D01*
X46750000Y-84010000D02*
X48000000Y-85260000D01*
X48000000Y-87750000D02*
X48000000Y-86918000D01*
X50526000Y-94300000D02*
X50526000Y-95276000D01*
X48000000Y-86082000D02*
X48000000Y-85260000D01*
X50526000Y-95276000D02*
X50750000Y-95500000D01*
D70*
%TO.N,/R18-Power_on*%
X43900000Y-75650000D02*
X43800000Y-75550000D01*
X66500000Y-83990000D02*
X65910000Y-83990000D01*
X65910000Y-83990000D02*
X65400000Y-84500000D01*
X43900000Y-76650000D02*
X43900000Y-75650000D01*
%TO.N,Net-(IC1-Pad6)*%
X43000000Y-57550000D02*
X45950000Y-57550000D01*
X45950000Y-57550000D02*
X46000000Y-57500000D01*
%TD*%
%TA.AperFunction,Conductor*%
%TO.N,GND*%
G36*
X61792121Y-53520002D02*
G01*
X61838614Y-53573658D01*
X61850000Y-53626000D01*
X61850000Y-61823500D01*
X61829998Y-61891621D01*
X61776342Y-61938114D01*
X61724000Y-61949500D01*
X60653687Y-61949500D01*
X60630805Y-61947337D01*
X60630517Y-61947352D01*
X60615540Y-61944495D01*
X60600944Y-61948902D01*
X60581827Y-61954674D01*
X60575464Y-61956415D01*
X60541258Y-61964817D01*
X60537624Y-61968021D01*
X60532990Y-61969420D01*
X60530298Y-61971508D01*
X60526835Y-61974971D01*
X60513555Y-61981825D01*
X60512004Y-61978821D01*
X60469739Y-61998560D01*
X60450745Y-62000000D01*
X59551500Y-62000000D01*
X59483379Y-61979998D01*
X59436886Y-61926342D01*
X59425500Y-61874000D01*
X59425500Y-59426499D01*
X59445502Y-59358378D01*
X59499158Y-59311885D01*
X59551500Y-59300499D01*
X61009898Y-59300499D01*
X61023810Y-59297732D01*
X61027045Y-59297089D01*
X61039213Y-59294669D01*
X61072457Y-59272457D01*
X61094669Y-59239213D01*
X61100500Y-59209899D01*
X61100499Y-56790102D01*
X61097732Y-56776190D01*
X61097089Y-56772955D01*
X61094669Y-56760787D01*
X61072457Y-56727543D01*
X61039213Y-56705331D01*
X61009899Y-56699500D01*
X59551500Y-56699500D01*
X59483379Y-56679498D01*
X59436886Y-56625842D01*
X59425500Y-56573500D01*
X59425500Y-55576324D01*
X59445502Y-55508203D01*
X59450127Y-55502464D01*
X59451528Y-55501528D01*
X59454663Y-55496836D01*
X59454668Y-55496830D01*
X59474552Y-55467072D01*
X59531098Y-55420667D01*
X59611386Y-55387410D01*
X59625569Y-55379221D01*
X59734248Y-55295829D01*
X59745828Y-55284250D01*
X59829223Y-55175566D01*
X59837410Y-55161385D01*
X59889833Y-55034825D01*
X59894072Y-55019005D01*
X59907462Y-54917300D01*
X59907517Y-54916469D01*
X59903525Y-54902876D01*
X59902135Y-54901671D01*
X59894452Y-54900000D01*
X58610115Y-54900000D01*
X58594876Y-54904475D01*
X58593671Y-54905865D01*
X58592224Y-54912516D01*
X58592538Y-54917300D01*
X58605928Y-55019005D01*
X58610167Y-55034825D01*
X58662590Y-55161386D01*
X58670779Y-55175569D01*
X58754171Y-55284248D01*
X58765750Y-55295828D01*
X58874434Y-55379223D01*
X58888615Y-55387410D01*
X58968902Y-55420666D01*
X59025449Y-55467073D01*
X59048472Y-55501529D01*
X59046224Y-55503031D01*
X59071621Y-55549541D01*
X59074500Y-55576324D01*
X59074500Y-56573501D01*
X59054498Y-56641622D01*
X59000842Y-56688115D01*
X58948500Y-56699501D01*
X57490102Y-56699501D01*
X57476190Y-56702268D01*
X57472961Y-56702910D01*
X57460787Y-56705331D01*
X57427543Y-56727543D01*
X57405331Y-56760787D01*
X57399500Y-56790101D01*
X57399501Y-59209898D01*
X57400709Y-59215971D01*
X57402911Y-59227042D01*
X57405331Y-59239213D01*
X57427543Y-59272457D01*
X57460787Y-59294669D01*
X57490101Y-59300500D01*
X58948500Y-59300500D01*
X59016621Y-59320502D01*
X59063114Y-59374158D01*
X59074500Y-59426500D01*
X59074500Y-61874000D01*
X59054498Y-61942121D01*
X59000842Y-61988614D01*
X58948500Y-62000000D01*
X58501500Y-62000000D01*
X58433379Y-61979998D01*
X58386886Y-61926342D01*
X58375500Y-61874000D01*
X58375500Y-61828681D01*
X58377662Y-61805808D01*
X58377647Y-61805518D01*
X58380504Y-61790540D01*
X58370323Y-61756821D01*
X58368583Y-61750458D01*
X58362644Y-61726277D01*
X58362644Y-61726276D01*
X58360183Y-61716258D01*
X58356979Y-61712624D01*
X58355580Y-61707990D01*
X58353492Y-61705298D01*
X58331195Y-61683001D01*
X58325776Y-61677231D01*
X58303158Y-61651576D01*
X58304039Y-61650800D01*
X58300598Y-61646526D01*
X58297659Y-61649465D01*
X57444380Y-60796185D01*
X57429731Y-60778478D01*
X57429517Y-60778285D01*
X57420947Y-60765675D01*
X57400442Y-60754680D01*
X57389920Y-60749038D01*
X57384194Y-60745773D01*
X57377580Y-60741767D01*
X57354052Y-60727519D01*
X57349218Y-60727215D01*
X57344951Y-60724927D01*
X57341571Y-60724500D01*
X57310016Y-60724500D01*
X57302105Y-60724251D01*
X57267992Y-60722105D01*
X57268066Y-60720933D01*
X57262613Y-60720344D01*
X57262613Y-60724500D01*
X55540403Y-60724500D01*
X55472282Y-60704498D01*
X55423995Y-60646720D01*
X55419257Y-60635281D01*
X55416836Y-60623112D01*
X55364786Y-60545214D01*
X55354470Y-60538321D01*
X55297205Y-60500057D01*
X55297203Y-60500056D01*
X55286888Y-60493164D01*
X55274721Y-60490744D01*
X55274719Y-60490743D01*
X55239925Y-60483822D01*
X55218196Y-60479500D01*
X54901804Y-60479500D01*
X54880075Y-60483822D01*
X54845281Y-60490743D01*
X54845279Y-60490744D01*
X54833112Y-60493164D01*
X54822797Y-60500056D01*
X54822795Y-60500057D01*
X54765530Y-60538321D01*
X54755214Y-60545214D01*
X54748321Y-60555530D01*
X54710057Y-60612795D01*
X54710056Y-60612797D01*
X54703164Y-60623112D01*
X54689500Y-60691804D01*
X54689500Y-61108196D01*
X54703164Y-61176888D01*
X54710056Y-61187203D01*
X54710057Y-61187205D01*
X54748321Y-61244470D01*
X54755214Y-61254786D01*
X54765530Y-61261679D01*
X54822795Y-61299943D01*
X54822797Y-61299944D01*
X54833112Y-61306836D01*
X54845279Y-61309256D01*
X54845281Y-61309257D01*
X54880075Y-61316178D01*
X54901804Y-61320500D01*
X55218196Y-61320500D01*
X55239925Y-61316178D01*
X55274719Y-61309257D01*
X55274721Y-61309256D01*
X55286888Y-61306836D01*
X55297203Y-61299944D01*
X55297205Y-61299943D01*
X55354470Y-61261679D01*
X55364786Y-61254786D01*
X55371679Y-61244470D01*
X55409942Y-61187206D01*
X55409942Y-61187205D01*
X55416836Y-61176888D01*
X55419257Y-61164719D01*
X55423995Y-61153280D01*
X55468544Y-61098000D01*
X55540403Y-61075500D01*
X57175116Y-61075500D01*
X57243237Y-61095502D01*
X57264211Y-61112405D01*
X57936711Y-61784905D01*
X57970737Y-61847217D01*
X57965672Y-61918032D01*
X57923125Y-61974868D01*
X57856605Y-61999679D01*
X57847616Y-62000000D01*
X51325261Y-62000000D01*
X51257140Y-61979998D01*
X51210647Y-61926342D01*
X51199263Y-61874741D01*
X51198570Y-61756824D01*
X51184121Y-59300499D01*
X51169354Y-56790101D01*
X52199500Y-56790101D01*
X52199501Y-59209898D01*
X52200709Y-59215971D01*
X52202911Y-59227042D01*
X52205331Y-59239213D01*
X52227543Y-59272457D01*
X52260787Y-59294669D01*
X52290101Y-59300500D01*
X53748500Y-59300500D01*
X53816621Y-59320502D01*
X53863114Y-59374158D01*
X53874500Y-59426500D01*
X53874500Y-60386166D01*
X53854498Y-60454287D01*
X53811274Y-60490413D01*
X53813112Y-60493164D01*
X53735214Y-60545214D01*
X53728321Y-60555530D01*
X53690057Y-60612795D01*
X53690056Y-60612797D01*
X53683164Y-60623112D01*
X53669500Y-60691804D01*
X53669500Y-61108196D01*
X53683164Y-61176888D01*
X53690056Y-61187203D01*
X53690057Y-61187205D01*
X53728321Y-61244470D01*
X53735214Y-61254786D01*
X53745530Y-61261679D01*
X53802795Y-61299943D01*
X53802797Y-61299944D01*
X53813112Y-61306836D01*
X53825279Y-61309256D01*
X53825281Y-61309257D01*
X53860075Y-61316178D01*
X53881804Y-61320500D01*
X54198196Y-61320500D01*
X54219925Y-61316178D01*
X54254719Y-61309257D01*
X54254721Y-61309256D01*
X54266888Y-61306836D01*
X54277203Y-61299944D01*
X54277205Y-61299943D01*
X54334470Y-61261679D01*
X54344786Y-61254786D01*
X54351679Y-61244470D01*
X54389943Y-61187205D01*
X54389944Y-61187203D01*
X54396836Y-61176888D01*
X54410500Y-61108196D01*
X54410500Y-60691804D01*
X54396836Y-60623112D01*
X54389944Y-60612797D01*
X54389943Y-60612795D01*
X54351679Y-60555530D01*
X54344786Y-60545214D01*
X54281498Y-60502926D01*
X54235970Y-60448449D01*
X54225500Y-60398161D01*
X54225500Y-59426499D01*
X54245502Y-59358378D01*
X54299158Y-59311885D01*
X54351500Y-59300499D01*
X55809898Y-59300499D01*
X55823810Y-59297732D01*
X55827045Y-59297089D01*
X55839213Y-59294669D01*
X55872457Y-59272457D01*
X55894669Y-59239213D01*
X55900500Y-59209899D01*
X55900499Y-56790102D01*
X55897732Y-56776190D01*
X55897089Y-56772955D01*
X55894669Y-56760787D01*
X55872457Y-56727543D01*
X55839213Y-56705331D01*
X55809899Y-56699500D01*
X54351500Y-56699500D01*
X54283379Y-56679498D01*
X54236886Y-56625842D01*
X54225500Y-56573500D01*
X54225500Y-55576324D01*
X54245502Y-55508203D01*
X54250127Y-55502464D01*
X54251528Y-55501528D01*
X54254663Y-55496836D01*
X54254668Y-55496830D01*
X54274552Y-55467072D01*
X54331098Y-55420667D01*
X54411386Y-55387410D01*
X54425569Y-55379221D01*
X54534248Y-55295829D01*
X54545828Y-55284250D01*
X54629223Y-55175566D01*
X54637410Y-55161385D01*
X54689833Y-55034825D01*
X54694072Y-55019005D01*
X54707462Y-54917300D01*
X54707517Y-54916469D01*
X54703525Y-54902876D01*
X54702135Y-54901671D01*
X54694452Y-54900000D01*
X53410115Y-54900000D01*
X53394876Y-54904475D01*
X53393671Y-54905865D01*
X53392224Y-54912516D01*
X53392538Y-54917300D01*
X53405928Y-55019005D01*
X53410167Y-55034825D01*
X53462590Y-55161386D01*
X53470779Y-55175569D01*
X53554171Y-55284248D01*
X53565750Y-55295828D01*
X53674434Y-55379223D01*
X53688615Y-55387410D01*
X53768902Y-55420666D01*
X53825449Y-55467073D01*
X53848472Y-55501529D01*
X53846224Y-55503031D01*
X53871621Y-55549541D01*
X53874500Y-55576324D01*
X53874500Y-56573501D01*
X53854498Y-56641622D01*
X53800842Y-56688115D01*
X53748500Y-56699501D01*
X52290102Y-56699501D01*
X52276190Y-56702268D01*
X52272961Y-56702910D01*
X52260787Y-56705331D01*
X52227543Y-56727543D01*
X52205331Y-56760787D01*
X52199500Y-56790101D01*
X51169354Y-56790101D01*
X51156374Y-54583531D01*
X53392483Y-54583531D01*
X53396475Y-54597124D01*
X53397865Y-54598329D01*
X53405548Y-54600000D01*
X53881885Y-54600000D01*
X53897124Y-54595525D01*
X53898329Y-54594135D01*
X53900000Y-54586452D01*
X53900000Y-54581885D01*
X54200000Y-54581885D01*
X54204475Y-54597124D01*
X54205865Y-54598329D01*
X54213548Y-54600000D01*
X54689885Y-54600000D01*
X54705124Y-54595525D01*
X54706329Y-54594135D01*
X54707776Y-54587484D01*
X54707517Y-54583531D01*
X58592483Y-54583531D01*
X58596475Y-54597124D01*
X58597865Y-54598329D01*
X58605548Y-54600000D01*
X59081885Y-54600000D01*
X59097124Y-54595525D01*
X59098329Y-54594135D01*
X59100000Y-54586452D01*
X59100000Y-54581885D01*
X59400000Y-54581885D01*
X59404475Y-54597124D01*
X59405865Y-54598329D01*
X59413548Y-54600000D01*
X59889885Y-54600000D01*
X59905124Y-54595525D01*
X59906329Y-54594135D01*
X59907776Y-54587484D01*
X59907462Y-54582700D01*
X59894072Y-54480995D01*
X59889833Y-54465175D01*
X59837410Y-54338614D01*
X59829221Y-54324431D01*
X59745829Y-54215752D01*
X59734250Y-54204172D01*
X59625566Y-54120777D01*
X59611385Y-54112590D01*
X59484825Y-54060167D01*
X59469005Y-54055928D01*
X59417960Y-54049208D01*
X59403778Y-54051419D01*
X59400000Y-54064576D01*
X59400000Y-54581885D01*
X59100000Y-54581885D01*
X59100000Y-54064958D01*
X59095956Y-54051187D01*
X59082417Y-54049158D01*
X59030995Y-54055928D01*
X59015175Y-54060167D01*
X58888614Y-54112590D01*
X58874431Y-54120779D01*
X58765752Y-54204171D01*
X58754172Y-54215750D01*
X58670777Y-54324434D01*
X58662590Y-54338615D01*
X58610167Y-54465175D01*
X58605928Y-54480995D01*
X58592538Y-54582700D01*
X58592483Y-54583531D01*
X54707517Y-54583531D01*
X54707462Y-54582700D01*
X54694072Y-54480995D01*
X54689833Y-54465175D01*
X54637410Y-54338614D01*
X54629221Y-54324431D01*
X54545829Y-54215752D01*
X54534250Y-54204172D01*
X54425566Y-54120777D01*
X54411385Y-54112590D01*
X54284825Y-54060167D01*
X54269005Y-54055928D01*
X54217960Y-54049208D01*
X54203778Y-54051419D01*
X54200000Y-54064576D01*
X54200000Y-54581885D01*
X53900000Y-54581885D01*
X53900000Y-54064958D01*
X53895956Y-54051187D01*
X53882417Y-54049158D01*
X53830995Y-54055928D01*
X53815175Y-54060167D01*
X53688614Y-54112590D01*
X53674431Y-54120779D01*
X53565752Y-54204171D01*
X53554172Y-54215750D01*
X53470777Y-54324434D01*
X53462590Y-54338615D01*
X53410167Y-54465175D01*
X53405928Y-54480995D01*
X53392538Y-54582700D01*
X53392483Y-54583531D01*
X51156374Y-54583531D01*
X51150746Y-53626741D01*
X51170347Y-53558504D01*
X51223728Y-53511696D01*
X51276744Y-53500000D01*
X61724000Y-53500000D01*
X61792121Y-53520002D01*
G37*
%TD.AperFunction*%
%TD*%
M02*
