M48
; DRILL file {KiCad (6.0.7)} date Sun Jan 15 17:43:20 2023
; FORMAT={-:-/ absolute / inch / decimal}
; #@! TF.CreationDate,2023-01-15T17:43:20+08:00
; #@! TF.GenerationSoftware,Kicad,Pcbnew,(6.0.7)
; #@! TF.FileFunction,Plated,1,4,PTH
FMAT,2
INCH
; #@! TA.AperFunction,Plated,PTH,ViaDrill
T1C0.0098
; #@! TA.AperFunction,Plated,PTH,ViaDrill
T2C0.0157
; #@! TA.AperFunction,Plated,PTH,ComponentDrill
T3C0.0256
%
G90
G05
T1
X1.7421Y-2.4114
X1.7717Y-2.3425
X1.7717Y-2.4114
X1.8209Y-2.4213
X1.8504Y-3.4941
X1.8602Y-2.4409
X1.8701Y-1.9587
X1.8799Y-1.7815
X1.8799Y-2.5886
X1.8835Y-1.7534
X1.9075Y-1.6811
X1.9291Y-3.4055
X1.939Y-2.5098
X1.9587Y-2.7461
X1.998Y-2.5394
X1.998Y-2.7756
X1.998Y-3.7598
X2.0276Y-1.6929
X2.0374Y-2.6083
X2.0472Y-2.0571
X2.0472Y-2.0866
X2.0472Y-2.5591
X2.0571Y-2.7854
X2.0669Y-1.5551
X2.0669Y-2.628
X2.0768Y-2.7657
X2.1063Y-1.6929
X2.1457Y-1.5551
X2.1555Y-2.7854
X2.1566Y-2.7561
X2.1654Y-2.4902
X2.185Y-2.622
X2.2106Y-2.622
X2.3327Y-2.5394
X2.372Y-2.4606
X2.5118Y-2.2953
X2.5394Y-1.6831
X2.5768Y-1.6831
X2.5984Y-2.1358
X2.5984Y-2.1752
X2.6437Y-2.2559
T2
X1.4453Y-1.9311
X1.4469Y-1.7126
X1.4862Y-2.4016
X1.5134Y-1.9303
X1.5157Y-1.7126
X1.5157Y-2.4705
X1.5354Y-2.2047
X1.5354Y-2.6378
X1.5453Y-2.2736
X1.5699Y-2.4163
X1.5846Y-1.7126
X1.5846Y-1.9291
X1.6138Y-2.0864
X1.6142Y-2.6378
X1.624Y-2.4606
X1.6634Y-2.4803
X1.6811Y-2.8957
X1.6929Y-2.5492
X1.7028Y-1.8209
X1.7212Y-2.4619
X1.7283Y-3.0177
X1.7323Y-2.1555
X1.7697Y-2.8957
X1.7717Y-2.2047
X1.7815Y-1.6142
X1.7815Y-2.0079
X1.8012Y-3.2677
X1.8159Y-2.7313
X1.8602Y-1.6831
X1.8602Y-2.0276
X1.8701Y-2.1358
X1.8898Y-2.2638
X1.8996Y-2.0276
X1.8996Y-2.4016
X1.9094Y-1.7323
X1.9173Y-2.8228
X1.9449Y-2.6791
X1.9587Y-2.0768
X1.9882Y-1.9587
X1.998Y-1.5453
X2.0079Y-3.2736
X2.0177Y-1.7815
X2.0226Y-3.8041
X2.0315Y-2.124
X2.0315Y-2.2894
X2.0335Y-2.4232
X2.0472Y-1.9488
X2.0768Y-3.3858
X2.1063Y-2.8917
X2.1063Y-2.9744
X2.1161Y-1.939
X2.122Y-3.437
X2.1319Y-2.124
X2.1575Y-2.9744
X2.1605Y-2.6791
X2.1654Y-3.6161
X2.1831Y-3.437
X2.185Y-1.8504
X2.2165Y-2.6752
X2.2165Y-2.7618
X2.2244Y-2.4646
X2.2343Y-2.4252
X2.2402Y-2.126
X2.252Y-2.8169
X2.2539Y-2.9528
X2.2598Y-2.7165
X2.2621Y-2.4647
X2.2726Y-2.0463
X2.3031Y-2.6752
X2.3031Y-2.7618
X2.3327Y-2.124
X2.3547Y-2.811
X2.3563Y-3.2835
X2.3622Y-2.0571
X2.3937Y-3.7087
X2.4016Y-3.3898
X2.4016Y-3.4882
X2.4053Y-3.1754
X2.4154Y-2.124
X2.4173Y-2.4232
X2.4311Y-2.2894
X2.4783Y-2.8701
X2.5689Y-3.7795
X2.573Y-3.0254
X2.5748Y-3.3268
X2.6181Y-3.3858
X2.6285Y-2.6501
X2.6374Y-2.0575
X2.6988Y-3.6024
X2.7283Y-3.4724
X2.7697Y-3.3366
X2.7992Y-2.1772
X2.7992Y-2.2165
X2.8976Y-3.5138
X2.9134Y-1.8307
T3
G00X1.7699Y-3.7077
M15
G01X1.7699Y-3.747
M16
G05
G00X1.7699Y-3.8524
M15
G01X1.7699Y-3.9035
M16
G05
G00X2.1101Y-3.7077
M15
G01X2.1101Y-3.747
M16
G05
G00X2.1101Y-3.8524
M15
G01X2.1101Y-3.9035
M16
G05
T0
M30
