%TF.GenerationSoftware,KiCad,Pcbnew,(6.0.7)*%
%TF.CreationDate,2023-01-15T17:43:20+08:00*%
%TF.ProjectId,Rp2040 wearable dev boards w wireless,52703230-3430-4207-9765-617261626c65,rev?*%
%TF.SameCoordinates,Original*%
%TF.FileFunction,Legend,Top*%
%TF.FilePolarity,Positive*%
%FSLAX46Y46*%
G04 Gerber Fmt 4.6, Leading zero omitted, Abs format (unit mm)*
G04 Created by KiCad (PCBNEW (6.0.7)) date 2023-01-15 17:43:20*
%MOMM*%
%LPD*%
G01*
G04 APERTURE LIST*
G04 Aperture macros list*
%AMRoundRect*
0 Rectangle with rounded corners*
0 $1 Rounding radius*
0 $2 $3 $4 $5 $6 $7 $8 $9 X,Y pos of 4 corners*
0 Add a 4 corners polygon primitive as box body*
4,1,4,$2,$3,$4,$5,$6,$7,$8,$9,$2,$3,0*
0 Add four circle primitives for the rounded corners*
1,1,$1+$1,$2,$3*
1,1,$1+$1,$4,$5*
1,1,$1+$1,$6,$7*
1,1,$1+$1,$8,$9*
0 Add four rect primitives between the rounded corners*
20,1,$1+$1,$2,$3,$4,$5,0*
20,1,$1+$1,$4,$5,$6,$7,0*
20,1,$1+$1,$6,$7,$8,$9,0*
20,1,$1+$1,$8,$9,$2,$3,0*%
G04 Aperture macros list end*
%ADD10C,0.150000*%
%ADD11C,0.254000*%
%ADD12C,0.120339*%
%ADD13C,0.120000*%
%ADD14C,0.127000*%
%ADD15C,0.200000*%
%ADD16C,0.100000*%
%ADD17C,0.250000*%
%ADD18C,0.300000*%
%ADD19RoundRect,0.135000X-0.135000X-0.185000X0.135000X-0.185000X0.135000X0.185000X-0.135000X0.185000X0*%
%ADD20RoundRect,0.075000X0.075000X-0.125000X0.075000X0.125000X-0.075000X0.125000X-0.075000X-0.125000X0*%
%ADD21RoundRect,0.135000X0.185000X-0.135000X0.185000X0.135000X-0.185000X0.135000X-0.185000X-0.135000X0*%
%ADD22C,0.630000*%
%ADD23C,0.600000*%
%ADD24R,0.520000X1.000000*%
%ADD25R,0.270000X1.000000*%
%ADD26R,1.000000X2.000000*%
%ADD27O,1.158000X2.316000*%
%ADD28O,1.200000X2.400000*%
%ADD29RoundRect,0.075000X-0.125000X-0.075000X0.125000X-0.075000X0.125000X0.075000X-0.125000X0.075000X0*%
%ADD30RoundRect,0.135000X0.135000X0.185000X-0.135000X0.185000X-0.135000X-0.185000X0.135000X-0.185000X0*%
%ADD31RoundRect,0.100000X-0.100000X0.130000X-0.100000X-0.130000X0.100000X-0.130000X0.100000X0.130000X0*%
%ADD32RoundRect,0.100000X0.130000X0.100000X-0.130000X0.100000X-0.130000X-0.100000X0.130000X-0.100000X0*%
%ADD33R,3.500000X2.400000*%
%ADD34RoundRect,0.140000X0.170000X-0.140000X0.170000X0.140000X-0.170000X0.140000X-0.170000X-0.140000X0*%
%ADD35RoundRect,0.100000X-0.100000X0.637500X-0.100000X-0.637500X0.100000X-0.637500X0.100000X0.637500X0*%
%ADD36RoundRect,0.218750X0.256250X-0.218750X0.256250X0.218750X-0.256250X0.218750X-0.256250X-0.218750X0*%
%ADD37RoundRect,0.250000X-1.500000X0.250000X-1.500000X-0.250000X1.500000X-0.250000X1.500000X0.250000X0*%
%ADD38RoundRect,0.250001X-1.449999X0.499999X-1.449999X-0.499999X1.449999X-0.499999X1.449999X0.499999X0*%
%ADD39RoundRect,0.250000X1.250000X0.550000X-1.250000X0.550000X-1.250000X-0.550000X1.250000X-0.550000X0*%
%ADD40RoundRect,0.140000X0.140000X0.170000X-0.140000X0.170000X-0.140000X-0.170000X0.140000X-0.170000X0*%
%ADD41R,0.660400X0.203200*%
%ADD42R,0.203200X0.660400*%
%ADD43R,1.752600X1.600200*%
%ADD44RoundRect,0.135000X-0.185000X0.135000X-0.185000X-0.135000X0.185000X-0.135000X0.185000X0.135000X0*%
%ADD45R,0.850000X0.300000*%
%ADD46R,0.300000X0.850000*%
%ADD47R,2.700000X2.700000*%
%ADD48RoundRect,0.218750X0.218750X0.256250X-0.218750X0.256250X-0.218750X-0.256250X0.218750X-0.256250X0*%
%ADD49RoundRect,0.150000X0.650000X0.150000X-0.650000X0.150000X-0.650000X-0.150000X0.650000X-0.150000X0*%
%ADD50RoundRect,0.250000X-0.325000X-0.650000X0.325000X-0.650000X0.325000X0.650000X-0.325000X0.650000X0*%
%ADD51R,2.500000X1.800000*%
%ADD52RoundRect,0.150000X-0.150000X0.512500X-0.150000X-0.512500X0.150000X-0.512500X0.150000X0.512500X0*%
%ADD53RoundRect,0.100000X0.100000X-0.130000X0.100000X0.130000X-0.100000X0.130000X-0.100000X-0.130000X0*%
%ADD54RoundRect,0.147500X-0.172500X0.147500X-0.172500X-0.147500X0.172500X-0.147500X0.172500X0.147500X0*%
%ADD55RoundRect,0.075000X-0.075000X0.125000X-0.075000X-0.125000X0.075000X-0.125000X0.075000X0.125000X0*%
%ADD56RoundRect,0.050000X0.387500X0.050000X-0.387500X0.050000X-0.387500X-0.050000X0.387500X-0.050000X0*%
%ADD57RoundRect,0.050000X0.050000X0.387500X-0.050000X0.387500X-0.050000X-0.387500X0.050000X-0.387500X0*%
%ADD58R,3.200000X3.200000*%
%ADD59R,4.560000X0.850000*%
%ADD60R,4.560000X1.000000*%
%ADD61RoundRect,0.250000X-1.250000X-0.550000X1.250000X-0.550000X1.250000X0.550000X-1.250000X0.550000X0*%
%ADD62R,0.900000X1.700000*%
%ADD63R,0.800000X1.100000*%
%ADD64RoundRect,0.150000X-0.587500X-0.150000X0.587500X-0.150000X0.587500X0.150000X-0.587500X0.150000X0*%
%ADD65RoundRect,0.075000X0.125000X0.075000X-0.125000X0.075000X-0.125000X-0.075000X0.125000X-0.075000X0*%
%ADD66R,0.610000X2.000000*%
%ADD67R,2.680000X3.600000*%
%ADD68R,1.400000X1.150000*%
%ADD69RoundRect,0.100000X-0.130000X-0.100000X0.130000X-0.100000X0.130000X0.100000X-0.130000X0.100000X0*%
%ADD70R,2.000000X0.610000*%
%ADD71R,3.600000X2.680000*%
%ADD72RoundRect,0.250000X1.500000X-0.250000X1.500000X0.250000X-1.500000X0.250000X-1.500000X-0.250000X0*%
%ADD73RoundRect,0.250001X1.449999X-0.499999X1.449999X0.499999X-1.449999X0.499999X-1.449999X-0.499999X0*%
%ADD74R,1.500000X2.000000*%
%ADD75R,3.800000X2.000000*%
%ADD76R,0.200000X0.565000*%
%ADD77R,0.400000X0.565000*%
%ADD78RoundRect,0.147500X0.172500X-0.147500X0.172500X0.147500X-0.172500X0.147500X-0.172500X-0.147500X0*%
G04 APERTURE END LIST*
D10*
%TO.C,R2*%
X71983333Y-88532380D02*
X71650000Y-88056190D01*
X71411904Y-88532380D02*
X71411904Y-87532380D01*
X71792857Y-87532380D01*
X71888095Y-87580000D01*
X71935714Y-87627619D01*
X71983333Y-87722857D01*
X71983333Y-87865714D01*
X71935714Y-87960952D01*
X71888095Y-88008571D01*
X71792857Y-88056190D01*
X71411904Y-88056190D01*
X72364285Y-87627619D02*
X72411904Y-87580000D01*
X72507142Y-87532380D01*
X72745238Y-87532380D01*
X72840476Y-87580000D01*
X72888095Y-87627619D01*
X72935714Y-87722857D01*
X72935714Y-87818095D01*
X72888095Y-87960952D01*
X72316666Y-88532380D01*
X72935714Y-88532380D01*
%TO.C,C30*%
X36857142Y-55357142D02*
X36809523Y-55404761D01*
X36666666Y-55452380D01*
X36571428Y-55452380D01*
X36428571Y-55404761D01*
X36333333Y-55309523D01*
X36285714Y-55214285D01*
X36238095Y-55023809D01*
X36238095Y-54880952D01*
X36285714Y-54690476D01*
X36333333Y-54595238D01*
X36428571Y-54500000D01*
X36571428Y-54452380D01*
X36666666Y-54452380D01*
X36809523Y-54500000D01*
X36857142Y-54547619D01*
X37190476Y-54452380D02*
X37809523Y-54452380D01*
X37476190Y-54833333D01*
X37619047Y-54833333D01*
X37714285Y-54880952D01*
X37761904Y-54928571D01*
X37809523Y-55023809D01*
X37809523Y-55261904D01*
X37761904Y-55357142D01*
X37714285Y-55404761D01*
X37619047Y-55452380D01*
X37333333Y-55452380D01*
X37238095Y-55404761D01*
X37190476Y-55357142D01*
X38428571Y-54452380D02*
X38523809Y-54452380D01*
X38619047Y-54500000D01*
X38666666Y-54547619D01*
X38714285Y-54642857D01*
X38761904Y-54833333D01*
X38761904Y-55071428D01*
X38714285Y-55261904D01*
X38666666Y-55357142D01*
X38619047Y-55404761D01*
X38523809Y-55452380D01*
X38428571Y-55452380D01*
X38333333Y-55404761D01*
X38285714Y-55357142D01*
X38238095Y-55261904D01*
X38190476Y-55071428D01*
X38190476Y-54833333D01*
X38238095Y-54642857D01*
X38285714Y-54547619D01*
X38333333Y-54500000D01*
X38428571Y-54452380D01*
%TO.C,R16*%
X49357142Y-60106021D02*
X49023809Y-59629831D01*
X48785714Y-60106021D02*
X48785714Y-59106021D01*
X49166666Y-59106021D01*
X49261904Y-59153641D01*
X49309523Y-59201260D01*
X49357142Y-59296498D01*
X49357142Y-59439355D01*
X49309523Y-59534593D01*
X49261904Y-59582212D01*
X49166666Y-59629831D01*
X48785714Y-59629831D01*
X50309523Y-60106021D02*
X49738095Y-60106021D01*
X50023809Y-60106021D02*
X50023809Y-59106021D01*
X49928571Y-59248879D01*
X49833333Y-59344117D01*
X49738095Y-59391736D01*
X51166666Y-59106021D02*
X50976190Y-59106021D01*
X50880952Y-59153641D01*
X50833333Y-59201260D01*
X50738095Y-59344117D01*
X50690476Y-59534593D01*
X50690476Y-59915545D01*
X50738095Y-60010783D01*
X50785714Y-60058402D01*
X50880952Y-60106021D01*
X51071428Y-60106021D01*
X51166666Y-60058402D01*
X51214285Y-60010783D01*
X51261904Y-59915545D01*
X51261904Y-59677450D01*
X51214285Y-59582212D01*
X51166666Y-59534593D01*
X51071428Y-59486974D01*
X50880952Y-59486974D01*
X50785714Y-59534593D01*
X50738095Y-59582212D01*
X50690476Y-59677450D01*
%TO.C,J2*%
X47617666Y-91467380D02*
X47617666Y-92181666D01*
X47570047Y-92324523D01*
X47474809Y-92419761D01*
X47331952Y-92467380D01*
X47236714Y-92467380D01*
X48046238Y-91562619D02*
X48093857Y-91515000D01*
X48189095Y-91467380D01*
X48427190Y-91467380D01*
X48522428Y-91515000D01*
X48570047Y-91562619D01*
X48617666Y-91657857D01*
X48617666Y-91753095D01*
X48570047Y-91895952D01*
X47998619Y-92467380D01*
X48617666Y-92467380D01*
%TO.C,C32*%
X42857142Y-47357142D02*
X42809523Y-47404761D01*
X42666666Y-47452380D01*
X42571428Y-47452380D01*
X42428571Y-47404761D01*
X42333333Y-47309523D01*
X42285714Y-47214285D01*
X42238095Y-47023809D01*
X42238095Y-46880952D01*
X42285714Y-46690476D01*
X42333333Y-46595238D01*
X42428571Y-46500000D01*
X42571428Y-46452380D01*
X42666666Y-46452380D01*
X42809523Y-46500000D01*
X42857142Y-46547619D01*
X43190476Y-46452380D02*
X43809523Y-46452380D01*
X43476190Y-46833333D01*
X43619047Y-46833333D01*
X43714285Y-46880952D01*
X43761904Y-46928571D01*
X43809523Y-47023809D01*
X43809523Y-47261904D01*
X43761904Y-47357142D01*
X43714285Y-47404761D01*
X43619047Y-47452380D01*
X43333333Y-47452380D01*
X43238095Y-47404761D01*
X43190476Y-47357142D01*
X44190476Y-46547619D02*
X44238095Y-46500000D01*
X44333333Y-46452380D01*
X44571428Y-46452380D01*
X44666666Y-46500000D01*
X44714285Y-46547619D01*
X44761904Y-46642857D01*
X44761904Y-46738095D01*
X44714285Y-46880952D01*
X44142857Y-47452380D01*
X44761904Y-47452380D01*
%TO.C,R19*%
X45857142Y-59122380D02*
X45523809Y-58646190D01*
X45285714Y-59122380D02*
X45285714Y-58122380D01*
X45666666Y-58122380D01*
X45761904Y-58170000D01*
X45809523Y-58217619D01*
X45857142Y-58312857D01*
X45857142Y-58455714D01*
X45809523Y-58550952D01*
X45761904Y-58598571D01*
X45666666Y-58646190D01*
X45285714Y-58646190D01*
X46809523Y-59122380D02*
X46238095Y-59122380D01*
X46523809Y-59122380D02*
X46523809Y-58122380D01*
X46428571Y-58265238D01*
X46333333Y-58360476D01*
X46238095Y-58408095D01*
X47285714Y-59122380D02*
X47476190Y-59122380D01*
X47571428Y-59074761D01*
X47619047Y-59027142D01*
X47714285Y-58884285D01*
X47761904Y-58693809D01*
X47761904Y-58312857D01*
X47714285Y-58217619D01*
X47666666Y-58170000D01*
X47571428Y-58122380D01*
X47380952Y-58122380D01*
X47285714Y-58170000D01*
X47238095Y-58217619D01*
X47190476Y-58312857D01*
X47190476Y-58550952D01*
X47238095Y-58646190D01*
X47285714Y-58693809D01*
X47380952Y-58741428D01*
X47571428Y-58741428D01*
X47666666Y-58693809D01*
X47714285Y-58646190D01*
X47761904Y-58550952D01*
%TO.C,C10*%
X49107142Y-74357142D02*
X49059523Y-74404761D01*
X48916666Y-74452380D01*
X48821428Y-74452380D01*
X48678571Y-74404761D01*
X48583333Y-74309523D01*
X48535714Y-74214285D01*
X48488095Y-74023809D01*
X48488095Y-73880952D01*
X48535714Y-73690476D01*
X48583333Y-73595238D01*
X48678571Y-73500000D01*
X48821428Y-73452380D01*
X48916666Y-73452380D01*
X49059523Y-73500000D01*
X49107142Y-73547619D01*
X50059523Y-74452380D02*
X49488095Y-74452380D01*
X49773809Y-74452380D02*
X49773809Y-73452380D01*
X49678571Y-73595238D01*
X49583333Y-73690476D01*
X49488095Y-73738095D01*
X50678571Y-73452380D02*
X50773809Y-73452380D01*
X50869047Y-73500000D01*
X50916666Y-73547619D01*
X50964285Y-73642857D01*
X51011904Y-73833333D01*
X51011904Y-74071428D01*
X50964285Y-74261904D01*
X50916666Y-74357142D01*
X50869047Y-74404761D01*
X50773809Y-74452380D01*
X50678571Y-74452380D01*
X50583333Y-74404761D01*
X50535714Y-74357142D01*
X50488095Y-74261904D01*
X50440476Y-74071428D01*
X50440476Y-73833333D01*
X50488095Y-73642857D01*
X50535714Y-73547619D01*
X50583333Y-73500000D01*
X50678571Y-73452380D01*
%TO.C,C14*%
X49857142Y-69457142D02*
X49809523Y-69504761D01*
X49666666Y-69552380D01*
X49571428Y-69552380D01*
X49428571Y-69504761D01*
X49333333Y-69409523D01*
X49285714Y-69314285D01*
X49238095Y-69123809D01*
X49238095Y-68980952D01*
X49285714Y-68790476D01*
X49333333Y-68695238D01*
X49428571Y-68600000D01*
X49571428Y-68552380D01*
X49666666Y-68552380D01*
X49809523Y-68600000D01*
X49857142Y-68647619D01*
X50809523Y-69552380D02*
X50238095Y-69552380D01*
X50523809Y-69552380D02*
X50523809Y-68552380D01*
X50428571Y-68695238D01*
X50333333Y-68790476D01*
X50238095Y-68838095D01*
X51666666Y-68885714D02*
X51666666Y-69552380D01*
X51428571Y-68504761D02*
X51190476Y-69219047D01*
X51809523Y-69219047D01*
%TO.C,Y1*%
X56173809Y-55176190D02*
X56173809Y-55652380D01*
X55840476Y-54652380D02*
X56173809Y-55176190D01*
X56507142Y-54652380D01*
X57364285Y-55652380D02*
X56792857Y-55652380D01*
X57078571Y-55652380D02*
X57078571Y-54652380D01*
X56983333Y-54795238D01*
X56888095Y-54890476D01*
X56792857Y-54938095D01*
%TO.C,C8*%
X51447142Y-88166666D02*
X51494761Y-88214285D01*
X51542380Y-88357142D01*
X51542380Y-88452380D01*
X51494761Y-88595238D01*
X51399523Y-88690476D01*
X51304285Y-88738095D01*
X51113809Y-88785714D01*
X50970952Y-88785714D01*
X50780476Y-88738095D01*
X50685238Y-88690476D01*
X50590000Y-88595238D01*
X50542380Y-88452380D01*
X50542380Y-88357142D01*
X50590000Y-88214285D01*
X50637619Y-88166666D01*
X50970952Y-87595238D02*
X50923333Y-87690476D01*
X50875714Y-87738095D01*
X50780476Y-87785714D01*
X50732857Y-87785714D01*
X50637619Y-87738095D01*
X50590000Y-87690476D01*
X50542380Y-87595238D01*
X50542380Y-87404761D01*
X50590000Y-87309523D01*
X50637619Y-87261904D01*
X50732857Y-87214285D01*
X50780476Y-87214285D01*
X50875714Y-87261904D01*
X50923333Y-87309523D01*
X50970952Y-87404761D01*
X50970952Y-87595238D01*
X51018571Y-87690476D01*
X51066190Y-87738095D01*
X51161428Y-87785714D01*
X51351904Y-87785714D01*
X51447142Y-87738095D01*
X51494761Y-87690476D01*
X51542380Y-87595238D01*
X51542380Y-87404761D01*
X51494761Y-87309523D01*
X51447142Y-87261904D01*
X51351904Y-87214285D01*
X51161428Y-87214285D01*
X51066190Y-87261904D01*
X51018571Y-87309523D01*
X50970952Y-87404761D01*
%TO.C,U6*%
X62902380Y-48511904D02*
X63711904Y-48511904D01*
X63807142Y-48464285D01*
X63854761Y-48416666D01*
X63902380Y-48321428D01*
X63902380Y-48130952D01*
X63854761Y-48035714D01*
X63807142Y-47988095D01*
X63711904Y-47940476D01*
X62902380Y-47940476D01*
X62902380Y-47035714D02*
X62902380Y-47226190D01*
X62950000Y-47321428D01*
X62997619Y-47369047D01*
X63140476Y-47464285D01*
X63330952Y-47511904D01*
X63711904Y-47511904D01*
X63807142Y-47464285D01*
X63854761Y-47416666D01*
X63902380Y-47321428D01*
X63902380Y-47130952D01*
X63854761Y-47035714D01*
X63807142Y-46988095D01*
X63711904Y-46940476D01*
X63473809Y-46940476D01*
X63378571Y-46988095D01*
X63330952Y-47035714D01*
X63283333Y-47130952D01*
X63283333Y-47321428D01*
X63330952Y-47416666D01*
X63378571Y-47464285D01*
X63473809Y-47511904D01*
%TO.C,C31*%
X37357142Y-53392857D02*
X37404761Y-53440476D01*
X37452380Y-53583333D01*
X37452380Y-53678571D01*
X37404761Y-53821428D01*
X37309523Y-53916666D01*
X37214285Y-53964285D01*
X37023809Y-54011904D01*
X36880952Y-54011904D01*
X36690476Y-53964285D01*
X36595238Y-53916666D01*
X36500000Y-53821428D01*
X36452380Y-53678571D01*
X36452380Y-53583333D01*
X36500000Y-53440476D01*
X36547619Y-53392857D01*
X36452380Y-53059523D02*
X36452380Y-52440476D01*
X36833333Y-52773809D01*
X36833333Y-52630952D01*
X36880952Y-52535714D01*
X36928571Y-52488095D01*
X37023809Y-52440476D01*
X37261904Y-52440476D01*
X37357142Y-52488095D01*
X37404761Y-52535714D01*
X37452380Y-52630952D01*
X37452380Y-52916666D01*
X37404761Y-53011904D01*
X37357142Y-53059523D01*
X37452380Y-51488095D02*
X37452380Y-52059523D01*
X37452380Y-51773809D02*
X36452380Y-51773809D01*
X36595238Y-51869047D01*
X36690476Y-51964285D01*
X36738095Y-52059523D01*
%TO.C,D3*%
X51511904Y-85302380D02*
X51511904Y-84302380D01*
X51750000Y-84302380D01*
X51892857Y-84350000D01*
X51988095Y-84445238D01*
X52035714Y-84540476D01*
X52083333Y-84730952D01*
X52083333Y-84873809D01*
X52035714Y-85064285D01*
X51988095Y-85159523D01*
X51892857Y-85254761D01*
X51750000Y-85302380D01*
X51511904Y-85302380D01*
X52416666Y-84302380D02*
X53035714Y-84302380D01*
X52702380Y-84683333D01*
X52845238Y-84683333D01*
X52940476Y-84730952D01*
X52988095Y-84778571D01*
X53035714Y-84873809D01*
X53035714Y-85111904D01*
X52988095Y-85207142D01*
X52940476Y-85254761D01*
X52845238Y-85302380D01*
X52559523Y-85302380D01*
X52464285Y-85254761D01*
X52416666Y-85207142D01*
%TO.C,R1*%
X66533333Y-82852380D02*
X66200000Y-82376190D01*
X65961904Y-82852380D02*
X65961904Y-81852380D01*
X66342857Y-81852380D01*
X66438095Y-81900000D01*
X66485714Y-81947619D01*
X66533333Y-82042857D01*
X66533333Y-82185714D01*
X66485714Y-82280952D01*
X66438095Y-82328571D01*
X66342857Y-82376190D01*
X65961904Y-82376190D01*
X67485714Y-82852380D02*
X66914285Y-82852380D01*
X67200000Y-82852380D02*
X67200000Y-81852380D01*
X67104761Y-81995238D01*
X67009523Y-82090476D01*
X66914285Y-82138095D01*
%TO.C,R9*%
X45413333Y-83952380D02*
X45080000Y-83476190D01*
X44841904Y-83952380D02*
X44841904Y-82952380D01*
X45222857Y-82952380D01*
X45318095Y-83000000D01*
X45365714Y-83047619D01*
X45413333Y-83142857D01*
X45413333Y-83285714D01*
X45365714Y-83380952D01*
X45318095Y-83428571D01*
X45222857Y-83476190D01*
X44841904Y-83476190D01*
X45889523Y-83952380D02*
X46080000Y-83952380D01*
X46175238Y-83904761D01*
X46222857Y-83857142D01*
X46318095Y-83714285D01*
X46365714Y-83523809D01*
X46365714Y-83142857D01*
X46318095Y-83047619D01*
X46270476Y-83000000D01*
X46175238Y-82952380D01*
X45984761Y-82952380D01*
X45889523Y-83000000D01*
X45841904Y-83047619D01*
X45794285Y-83142857D01*
X45794285Y-83380952D01*
X45841904Y-83476190D01*
X45889523Y-83523809D01*
X45984761Y-83571428D01*
X46175238Y-83571428D01*
X46270476Y-83523809D01*
X46318095Y-83476190D01*
X46365714Y-83380952D01*
%TO.C,SW2*%
X47154761Y-75883333D02*
X47202380Y-75740476D01*
X47202380Y-75502380D01*
X47154761Y-75407142D01*
X47107142Y-75359523D01*
X47011904Y-75311904D01*
X46916666Y-75311904D01*
X46821428Y-75359523D01*
X46773809Y-75407142D01*
X46726190Y-75502380D01*
X46678571Y-75692857D01*
X46630952Y-75788095D01*
X46583333Y-75835714D01*
X46488095Y-75883333D01*
X46392857Y-75883333D01*
X46297619Y-75835714D01*
X46250000Y-75788095D01*
X46202380Y-75692857D01*
X46202380Y-75454761D01*
X46250000Y-75311904D01*
X46202380Y-74978571D02*
X47202380Y-74740476D01*
X46488095Y-74550000D01*
X47202380Y-74359523D01*
X46202380Y-74121428D01*
X46297619Y-73788095D02*
X46250000Y-73740476D01*
X46202380Y-73645238D01*
X46202380Y-73407142D01*
X46250000Y-73311904D01*
X46297619Y-73264285D01*
X46392857Y-73216666D01*
X46488095Y-73216666D01*
X46630952Y-73264285D01*
X47202380Y-73835714D01*
X47202380Y-73216666D01*
%TO.C,C19*%
X37357142Y-69607142D02*
X37309523Y-69654761D01*
X37166666Y-69702380D01*
X37071428Y-69702380D01*
X36928571Y-69654761D01*
X36833333Y-69559523D01*
X36785714Y-69464285D01*
X36738095Y-69273809D01*
X36738095Y-69130952D01*
X36785714Y-68940476D01*
X36833333Y-68845238D01*
X36928571Y-68750000D01*
X37071428Y-68702380D01*
X37166666Y-68702380D01*
X37309523Y-68750000D01*
X37357142Y-68797619D01*
X38309523Y-69702380D02*
X37738095Y-69702380D01*
X38023809Y-69702380D02*
X38023809Y-68702380D01*
X37928571Y-68845238D01*
X37833333Y-68940476D01*
X37738095Y-68988095D01*
X38785714Y-69702380D02*
X38976190Y-69702380D01*
X39071428Y-69654761D01*
X39119047Y-69607142D01*
X39214285Y-69464285D01*
X39261904Y-69273809D01*
X39261904Y-68892857D01*
X39214285Y-68797619D01*
X39166666Y-68750000D01*
X39071428Y-68702380D01*
X38880952Y-68702380D01*
X38785714Y-68750000D01*
X38738095Y-68797619D01*
X38690476Y-68892857D01*
X38690476Y-69130952D01*
X38738095Y-69226190D01*
X38785714Y-69273809D01*
X38880952Y-69321428D01*
X39071428Y-69321428D01*
X39166666Y-69273809D01*
X39214285Y-69226190D01*
X39261904Y-69130952D01*
%TO.C,C16*%
X49107142Y-73107142D02*
X49059523Y-73154761D01*
X48916666Y-73202380D01*
X48821428Y-73202380D01*
X48678571Y-73154761D01*
X48583333Y-73059523D01*
X48535714Y-72964285D01*
X48488095Y-72773809D01*
X48488095Y-72630952D01*
X48535714Y-72440476D01*
X48583333Y-72345238D01*
X48678571Y-72250000D01*
X48821428Y-72202380D01*
X48916666Y-72202380D01*
X49059523Y-72250000D01*
X49107142Y-72297619D01*
X50059523Y-73202380D02*
X49488095Y-73202380D01*
X49773809Y-73202380D02*
X49773809Y-72202380D01*
X49678571Y-72345238D01*
X49583333Y-72440476D01*
X49488095Y-72488095D01*
X50916666Y-72202380D02*
X50726190Y-72202380D01*
X50630952Y-72250000D01*
X50583333Y-72297619D01*
X50488095Y-72440476D01*
X50440476Y-72630952D01*
X50440476Y-73011904D01*
X50488095Y-73107142D01*
X50535714Y-73154761D01*
X50630952Y-73202380D01*
X50821428Y-73202380D01*
X50916666Y-73154761D01*
X50964285Y-73107142D01*
X51011904Y-73011904D01*
X51011904Y-72773809D01*
X50964285Y-72678571D01*
X50916666Y-72630952D01*
X50821428Y-72583333D01*
X50630952Y-72583333D01*
X50535714Y-72630952D01*
X50488095Y-72678571D01*
X50440476Y-72773809D01*
%TO.C,C24*%
X39857142Y-54642857D02*
X39904761Y-54690476D01*
X39952380Y-54833333D01*
X39952380Y-54928571D01*
X39904761Y-55071428D01*
X39809523Y-55166666D01*
X39714285Y-55214285D01*
X39523809Y-55261904D01*
X39380952Y-55261904D01*
X39190476Y-55214285D01*
X39095238Y-55166666D01*
X39000000Y-55071428D01*
X38952380Y-54928571D01*
X38952380Y-54833333D01*
X39000000Y-54690476D01*
X39047619Y-54642857D01*
X39047619Y-54261904D02*
X39000000Y-54214285D01*
X38952380Y-54119047D01*
X38952380Y-53880952D01*
X39000000Y-53785714D01*
X39047619Y-53738095D01*
X39142857Y-53690476D01*
X39238095Y-53690476D01*
X39380952Y-53738095D01*
X39952380Y-54309523D01*
X39952380Y-53690476D01*
X39285714Y-52833333D02*
X39952380Y-52833333D01*
X38904761Y-53071428D02*
X39619047Y-53309523D01*
X39619047Y-52690476D01*
%TO.C,R4*%
X56583333Y-60952380D02*
X56250000Y-60476190D01*
X56011904Y-60952380D02*
X56011904Y-59952380D01*
X56392857Y-59952380D01*
X56488095Y-60000000D01*
X56535714Y-60047619D01*
X56583333Y-60142857D01*
X56583333Y-60285714D01*
X56535714Y-60380952D01*
X56488095Y-60428571D01*
X56392857Y-60476190D01*
X56011904Y-60476190D01*
X57440476Y-60285714D02*
X57440476Y-60952380D01*
X57202380Y-59904761D02*
X56964285Y-60619047D01*
X57583333Y-60619047D01*
%TO.C,R14*%
X37107142Y-64452380D02*
X36773809Y-63976190D01*
X36535714Y-64452380D02*
X36535714Y-63452380D01*
X36916666Y-63452380D01*
X37011904Y-63500000D01*
X37059523Y-63547619D01*
X37107142Y-63642857D01*
X37107142Y-63785714D01*
X37059523Y-63880952D01*
X37011904Y-63928571D01*
X36916666Y-63976190D01*
X36535714Y-63976190D01*
X38059523Y-64452380D02*
X37488095Y-64452380D01*
X37773809Y-64452380D02*
X37773809Y-63452380D01*
X37678571Y-63595238D01*
X37583333Y-63690476D01*
X37488095Y-63738095D01*
X38916666Y-63785714D02*
X38916666Y-64452380D01*
X38678571Y-63404761D02*
X38440476Y-64119047D01*
X39059523Y-64119047D01*
%TO.C,U7*%
X44988095Y-47202380D02*
X44988095Y-48011904D01*
X45035714Y-48107142D01*
X45083333Y-48154761D01*
X45178571Y-48202380D01*
X45369047Y-48202380D01*
X45464285Y-48154761D01*
X45511904Y-48107142D01*
X45559523Y-48011904D01*
X45559523Y-47202380D01*
X45940476Y-47202380D02*
X46607142Y-47202380D01*
X46178571Y-48202380D01*
X46510799Y-45776380D02*
X46510799Y-46014476D01*
X46272703Y-45919238D02*
X46510799Y-46014476D01*
X46748894Y-45919238D01*
X46367941Y-46204952D02*
X46510799Y-46014476D01*
X46653656Y-46204952D01*
X46510799Y-45776380D02*
X46510799Y-46014476D01*
X46272703Y-45919238D02*
X46510799Y-46014476D01*
X46748894Y-45919238D01*
X46367941Y-46204952D02*
X46510799Y-46014476D01*
X46653656Y-46204952D01*
%TO.C,R17*%
X49872380Y-63142857D02*
X49396190Y-63476190D01*
X49872380Y-63714285D02*
X48872380Y-63714285D01*
X48872380Y-63333333D01*
X48920000Y-63238095D01*
X48967619Y-63190476D01*
X49062857Y-63142857D01*
X49205714Y-63142857D01*
X49300952Y-63190476D01*
X49348571Y-63238095D01*
X49396190Y-63333333D01*
X49396190Y-63714285D01*
X49872380Y-62190476D02*
X49872380Y-62761904D01*
X49872380Y-62476190D02*
X48872380Y-62476190D01*
X49015238Y-62571428D01*
X49110476Y-62666666D01*
X49158095Y-62761904D01*
X48872380Y-61857142D02*
X48872380Y-61190476D01*
X49872380Y-61619047D01*
D11*
%TO.C,IC1*%
X42010238Y-56824523D02*
X42010238Y-55554523D01*
X43340714Y-56703571D02*
X43280238Y-56764047D01*
X43098809Y-56824523D01*
X42977857Y-56824523D01*
X42796428Y-56764047D01*
X42675476Y-56643095D01*
X42615000Y-56522142D01*
X42554523Y-56280238D01*
X42554523Y-56098809D01*
X42615000Y-55856904D01*
X42675476Y-55735952D01*
X42796428Y-55615000D01*
X42977857Y-55554523D01*
X43098809Y-55554523D01*
X43280238Y-55615000D01*
X43340714Y-55675476D01*
X44550238Y-56824523D02*
X43824523Y-56824523D01*
X44187380Y-56824523D02*
X44187380Y-55554523D01*
X44066428Y-55735952D01*
X43945476Y-55856904D01*
X43824523Y-55917380D01*
D10*
%TO.C,R18*%
X62857142Y-84852380D02*
X62523809Y-84376190D01*
X62285714Y-84852380D02*
X62285714Y-83852380D01*
X62666666Y-83852380D01*
X62761904Y-83900000D01*
X62809523Y-83947619D01*
X62857142Y-84042857D01*
X62857142Y-84185714D01*
X62809523Y-84280952D01*
X62761904Y-84328571D01*
X62666666Y-84376190D01*
X62285714Y-84376190D01*
X63809523Y-84852380D02*
X63238095Y-84852380D01*
X63523809Y-84852380D02*
X63523809Y-83852380D01*
X63428571Y-83995238D01*
X63333333Y-84090476D01*
X63238095Y-84138095D01*
X64380952Y-84280952D02*
X64285714Y-84233333D01*
X64238095Y-84185714D01*
X64190476Y-84090476D01*
X64190476Y-84042857D01*
X64238095Y-83947619D01*
X64285714Y-83900000D01*
X64380952Y-83852380D01*
X64571428Y-83852380D01*
X64666666Y-83900000D01*
X64714285Y-83947619D01*
X64761904Y-84042857D01*
X64761904Y-84090476D01*
X64714285Y-84185714D01*
X64666666Y-84233333D01*
X64571428Y-84280952D01*
X64380952Y-84280952D01*
X64285714Y-84328571D01*
X64238095Y-84376190D01*
X64190476Y-84471428D01*
X64190476Y-84661904D01*
X64238095Y-84757142D01*
X64285714Y-84804761D01*
X64380952Y-84852380D01*
X64571428Y-84852380D01*
X64666666Y-84804761D01*
X64714285Y-84757142D01*
X64761904Y-84661904D01*
X64761904Y-84471428D01*
X64714285Y-84376190D01*
X64666666Y-84328571D01*
X64571428Y-84280952D01*
%TO.C,D1*%
X71511904Y-86982380D02*
X71511904Y-85982380D01*
X71750000Y-85982380D01*
X71892857Y-86030000D01*
X71988095Y-86125238D01*
X72035714Y-86220476D01*
X72083333Y-86410952D01*
X72083333Y-86553809D01*
X72035714Y-86744285D01*
X71988095Y-86839523D01*
X71892857Y-86934761D01*
X71750000Y-86982380D01*
X71511904Y-86982380D01*
X73035714Y-86982380D02*
X72464285Y-86982380D01*
X72750000Y-86982380D02*
X72750000Y-85982380D01*
X72654761Y-86125238D01*
X72559523Y-86220476D01*
X72464285Y-86268095D01*
%TO.C,R13*%
X41607142Y-50452380D02*
X41273809Y-49976190D01*
X41035714Y-50452380D02*
X41035714Y-49452380D01*
X41416666Y-49452380D01*
X41511904Y-49500000D01*
X41559523Y-49547619D01*
X41607142Y-49642857D01*
X41607142Y-49785714D01*
X41559523Y-49880952D01*
X41511904Y-49928571D01*
X41416666Y-49976190D01*
X41035714Y-49976190D01*
X42559523Y-50452380D02*
X41988095Y-50452380D01*
X42273809Y-50452380D02*
X42273809Y-49452380D01*
X42178571Y-49595238D01*
X42083333Y-49690476D01*
X41988095Y-49738095D01*
X42892857Y-49452380D02*
X43511904Y-49452380D01*
X43178571Y-49833333D01*
X43321428Y-49833333D01*
X43416666Y-49880952D01*
X43464285Y-49928571D01*
X43511904Y-50023809D01*
X43511904Y-50261904D01*
X43464285Y-50357142D01*
X43416666Y-50404761D01*
X43321428Y-50452380D01*
X43035714Y-50452380D01*
X42940476Y-50404761D01*
X42892857Y-50357142D01*
%TO.C,C29*%
X36857142Y-56607142D02*
X36809523Y-56654761D01*
X36666666Y-56702380D01*
X36571428Y-56702380D01*
X36428571Y-56654761D01*
X36333333Y-56559523D01*
X36285714Y-56464285D01*
X36238095Y-56273809D01*
X36238095Y-56130952D01*
X36285714Y-55940476D01*
X36333333Y-55845238D01*
X36428571Y-55750000D01*
X36571428Y-55702380D01*
X36666666Y-55702380D01*
X36809523Y-55750000D01*
X36857142Y-55797619D01*
X37238095Y-55797619D02*
X37285714Y-55750000D01*
X37380952Y-55702380D01*
X37619047Y-55702380D01*
X37714285Y-55750000D01*
X37761904Y-55797619D01*
X37809523Y-55892857D01*
X37809523Y-55988095D01*
X37761904Y-56130952D01*
X37190476Y-56702380D01*
X37809523Y-56702380D01*
X38285714Y-56702380D02*
X38476190Y-56702380D01*
X38571428Y-56654761D01*
X38619047Y-56607142D01*
X38714285Y-56464285D01*
X38761904Y-56273809D01*
X38761904Y-55892857D01*
X38714285Y-55797619D01*
X38666666Y-55750000D01*
X38571428Y-55702380D01*
X38380952Y-55702380D01*
X38285714Y-55750000D01*
X38238095Y-55797619D01*
X38190476Y-55892857D01*
X38190476Y-56130952D01*
X38238095Y-56226190D01*
X38285714Y-56273809D01*
X38380952Y-56321428D01*
X38571428Y-56321428D01*
X38666666Y-56273809D01*
X38714285Y-56226190D01*
X38761904Y-56130952D01*
%TO.C,U2*%
X60288095Y-81852380D02*
X60288095Y-82661904D01*
X60335714Y-82757142D01*
X60383333Y-82804761D01*
X60478571Y-82852380D01*
X60669047Y-82852380D01*
X60764285Y-82804761D01*
X60811904Y-82757142D01*
X60859523Y-82661904D01*
X60859523Y-81852380D01*
X61288095Y-81947619D02*
X61335714Y-81900000D01*
X61430952Y-81852380D01*
X61669047Y-81852380D01*
X61764285Y-81900000D01*
X61811904Y-81947619D01*
X61859523Y-82042857D01*
X61859523Y-82138095D01*
X61811904Y-82280952D01*
X61240476Y-82852380D01*
X61859523Y-82852380D01*
%TO.C,C18*%
X60857142Y-74357142D02*
X60809523Y-74404761D01*
X60666666Y-74452380D01*
X60571428Y-74452380D01*
X60428571Y-74404761D01*
X60333333Y-74309523D01*
X60285714Y-74214285D01*
X60238095Y-74023809D01*
X60238095Y-73880952D01*
X60285714Y-73690476D01*
X60333333Y-73595238D01*
X60428571Y-73500000D01*
X60571428Y-73452380D01*
X60666666Y-73452380D01*
X60809523Y-73500000D01*
X60857142Y-73547619D01*
X61809523Y-74452380D02*
X61238095Y-74452380D01*
X61523809Y-74452380D02*
X61523809Y-73452380D01*
X61428571Y-73595238D01*
X61333333Y-73690476D01*
X61238095Y-73738095D01*
X62380952Y-73880952D02*
X62285714Y-73833333D01*
X62238095Y-73785714D01*
X62190476Y-73690476D01*
X62190476Y-73642857D01*
X62238095Y-73547619D01*
X62285714Y-73500000D01*
X62380952Y-73452380D01*
X62571428Y-73452380D01*
X62666666Y-73500000D01*
X62714285Y-73547619D01*
X62761904Y-73642857D01*
X62761904Y-73690476D01*
X62714285Y-73785714D01*
X62666666Y-73833333D01*
X62571428Y-73880952D01*
X62380952Y-73880952D01*
X62285714Y-73928571D01*
X62238095Y-73976190D01*
X62190476Y-74071428D01*
X62190476Y-74261904D01*
X62238095Y-74357142D01*
X62285714Y-74404761D01*
X62380952Y-74452380D01*
X62571428Y-74452380D01*
X62666666Y-74404761D01*
X62714285Y-74357142D01*
X62761904Y-74261904D01*
X62761904Y-74071428D01*
X62714285Y-73976190D01*
X62666666Y-73928571D01*
X62571428Y-73880952D01*
%TO.C,C21*%
X53357142Y-45507142D02*
X53309523Y-45554761D01*
X53166666Y-45602380D01*
X53071428Y-45602380D01*
X52928571Y-45554761D01*
X52833333Y-45459523D01*
X52785714Y-45364285D01*
X52738095Y-45173809D01*
X52738095Y-45030952D01*
X52785714Y-44840476D01*
X52833333Y-44745238D01*
X52928571Y-44650000D01*
X53071428Y-44602380D01*
X53166666Y-44602380D01*
X53309523Y-44650000D01*
X53357142Y-44697619D01*
X53738095Y-44697619D02*
X53785714Y-44650000D01*
X53880952Y-44602380D01*
X54119047Y-44602380D01*
X54214285Y-44650000D01*
X54261904Y-44697619D01*
X54309523Y-44792857D01*
X54309523Y-44888095D01*
X54261904Y-45030952D01*
X53690476Y-45602380D01*
X54309523Y-45602380D01*
X55261904Y-45602380D02*
X54690476Y-45602380D01*
X54976190Y-45602380D02*
X54976190Y-44602380D01*
X54880952Y-44745238D01*
X54785714Y-44840476D01*
X54690476Y-44888095D01*
%TO.C,C12*%
X54357142Y-50657142D02*
X54309523Y-50704761D01*
X54166666Y-50752380D01*
X54071428Y-50752380D01*
X53928571Y-50704761D01*
X53833333Y-50609523D01*
X53785714Y-50514285D01*
X53738095Y-50323809D01*
X53738095Y-50180952D01*
X53785714Y-49990476D01*
X53833333Y-49895238D01*
X53928571Y-49800000D01*
X54071428Y-49752380D01*
X54166666Y-49752380D01*
X54309523Y-49800000D01*
X54357142Y-49847619D01*
X55309523Y-50752380D02*
X54738095Y-50752380D01*
X55023809Y-50752380D02*
X55023809Y-49752380D01*
X54928571Y-49895238D01*
X54833333Y-49990476D01*
X54738095Y-50038095D01*
X55690476Y-49847619D02*
X55738095Y-49800000D01*
X55833333Y-49752380D01*
X56071428Y-49752380D01*
X56166666Y-49800000D01*
X56214285Y-49847619D01*
X56261904Y-49942857D01*
X56261904Y-50038095D01*
X56214285Y-50180952D01*
X55642857Y-50752380D01*
X56261904Y-50752380D01*
%TO.C,D2*%
X58611904Y-85502380D02*
X58611904Y-84502380D01*
X58850000Y-84502380D01*
X58992857Y-84550000D01*
X59088095Y-84645238D01*
X59135714Y-84740476D01*
X59183333Y-84930952D01*
X59183333Y-85073809D01*
X59135714Y-85264285D01*
X59088095Y-85359523D01*
X58992857Y-85454761D01*
X58850000Y-85502380D01*
X58611904Y-85502380D01*
X59564285Y-84597619D02*
X59611904Y-84550000D01*
X59707142Y-84502380D01*
X59945238Y-84502380D01*
X60040476Y-84550000D01*
X60088095Y-84597619D01*
X60135714Y-84692857D01*
X60135714Y-84788095D01*
X60088095Y-84930952D01*
X59516666Y-85502380D01*
X60135714Y-85502380D01*
%TO.C,C1*%
X58607142Y-55166666D02*
X58654761Y-55214285D01*
X58702380Y-55357142D01*
X58702380Y-55452380D01*
X58654761Y-55595238D01*
X58559523Y-55690476D01*
X58464285Y-55738095D01*
X58273809Y-55785714D01*
X58130952Y-55785714D01*
X57940476Y-55738095D01*
X57845238Y-55690476D01*
X57750000Y-55595238D01*
X57702380Y-55452380D01*
X57702380Y-55357142D01*
X57750000Y-55214285D01*
X57797619Y-55166666D01*
X58702380Y-54214285D02*
X58702380Y-54785714D01*
X58702380Y-54500000D02*
X57702380Y-54500000D01*
X57845238Y-54595238D01*
X57940476Y-54690476D01*
X57988095Y-54785714D01*
%TO.C,C13*%
X49107142Y-78107142D02*
X49059523Y-78154761D01*
X48916666Y-78202380D01*
X48821428Y-78202380D01*
X48678571Y-78154761D01*
X48583333Y-78059523D01*
X48535714Y-77964285D01*
X48488095Y-77773809D01*
X48488095Y-77630952D01*
X48535714Y-77440476D01*
X48583333Y-77345238D01*
X48678571Y-77250000D01*
X48821428Y-77202380D01*
X48916666Y-77202380D01*
X49059523Y-77250000D01*
X49107142Y-77297619D01*
X50059523Y-78202380D02*
X49488095Y-78202380D01*
X49773809Y-78202380D02*
X49773809Y-77202380D01*
X49678571Y-77345238D01*
X49583333Y-77440476D01*
X49488095Y-77488095D01*
X50392857Y-77202380D02*
X51011904Y-77202380D01*
X50678571Y-77583333D01*
X50821428Y-77583333D01*
X50916666Y-77630952D01*
X50964285Y-77678571D01*
X51011904Y-77773809D01*
X51011904Y-78011904D01*
X50964285Y-78107142D01*
X50916666Y-78154761D01*
X50821428Y-78202380D01*
X50535714Y-78202380D01*
X50440476Y-78154761D01*
X50392857Y-78107142D01*
%TO.C,U1*%
X68588095Y-84952380D02*
X68588095Y-85761904D01*
X68635714Y-85857142D01*
X68683333Y-85904761D01*
X68778571Y-85952380D01*
X68969047Y-85952380D01*
X69064285Y-85904761D01*
X69111904Y-85857142D01*
X69159523Y-85761904D01*
X69159523Y-84952380D01*
X70159523Y-85952380D02*
X69588095Y-85952380D01*
X69873809Y-85952380D02*
X69873809Y-84952380D01*
X69778571Y-85095238D01*
X69683333Y-85190476D01*
X69588095Y-85238095D01*
%TO.C,R8*%
X49083333Y-83952380D02*
X48750000Y-83476190D01*
X48511904Y-83952380D02*
X48511904Y-82952380D01*
X48892857Y-82952380D01*
X48988095Y-83000000D01*
X49035714Y-83047619D01*
X49083333Y-83142857D01*
X49083333Y-83285714D01*
X49035714Y-83380952D01*
X48988095Y-83428571D01*
X48892857Y-83476190D01*
X48511904Y-83476190D01*
X49654761Y-83380952D02*
X49559523Y-83333333D01*
X49511904Y-83285714D01*
X49464285Y-83190476D01*
X49464285Y-83142857D01*
X49511904Y-83047619D01*
X49559523Y-83000000D01*
X49654761Y-82952380D01*
X49845238Y-82952380D01*
X49940476Y-83000000D01*
X49988095Y-83047619D01*
X50035714Y-83142857D01*
X50035714Y-83190476D01*
X49988095Y-83285714D01*
X49940476Y-83333333D01*
X49845238Y-83380952D01*
X49654761Y-83380952D01*
X49559523Y-83428571D01*
X49511904Y-83476190D01*
X49464285Y-83571428D01*
X49464285Y-83761904D01*
X49511904Y-83857142D01*
X49559523Y-83904761D01*
X49654761Y-83952380D01*
X49845238Y-83952380D01*
X49940476Y-83904761D01*
X49988095Y-83857142D01*
X50035714Y-83761904D01*
X50035714Y-83571428D01*
X49988095Y-83476190D01*
X49940476Y-83428571D01*
X49845238Y-83380952D01*
%TO.C,C17*%
X58357142Y-63857142D02*
X58309523Y-63904761D01*
X58166666Y-63952380D01*
X58071428Y-63952380D01*
X57928571Y-63904761D01*
X57833333Y-63809523D01*
X57785714Y-63714285D01*
X57738095Y-63523809D01*
X57738095Y-63380952D01*
X57785714Y-63190476D01*
X57833333Y-63095238D01*
X57928571Y-63000000D01*
X58071428Y-62952380D01*
X58166666Y-62952380D01*
X58309523Y-63000000D01*
X58357142Y-63047619D01*
X59309523Y-63952380D02*
X58738095Y-63952380D01*
X59023809Y-63952380D02*
X59023809Y-62952380D01*
X58928571Y-63095238D01*
X58833333Y-63190476D01*
X58738095Y-63238095D01*
X59642857Y-62952380D02*
X60309523Y-62952380D01*
X59880952Y-63952380D01*
%TO.C,R5*%
X54983333Y-85402380D02*
X54650000Y-84926190D01*
X54411904Y-85402380D02*
X54411904Y-84402380D01*
X54792857Y-84402380D01*
X54888095Y-84450000D01*
X54935714Y-84497619D01*
X54983333Y-84592857D01*
X54983333Y-84735714D01*
X54935714Y-84830952D01*
X54888095Y-84878571D01*
X54792857Y-84926190D01*
X54411904Y-84926190D01*
X55888095Y-84402380D02*
X55411904Y-84402380D01*
X55364285Y-84878571D01*
X55411904Y-84830952D01*
X55507142Y-84783333D01*
X55745238Y-84783333D01*
X55840476Y-84830952D01*
X55888095Y-84878571D01*
X55935714Y-84973809D01*
X55935714Y-85211904D01*
X55888095Y-85307142D01*
X55840476Y-85354761D01*
X55745238Y-85402380D01*
X55507142Y-85402380D01*
X55411904Y-85354761D01*
X55364285Y-85307142D01*
%TO.C,C25*%
X44857142Y-50107142D02*
X44809523Y-50154761D01*
X44666666Y-50202380D01*
X44571428Y-50202380D01*
X44428571Y-50154761D01*
X44333333Y-50059523D01*
X44285714Y-49964285D01*
X44238095Y-49773809D01*
X44238095Y-49630952D01*
X44285714Y-49440476D01*
X44333333Y-49345238D01*
X44428571Y-49250000D01*
X44571428Y-49202380D01*
X44666666Y-49202380D01*
X44809523Y-49250000D01*
X44857142Y-49297619D01*
X45238095Y-49297619D02*
X45285714Y-49250000D01*
X45380952Y-49202380D01*
X45619047Y-49202380D01*
X45714285Y-49250000D01*
X45761904Y-49297619D01*
X45809523Y-49392857D01*
X45809523Y-49488095D01*
X45761904Y-49630952D01*
X45190476Y-50202380D01*
X45809523Y-50202380D01*
X46714285Y-49202380D02*
X46238095Y-49202380D01*
X46190476Y-49678571D01*
X46238095Y-49630952D01*
X46333333Y-49583333D01*
X46571428Y-49583333D01*
X46666666Y-49630952D01*
X46714285Y-49678571D01*
X46761904Y-49773809D01*
X46761904Y-50011904D01*
X46714285Y-50107142D01*
X46666666Y-50154761D01*
X46571428Y-50202380D01*
X46333333Y-50202380D01*
X46238095Y-50154761D01*
X46190476Y-50107142D01*
%TO.C,L3*%
X37333333Y-66952380D02*
X36857142Y-66952380D01*
X36857142Y-65952380D01*
X37571428Y-65952380D02*
X38190476Y-65952380D01*
X37857142Y-66333333D01*
X38000000Y-66333333D01*
X38095238Y-66380952D01*
X38142857Y-66428571D01*
X38190476Y-66523809D01*
X38190476Y-66761904D01*
X38142857Y-66857142D01*
X38095238Y-66904761D01*
X38000000Y-66952380D01*
X37714285Y-66952380D01*
X37619047Y-66904761D01*
X37571428Y-66857142D01*
%TO.C,L1*%
X37083333Y-68202380D02*
X36607142Y-68202380D01*
X36607142Y-67202380D01*
X37940476Y-68202380D02*
X37369047Y-68202380D01*
X37654761Y-68202380D02*
X37654761Y-67202380D01*
X37559523Y-67345238D01*
X37464285Y-67440476D01*
X37369047Y-67488095D01*
%TO.C,C27*%
X40357142Y-65357142D02*
X40309523Y-65404761D01*
X40166666Y-65452380D01*
X40071428Y-65452380D01*
X39928571Y-65404761D01*
X39833333Y-65309523D01*
X39785714Y-65214285D01*
X39738095Y-65023809D01*
X39738095Y-64880952D01*
X39785714Y-64690476D01*
X39833333Y-64595238D01*
X39928571Y-64500000D01*
X40071428Y-64452380D01*
X40166666Y-64452380D01*
X40309523Y-64500000D01*
X40357142Y-64547619D01*
X40738095Y-64547619D02*
X40785714Y-64500000D01*
X40880952Y-64452380D01*
X41119047Y-64452380D01*
X41214285Y-64500000D01*
X41261904Y-64547619D01*
X41309523Y-64642857D01*
X41309523Y-64738095D01*
X41261904Y-64880952D01*
X40690476Y-65452380D01*
X41309523Y-65452380D01*
X41642857Y-64452380D02*
X42309523Y-64452380D01*
X41880952Y-65452380D01*
%TO.C,C3*%
X60907142Y-82516666D02*
X60954761Y-82564285D01*
X61002380Y-82707142D01*
X61002380Y-82802380D01*
X60954761Y-82945238D01*
X60859523Y-83040476D01*
X60764285Y-83088095D01*
X60573809Y-83135714D01*
X60430952Y-83135714D01*
X60240476Y-83088095D01*
X60145238Y-83040476D01*
X60050000Y-82945238D01*
X60002380Y-82802380D01*
X60002380Y-82707142D01*
X60050000Y-82564285D01*
X60097619Y-82516666D01*
X60002380Y-82183333D02*
X60002380Y-81564285D01*
X60383333Y-81897619D01*
X60383333Y-81754761D01*
X60430952Y-81659523D01*
X60478571Y-81611904D01*
X60573809Y-81564285D01*
X60811904Y-81564285D01*
X60907142Y-81611904D01*
X60954761Y-81659523D01*
X61002380Y-81754761D01*
X61002380Y-82040476D01*
X60954761Y-82135714D01*
X60907142Y-82183333D01*
%TO.C,C22*%
X46857142Y-54607142D02*
X46809523Y-54654761D01*
X46666666Y-54702380D01*
X46571428Y-54702380D01*
X46428571Y-54654761D01*
X46333333Y-54559523D01*
X46285714Y-54464285D01*
X46238095Y-54273809D01*
X46238095Y-54130952D01*
X46285714Y-53940476D01*
X46333333Y-53845238D01*
X46428571Y-53750000D01*
X46571428Y-53702380D01*
X46666666Y-53702380D01*
X46809523Y-53750000D01*
X46857142Y-53797619D01*
X47238095Y-53797619D02*
X47285714Y-53750000D01*
X47380952Y-53702380D01*
X47619047Y-53702380D01*
X47714285Y-53750000D01*
X47761904Y-53797619D01*
X47809523Y-53892857D01*
X47809523Y-53988095D01*
X47761904Y-54130952D01*
X47190476Y-54702380D01*
X47809523Y-54702380D01*
X48190476Y-53797619D02*
X48238095Y-53750000D01*
X48333333Y-53702380D01*
X48571428Y-53702380D01*
X48666666Y-53750000D01*
X48714285Y-53797619D01*
X48761904Y-53892857D01*
X48761904Y-53988095D01*
X48714285Y-54130952D01*
X48142857Y-54702380D01*
X48761904Y-54702380D01*
%TO.C,U5*%
X52788095Y-63802380D02*
X52788095Y-64611904D01*
X52835714Y-64707142D01*
X52883333Y-64754761D01*
X52978571Y-64802380D01*
X53169047Y-64802380D01*
X53264285Y-64754761D01*
X53311904Y-64707142D01*
X53359523Y-64611904D01*
X53359523Y-63802380D01*
X54311904Y-63802380D02*
X53835714Y-63802380D01*
X53788095Y-64278571D01*
X53835714Y-64230952D01*
X53930952Y-64183333D01*
X54169047Y-64183333D01*
X54264285Y-64230952D01*
X54311904Y-64278571D01*
X54359523Y-64373809D01*
X54359523Y-64611904D01*
X54311904Y-64707142D01*
X54264285Y-64754761D01*
X54169047Y-64802380D01*
X53930952Y-64802380D01*
X53835714Y-64754761D01*
X53788095Y-64707142D01*
%TO.C,R11*%
X46357142Y-72202380D02*
X46023809Y-71726190D01*
X45785714Y-72202380D02*
X45785714Y-71202380D01*
X46166666Y-71202380D01*
X46261904Y-71250000D01*
X46309523Y-71297619D01*
X46357142Y-71392857D01*
X46357142Y-71535714D01*
X46309523Y-71630952D01*
X46261904Y-71678571D01*
X46166666Y-71726190D01*
X45785714Y-71726190D01*
X47309523Y-72202380D02*
X46738095Y-72202380D01*
X47023809Y-72202380D02*
X47023809Y-71202380D01*
X46928571Y-71345238D01*
X46833333Y-71440476D01*
X46738095Y-71488095D01*
X48261904Y-72202380D02*
X47690476Y-72202380D01*
X47976190Y-72202380D02*
X47976190Y-71202380D01*
X47880952Y-71345238D01*
X47785714Y-71440476D01*
X47690476Y-71488095D01*
%TO.C,J6*%
X41729064Y-46459263D02*
X42444036Y-46459263D01*
X42587031Y-46506928D01*
X42682360Y-46602258D01*
X42730025Y-46745252D01*
X42730025Y-46840582D01*
X41729064Y-45553632D02*
X41729064Y-45744291D01*
X41776729Y-45839621D01*
X41824394Y-45887285D01*
X41967388Y-45982615D01*
X42158047Y-46030280D01*
X42539366Y-46030280D01*
X42634696Y-45982615D01*
X42682360Y-45934950D01*
X42730025Y-45839621D01*
X42730025Y-45648961D01*
X42682360Y-45553632D01*
X42634696Y-45505967D01*
X42539366Y-45458302D01*
X42301042Y-45458302D01*
X42205712Y-45505967D01*
X42158047Y-45553632D01*
X42110383Y-45648961D01*
X42110383Y-45839621D01*
X42158047Y-45934950D01*
X42205712Y-45982615D01*
X42301042Y-46030280D01*
%TO.C,C5*%
X56283333Y-93367142D02*
X56235714Y-93414761D01*
X56092857Y-93462380D01*
X55997619Y-93462380D01*
X55854761Y-93414761D01*
X55759523Y-93319523D01*
X55711904Y-93224285D01*
X55664285Y-93033809D01*
X55664285Y-92890952D01*
X55711904Y-92700476D01*
X55759523Y-92605238D01*
X55854761Y-92510000D01*
X55997619Y-92462380D01*
X56092857Y-92462380D01*
X56235714Y-92510000D01*
X56283333Y-92557619D01*
X57188095Y-92462380D02*
X56711904Y-92462380D01*
X56664285Y-92938571D01*
X56711904Y-92890952D01*
X56807142Y-92843333D01*
X57045238Y-92843333D01*
X57140476Y-92890952D01*
X57188095Y-92938571D01*
X57235714Y-93033809D01*
X57235714Y-93271904D01*
X57188095Y-93367142D01*
X57140476Y-93414761D01*
X57045238Y-93462380D01*
X56807142Y-93462380D01*
X56711904Y-93414761D01*
X56664285Y-93367142D01*
%TO.C,C11*%
X68357142Y-43157142D02*
X68309523Y-43204761D01*
X68166666Y-43252380D01*
X68071428Y-43252380D01*
X67928571Y-43204761D01*
X67833333Y-43109523D01*
X67785714Y-43014285D01*
X67738095Y-42823809D01*
X67738095Y-42680952D01*
X67785714Y-42490476D01*
X67833333Y-42395238D01*
X67928571Y-42300000D01*
X68071428Y-42252380D01*
X68166666Y-42252380D01*
X68309523Y-42300000D01*
X68357142Y-42347619D01*
X69309523Y-43252380D02*
X68738095Y-43252380D01*
X69023809Y-43252380D02*
X69023809Y-42252380D01*
X68928571Y-42395238D01*
X68833333Y-42490476D01*
X68738095Y-42538095D01*
X70261904Y-43252380D02*
X69690476Y-43252380D01*
X69976190Y-43252380D02*
X69976190Y-42252380D01*
X69880952Y-42395238D01*
X69785714Y-42490476D01*
X69690476Y-42538095D01*
%TO.C,C28*%
X45357142Y-64107142D02*
X45309523Y-64154761D01*
X45166666Y-64202380D01*
X45071428Y-64202380D01*
X44928571Y-64154761D01*
X44833333Y-64059523D01*
X44785714Y-63964285D01*
X44738095Y-63773809D01*
X44738095Y-63630952D01*
X44785714Y-63440476D01*
X44833333Y-63345238D01*
X44928571Y-63250000D01*
X45071428Y-63202380D01*
X45166666Y-63202380D01*
X45309523Y-63250000D01*
X45357142Y-63297619D01*
X45738095Y-63297619D02*
X45785714Y-63250000D01*
X45880952Y-63202380D01*
X46119047Y-63202380D01*
X46214285Y-63250000D01*
X46261904Y-63297619D01*
X46309523Y-63392857D01*
X46309523Y-63488095D01*
X46261904Y-63630952D01*
X45690476Y-64202380D01*
X46309523Y-64202380D01*
X46880952Y-63630952D02*
X46785714Y-63583333D01*
X46738095Y-63535714D01*
X46690476Y-63440476D01*
X46690476Y-63392857D01*
X46738095Y-63297619D01*
X46785714Y-63250000D01*
X46880952Y-63202380D01*
X47071428Y-63202380D01*
X47166666Y-63250000D01*
X47214285Y-63297619D01*
X47261904Y-63392857D01*
X47261904Y-63440476D01*
X47214285Y-63535714D01*
X47166666Y-63583333D01*
X47071428Y-63630952D01*
X46880952Y-63630952D01*
X46785714Y-63678571D01*
X46738095Y-63726190D01*
X46690476Y-63821428D01*
X46690476Y-64011904D01*
X46738095Y-64107142D01*
X46785714Y-64154761D01*
X46880952Y-64202380D01*
X47071428Y-64202380D01*
X47166666Y-64154761D01*
X47214285Y-64107142D01*
X47261904Y-64011904D01*
X47261904Y-63821428D01*
X47214285Y-63726190D01*
X47166666Y-63678571D01*
X47071428Y-63630952D01*
%TO.C,C4*%
X51833333Y-73107142D02*
X51785714Y-73154761D01*
X51642857Y-73202380D01*
X51547619Y-73202380D01*
X51404761Y-73154761D01*
X51309523Y-73059523D01*
X51261904Y-72964285D01*
X51214285Y-72773809D01*
X51214285Y-72630952D01*
X51261904Y-72440476D01*
X51309523Y-72345238D01*
X51404761Y-72250000D01*
X51547619Y-72202380D01*
X51642857Y-72202380D01*
X51785714Y-72250000D01*
X51833333Y-72297619D01*
X52690476Y-72535714D02*
X52690476Y-73202380D01*
X52452380Y-72154761D02*
X52214285Y-72869047D01*
X52833333Y-72869047D01*
%TO.C,C20*%
X49107142Y-75607142D02*
X49059523Y-75654761D01*
X48916666Y-75702380D01*
X48821428Y-75702380D01*
X48678571Y-75654761D01*
X48583333Y-75559523D01*
X48535714Y-75464285D01*
X48488095Y-75273809D01*
X48488095Y-75130952D01*
X48535714Y-74940476D01*
X48583333Y-74845238D01*
X48678571Y-74750000D01*
X48821428Y-74702380D01*
X48916666Y-74702380D01*
X49059523Y-74750000D01*
X49107142Y-74797619D01*
X49488095Y-74797619D02*
X49535714Y-74750000D01*
X49630952Y-74702380D01*
X49869047Y-74702380D01*
X49964285Y-74750000D01*
X50011904Y-74797619D01*
X50059523Y-74892857D01*
X50059523Y-74988095D01*
X50011904Y-75130952D01*
X49440476Y-75702380D01*
X50059523Y-75702380D01*
X50678571Y-74702380D02*
X50773809Y-74702380D01*
X50869047Y-74750000D01*
X50916666Y-74797619D01*
X50964285Y-74892857D01*
X51011904Y-75083333D01*
X51011904Y-75321428D01*
X50964285Y-75511904D01*
X50916666Y-75607142D01*
X50869047Y-75654761D01*
X50773809Y-75702380D01*
X50678571Y-75702380D01*
X50583333Y-75654761D01*
X50535714Y-75607142D01*
X50488095Y-75511904D01*
X50440476Y-75321428D01*
X50440476Y-75083333D01*
X50488095Y-74892857D01*
X50535714Y-74797619D01*
X50583333Y-74750000D01*
X50678571Y-74702380D01*
%TO.C,C9*%
X60197142Y-89941666D02*
X60244761Y-89989285D01*
X60292380Y-90132142D01*
X60292380Y-90227380D01*
X60244761Y-90370238D01*
X60149523Y-90465476D01*
X60054285Y-90513095D01*
X59863809Y-90560714D01*
X59720952Y-90560714D01*
X59530476Y-90513095D01*
X59435238Y-90465476D01*
X59340000Y-90370238D01*
X59292380Y-90227380D01*
X59292380Y-90132142D01*
X59340000Y-89989285D01*
X59387619Y-89941666D01*
X60292380Y-89465476D02*
X60292380Y-89275000D01*
X60244761Y-89179761D01*
X60197142Y-89132142D01*
X60054285Y-89036904D01*
X59863809Y-88989285D01*
X59482857Y-88989285D01*
X59387619Y-89036904D01*
X59340000Y-89084523D01*
X59292380Y-89179761D01*
X59292380Y-89370238D01*
X59340000Y-89465476D01*
X59387619Y-89513095D01*
X59482857Y-89560714D01*
X59720952Y-89560714D01*
X59816190Y-89513095D01*
X59863809Y-89465476D01*
X59911428Y-89370238D01*
X59911428Y-89179761D01*
X59863809Y-89084523D01*
X59816190Y-89036904D01*
X59720952Y-88989285D01*
%TO.C,D4*%
X62011904Y-71202380D02*
X62011904Y-70202380D01*
X62250000Y-70202380D01*
X62392857Y-70250000D01*
X62488095Y-70345238D01*
X62535714Y-70440476D01*
X62583333Y-70630952D01*
X62583333Y-70773809D01*
X62535714Y-70964285D01*
X62488095Y-71059523D01*
X62392857Y-71154761D01*
X62250000Y-71202380D01*
X62011904Y-71202380D01*
X63440476Y-70535714D02*
X63440476Y-71202380D01*
X63202380Y-70154761D02*
X62964285Y-70869047D01*
X63583333Y-70869047D01*
%TO.C,SW1*%
X50416666Y-80204761D02*
X50559523Y-80252380D01*
X50797619Y-80252380D01*
X50892857Y-80204761D01*
X50940476Y-80157142D01*
X50988095Y-80061904D01*
X50988095Y-79966666D01*
X50940476Y-79871428D01*
X50892857Y-79823809D01*
X50797619Y-79776190D01*
X50607142Y-79728571D01*
X50511904Y-79680952D01*
X50464285Y-79633333D01*
X50416666Y-79538095D01*
X50416666Y-79442857D01*
X50464285Y-79347619D01*
X50511904Y-79300000D01*
X50607142Y-79252380D01*
X50845238Y-79252380D01*
X50988095Y-79300000D01*
X51321428Y-79252380D02*
X51559523Y-80252380D01*
X51750000Y-79538095D01*
X51940476Y-80252380D01*
X52178571Y-79252380D01*
X53083333Y-80252380D02*
X52511904Y-80252380D01*
X52797619Y-80252380D02*
X52797619Y-79252380D01*
X52702380Y-79395238D01*
X52607142Y-79490476D01*
X52511904Y-79538095D01*
%TO.C,R6*%
X56483333Y-79202380D02*
X56150000Y-78726190D01*
X55911904Y-79202380D02*
X55911904Y-78202380D01*
X56292857Y-78202380D01*
X56388095Y-78250000D01*
X56435714Y-78297619D01*
X56483333Y-78392857D01*
X56483333Y-78535714D01*
X56435714Y-78630952D01*
X56388095Y-78678571D01*
X56292857Y-78726190D01*
X55911904Y-78726190D01*
X57340476Y-78202380D02*
X57150000Y-78202380D01*
X57054761Y-78250000D01*
X57007142Y-78297619D01*
X56911904Y-78440476D01*
X56864285Y-78630952D01*
X56864285Y-79011904D01*
X56911904Y-79107142D01*
X56959523Y-79154761D01*
X57054761Y-79202380D01*
X57245238Y-79202380D01*
X57340476Y-79154761D01*
X57388095Y-79107142D01*
X57435714Y-79011904D01*
X57435714Y-78773809D01*
X57388095Y-78678571D01*
X57340476Y-78630952D01*
X57245238Y-78583333D01*
X57054761Y-78583333D01*
X56959523Y-78630952D01*
X56911904Y-78678571D01*
X56864285Y-78773809D01*
%TO.C,Q1*%
X62754761Y-86147619D02*
X62659523Y-86100000D01*
X62564285Y-86004761D01*
X62421428Y-85861904D01*
X62326190Y-85814285D01*
X62230952Y-85814285D01*
X62278571Y-86052380D02*
X62183333Y-86004761D01*
X62088095Y-85909523D01*
X62040476Y-85719047D01*
X62040476Y-85385714D01*
X62088095Y-85195238D01*
X62183333Y-85100000D01*
X62278571Y-85052380D01*
X62469047Y-85052380D01*
X62564285Y-85100000D01*
X62659523Y-85195238D01*
X62707142Y-85385714D01*
X62707142Y-85719047D01*
X62659523Y-85909523D01*
X62564285Y-86004761D01*
X62469047Y-86052380D01*
X62278571Y-86052380D01*
X63659523Y-86052380D02*
X63088095Y-86052380D01*
X63373809Y-86052380D02*
X63373809Y-85052380D01*
X63278571Y-85195238D01*
X63183333Y-85290476D01*
X63088095Y-85338095D01*
%TO.C,R3*%
X74783333Y-87802380D02*
X74450000Y-87326190D01*
X74211904Y-87802380D02*
X74211904Y-86802380D01*
X74592857Y-86802380D01*
X74688095Y-86850000D01*
X74735714Y-86897619D01*
X74783333Y-86992857D01*
X74783333Y-87135714D01*
X74735714Y-87230952D01*
X74688095Y-87278571D01*
X74592857Y-87326190D01*
X74211904Y-87326190D01*
X75116666Y-86802380D02*
X75735714Y-86802380D01*
X75402380Y-87183333D01*
X75545238Y-87183333D01*
X75640476Y-87230952D01*
X75688095Y-87278571D01*
X75735714Y-87373809D01*
X75735714Y-87611904D01*
X75688095Y-87707142D01*
X75640476Y-87754761D01*
X75545238Y-87802380D01*
X75259523Y-87802380D01*
X75164285Y-87754761D01*
X75116666Y-87707142D01*
%TO.C,C26*%
X37107142Y-63107142D02*
X37059523Y-63154761D01*
X36916666Y-63202380D01*
X36821428Y-63202380D01*
X36678571Y-63154761D01*
X36583333Y-63059523D01*
X36535714Y-62964285D01*
X36488095Y-62773809D01*
X36488095Y-62630952D01*
X36535714Y-62440476D01*
X36583333Y-62345238D01*
X36678571Y-62250000D01*
X36821428Y-62202380D01*
X36916666Y-62202380D01*
X37059523Y-62250000D01*
X37107142Y-62297619D01*
X37488095Y-62297619D02*
X37535714Y-62250000D01*
X37630952Y-62202380D01*
X37869047Y-62202380D01*
X37964285Y-62250000D01*
X38011904Y-62297619D01*
X38059523Y-62392857D01*
X38059523Y-62488095D01*
X38011904Y-62630952D01*
X37440476Y-63202380D01*
X38059523Y-63202380D01*
X38916666Y-62202380D02*
X38726190Y-62202380D01*
X38630952Y-62250000D01*
X38583333Y-62297619D01*
X38488095Y-62440476D01*
X38440476Y-62630952D01*
X38440476Y-63011904D01*
X38488095Y-63107142D01*
X38535714Y-63154761D01*
X38630952Y-63202380D01*
X38821428Y-63202380D01*
X38916666Y-63154761D01*
X38964285Y-63107142D01*
X39011904Y-63011904D01*
X39011904Y-62773809D01*
X38964285Y-62678571D01*
X38916666Y-62630952D01*
X38821428Y-62583333D01*
X38630952Y-62583333D01*
X38535714Y-62630952D01*
X38488095Y-62678571D01*
X38440476Y-62773809D01*
%TO.C,J4*%
X55616666Y-42652380D02*
X55616666Y-43366666D01*
X55569047Y-43509523D01*
X55473809Y-43604761D01*
X55330952Y-43652380D01*
X55235714Y-43652380D01*
X56521428Y-42985714D02*
X56521428Y-43652380D01*
X56283333Y-42604761D02*
X56045238Y-43319047D01*
X56664285Y-43319047D01*
%TO.C,C7*%
X51833333Y-74357142D02*
X51785714Y-74404761D01*
X51642857Y-74452380D01*
X51547619Y-74452380D01*
X51404761Y-74404761D01*
X51309523Y-74309523D01*
X51261904Y-74214285D01*
X51214285Y-74023809D01*
X51214285Y-73880952D01*
X51261904Y-73690476D01*
X51309523Y-73595238D01*
X51404761Y-73500000D01*
X51547619Y-73452380D01*
X51642857Y-73452380D01*
X51785714Y-73500000D01*
X51833333Y-73547619D01*
X52166666Y-73452380D02*
X52833333Y-73452380D01*
X52404761Y-74452380D01*
%TO.C,C6*%
X53333333Y-63357142D02*
X53285714Y-63404761D01*
X53142857Y-63452380D01*
X53047619Y-63452380D01*
X52904761Y-63404761D01*
X52809523Y-63309523D01*
X52761904Y-63214285D01*
X52714285Y-63023809D01*
X52714285Y-62880952D01*
X52761904Y-62690476D01*
X52809523Y-62595238D01*
X52904761Y-62500000D01*
X53047619Y-62452380D01*
X53142857Y-62452380D01*
X53285714Y-62500000D01*
X53333333Y-62547619D01*
X54190476Y-62452380D02*
X54000000Y-62452380D01*
X53904761Y-62500000D01*
X53857142Y-62547619D01*
X53761904Y-62690476D01*
X53714285Y-62880952D01*
X53714285Y-63261904D01*
X53761904Y-63357142D01*
X53809523Y-63404761D01*
X53904761Y-63452380D01*
X54095238Y-63452380D01*
X54190476Y-63404761D01*
X54238095Y-63357142D01*
X54285714Y-63261904D01*
X54285714Y-63023809D01*
X54238095Y-62928571D01*
X54190476Y-62880952D01*
X54095238Y-62833333D01*
X53904761Y-62833333D01*
X53809523Y-62880952D01*
X53761904Y-62928571D01*
X53714285Y-63023809D01*
D12*
%TO.C,Y2*%
X40270783Y-51738539D02*
X40270783Y-51967755D01*
X40110332Y-51486401D02*
X40270783Y-51738539D01*
X40431235Y-51486401D01*
X40568764Y-51532244D02*
X40591686Y-51509323D01*
X40637529Y-51486401D01*
X40752137Y-51486401D01*
X40797981Y-51509323D01*
X40820902Y-51532244D01*
X40843824Y-51578087D01*
X40843824Y-51623931D01*
X40820902Y-51692695D01*
X40545843Y-51967755D01*
X40843824Y-51967755D01*
D10*
%TO.C,C23*%
X51157142Y-52142857D02*
X51204761Y-52190476D01*
X51252380Y-52333333D01*
X51252380Y-52428571D01*
X51204761Y-52571428D01*
X51109523Y-52666666D01*
X51014285Y-52714285D01*
X50823809Y-52761904D01*
X50680952Y-52761904D01*
X50490476Y-52714285D01*
X50395238Y-52666666D01*
X50300000Y-52571428D01*
X50252380Y-52428571D01*
X50252380Y-52333333D01*
X50300000Y-52190476D01*
X50347619Y-52142857D01*
X50347619Y-51761904D02*
X50300000Y-51714285D01*
X50252380Y-51619047D01*
X50252380Y-51380952D01*
X50300000Y-51285714D01*
X50347619Y-51238095D01*
X50442857Y-51190476D01*
X50538095Y-51190476D01*
X50680952Y-51238095D01*
X51252380Y-51809523D01*
X51252380Y-51190476D01*
X50252380Y-50857142D02*
X50252380Y-50238095D01*
X50633333Y-50571428D01*
X50633333Y-50428571D01*
X50680952Y-50333333D01*
X50728571Y-50285714D01*
X50823809Y-50238095D01*
X51061904Y-50238095D01*
X51157142Y-50285714D01*
X51204761Y-50333333D01*
X51252380Y-50428571D01*
X51252380Y-50714285D01*
X51204761Y-50809523D01*
X51157142Y-50857142D01*
%TO.C,C2*%
X53407142Y-55166666D02*
X53454761Y-55214285D01*
X53502380Y-55357142D01*
X53502380Y-55452380D01*
X53454761Y-55595238D01*
X53359523Y-55690476D01*
X53264285Y-55738095D01*
X53073809Y-55785714D01*
X52930952Y-55785714D01*
X52740476Y-55738095D01*
X52645238Y-55690476D01*
X52550000Y-55595238D01*
X52502380Y-55452380D01*
X52502380Y-55357142D01*
X52550000Y-55214285D01*
X52597619Y-55166666D01*
X52597619Y-54785714D02*
X52550000Y-54738095D01*
X52502380Y-54642857D01*
X52502380Y-54404761D01*
X52550000Y-54309523D01*
X52597619Y-54261904D01*
X52692857Y-54214285D01*
X52788095Y-54214285D01*
X52930952Y-54261904D01*
X53502380Y-54833333D01*
X53502380Y-54214285D01*
%TO.C,C15*%
X49107142Y-76857142D02*
X49059523Y-76904761D01*
X48916666Y-76952380D01*
X48821428Y-76952380D01*
X48678571Y-76904761D01*
X48583333Y-76809523D01*
X48535714Y-76714285D01*
X48488095Y-76523809D01*
X48488095Y-76380952D01*
X48535714Y-76190476D01*
X48583333Y-76095238D01*
X48678571Y-76000000D01*
X48821428Y-75952380D01*
X48916666Y-75952380D01*
X49059523Y-76000000D01*
X49107142Y-76047619D01*
X50059523Y-76952380D02*
X49488095Y-76952380D01*
X49773809Y-76952380D02*
X49773809Y-75952380D01*
X49678571Y-76095238D01*
X49583333Y-76190476D01*
X49488095Y-76238095D01*
X50964285Y-75952380D02*
X50488095Y-75952380D01*
X50440476Y-76428571D01*
X50488095Y-76380952D01*
X50583333Y-76333333D01*
X50821428Y-76333333D01*
X50916666Y-76380952D01*
X50964285Y-76428571D01*
X51011904Y-76523809D01*
X51011904Y-76761904D01*
X50964285Y-76857142D01*
X50916666Y-76904761D01*
X50821428Y-76952380D01*
X50583333Y-76952380D01*
X50488095Y-76904761D01*
X50440476Y-76857142D01*
%TO.C,C33*%
X65019892Y-66794392D02*
X64972273Y-66842011D01*
X64829416Y-66889630D01*
X64734178Y-66889630D01*
X64591321Y-66842011D01*
X64496083Y-66746773D01*
X64448464Y-66651535D01*
X64400845Y-66461059D01*
X64400845Y-66318202D01*
X64448464Y-66127726D01*
X64496083Y-66032488D01*
X64591321Y-65937250D01*
X64734178Y-65889630D01*
X64829416Y-65889630D01*
X64972273Y-65937250D01*
X65019892Y-65984869D01*
X65353226Y-65889630D02*
X65972273Y-65889630D01*
X65638940Y-66270583D01*
X65781797Y-66270583D01*
X65877035Y-66318202D01*
X65924654Y-66365821D01*
X65972273Y-66461059D01*
X65972273Y-66699154D01*
X65924654Y-66794392D01*
X65877035Y-66842011D01*
X65781797Y-66889630D01*
X65496083Y-66889630D01*
X65400845Y-66842011D01*
X65353226Y-66794392D01*
X66305607Y-65889630D02*
X66924654Y-65889630D01*
X66591321Y-66270583D01*
X66734178Y-66270583D01*
X66829416Y-66318202D01*
X66877035Y-66365821D01*
X66924654Y-66461059D01*
X66924654Y-66699154D01*
X66877035Y-66794392D01*
X66829416Y-66842011D01*
X66734178Y-66889630D01*
X66448464Y-66889630D01*
X66353226Y-66842011D01*
X66305607Y-66794392D01*
%TO.C,J3*%
X66502380Y-65133333D02*
X67216666Y-65133333D01*
X67359523Y-65180952D01*
X67454761Y-65276190D01*
X67502380Y-65419047D01*
X67502380Y-65514285D01*
X66502380Y-64752380D02*
X66502380Y-64133333D01*
X66883333Y-64466666D01*
X66883333Y-64323809D01*
X66930952Y-64228571D01*
X66978571Y-64180952D01*
X67073809Y-64133333D01*
X67311904Y-64133333D01*
X67407142Y-64180952D01*
X67454761Y-64228571D01*
X67502380Y-64323809D01*
X67502380Y-64609523D01*
X67454761Y-64704761D01*
X67407142Y-64752380D01*
%TO.C,J1*%
X74666666Y-89252380D02*
X74666666Y-89966666D01*
X74619047Y-90109523D01*
X74523809Y-90204761D01*
X74380952Y-90252380D01*
X74285714Y-90252380D01*
X75666666Y-90252380D02*
X75095238Y-90252380D01*
X75380952Y-90252380D02*
X75380952Y-89252380D01*
X75285714Y-89395238D01*
X75190476Y-89490476D01*
X75095238Y-89538095D01*
%TO.C,R7*%
X53833333Y-77202380D02*
X53500000Y-76726190D01*
X53261904Y-77202380D02*
X53261904Y-76202380D01*
X53642857Y-76202380D01*
X53738095Y-76250000D01*
X53785714Y-76297619D01*
X53833333Y-76392857D01*
X53833333Y-76535714D01*
X53785714Y-76630952D01*
X53738095Y-76678571D01*
X53642857Y-76726190D01*
X53261904Y-76726190D01*
X54166666Y-76202380D02*
X54833333Y-76202380D01*
X54404761Y-77202380D01*
%TO.C,R10*%
X64857142Y-53952380D02*
X64523809Y-53476190D01*
X64285714Y-53952380D02*
X64285714Y-52952380D01*
X64666666Y-52952380D01*
X64761904Y-53000000D01*
X64809523Y-53047619D01*
X64857142Y-53142857D01*
X64857142Y-53285714D01*
X64809523Y-53380952D01*
X64761904Y-53428571D01*
X64666666Y-53476190D01*
X64285714Y-53476190D01*
X65809523Y-53952380D02*
X65238095Y-53952380D01*
X65523809Y-53952380D02*
X65523809Y-52952380D01*
X65428571Y-53095238D01*
X65333333Y-53190476D01*
X65238095Y-53238095D01*
X66428571Y-52952380D02*
X66523809Y-52952380D01*
X66619047Y-53000000D01*
X66666666Y-53047619D01*
X66714285Y-53142857D01*
X66761904Y-53333333D01*
X66761904Y-53571428D01*
X66714285Y-53761904D01*
X66666666Y-53857142D01*
X66619047Y-53904761D01*
X66523809Y-53952380D01*
X66428571Y-53952380D01*
X66333333Y-53904761D01*
X66285714Y-53857142D01*
X66238095Y-53761904D01*
X66190476Y-53571428D01*
X66190476Y-53333333D01*
X66238095Y-53142857D01*
X66285714Y-53047619D01*
X66333333Y-53000000D01*
X66428571Y-52952380D01*
%TO.C,U4*%
X55638095Y-95402380D02*
X55638095Y-96211904D01*
X55685714Y-96307142D01*
X55733333Y-96354761D01*
X55828571Y-96402380D01*
X56019047Y-96402380D01*
X56114285Y-96354761D01*
X56161904Y-96307142D01*
X56209523Y-96211904D01*
X56209523Y-95402380D01*
X57114285Y-95735714D02*
X57114285Y-96402380D01*
X56876190Y-95354761D02*
X56638095Y-96069047D01*
X57257142Y-96069047D01*
%TO.C,R12*%
X47107142Y-68952380D02*
X46773809Y-68476190D01*
X46535714Y-68952380D02*
X46535714Y-67952380D01*
X46916666Y-67952380D01*
X47011904Y-68000000D01*
X47059523Y-68047619D01*
X47107142Y-68142857D01*
X47107142Y-68285714D01*
X47059523Y-68380952D01*
X47011904Y-68428571D01*
X46916666Y-68476190D01*
X46535714Y-68476190D01*
X48059523Y-68952380D02*
X47488095Y-68952380D01*
X47773809Y-68952380D02*
X47773809Y-67952380D01*
X47678571Y-68095238D01*
X47583333Y-68190476D01*
X47488095Y-68238095D01*
X48440476Y-68047619D02*
X48488095Y-68000000D01*
X48583333Y-67952380D01*
X48821428Y-67952380D01*
X48916666Y-68000000D01*
X48964285Y-68047619D01*
X49011904Y-68142857D01*
X49011904Y-68238095D01*
X48964285Y-68380952D01*
X48392857Y-68952380D01*
X49011904Y-68952380D01*
D11*
%TO.C,U3*%
X44282380Y-85304523D02*
X44282380Y-86332619D01*
X44342857Y-86453571D01*
X44403333Y-86514047D01*
X44524285Y-86574523D01*
X44766190Y-86574523D01*
X44887142Y-86514047D01*
X44947619Y-86453571D01*
X45008095Y-86332619D01*
X45008095Y-85304523D01*
X45491904Y-85304523D02*
X46278095Y-85304523D01*
X45854761Y-85788333D01*
X46036190Y-85788333D01*
X46157142Y-85848809D01*
X46217619Y-85909285D01*
X46278095Y-86030238D01*
X46278095Y-86332619D01*
X46217619Y-86453571D01*
X46157142Y-86514047D01*
X46036190Y-86574523D01*
X45673333Y-86574523D01*
X45552380Y-86514047D01*
X45491904Y-86453571D01*
D10*
%TO.C,R15*%
X65357142Y-71702380D02*
X65023809Y-71226190D01*
X64785714Y-71702380D02*
X64785714Y-70702380D01*
X65166666Y-70702380D01*
X65261904Y-70750000D01*
X65309523Y-70797619D01*
X65357142Y-70892857D01*
X65357142Y-71035714D01*
X65309523Y-71130952D01*
X65261904Y-71178571D01*
X65166666Y-71226190D01*
X64785714Y-71226190D01*
X66309523Y-71702380D02*
X65738095Y-71702380D01*
X66023809Y-71702380D02*
X66023809Y-70702380D01*
X65928571Y-70845238D01*
X65833333Y-70940476D01*
X65738095Y-70988095D01*
X67214285Y-70702380D02*
X66738095Y-70702380D01*
X66690476Y-71178571D01*
X66738095Y-71130952D01*
X66833333Y-71083333D01*
X67071428Y-71083333D01*
X67166666Y-71130952D01*
X67214285Y-71178571D01*
X67261904Y-71273809D01*
X67261904Y-71511904D01*
X67214285Y-71607142D01*
X67166666Y-71654761D01*
X67071428Y-71702380D01*
X66833333Y-71702380D01*
X66738095Y-71654761D01*
X66690476Y-71607142D01*
%TO.C,L2*%
X37333333Y-65702380D02*
X36857142Y-65702380D01*
X36857142Y-64702380D01*
X37619047Y-64797619D02*
X37666666Y-64750000D01*
X37761904Y-64702380D01*
X38000000Y-64702380D01*
X38095238Y-64750000D01*
X38142857Y-64797619D01*
X38190476Y-64892857D01*
X38190476Y-64988095D01*
X38142857Y-65130952D01*
X37571428Y-65702380D01*
X38190476Y-65702380D01*
D13*
%TO.C,R2*%
X71996359Y-89630000D02*
X72303641Y-89630000D01*
X71996359Y-88870000D02*
X72303641Y-88870000D01*
%TO.C,R16*%
X47870000Y-59653641D02*
X47870000Y-59346359D01*
X48630000Y-59653641D02*
X48630000Y-59346359D01*
D14*
%TO.C,J2*%
X53746000Y-100030000D02*
X53746000Y-100450000D01*
X53746000Y-100450000D02*
X44806000Y-100450000D01*
X44806000Y-96205000D02*
X44806000Y-96970000D01*
X53746000Y-96205000D02*
X53746000Y-96970000D01*
X44806000Y-100450000D02*
X44806000Y-100030000D01*
D15*
X46276000Y-92900000D02*
G75*
G03*
X46276000Y-92900000I-100000J0D01*
G01*
D13*
%TO.C,R19*%
X46653641Y-57880000D02*
X46346359Y-57880000D01*
X46653641Y-57120000D02*
X46346359Y-57120000D01*
%TO.C,Y1*%
X52100000Y-56200000D02*
X52100000Y-59800000D01*
X59350000Y-56200000D02*
X52100000Y-56200000D01*
X52100000Y-59800000D02*
X59350000Y-59800000D01*
%TO.C,C8*%
X52610000Y-88107836D02*
X52610000Y-87892164D01*
X51890000Y-88107836D02*
X51890000Y-87892164D01*
%TO.C,U6*%
X62735000Y-47750000D02*
X62735000Y-49950000D01*
X62735000Y-47750000D02*
X62735000Y-44150000D01*
X57265000Y-47750000D02*
X57265000Y-49950000D01*
X57265000Y-47750000D02*
X57265000Y-45550000D01*
%TO.C,D3*%
X51565000Y-81200000D02*
X51565000Y-83485000D01*
X51565000Y-83485000D02*
X53035000Y-83485000D01*
X53035000Y-83485000D02*
X53035000Y-81200000D01*
%TO.C,R1*%
X62896359Y-81970000D02*
X63203641Y-81970000D01*
X62896359Y-82730000D02*
X63203641Y-82730000D01*
%TO.C,R9*%
X46370000Y-83653641D02*
X46370000Y-83346359D01*
X47130000Y-83653641D02*
X47130000Y-83346359D01*
%TO.C,SW2*%
X42660000Y-72790000D02*
X45550000Y-72790000D01*
X40010000Y-78610000D02*
X44260000Y-78610000D01*
X40010000Y-70490000D02*
X44260000Y-70490000D01*
X42660000Y-71510000D02*
X42660000Y-72790000D01*
X44260000Y-78610000D02*
X44260000Y-77590000D01*
X44260000Y-70490000D02*
X44260000Y-71510000D01*
X44260000Y-71510000D02*
X42660000Y-71510000D01*
X42660000Y-77590000D02*
X42660000Y-76310000D01*
X36440000Y-72210000D02*
X36440000Y-76890000D01*
X44260000Y-77590000D02*
X42660000Y-77590000D01*
%TO.C,C19*%
X45010000Y-68695563D02*
X43945563Y-69760000D01*
X43945563Y-64240000D02*
X39490000Y-64240000D01*
X39490000Y-64240000D02*
X39490000Y-65940000D01*
X45562500Y-68997500D02*
X45562500Y-68372500D01*
X43945563Y-69760000D02*
X39490000Y-69760000D01*
X45875000Y-68685000D02*
X45250000Y-68685000D01*
X39490000Y-69760000D02*
X39490000Y-68060000D01*
X45010000Y-65304437D02*
X45010000Y-65940000D01*
X45010000Y-65304437D02*
X43945563Y-64240000D01*
X45010000Y-68695563D02*
X45010000Y-68060000D01*
%TO.C,C24*%
X40107836Y-55640000D02*
X39892164Y-55640000D01*
X40107836Y-56360000D02*
X39892164Y-56360000D01*
%TO.C,R4*%
X54396359Y-61280000D02*
X54703641Y-61280000D01*
X54396359Y-60520000D02*
X54703641Y-60520000D01*
%TO.C,R14*%
X40903641Y-63120000D02*
X40596359Y-63120000D01*
X40903641Y-63880000D02*
X40596359Y-63880000D01*
%TO.C,U7*%
X50434340Y-49200400D02*
X50676399Y-49200400D01*
X47565658Y-45847600D02*
X47323599Y-45847600D01*
X50676399Y-46089659D02*
X50676399Y-45847600D01*
X47323599Y-45847600D02*
X47323599Y-46089659D01*
X47323599Y-48958341D02*
X47323599Y-49200400D01*
X50676399Y-49200400D02*
X50676399Y-48958341D01*
X50676399Y-45847600D02*
X50434340Y-45847600D01*
X47323599Y-49200400D02*
X47565658Y-49200400D01*
G36*
X49390499Y-49886200D02*
G01*
X49009499Y-49886200D01*
X49009499Y-49632200D01*
X49390499Y-49632200D01*
X49390499Y-49886200D01*
G37*
D16*
X49390499Y-49886200D02*
X49009499Y-49886200D01*
X49009499Y-49632200D01*
X49390499Y-49632200D01*
X49390499Y-49886200D01*
G36*
X49790498Y-45415800D02*
G01*
X49409498Y-45415800D01*
X49409498Y-45161800D01*
X49790498Y-45161800D01*
X49790498Y-45415800D01*
G37*
X49790498Y-45415800D02*
X49409498Y-45415800D01*
X49409498Y-45161800D01*
X49790498Y-45161800D01*
X49790498Y-45415800D01*
D13*
%TO.C,R17*%
X48630000Y-62346359D02*
X48630000Y-62653641D01*
X47870000Y-62346359D02*
X47870000Y-62653641D01*
D17*
%TO.C,IC1*%
X44500000Y-61250000D02*
G75*
G03*
X44500000Y-61250000I-125000J0D01*
G01*
D13*
%TO.C,R18*%
X66120000Y-84653641D02*
X66120000Y-84346359D01*
X66880000Y-84653641D02*
X66880000Y-84346359D01*
%TO.C,D1*%
X71450000Y-85835000D02*
X73735000Y-85835000D01*
X73735000Y-85835000D02*
X73735000Y-84365000D01*
X73735000Y-84365000D02*
X71450000Y-84365000D01*
%TO.C,R13*%
X42346359Y-51630000D02*
X42653641Y-51630000D01*
X42346359Y-50870000D02*
X42653641Y-50870000D01*
%TO.C,U2*%
X63050000Y-76025000D02*
X65775000Y-76025000D01*
X65775000Y-76025000D02*
X65775000Y-76285000D01*
X65775000Y-81475000D02*
X65775000Y-81215000D01*
X65775000Y-81215000D02*
X67450000Y-81215000D01*
X63050000Y-81475000D02*
X65775000Y-81475000D01*
X63050000Y-81475000D02*
X60325000Y-81475000D01*
X63050000Y-76025000D02*
X60325000Y-76025000D01*
X60325000Y-81475000D02*
X60325000Y-81215000D01*
X60325000Y-76025000D02*
X60325000Y-76285000D01*
%TO.C,C21*%
X53288748Y-46090000D02*
X54711252Y-46090000D01*
X53288748Y-47910000D02*
X54711252Y-47910000D01*
%TO.C,D2*%
X60100000Y-88950000D02*
X60100000Y-85650000D01*
X60100000Y-88950000D02*
X54700000Y-88950000D01*
X60100000Y-85650000D02*
X54700000Y-85650000D01*
%TO.C,U1*%
X70860000Y-88100000D02*
X70860000Y-86300000D01*
X70860000Y-88100000D02*
X70860000Y-88900000D01*
X67740000Y-88100000D02*
X67740000Y-88900000D01*
X67740000Y-88100000D02*
X67740000Y-87300000D01*
%TO.C,R8*%
X47620000Y-83653641D02*
X47620000Y-83346359D01*
X48380000Y-83653641D02*
X48380000Y-83346359D01*
%TO.C,R5*%
X53353641Y-84520000D02*
X53046359Y-84520000D01*
X53353641Y-85280000D02*
X53046359Y-85280000D01*
%TO.C,C25*%
X43890000Y-51357836D02*
X43890000Y-51142164D01*
X44610000Y-51357836D02*
X44610000Y-51142164D01*
%TO.C,U5*%
X61010000Y-65440000D02*
X61010000Y-66090000D01*
X54440000Y-65440000D02*
X53790000Y-65440000D01*
X53790000Y-65440000D02*
X53790000Y-66090000D01*
X53790000Y-72660000D02*
X53790000Y-72010000D01*
X54440000Y-72660000D02*
X53790000Y-72660000D01*
X60360000Y-65440000D02*
X61010000Y-65440000D01*
X60360000Y-72660000D02*
X61010000Y-72660000D01*
%TO.C,R11*%
X47596359Y-70120000D02*
X47903641Y-70120000D01*
X47596359Y-70880000D02*
X47903641Y-70880000D01*
D14*
%TO.C,J6*%
X36148500Y-44360750D02*
X36148500Y-45460750D01*
X39948500Y-47060750D02*
X39948500Y-48160750D01*
X36148500Y-47060750D02*
X36148500Y-48160750D01*
X39948500Y-44360750D02*
X39948500Y-45460750D01*
D18*
X41416500Y-46187750D02*
G75*
G03*
X41416500Y-46187750I-100000J0D01*
G01*
D13*
%TO.C,C5*%
X56557836Y-92210000D02*
X56342164Y-92210000D01*
X56557836Y-91490000D02*
X56342164Y-91490000D01*
%TO.C,C11*%
X65687500Y-44502500D02*
X65687500Y-45127500D01*
X66240000Y-48195563D02*
X67304437Y-49260000D01*
X66240000Y-44804437D02*
X67304437Y-43740000D01*
X71760000Y-43740000D02*
X71760000Y-45440000D01*
X66240000Y-44804437D02*
X66240000Y-45440000D01*
X67304437Y-49260000D02*
X71760000Y-49260000D01*
X65375000Y-44815000D02*
X66000000Y-44815000D01*
X66240000Y-48195563D02*
X66240000Y-47560000D01*
X71760000Y-49260000D02*
X71760000Y-47560000D01*
X67304437Y-43740000D02*
X71760000Y-43740000D01*
%TO.C,C9*%
X61360000Y-89882836D02*
X61360000Y-89667164D01*
X60640000Y-89882836D02*
X60640000Y-89667164D01*
%TO.C,D4*%
X63165000Y-74185000D02*
X64635000Y-74185000D01*
X64635000Y-74185000D02*
X64635000Y-71900000D01*
X63165000Y-71900000D02*
X63165000Y-74185000D01*
%TO.C,SW1*%
X54000000Y-79940000D02*
X54000000Y-79650000D01*
X54000000Y-82440000D02*
X55000000Y-82440000D01*
X57300000Y-82440000D02*
X57300000Y-82150000D01*
X57300000Y-79650000D02*
X57300000Y-79940000D01*
X54000000Y-82150000D02*
X54000000Y-82440000D01*
X54000000Y-79650000D02*
X57300000Y-79650000D01*
X57300000Y-82440000D02*
X56300000Y-82440000D01*
%TO.C,R6*%
X57080000Y-77053641D02*
X57080000Y-76746359D01*
X56320000Y-77053641D02*
X56320000Y-76746359D01*
%TO.C,Q1*%
X63950000Y-86390000D02*
X62275000Y-86390000D01*
X63950000Y-86390000D02*
X64600000Y-86390000D01*
X63950000Y-89510000D02*
X64600000Y-89510000D01*
X63950000Y-89510000D02*
X63300000Y-89510000D01*
%TO.C,R3*%
X74520000Y-85446359D02*
X74520000Y-85753641D01*
X75280000Y-85446359D02*
X75280000Y-85753641D01*
%TO.C,J4*%
X41880000Y-34490000D02*
X70020000Y-34490000D01*
X42905000Y-36140000D02*
X42905000Y-35600000D01*
X70020000Y-34490000D02*
X70020000Y-35600000D01*
X70020000Y-35600000D02*
X68995000Y-35600000D01*
X68995000Y-35600000D02*
X68995000Y-36140000D01*
X66015000Y-40110000D02*
X66015000Y-41910000D01*
X66840000Y-40110000D02*
X66015000Y-40110000D01*
X45885000Y-40110000D02*
X45060000Y-40110000D01*
X41880000Y-35600000D02*
X41880000Y-34490000D01*
X42905000Y-35600000D02*
X41880000Y-35600000D01*
D14*
%TO.C,Y2*%
X41950000Y-52500000D02*
X43050000Y-52500000D01*
X41950000Y-55000000D02*
X43050000Y-55000000D01*
D15*
X39850000Y-54623000D02*
G75*
G03*
X39850000Y-54623000I-100000J0D01*
G01*
D13*
%TO.C,J3*%
X74650000Y-77845000D02*
X74110000Y-77845000D01*
X74650000Y-78870000D02*
X74650000Y-77845000D01*
X75760000Y-78870000D02*
X74650000Y-78870000D01*
X74110000Y-51755000D02*
X74650000Y-51755000D01*
X74650000Y-50730000D02*
X75760000Y-50730000D01*
X74650000Y-51755000D02*
X74650000Y-50730000D01*
X70140000Y-74865000D02*
X68340000Y-74865000D01*
X75760000Y-50730000D02*
X75760000Y-78870000D01*
X70140000Y-54735000D02*
X70140000Y-53910000D01*
X70140000Y-75690000D02*
X70140000Y-74865000D01*
%TO.C,J1*%
X69290000Y-98040000D02*
X69290000Y-96760000D01*
X67690000Y-91960000D02*
X69290000Y-91960000D01*
X67690000Y-90940000D02*
X67690000Y-91960000D01*
X69290000Y-96760000D02*
X66400000Y-96760000D01*
X67690000Y-99060000D02*
X67690000Y-98040000D01*
X67690000Y-98040000D02*
X69290000Y-98040000D01*
X69290000Y-91960000D02*
X69290000Y-93240000D01*
X71940000Y-90940000D02*
X67690000Y-90940000D01*
X75510000Y-97340000D02*
X75510000Y-92660000D01*
X71940000Y-99060000D02*
X67690000Y-99060000D01*
%TO.C,R7*%
X55320000Y-77053641D02*
X55320000Y-76746359D01*
X56080000Y-77053641D02*
X56080000Y-76746359D01*
%TO.C,R10*%
X65880000Y-51596359D02*
X65880000Y-51903641D01*
X65120000Y-51596359D02*
X65120000Y-51903641D01*
%TO.C,U4*%
X64410000Y-96910000D02*
X63150000Y-96910000D01*
X57590000Y-93150000D02*
X57590000Y-96910000D01*
X57590000Y-96910000D02*
X58850000Y-96910000D01*
X64410000Y-90900000D02*
X64410000Y-96910000D01*
%TO.C,R12*%
X47596359Y-69880000D02*
X47903641Y-69880000D01*
X47596359Y-69120000D02*
X47903641Y-69120000D01*
D15*
%TO.C,U3*%
X48000000Y-87900000D02*
X48000000Y-87900000D01*
X48000000Y-87900000D02*
X48000000Y-87900000D01*
X48000000Y-87700000D02*
X48000000Y-87700000D01*
X48000000Y-87900000D02*
G75*
G03*
X48000000Y-87700000I0J100000D01*
G01*
X48000000Y-87900000D02*
G75*
G03*
X48000000Y-87700000I0J100000D01*
G01*
X48000000Y-87700000D02*
G75*
G03*
X48000000Y-87900000I0J-100000D01*
G01*
D13*
%TO.C,R15*%
X65730000Y-73003641D02*
X65730000Y-72696359D01*
X64970000Y-73003641D02*
X64970000Y-72696359D01*
%TD*%
%LPC*%
D19*
%TO.C,R2*%
X71640000Y-89250000D03*
X72660000Y-89250000D03*
%TD*%
D20*
%TO.C,C30*%
X38500000Y-57750000D03*
X38500000Y-57250000D03*
%TD*%
D21*
%TO.C,R16*%
X48250000Y-60010000D03*
X48250000Y-58990000D03*
%TD*%
D22*
%TO.C,J2*%
X46276000Y-95400000D03*
D23*
X52276000Y-95400000D03*
D22*
X52276000Y-95400000D03*
D24*
X46176000Y-94300000D03*
X46926000Y-94300000D03*
D25*
X47526000Y-94300000D03*
X48026000Y-94300000D03*
X48526000Y-94300000D03*
X49026000Y-94300000D03*
X49526000Y-94300000D03*
X50026000Y-94300000D03*
X50526000Y-94300000D03*
X51026000Y-94300000D03*
D24*
X51626000Y-94300000D03*
X52376000Y-94300000D03*
D26*
X47876000Y-98500000D03*
X50676000Y-98500000D03*
D27*
X44956000Y-94675000D03*
X53596000Y-94675000D03*
D28*
X44956000Y-98500000D03*
X53596000Y-98500000D03*
%TD*%
D29*
%TO.C,C32*%
X43250000Y-48000000D03*
X43750000Y-48000000D03*
%TD*%
D30*
%TO.C,R19*%
X47010000Y-57500000D03*
X45990000Y-57500000D03*
%TD*%
D31*
%TO.C,C10*%
X53500000Y-74280000D03*
X53500000Y-74920000D03*
%TD*%
D32*
%TO.C,C14*%
X50820000Y-68050000D03*
X50180000Y-68050000D03*
%TD*%
D33*
%TO.C,Y1*%
X54050000Y-58000000D03*
X59250000Y-58000000D03*
%TD*%
D34*
%TO.C,C8*%
X52250000Y-88480000D03*
X52250000Y-87520000D03*
%TD*%
D35*
%TO.C,U6*%
X62275000Y-44887500D03*
X61625000Y-44887500D03*
X60975000Y-44887500D03*
X60325000Y-44887500D03*
X59675000Y-44887500D03*
X59025000Y-44887500D03*
X58375000Y-44887500D03*
X57725000Y-44887500D03*
X57725000Y-50612500D03*
X58375000Y-50612500D03*
X59025000Y-50612500D03*
X59675000Y-50612500D03*
X60325000Y-50612500D03*
X60975000Y-50612500D03*
X61625000Y-50612500D03*
X62275000Y-50612500D03*
%TD*%
D20*
%TO.C,C31*%
X38000000Y-53000000D03*
X38000000Y-52500000D03*
%TD*%
D36*
%TO.C,D3*%
X52300000Y-82787500D03*
X52300000Y-81212500D03*
%TD*%
D19*
%TO.C,R1*%
X62540000Y-82350000D03*
X63560000Y-82350000D03*
%TD*%
D21*
%TO.C,R9*%
X46750000Y-84010000D03*
X46750000Y-82990000D03*
%TD*%
D37*
%TO.C,SW2*%
X43800000Y-73550000D03*
X43800000Y-75550000D03*
D38*
X38050000Y-77900000D03*
X38050000Y-71200000D03*
%TD*%
D39*
%TO.C,C19*%
X44450000Y-67000000D03*
X40050000Y-67000000D03*
%TD*%
D32*
%TO.C,C16*%
X50070000Y-71700000D03*
X49430000Y-71700000D03*
%TD*%
D40*
%TO.C,C24*%
X40480000Y-56000000D03*
X39520000Y-56000000D03*
%TD*%
D19*
%TO.C,R4*%
X54040000Y-60900000D03*
X55060000Y-60900000D03*
%TD*%
D30*
%TO.C,R14*%
X41260000Y-63500000D03*
X40240000Y-63500000D03*
%TD*%
D41*
%TO.C,U7*%
X47475999Y-46523999D03*
X47475999Y-46924001D03*
X47475999Y-47324000D03*
X47475999Y-47724000D03*
X47475999Y-48123999D03*
X47475999Y-48524001D03*
D42*
X47999998Y-49048000D03*
X48400000Y-49048000D03*
X48799999Y-49048000D03*
X49199999Y-49048000D03*
X49599998Y-49048000D03*
X50000000Y-49048000D03*
D41*
X50523999Y-48524001D03*
X50523999Y-48123999D03*
X50523999Y-47724000D03*
X50523999Y-47324000D03*
X50523999Y-46924001D03*
X50523999Y-46523999D03*
D42*
X50000000Y-46000000D03*
X49599998Y-46000000D03*
X49199999Y-46000000D03*
X48799999Y-46000000D03*
X48400000Y-46000000D03*
X47999998Y-46000000D03*
D43*
X48999999Y-47524000D03*
%TD*%
D44*
%TO.C,R17*%
X48250000Y-61990000D03*
X48250000Y-63010000D03*
%TD*%
D45*
%TO.C,IC1*%
X43950000Y-60500000D03*
X43950000Y-60000000D03*
X43950000Y-59500000D03*
X43950000Y-59000000D03*
X43950000Y-58500000D03*
D46*
X43000000Y-57550000D03*
X42500000Y-57550000D03*
X42000000Y-57550000D03*
X41500000Y-57550000D03*
X41000000Y-57550000D03*
D45*
X40050000Y-58500000D03*
X40050000Y-59000000D03*
X40050000Y-59500000D03*
X40050000Y-60000000D03*
X40050000Y-60500000D03*
D46*
X41000000Y-61450000D03*
X41500000Y-61450000D03*
X42000000Y-61450000D03*
X42500000Y-61450000D03*
X43000000Y-61450000D03*
D47*
X42000000Y-59500000D03*
%TD*%
D21*
%TO.C,R18*%
X66500000Y-85010000D03*
X66500000Y-83990000D03*
%TD*%
D48*
%TO.C,D1*%
X73037500Y-85100000D03*
X71462500Y-85100000D03*
%TD*%
D19*
%TO.C,R13*%
X41990000Y-51250000D03*
X43010000Y-51250000D03*
%TD*%
D20*
%TO.C,C29*%
X37750000Y-57750000D03*
X37750000Y-57250000D03*
%TD*%
D49*
%TO.C,U2*%
X66650000Y-80655000D03*
X66650000Y-79385000D03*
X66650000Y-78115000D03*
X66650000Y-76845000D03*
X59450000Y-76845000D03*
X59450000Y-78115000D03*
X59450000Y-79385000D03*
X59450000Y-80655000D03*
%TD*%
D31*
%TO.C,C18*%
X62000000Y-72230000D03*
X62000000Y-72870000D03*
%TD*%
D50*
%TO.C,C21*%
X52525000Y-47000000D03*
X55475000Y-47000000D03*
%TD*%
D32*
%TO.C,C12*%
X55320000Y-49250000D03*
X54680000Y-49250000D03*
%TD*%
D51*
%TO.C,D2*%
X58700000Y-87300000D03*
X54700000Y-87300000D03*
%TD*%
D20*
%TO.C,C1*%
X59250000Y-55250000D03*
X59250000Y-54750000D03*
%TD*%
D31*
%TO.C,C13*%
X56950000Y-73580000D03*
X56950000Y-74220000D03*
%TD*%
D52*
%TO.C,U1*%
X70250000Y-86962500D03*
X69300000Y-86962500D03*
X68350000Y-86962500D03*
X68350000Y-89237500D03*
X70250000Y-89237500D03*
%TD*%
D21*
%TO.C,R8*%
X48000000Y-84010000D03*
X48000000Y-82990000D03*
%TD*%
D53*
%TO.C,C17*%
X56850000Y-64170000D03*
X56850000Y-63530000D03*
%TD*%
D30*
%TO.C,R5*%
X53710000Y-84900000D03*
X52690000Y-84900000D03*
%TD*%
D34*
%TO.C,C25*%
X44250000Y-51730000D03*
X44250000Y-50770000D03*
%TD*%
D54*
%TO.C,L3*%
X36750000Y-60015000D03*
X36750000Y-60985000D03*
%TD*%
%TO.C,L1*%
X38250000Y-59015000D03*
X38250000Y-59985000D03*
%TD*%
D29*
%TO.C,C27*%
X42250000Y-63750000D03*
X42750000Y-63750000D03*
%TD*%
D31*
%TO.C,C3*%
X59500000Y-82030000D03*
X59500000Y-82670000D03*
%TD*%
D55*
%TO.C,C22*%
X47500000Y-52500000D03*
X47500000Y-53000000D03*
%TD*%
D56*
%TO.C,U5*%
X60837500Y-71650000D03*
X60837500Y-71250000D03*
X60837500Y-70850000D03*
X60837500Y-70450000D03*
X60837500Y-70050000D03*
X60837500Y-69650000D03*
X60837500Y-69250000D03*
X60837500Y-68850000D03*
X60837500Y-68450000D03*
X60837500Y-68050000D03*
X60837500Y-67650000D03*
X60837500Y-67250000D03*
X60837500Y-66850000D03*
X60837500Y-66450000D03*
D57*
X60000000Y-65612500D03*
X59600000Y-65612500D03*
X59200000Y-65612500D03*
X58800000Y-65612500D03*
X58400000Y-65612500D03*
X58000000Y-65612500D03*
X57600000Y-65612500D03*
X57200000Y-65612500D03*
X56800000Y-65612500D03*
X56400000Y-65612500D03*
X56000000Y-65612500D03*
X55600000Y-65612500D03*
X55200000Y-65612500D03*
X54800000Y-65612500D03*
D56*
X53962500Y-66450000D03*
X53962500Y-66850000D03*
X53962500Y-67250000D03*
X53962500Y-67650000D03*
X53962500Y-68050000D03*
X53962500Y-68450000D03*
X53962500Y-68850000D03*
X53962500Y-69250000D03*
X53962500Y-69650000D03*
X53962500Y-70050000D03*
X53962500Y-70450000D03*
X53962500Y-70850000D03*
X53962500Y-71250000D03*
X53962500Y-71650000D03*
D57*
X54800000Y-72487500D03*
X55200000Y-72487500D03*
X55600000Y-72487500D03*
X56000000Y-72487500D03*
X56400000Y-72487500D03*
X56800000Y-72487500D03*
X57200000Y-72487500D03*
X57600000Y-72487500D03*
X58000000Y-72487500D03*
X58400000Y-72487500D03*
X58800000Y-72487500D03*
X59200000Y-72487500D03*
X59600000Y-72487500D03*
X60000000Y-72487500D03*
D58*
X57400000Y-69050000D03*
%TD*%
D19*
%TO.C,R11*%
X47240000Y-70500000D03*
X48260000Y-70500000D03*
%TD*%
D59*
%TO.C,J6*%
X38428500Y-46260750D03*
D60*
X38428500Y-43490750D03*
X38428500Y-49030750D03*
%TD*%
D40*
%TO.C,C5*%
X56930000Y-91850000D03*
X55970000Y-91850000D03*
%TD*%
D61*
%TO.C,C11*%
X66800000Y-46500000D03*
X71200000Y-46500000D03*
%TD*%
D29*
%TO.C,C28*%
X43750000Y-63750000D03*
X44250000Y-63750000D03*
%TD*%
D31*
%TO.C,C4*%
X55450000Y-74280000D03*
X55450000Y-74920000D03*
%TD*%
%TO.C,C20*%
X54800000Y-74280000D03*
X54800000Y-74920000D03*
%TD*%
D34*
%TO.C,C9*%
X61000000Y-90255000D03*
X61000000Y-89295000D03*
%TD*%
D36*
%TO.C,D4*%
X63900000Y-73487500D03*
X63900000Y-71912500D03*
%TD*%
D62*
%TO.C,SW1*%
X53950000Y-81050000D03*
X57350000Y-81050000D03*
D63*
X55650000Y-82690000D03*
%TD*%
D21*
%TO.C,R6*%
X56700000Y-77410000D03*
X56700000Y-76390000D03*
%TD*%
D64*
%TO.C,Q1*%
X63012500Y-87000000D03*
X63012500Y-88900000D03*
X64887500Y-87950000D03*
%TD*%
D44*
%TO.C,R3*%
X74900000Y-85090000D03*
X74900000Y-86110000D03*
%TD*%
D65*
%TO.C,C26*%
X39000000Y-61750000D03*
X38500000Y-61750000D03*
%TD*%
D66*
%TO.C,J4*%
X65450000Y-41000000D03*
X64450000Y-41000000D03*
X63450000Y-41000000D03*
X62450000Y-41000000D03*
X61450000Y-41000000D03*
X60450000Y-41000000D03*
X59450000Y-41000000D03*
X58450000Y-41000000D03*
X57450000Y-41000000D03*
X56450000Y-41000000D03*
X55450000Y-41000000D03*
X54450000Y-41000000D03*
X53450000Y-41000000D03*
X52450000Y-41000000D03*
X51450000Y-41000000D03*
X50450000Y-41000000D03*
X49450000Y-41000000D03*
X48450000Y-41000000D03*
X47450000Y-41000000D03*
X46450000Y-41000000D03*
D67*
X43460000Y-38200000D03*
X68440000Y-38200000D03*
%TD*%
D31*
%TO.C,C7*%
X57600000Y-73580000D03*
X57600000Y-74220000D03*
%TD*%
D53*
%TO.C,C6*%
X56200000Y-64170000D03*
X56200000Y-63530000D03*
%TD*%
D68*
%TO.C,Y2*%
X41000000Y-54550000D03*
X44000000Y-54550000D03*
X44000000Y-52950000D03*
X41000000Y-52950000D03*
%TD*%
D31*
%TO.C,C23*%
X49750000Y-51180000D03*
X49750000Y-51820000D03*
%TD*%
D20*
%TO.C,C2*%
X54050000Y-55250000D03*
X54050000Y-54750000D03*
%TD*%
D31*
%TO.C,C15*%
X54150000Y-74280000D03*
X54150000Y-74920000D03*
%TD*%
D69*
%TO.C,C33*%
X65342750Y-67487250D03*
X65982750Y-67487250D03*
%TD*%
D70*
%TO.C,J3*%
X69250000Y-74300000D03*
X69250000Y-73300000D03*
X69250000Y-72300000D03*
X69250000Y-71300000D03*
X69250000Y-70300000D03*
X69250000Y-69300000D03*
X69250000Y-68300000D03*
X69250000Y-67300000D03*
X69250000Y-66300000D03*
X69250000Y-65300000D03*
X69250000Y-64300000D03*
X69250000Y-63300000D03*
X69250000Y-62300000D03*
X69250000Y-61300000D03*
X69250000Y-60300000D03*
X69250000Y-59300000D03*
X69250000Y-58300000D03*
X69250000Y-57300000D03*
X69250000Y-56300000D03*
X69250000Y-55300000D03*
D71*
X72050000Y-52310000D03*
X72050000Y-77290000D03*
%TD*%
D72*
%TO.C,J1*%
X68150000Y-96000000D03*
X68150000Y-94000000D03*
D73*
X73900000Y-91650000D03*
X73900000Y-98350000D03*
%TD*%
D21*
%TO.C,R7*%
X55700000Y-77410000D03*
X55700000Y-76390000D03*
%TD*%
D44*
%TO.C,R10*%
X65500000Y-51240000D03*
X65500000Y-52260000D03*
%TD*%
D74*
%TO.C,U4*%
X63300000Y-91850000D03*
X61000000Y-91850000D03*
X58700000Y-91850000D03*
D75*
X61000000Y-98150000D03*
%TD*%
D19*
%TO.C,R12*%
X47240000Y-69500000D03*
X48260000Y-69500000D03*
%TD*%
D76*
%TO.C,U3*%
X48000000Y-86918000D03*
X48500000Y-86918000D03*
D77*
X49000000Y-86918000D03*
D76*
X49500000Y-86918000D03*
X50000000Y-86918000D03*
X50000000Y-86082000D03*
X49500000Y-86082000D03*
D77*
X49000000Y-86082000D03*
D76*
X48500000Y-86082000D03*
X48000000Y-86082000D03*
%TD*%
D21*
%TO.C,R15*%
X65350000Y-73360000D03*
X65350000Y-72340000D03*
%TD*%
D78*
%TO.C,L2*%
X36750000Y-58735000D03*
X36750000Y-57765000D03*
%TD*%
M02*
