%TF.GenerationSoftware,KiCad,Pcbnew,(6.0.7)*%
%TF.CreationDate,2022-11-29T14:59:17+08:00*%
%TF.ProjectId,Rp2040 wearable dev boards w wireless,52703230-3430-4207-9765-617261626c65,rev?*%
%TF.SameCoordinates,Original*%
%TF.FileFunction,Copper,L3,Inr*%
%TF.FilePolarity,Positive*%
%FSLAX46Y46*%
G04 Gerber Fmt 4.6, Leading zero omitted, Abs format (unit mm)*
G04 Created by KiCad (PCBNEW (6.0.7)) date 2022-11-29 14:59:17*
%MOMM*%
%LPD*%
G01*
G04 APERTURE LIST*
%TA.AperFunction,ComponentPad*%
%ADD10O,1.158000X2.316000*%
%TD*%
%TA.AperFunction,ComponentPad*%
%ADD11O,1.200000X2.400000*%
%TD*%
%TA.AperFunction,ViaPad*%
%ADD12C,0.800000*%
%TD*%
%TA.AperFunction,ViaPad*%
%ADD13C,0.500000*%
%TD*%
%TA.AperFunction,Conductor*%
%ADD14C,0.250000*%
%TD*%
G04 APERTURE END LIST*
D10*
%TO.N,GND*%
%TO.C,J2*%
X44956000Y-94675000D03*
X53596000Y-94675000D03*
D11*
X44956000Y-98500000D03*
X53596000Y-98500000D03*
%TD*%
D12*
%TO.N,/Antenna*%
X43250000Y-46250000D03*
%TO.N,GND*%
X36710000Y-49050000D03*
X61000000Y-88600000D03*
X61750000Y-58150000D03*
X38500000Y-62750000D03*
X51250000Y-45250000D03*
X48250000Y-51500000D03*
X40991091Y-52993372D03*
X43718767Y-62531233D03*
X47500000Y-54250000D03*
X54800000Y-75550000D03*
X45750000Y-83000000D03*
X52750000Y-86000000D03*
X38500000Y-43500000D03*
X74000000Y-46500000D03*
X40250000Y-43500000D03*
X66762750Y-67312750D03*
X38440000Y-49030000D03*
X48500000Y-44000000D03*
X45000000Y-56000000D03*
X56300000Y-70150000D03*
X73600000Y-89250000D03*
X39000000Y-67000000D03*
X65355000Y-76845000D03*
X50500000Y-49750000D03*
X51600000Y-53950000D03*
X49750000Y-52750000D03*
X48700000Y-71700000D03*
X56750000Y-61600000D03*
X69300000Y-88200000D03*
X58500000Y-70150000D03*
X65250000Y-96000000D03*
X54150000Y-53950000D03*
X59850000Y-83400000D03*
X56300000Y-67950000D03*
X62950000Y-72900000D03*
X45250000Y-41000000D03*
X36750000Y-43500000D03*
X55000000Y-91850000D03*
X44000000Y-54750000D03*
X41250000Y-62500000D03*
X41000000Y-67000000D03*
X55500000Y-47000000D03*
X58500000Y-67950000D03*
X45250000Y-51000000D03*
X51600000Y-58150000D03*
X56500000Y-62600000D03*
X56900000Y-54000000D03*
X51650000Y-61550000D03*
X60000000Y-52250000D03*
X57400000Y-69000000D03*
X51000000Y-83150000D03*
X53750000Y-49250000D03*
X59250000Y-53950000D03*
X39000000Y-56000000D03*
X40250000Y-49000000D03*
X61350000Y-53950000D03*
X61400000Y-61550000D03*
X49400000Y-68050000D03*
X57725000Y-51975000D03*
X53500000Y-75550000D03*
D13*
X49000000Y-86500000D03*
D12*
X43000000Y-64750000D03*
X71100000Y-55300000D03*
X57250000Y-75000000D03*
%TO.N,/Vmain*%
X54875500Y-68050000D03*
X57457337Y-62602950D03*
X52000000Y-49500000D03*
X61095000Y-80655000D03*
X44950000Y-73550000D03*
X47250000Y-42750000D03*
X48250500Y-61000000D03*
X53500000Y-73450000D03*
X59810000Y-71400000D03*
X47250000Y-51500000D03*
X42700000Y-73550000D03*
X66990000Y-52260000D03*
X42250000Y-63000000D03*
X71100000Y-56300000D03*
X39875000Y-61375000D03*
X48000000Y-57500000D03*
X57200000Y-71550000D03*
X46125000Y-69375000D03*
%TO.N,/VBUS*%
X70350000Y-84750000D03*
X51375000Y-96625000D03*
X55450000Y-87300000D03*
X68550000Y-91500000D03*
X53900000Y-87300000D03*
X61000000Y-86100000D03*
%TO.N,/VO*%
X60800000Y-94200000D03*
X66500000Y-86000000D03*
%TO.N,/VDD_PA*%
X39250000Y-57750000D03*
X37750000Y-61000000D03*
D13*
%TO.N,/CSN*%
X45000000Y-61250000D03*
X46250000Y-61500000D03*
%TO.N,/SCK*%
X45000000Y-59500000D03*
X47750000Y-65750000D03*
%TO.N,/GPIO 16*%
X52000000Y-53000000D03*
X65450000Y-42750000D03*
%TO.N,/GPIO 17*%
X64500000Y-42750000D03*
X52000000Y-52250000D03*
%TO.N,/IMU SDA {slash} GPIO 18*%
X51750000Y-66250000D03*
X47750000Y-45250000D03*
X49250000Y-63750000D03*
%TO.N,/IMU SCL {slash} GPIO 19*%
X47841329Y-44537011D03*
X52500000Y-66750000D03*
X50750000Y-64500000D03*
%TO.N,/External ADC SDA {slash} GPIO 20*%
X66000000Y-54250000D03*
X49750000Y-69750000D03*
%TO.N,/External ADC SCL {slash} GPIO 21*%
X66000000Y-55250000D03*
X50750000Y-70500000D03*
%TO.N,/ADC 1*%
X54778479Y-70005921D03*
X54500000Y-39500000D03*
%TO.N,/ADC 2*%
X52750000Y-70250000D03*
X53500000Y-43000000D03*
%TO.N,/ADC 3*%
X52500000Y-39500000D03*
X54750000Y-70750000D03*
%TO.N,/ADC 4*%
X51500000Y-43000000D03*
X52250000Y-70750000D03*
%TO.N,/CE*%
X47250000Y-62000000D03*
X44250000Y-61250000D03*
X59250000Y-64500000D03*
X52000000Y-65000000D03*
%TO.N,/SWCLK*%
X56150000Y-66600000D03*
X63800000Y-58300000D03*
%TO.N,/SWD*%
X67150000Y-57300000D03*
X55500000Y-66600000D03*
%TO.N,/AUX_CL*%
X48450000Y-42700000D03*
X47500000Y-49750000D03*
%TO.N,/RUN*%
X55000000Y-63250000D03*
X60250000Y-62500000D03*
D12*
X50750000Y-39250000D03*
D13*
%TO.N,/CC2*%
X47000000Y-88750000D03*
X50750000Y-95500000D03*
D12*
%TO.N,/R18-Power_on*%
X65400000Y-84500000D03*
X43900000Y-76650000D03*
%TD*%
D14*
%TO.N,/Vmain*%
X42250000Y-62000000D02*
X42250000Y-63000000D01*
X42700000Y-73550000D02*
X43750000Y-72500000D01*
X45000000Y-73500000D02*
X46250000Y-73500000D01*
X43750000Y-72500000D02*
X45500000Y-72500000D01*
X61095000Y-80655000D02*
X61100000Y-80650000D01*
X43250000Y-64000000D02*
X45250000Y-64000000D01*
X44950000Y-73550000D02*
X45000000Y-73500000D01*
X40250000Y-61750000D02*
X42000000Y-61750000D01*
X39875000Y-61375000D02*
X40250000Y-61750000D01*
X42250000Y-63000000D02*
X43250000Y-64000000D01*
X42000000Y-61750000D02*
X42250000Y-62000000D01*
%TD*%
%TA.AperFunction,Conductor*%
%TO.N,/VBUS*%
G36*
X75941722Y-84120002D02*
G01*
X75988215Y-84173658D01*
X75999600Y-84226399D01*
X75950397Y-99774399D01*
X75930180Y-99842456D01*
X75876377Y-99888779D01*
X75824398Y-99900000D01*
X54080703Y-99900000D01*
X54012582Y-99879998D01*
X53966089Y-99826342D01*
X53955985Y-99756068D01*
X53985479Y-99691488D01*
X53997874Y-99679051D01*
X54114671Y-99577163D01*
X54120396Y-99572169D01*
X54217887Y-99433453D01*
X54279476Y-99275487D01*
X54296500Y-99146174D01*
X54296500Y-97857484D01*
X54281276Y-97731680D01*
X54221345Y-97573077D01*
X54125312Y-97433349D01*
X54113514Y-97422837D01*
X54004392Y-97325612D01*
X54004388Y-97325610D01*
X53998721Y-97320560D01*
X53848881Y-97241224D01*
X53684441Y-97199919D01*
X53676843Y-97199879D01*
X53676841Y-97199879D01*
X53599668Y-97199475D01*
X53514895Y-97199031D01*
X53507508Y-97200805D01*
X53507504Y-97200805D01*
X53364162Y-97235220D01*
X53350032Y-97238612D01*
X53343288Y-97242093D01*
X53343285Y-97242094D01*
X53338089Y-97244776D01*
X53199369Y-97316375D01*
X53071604Y-97427831D01*
X52974113Y-97566547D01*
X52912524Y-97724513D01*
X52895500Y-97853826D01*
X52895500Y-99142516D01*
X52910724Y-99268320D01*
X52970655Y-99426923D01*
X53066688Y-99566651D01*
X53072358Y-99571703D01*
X53072359Y-99571704D01*
X53193279Y-99679440D01*
X53191158Y-99681820D01*
X53226600Y-99725867D01*
X53234138Y-99796463D01*
X53202312Y-99859926D01*
X53141227Y-99896109D01*
X53110156Y-99900000D01*
X45440703Y-99900000D01*
X45372582Y-99879998D01*
X45326089Y-99826342D01*
X45315985Y-99756068D01*
X45345479Y-99691488D01*
X45357874Y-99679051D01*
X45474671Y-99577163D01*
X45480396Y-99572169D01*
X45577887Y-99433453D01*
X45639476Y-99275487D01*
X45656500Y-99146174D01*
X45656500Y-97857484D01*
X45641276Y-97731680D01*
X45581345Y-97573077D01*
X45485312Y-97433349D01*
X45473514Y-97422837D01*
X45364392Y-97325612D01*
X45364388Y-97325610D01*
X45358721Y-97320560D01*
X45208881Y-97241224D01*
X45044441Y-97199919D01*
X45036843Y-97199879D01*
X45036841Y-97199879D01*
X44959668Y-97199475D01*
X44874895Y-97199031D01*
X44867508Y-97200805D01*
X44867504Y-97200805D01*
X44724162Y-97235220D01*
X44710032Y-97238612D01*
X44703288Y-97242093D01*
X44703285Y-97242094D01*
X44698089Y-97244776D01*
X44559369Y-97316375D01*
X44431604Y-97427831D01*
X44334113Y-97566547D01*
X44272524Y-97724513D01*
X44255500Y-97853826D01*
X44255500Y-99142516D01*
X44270724Y-99268320D01*
X44330655Y-99426923D01*
X44426688Y-99566651D01*
X44432358Y-99571703D01*
X44432359Y-99571704D01*
X44553279Y-99679440D01*
X44551158Y-99681820D01*
X44586600Y-99725867D01*
X44594138Y-99796463D01*
X44562312Y-99859926D01*
X44501227Y-99896109D01*
X44470156Y-99900000D01*
X44076440Y-99900000D01*
X44008319Y-99879998D01*
X43961826Y-99826342D01*
X43950441Y-99773561D01*
X43963611Y-95993823D01*
X64744391Y-95993823D01*
X64745555Y-96002725D01*
X64745555Y-96002728D01*
X64746814Y-96012354D01*
X64762980Y-96135979D01*
X64820720Y-96267203D01*
X64826497Y-96274076D01*
X64826498Y-96274077D01*
X64833792Y-96282754D01*
X64912970Y-96376948D01*
X65032313Y-96456390D01*
X65169157Y-96499142D01*
X65178129Y-96499306D01*
X65178132Y-96499307D01*
X65243463Y-96500504D01*
X65312499Y-96501770D01*
X65321533Y-96499307D01*
X65442158Y-96466421D01*
X65442160Y-96466420D01*
X65450817Y-96464060D01*
X65572991Y-96389045D01*
X65669200Y-96282754D01*
X65731710Y-96153733D01*
X65755496Y-96012354D01*
X65755647Y-96000000D01*
X65740914Y-95897124D01*
X65736596Y-95866968D01*
X65736595Y-95866965D01*
X65735323Y-95858082D01*
X65721853Y-95828455D01*
X65707448Y-95796774D01*
X65675984Y-95727572D01*
X65657224Y-95705800D01*
X65588260Y-95625763D01*
X65588257Y-95625760D01*
X65582400Y-95618963D01*
X65462095Y-95540985D01*
X65324739Y-95499907D01*
X65315763Y-95499852D01*
X65315762Y-95499852D01*
X65255555Y-95499484D01*
X65181376Y-95499031D01*
X65043529Y-95538428D01*
X64922280Y-95614930D01*
X64827377Y-95722388D01*
X64766447Y-95852163D01*
X64758932Y-95900430D01*
X64748801Y-95965500D01*
X64744391Y-95993823D01*
X43963611Y-95993823D01*
X43966045Y-95295244D01*
X44276500Y-95295244D01*
X44291267Y-95417274D01*
X44349402Y-95571122D01*
X44353703Y-95577380D01*
X44427799Y-95685190D01*
X44442556Y-95706662D01*
X44448225Y-95711712D01*
X44448225Y-95711713D01*
X44464861Y-95726535D01*
X44565352Y-95816069D01*
X44710700Y-95893027D01*
X44870211Y-95933094D01*
X44877809Y-95933134D01*
X44877811Y-95933134D01*
X44947299Y-95933498D01*
X45034673Y-95933955D01*
X45042053Y-95932183D01*
X45042055Y-95932183D01*
X45187214Y-95897333D01*
X45187216Y-95897332D01*
X45194594Y-95895561D01*
X45340741Y-95820129D01*
X45351188Y-95811016D01*
X45458951Y-95717008D01*
X45464676Y-95712014D01*
X45488891Y-95677560D01*
X45539556Y-95605471D01*
X45595090Y-95561239D01*
X45665722Y-95554053D01*
X45729027Y-95586194D01*
X45759051Y-95629702D01*
X45778873Y-95677556D01*
X45778876Y-95677562D01*
X45782036Y-95685190D01*
X45872680Y-95803320D01*
X45990810Y-95893964D01*
X46059593Y-95922455D01*
X46120745Y-95947785D01*
X46120748Y-95947786D01*
X46128375Y-95950945D01*
X46238932Y-95965500D01*
X46313068Y-95965500D01*
X46423625Y-95950945D01*
X46431252Y-95947786D01*
X46431255Y-95947785D01*
X46492407Y-95922455D01*
X46561190Y-95893964D01*
X46679320Y-95803320D01*
X46769964Y-95685190D01*
X46798454Y-95616408D01*
X46823785Y-95555255D01*
X46823786Y-95555252D01*
X46826945Y-95547625D01*
X46833215Y-95500000D01*
X50349570Y-95500000D01*
X50369168Y-95623740D01*
X50426045Y-95735367D01*
X50514633Y-95823955D01*
X50626260Y-95880832D01*
X50636053Y-95882383D01*
X50719258Y-95895561D01*
X50750000Y-95900430D01*
X50780743Y-95895561D01*
X50863947Y-95882383D01*
X50873740Y-95880832D01*
X50985367Y-95823955D01*
X51073955Y-95735367D01*
X51130832Y-95623740D01*
X51150430Y-95500000D01*
X51134592Y-95400000D01*
X51705620Y-95400000D01*
X51725055Y-95547625D01*
X51728214Y-95555252D01*
X51728215Y-95555255D01*
X51753545Y-95616407D01*
X51782036Y-95685190D01*
X51872680Y-95803320D01*
X51990810Y-95893964D01*
X52059593Y-95922455D01*
X52120745Y-95947785D01*
X52120748Y-95947786D01*
X52128375Y-95950945D01*
X52238932Y-95965500D01*
X52313068Y-95965500D01*
X52423625Y-95950945D01*
X52431252Y-95947786D01*
X52431255Y-95947785D01*
X52492407Y-95922455D01*
X52561190Y-95893964D01*
X52679320Y-95803320D01*
X52769964Y-95685190D01*
X52793157Y-95629197D01*
X52837705Y-95573916D01*
X52905069Y-95551495D01*
X52973860Y-95569053D01*
X53013406Y-95606048D01*
X53067799Y-95685190D01*
X53082556Y-95706662D01*
X53088225Y-95711712D01*
X53088225Y-95711713D01*
X53104861Y-95726535D01*
X53205352Y-95816069D01*
X53350700Y-95893027D01*
X53510211Y-95933094D01*
X53517809Y-95933134D01*
X53517811Y-95933134D01*
X53587299Y-95933498D01*
X53674673Y-95933955D01*
X53682053Y-95932183D01*
X53682055Y-95932183D01*
X53827214Y-95897333D01*
X53827216Y-95897332D01*
X53834594Y-95895561D01*
X53980741Y-95820129D01*
X53991188Y-95811016D01*
X54098951Y-95717008D01*
X54104676Y-95712014D01*
X54166716Y-95623740D01*
X54194875Y-95583674D01*
X54194876Y-95583672D01*
X54199244Y-95577457D01*
X54258986Y-95424226D01*
X54275500Y-95298790D01*
X54275500Y-94193823D01*
X60294391Y-94193823D01*
X60295555Y-94202725D01*
X60295555Y-94202728D01*
X60296814Y-94212354D01*
X60312980Y-94335979D01*
X60370720Y-94467203D01*
X60376497Y-94474076D01*
X60376498Y-94474077D01*
X60383792Y-94482754D01*
X60462970Y-94576948D01*
X60582313Y-94656390D01*
X60719157Y-94699142D01*
X60728129Y-94699306D01*
X60728132Y-94699307D01*
X60793463Y-94700504D01*
X60862499Y-94701770D01*
X60871533Y-94699307D01*
X60992158Y-94666421D01*
X60992160Y-94666420D01*
X61000817Y-94664060D01*
X61122991Y-94589045D01*
X61219200Y-94482754D01*
X61281710Y-94353733D01*
X61305496Y-94212354D01*
X61305647Y-94200000D01*
X61285323Y-94058082D01*
X61225984Y-93927572D01*
X61207598Y-93906234D01*
X61138260Y-93825763D01*
X61138257Y-93825760D01*
X61132400Y-93818963D01*
X61012095Y-93740985D01*
X60874739Y-93699907D01*
X60865763Y-93699852D01*
X60865762Y-93699852D01*
X60805555Y-93699484D01*
X60731376Y-93699031D01*
X60593529Y-93738428D01*
X60472280Y-93814930D01*
X60377377Y-93922388D01*
X60316447Y-94052163D01*
X60294391Y-94193823D01*
X54275500Y-94193823D01*
X54275500Y-94054756D01*
X54260733Y-93932726D01*
X54202598Y-93778878D01*
X54109444Y-93643338D01*
X53986648Y-93533931D01*
X53841300Y-93456973D01*
X53681789Y-93416906D01*
X53674191Y-93416866D01*
X53674189Y-93416866D01*
X53604701Y-93416502D01*
X53517327Y-93416045D01*
X53509947Y-93417817D01*
X53509945Y-93417817D01*
X53364786Y-93452667D01*
X53364784Y-93452668D01*
X53357406Y-93454439D01*
X53211259Y-93529871D01*
X53205537Y-93534863D01*
X53205535Y-93534864D01*
X53136543Y-93595050D01*
X53087324Y-93637986D01*
X53082957Y-93644200D01*
X53013367Y-93743217D01*
X52992756Y-93772543D01*
X52933014Y-93925774D01*
X52916500Y-94051210D01*
X52916500Y-94934594D01*
X52896498Y-95002715D01*
X52842842Y-95049208D01*
X52772568Y-95059312D01*
X52707988Y-95029818D01*
X52690538Y-95011299D01*
X52684344Y-95003227D01*
X52684343Y-95003226D01*
X52679320Y-94996680D01*
X52561190Y-94906036D01*
X52492408Y-94877546D01*
X52431255Y-94852215D01*
X52431252Y-94852214D01*
X52423625Y-94849055D01*
X52313068Y-94834500D01*
X52238932Y-94834500D01*
X52128375Y-94849055D01*
X52120748Y-94852214D01*
X52120745Y-94852215D01*
X52059592Y-94877546D01*
X51990810Y-94906036D01*
X51872680Y-94996680D01*
X51782036Y-95114810D01*
X51725055Y-95252375D01*
X51705620Y-95400000D01*
X51134592Y-95400000D01*
X51130832Y-95376260D01*
X51073955Y-95264633D01*
X50985367Y-95176045D01*
X50873740Y-95119168D01*
X50750000Y-95099570D01*
X50626260Y-95119168D01*
X50514633Y-95176045D01*
X50426045Y-95264633D01*
X50369168Y-95376260D01*
X50349570Y-95500000D01*
X46833215Y-95500000D01*
X46846380Y-95400000D01*
X46826945Y-95252375D01*
X46769964Y-95114810D01*
X46679320Y-94996680D01*
X46561190Y-94906036D01*
X46492408Y-94877546D01*
X46431255Y-94852215D01*
X46431252Y-94852214D01*
X46423625Y-94849055D01*
X46313068Y-94834500D01*
X46238932Y-94834500D01*
X46128375Y-94849055D01*
X46120748Y-94852214D01*
X46120745Y-94852215D01*
X46059592Y-94877546D01*
X45990810Y-94906036D01*
X45872680Y-94996680D01*
X45867657Y-95003226D01*
X45867656Y-95003227D01*
X45861462Y-95011299D01*
X45804123Y-95053166D01*
X45733252Y-95057387D01*
X45671350Y-95022622D01*
X45638069Y-94959909D01*
X45635500Y-94934594D01*
X45635500Y-94054756D01*
X45620733Y-93932726D01*
X45562598Y-93778878D01*
X45469444Y-93643338D01*
X45346648Y-93533931D01*
X45201300Y-93456973D01*
X45041789Y-93416906D01*
X45034191Y-93416866D01*
X45034189Y-93416866D01*
X44964701Y-93416502D01*
X44877327Y-93416045D01*
X44869947Y-93417817D01*
X44869945Y-93417817D01*
X44724786Y-93452667D01*
X44724784Y-93452668D01*
X44717406Y-93454439D01*
X44571259Y-93529871D01*
X44565537Y-93534863D01*
X44565535Y-93534864D01*
X44496543Y-93595050D01*
X44447324Y-93637986D01*
X44442957Y-93644200D01*
X44373367Y-93743217D01*
X44352756Y-93772543D01*
X44293014Y-93925774D01*
X44276500Y-94051210D01*
X44276500Y-95295244D01*
X43966045Y-95295244D01*
X43978071Y-91843823D01*
X54494391Y-91843823D01*
X54495555Y-91852725D01*
X54495555Y-91852728D01*
X54496814Y-91862354D01*
X54512980Y-91985979D01*
X54570720Y-92117203D01*
X54576497Y-92124076D01*
X54576498Y-92124077D01*
X54583792Y-92132754D01*
X54662970Y-92226948D01*
X54782313Y-92306390D01*
X54919157Y-92349142D01*
X54928129Y-92349306D01*
X54928132Y-92349307D01*
X54993463Y-92350504D01*
X55062499Y-92351770D01*
X55071533Y-92349307D01*
X55192158Y-92316421D01*
X55192160Y-92316420D01*
X55200817Y-92314060D01*
X55322991Y-92239045D01*
X55419200Y-92132754D01*
X55481710Y-92003733D01*
X55505496Y-91862354D01*
X55505647Y-91850000D01*
X55485323Y-91708082D01*
X55425984Y-91577572D01*
X55407598Y-91556234D01*
X55338260Y-91475763D01*
X55338257Y-91475760D01*
X55332400Y-91468963D01*
X55212095Y-91390985D01*
X55074739Y-91349907D01*
X55065763Y-91349852D01*
X55065762Y-91349852D01*
X55005555Y-91349484D01*
X54931376Y-91349031D01*
X54793529Y-91388428D01*
X54672280Y-91464930D01*
X54577377Y-91572388D01*
X54516447Y-91702163D01*
X54494391Y-91843823D01*
X43978071Y-91843823D01*
X43987130Y-89243823D01*
X73094391Y-89243823D01*
X73095555Y-89252725D01*
X73095555Y-89252728D01*
X73096814Y-89262354D01*
X73112980Y-89385979D01*
X73170720Y-89517203D01*
X73176497Y-89524076D01*
X73176498Y-89524077D01*
X73183792Y-89532754D01*
X73262970Y-89626948D01*
X73382313Y-89706390D01*
X73519157Y-89749142D01*
X73528129Y-89749306D01*
X73528132Y-89749307D01*
X73593463Y-89750504D01*
X73662499Y-89751770D01*
X73671533Y-89749307D01*
X73792158Y-89716421D01*
X73792160Y-89716420D01*
X73800817Y-89714060D01*
X73922991Y-89639045D01*
X74019200Y-89532754D01*
X74081710Y-89403733D01*
X74105496Y-89262354D01*
X74105647Y-89250000D01*
X74088581Y-89130832D01*
X74086596Y-89116968D01*
X74086595Y-89116965D01*
X74085323Y-89108082D01*
X74071853Y-89078455D01*
X74066179Y-89065977D01*
X74025984Y-88977572D01*
X73950016Y-88889407D01*
X73938260Y-88875763D01*
X73938257Y-88875760D01*
X73932400Y-88868963D01*
X73812095Y-88790985D01*
X73674739Y-88749907D01*
X73665763Y-88749852D01*
X73665762Y-88749852D01*
X73605555Y-88749484D01*
X73531376Y-88749031D01*
X73393529Y-88788428D01*
X73272280Y-88864930D01*
X73177377Y-88972388D01*
X73116447Y-89102163D01*
X73094391Y-89243823D01*
X43987130Y-89243823D01*
X43988851Y-88750000D01*
X46599570Y-88750000D01*
X46619168Y-88873740D01*
X46676045Y-88985367D01*
X46764633Y-89073955D01*
X46876260Y-89130832D01*
X47000000Y-89150430D01*
X47123740Y-89130832D01*
X47235367Y-89073955D01*
X47323955Y-88985367D01*
X47380832Y-88873740D01*
X47400430Y-88750000D01*
X47380832Y-88626260D01*
X47364305Y-88593823D01*
X60494391Y-88593823D01*
X60495555Y-88602725D01*
X60495555Y-88602728D01*
X60502923Y-88659069D01*
X60512980Y-88735979D01*
X60570720Y-88867203D01*
X60576497Y-88874076D01*
X60576498Y-88874077D01*
X60657190Y-88970072D01*
X60662970Y-88976948D01*
X60782313Y-89056390D01*
X60919157Y-89099142D01*
X60928129Y-89099306D01*
X60928132Y-89099307D01*
X60993463Y-89100504D01*
X61062499Y-89101770D01*
X61071533Y-89099307D01*
X61192158Y-89066421D01*
X61192160Y-89066420D01*
X61200817Y-89064060D01*
X61322991Y-88989045D01*
X61334315Y-88976535D01*
X61413178Y-88889407D01*
X61419200Y-88882754D01*
X61463662Y-88790985D01*
X61477795Y-88761814D01*
X61477795Y-88761813D01*
X61481710Y-88753733D01*
X61505496Y-88612354D01*
X61505647Y-88600000D01*
X61497473Y-88542924D01*
X61486596Y-88466968D01*
X61486595Y-88466965D01*
X61485323Y-88458082D01*
X61473945Y-88433056D01*
X61444191Y-88367617D01*
X61425984Y-88327572D01*
X61407598Y-88306234D01*
X61338260Y-88225763D01*
X61338257Y-88225760D01*
X61332400Y-88218963D01*
X61293614Y-88193823D01*
X68794391Y-88193823D01*
X68795555Y-88202725D01*
X68795555Y-88202728D01*
X68803685Y-88264901D01*
X68812980Y-88335979D01*
X68870720Y-88467203D01*
X68876497Y-88474076D01*
X68876498Y-88474077D01*
X68910589Y-88514633D01*
X68962970Y-88576948D01*
X69082313Y-88656390D01*
X69219157Y-88699142D01*
X69228129Y-88699306D01*
X69228132Y-88699307D01*
X69293463Y-88700504D01*
X69362499Y-88701770D01*
X69371533Y-88699307D01*
X69492158Y-88666421D01*
X69492160Y-88666420D01*
X69500817Y-88664060D01*
X69622991Y-88589045D01*
X69719200Y-88482754D01*
X69781710Y-88353733D01*
X69805496Y-88212354D01*
X69805647Y-88200000D01*
X69797473Y-88142924D01*
X69786596Y-88066968D01*
X69786595Y-88066965D01*
X69785323Y-88058082D01*
X69725984Y-87927572D01*
X69707598Y-87906234D01*
X69638260Y-87825763D01*
X69638257Y-87825760D01*
X69632400Y-87818963D01*
X69512095Y-87740985D01*
X69374739Y-87699907D01*
X69365763Y-87699852D01*
X69365762Y-87699852D01*
X69305555Y-87699484D01*
X69231376Y-87699031D01*
X69093529Y-87738428D01*
X68972280Y-87814930D01*
X68877377Y-87922388D01*
X68816447Y-88052163D01*
X68794391Y-88193823D01*
X61293614Y-88193823D01*
X61212095Y-88140985D01*
X61074739Y-88099907D01*
X61065763Y-88099852D01*
X61065762Y-88099852D01*
X61005555Y-88099484D01*
X60931376Y-88099031D01*
X60793529Y-88138428D01*
X60672280Y-88214930D01*
X60577377Y-88322388D01*
X60516447Y-88452163D01*
X60513035Y-88474077D01*
X60496171Y-88582391D01*
X60494391Y-88593823D01*
X47364305Y-88593823D01*
X47328455Y-88523465D01*
X47323955Y-88514633D01*
X47235367Y-88426045D01*
X47123740Y-88369168D01*
X47000000Y-88349570D01*
X46876260Y-88369168D01*
X46764633Y-88426045D01*
X46676045Y-88514633D01*
X46671545Y-88523465D01*
X46635696Y-88593823D01*
X46619168Y-88626260D01*
X46599570Y-88750000D01*
X43988851Y-88750000D01*
X43996690Y-86500000D01*
X48599570Y-86500000D01*
X48619168Y-86623740D01*
X48676045Y-86735367D01*
X48764633Y-86823955D01*
X48876260Y-86880832D01*
X49000000Y-86900430D01*
X49123740Y-86880832D01*
X49235367Y-86823955D01*
X49323955Y-86735367D01*
X49380832Y-86623740D01*
X49400430Y-86500000D01*
X49380832Y-86376260D01*
X49323955Y-86264633D01*
X49235367Y-86176045D01*
X49156733Y-86135979D01*
X49132574Y-86123669D01*
X49132573Y-86123669D01*
X49123740Y-86119168D01*
X49000000Y-86099570D01*
X48876260Y-86119168D01*
X48867427Y-86123669D01*
X48867426Y-86123669D01*
X48843267Y-86135979D01*
X48764633Y-86176045D01*
X48676045Y-86264633D01*
X48619168Y-86376260D01*
X48599570Y-86500000D01*
X43996690Y-86500000D01*
X43999557Y-85677209D01*
X44019796Y-85609158D01*
X44073613Y-85562853D01*
X44127198Y-85551659D01*
X52161627Y-85656456D01*
X52229481Y-85677345D01*
X52275271Y-85731602D01*
X52284457Y-85802002D01*
X52274038Y-85835995D01*
X52266447Y-85852163D01*
X52265066Y-85861035D01*
X52246438Y-85980677D01*
X52244391Y-85993823D01*
X52245555Y-86002725D01*
X52245555Y-86002728D01*
X52246814Y-86012354D01*
X52262980Y-86135979D01*
X52320720Y-86267203D01*
X52326497Y-86274076D01*
X52326498Y-86274077D01*
X52333792Y-86282754D01*
X52412970Y-86376948D01*
X52532313Y-86456390D01*
X52669157Y-86499142D01*
X52678129Y-86499306D01*
X52678132Y-86499307D01*
X52743463Y-86500504D01*
X52812499Y-86501770D01*
X52821533Y-86499307D01*
X52942158Y-86466421D01*
X52942160Y-86466420D01*
X52950817Y-86464060D01*
X53072991Y-86389045D01*
X53169200Y-86282754D01*
X53231710Y-86153733D01*
X53255496Y-86012354D01*
X53255647Y-86000000D01*
X53247473Y-85942924D01*
X53236596Y-85866968D01*
X53236595Y-85866965D01*
X53235323Y-85858082D01*
X53231609Y-85849914D01*
X53229088Y-85841292D01*
X53230379Y-85840915D01*
X53221695Y-85779776D01*
X53251298Y-85715245D01*
X53311090Y-85676964D01*
X53348025Y-85671931D01*
X57071839Y-85720502D01*
X65873582Y-85835308D01*
X65941434Y-85856196D01*
X65987224Y-85910453D01*
X65995820Y-85975976D01*
X65995882Y-85975977D01*
X65995877Y-85976407D01*
X65996437Y-85980677D01*
X65995773Y-85984945D01*
X65994391Y-85993823D01*
X65995555Y-86002725D01*
X65995555Y-86002728D01*
X65996814Y-86012354D01*
X66012980Y-86135979D01*
X66070720Y-86267203D01*
X66076497Y-86274076D01*
X66076498Y-86274077D01*
X66083792Y-86282754D01*
X66162970Y-86376948D01*
X66282313Y-86456390D01*
X66419157Y-86499142D01*
X66428129Y-86499306D01*
X66428132Y-86499307D01*
X66493463Y-86500504D01*
X66562499Y-86501770D01*
X66571533Y-86499307D01*
X66692158Y-86466421D01*
X66692160Y-86466420D01*
X66700817Y-86464060D01*
X66822991Y-86389045D01*
X66919200Y-86282754D01*
X66981710Y-86153733D01*
X67005496Y-86012354D01*
X67005647Y-86000000D01*
X66995193Y-85927004D01*
X67005337Y-85856737D01*
X67032089Y-85818803D01*
X68405136Y-84483896D01*
X68763322Y-84135659D01*
X68826107Y-84102515D01*
X68851154Y-84100000D01*
X75873601Y-84100000D01*
X75941722Y-84120002D01*
G37*
%TD.AperFunction*%
%TD*%
%TA.AperFunction,Conductor*%
%TO.N,/Vmain*%
G36*
X70874076Y-34300922D02*
G01*
X70942184Y-34320965D01*
X70988645Y-34374648D01*
X71000000Y-34426922D01*
X71000000Y-54712964D01*
X70979998Y-54781085D01*
X70926342Y-54827578D01*
X70908629Y-54834112D01*
X70902159Y-54835961D01*
X70902156Y-54835962D01*
X70893529Y-54838428D01*
X70772280Y-54914930D01*
X70766338Y-54921658D01*
X70766337Y-54921659D01*
X70756272Y-54933056D01*
X70677377Y-55022388D01*
X70616447Y-55152163D01*
X70615066Y-55161035D01*
X70600939Y-55251770D01*
X70594391Y-55293823D01*
X70612980Y-55435979D01*
X70670720Y-55567203D01*
X70676497Y-55574076D01*
X70676498Y-55574077D01*
X70740679Y-55650430D01*
X70762970Y-55676948D01*
X70882313Y-55756390D01*
X70911575Y-55765532D01*
X70970629Y-55804936D01*
X70999007Y-55870014D01*
X71000000Y-55885798D01*
X71000000Y-83624000D01*
X70979998Y-83692121D01*
X70926342Y-83738614D01*
X70874000Y-83750000D01*
X60437675Y-83750000D01*
X60369554Y-83729998D01*
X60323061Y-83676342D01*
X60312957Y-83606068D01*
X60324282Y-83569065D01*
X60331710Y-83553733D01*
X60355496Y-83412354D01*
X60355647Y-83400000D01*
X60340593Y-83294881D01*
X60336596Y-83266968D01*
X60336595Y-83266965D01*
X60335323Y-83258082D01*
X60275984Y-83127572D01*
X60257598Y-83106234D01*
X60188260Y-83025763D01*
X60188257Y-83025760D01*
X60182400Y-83018963D01*
X60062095Y-82940985D01*
X59924739Y-82899907D01*
X59915763Y-82899852D01*
X59915762Y-82899852D01*
X59855555Y-82899484D01*
X59781376Y-82899031D01*
X59643529Y-82938428D01*
X59522280Y-83014930D01*
X59427377Y-83122388D01*
X59366447Y-83252163D01*
X59361684Y-83282754D01*
X59346171Y-83382391D01*
X59344391Y-83393823D01*
X59345555Y-83402725D01*
X59345555Y-83402728D01*
X59352923Y-83459069D01*
X59362980Y-83535979D01*
X59379382Y-83573255D01*
X59388508Y-83643662D01*
X59358121Y-83707827D01*
X59297867Y-83745378D01*
X59264052Y-83750000D01*
X51415925Y-83750000D01*
X51347804Y-83729998D01*
X51301311Y-83676342D01*
X51291207Y-83606068D01*
X51320701Y-83541488D01*
X51323098Y-83539142D01*
X51322991Y-83539045D01*
X51413178Y-83439407D01*
X51419200Y-83432754D01*
X51481710Y-83303733D01*
X51505496Y-83162354D01*
X51505647Y-83150000D01*
X51487855Y-83025763D01*
X51486596Y-83016968D01*
X51486595Y-83016965D01*
X51485323Y-83008082D01*
X51425984Y-82877572D01*
X51397087Y-82844036D01*
X51338260Y-82775763D01*
X51338257Y-82775760D01*
X51332400Y-82768963D01*
X51212095Y-82690985D01*
X51074739Y-82649907D01*
X51065763Y-82649852D01*
X51065762Y-82649852D01*
X51005555Y-82649484D01*
X50931376Y-82649031D01*
X50793529Y-82688428D01*
X50672280Y-82764930D01*
X50577377Y-82872388D01*
X50516447Y-83002163D01*
X50513412Y-83021659D01*
X50496999Y-83127074D01*
X50494391Y-83143823D01*
X50495555Y-83152725D01*
X50495555Y-83152728D01*
X50496814Y-83162354D01*
X50512980Y-83285979D01*
X50516597Y-83294199D01*
X50565289Y-83404859D01*
X50570720Y-83417203D01*
X50576497Y-83424076D01*
X50576498Y-83424077D01*
X50583792Y-83432754D01*
X50662970Y-83526948D01*
X50668872Y-83530877D01*
X50705822Y-83590387D01*
X50704717Y-83661375D01*
X50665409Y-83720497D01*
X50600377Y-83748981D01*
X50584388Y-83750000D01*
X45840286Y-83750000D01*
X45772165Y-83729998D01*
X45750901Y-83705458D01*
X45740733Y-83720677D01*
X45675638Y-83749017D01*
X45659927Y-83750000D01*
X41136652Y-83750000D01*
X41068531Y-83729998D01*
X41022038Y-83676342D01*
X41010652Y-83624000D01*
X41010652Y-82993823D01*
X45244391Y-82993823D01*
X45245555Y-83002725D01*
X45245555Y-83002728D01*
X45253686Y-83064901D01*
X45262980Y-83135979D01*
X45320720Y-83267203D01*
X45326497Y-83274076D01*
X45326498Y-83274077D01*
X45358219Y-83311814D01*
X45412970Y-83376948D01*
X45532313Y-83456390D01*
X45669157Y-83499142D01*
X45678133Y-83499307D01*
X45680074Y-83499621D01*
X45744120Y-83530258D01*
X45749354Y-83538730D01*
X45804788Y-83503104D01*
X45811315Y-83501748D01*
X45812499Y-83501770D01*
X45831961Y-83496464D01*
X45942158Y-83466421D01*
X45942160Y-83466420D01*
X45950817Y-83464060D01*
X46072991Y-83389045D01*
X46169200Y-83282754D01*
X46231710Y-83153733D01*
X46255496Y-83012354D01*
X46255647Y-83000000D01*
X46247473Y-82942924D01*
X46236596Y-82866968D01*
X46236595Y-82866965D01*
X46235323Y-82858082D01*
X46175984Y-82727572D01*
X46146382Y-82693217D01*
X46088260Y-82625763D01*
X46088257Y-82625760D01*
X46082400Y-82618963D01*
X45962095Y-82540985D01*
X45824739Y-82499907D01*
X45815763Y-82499852D01*
X45815762Y-82499852D01*
X45755555Y-82499484D01*
X45681376Y-82499031D01*
X45543529Y-82538428D01*
X45422280Y-82614930D01*
X45327377Y-82722388D01*
X45266447Y-82852163D01*
X45244391Y-82993823D01*
X41010652Y-82993823D01*
X41010652Y-79325775D01*
X41030654Y-79257654D01*
X41084310Y-79211161D01*
X41136652Y-79199775D01*
X44850000Y-79199775D01*
X44852641Y-76838823D01*
X64849391Y-76838823D01*
X64850555Y-76847725D01*
X64850555Y-76847728D01*
X64851814Y-76857354D01*
X64867980Y-76980979D01*
X64925720Y-77112203D01*
X64931497Y-77119076D01*
X64931498Y-77119077D01*
X64938792Y-77127754D01*
X65017970Y-77221948D01*
X65137313Y-77301390D01*
X65274157Y-77344142D01*
X65283129Y-77344306D01*
X65283132Y-77344307D01*
X65348463Y-77345504D01*
X65417499Y-77346770D01*
X65426533Y-77344307D01*
X65547158Y-77311421D01*
X65547160Y-77311420D01*
X65555817Y-77309060D01*
X65677991Y-77234045D01*
X65774200Y-77127754D01*
X65836710Y-76998733D01*
X65860496Y-76857354D01*
X65860647Y-76845000D01*
X65840323Y-76703082D01*
X65780984Y-76572572D01*
X65725416Y-76508082D01*
X65693260Y-76470763D01*
X65693257Y-76470760D01*
X65687400Y-76463963D01*
X65567095Y-76385985D01*
X65429739Y-76344907D01*
X65420763Y-76344852D01*
X65420762Y-76344852D01*
X65360555Y-76344484D01*
X65286376Y-76344031D01*
X65148529Y-76383428D01*
X65027280Y-76459930D01*
X64932377Y-76567388D01*
X64871447Y-76697163D01*
X64870066Y-76706035D01*
X64857619Y-76785979D01*
X64849391Y-76838823D01*
X44852641Y-76838823D01*
X44854089Y-75543823D01*
X52994391Y-75543823D01*
X52995555Y-75552725D01*
X52995555Y-75552728D01*
X52996814Y-75562354D01*
X53012980Y-75685979D01*
X53070720Y-75817203D01*
X53076497Y-75824076D01*
X53076498Y-75824077D01*
X53083792Y-75832754D01*
X53162970Y-75926948D01*
X53282313Y-76006390D01*
X53419157Y-76049142D01*
X53428129Y-76049306D01*
X53428132Y-76049307D01*
X53493463Y-76050504D01*
X53562499Y-76051770D01*
X53571533Y-76049307D01*
X53692158Y-76016421D01*
X53692160Y-76016420D01*
X53700817Y-76014060D01*
X53822991Y-75939045D01*
X53919200Y-75832754D01*
X53981710Y-75703733D01*
X54005496Y-75562354D01*
X54005647Y-75550000D01*
X54004762Y-75543823D01*
X54294391Y-75543823D01*
X54295555Y-75552725D01*
X54295555Y-75552728D01*
X54296814Y-75562354D01*
X54312980Y-75685979D01*
X54370720Y-75817203D01*
X54376497Y-75824076D01*
X54376498Y-75824077D01*
X54383792Y-75832754D01*
X54462970Y-75926948D01*
X54582313Y-76006390D01*
X54719157Y-76049142D01*
X54728129Y-76049306D01*
X54728132Y-76049307D01*
X54793463Y-76050504D01*
X54862499Y-76051770D01*
X54871533Y-76049307D01*
X54992158Y-76016421D01*
X54992160Y-76016420D01*
X55000817Y-76014060D01*
X55122991Y-75939045D01*
X55219200Y-75832754D01*
X55281710Y-75703733D01*
X55305496Y-75562354D01*
X55305647Y-75550000D01*
X55292241Y-75456390D01*
X55286596Y-75416968D01*
X55286595Y-75416965D01*
X55285323Y-75408082D01*
X55276668Y-75389045D01*
X55229700Y-75285746D01*
X55225984Y-75277572D01*
X55207598Y-75256234D01*
X55138260Y-75175763D01*
X55138257Y-75175760D01*
X55132400Y-75168963D01*
X55012095Y-75090985D01*
X54874739Y-75049907D01*
X54865763Y-75049852D01*
X54865762Y-75049852D01*
X54805555Y-75049484D01*
X54731376Y-75049031D01*
X54593529Y-75088428D01*
X54472280Y-75164930D01*
X54377377Y-75272388D01*
X54316447Y-75402163D01*
X54315066Y-75411035D01*
X54300939Y-75501770D01*
X54294391Y-75543823D01*
X54004762Y-75543823D01*
X53992241Y-75456390D01*
X53986596Y-75416968D01*
X53986595Y-75416965D01*
X53985323Y-75408082D01*
X53976668Y-75389045D01*
X53929700Y-75285746D01*
X53925984Y-75277572D01*
X53907598Y-75256234D01*
X53838260Y-75175763D01*
X53838257Y-75175760D01*
X53832400Y-75168963D01*
X53712095Y-75090985D01*
X53574739Y-75049907D01*
X53565763Y-75049852D01*
X53565762Y-75049852D01*
X53505555Y-75049484D01*
X53431376Y-75049031D01*
X53293529Y-75088428D01*
X53172280Y-75164930D01*
X53077377Y-75272388D01*
X53016447Y-75402163D01*
X53015066Y-75411035D01*
X53000939Y-75501770D01*
X52994391Y-75543823D01*
X44854089Y-75543823D01*
X44854704Y-74993823D01*
X56744391Y-74993823D01*
X56745555Y-75002725D01*
X56745555Y-75002728D01*
X56746814Y-75012354D01*
X56762980Y-75135979D01*
X56820720Y-75267203D01*
X56826497Y-75274076D01*
X56826498Y-75274077D01*
X56829436Y-75277572D01*
X56912970Y-75376948D01*
X57032313Y-75456390D01*
X57169157Y-75499142D01*
X57178129Y-75499306D01*
X57178132Y-75499307D01*
X57243463Y-75500504D01*
X57312499Y-75501770D01*
X57321533Y-75499307D01*
X57442158Y-75466421D01*
X57442160Y-75466420D01*
X57450817Y-75464060D01*
X57572991Y-75389045D01*
X57669200Y-75282754D01*
X57731710Y-75153733D01*
X57755496Y-75012354D01*
X57755647Y-75000000D01*
X57735323Y-74858082D01*
X57675984Y-74727572D01*
X57657598Y-74706234D01*
X57588260Y-74625763D01*
X57588257Y-74625760D01*
X57582400Y-74618963D01*
X57462095Y-74540985D01*
X57324739Y-74499907D01*
X57315763Y-74499852D01*
X57315762Y-74499852D01*
X57255555Y-74499484D01*
X57181376Y-74499031D01*
X57043529Y-74538428D01*
X56922280Y-74614930D01*
X56827377Y-74722388D01*
X56766447Y-74852163D01*
X56744391Y-74993823D01*
X44854704Y-74993823D01*
X44857053Y-72893823D01*
X62444391Y-72893823D01*
X62445555Y-72902725D01*
X62445555Y-72902728D01*
X62446814Y-72912354D01*
X62462980Y-73035979D01*
X62520720Y-73167203D01*
X62526497Y-73174076D01*
X62526498Y-73174077D01*
X62533792Y-73182754D01*
X62612970Y-73276948D01*
X62732313Y-73356390D01*
X62869157Y-73399142D01*
X62878129Y-73399306D01*
X62878132Y-73399307D01*
X62943463Y-73400504D01*
X63012499Y-73401770D01*
X63021533Y-73399307D01*
X63142158Y-73366421D01*
X63142160Y-73366420D01*
X63150817Y-73364060D01*
X63272991Y-73289045D01*
X63369200Y-73182754D01*
X63431710Y-73053733D01*
X63455496Y-72912354D01*
X63455647Y-72900000D01*
X63435323Y-72758082D01*
X63375984Y-72627572D01*
X63357598Y-72606234D01*
X63288260Y-72525763D01*
X63288257Y-72525760D01*
X63282400Y-72518963D01*
X63162095Y-72440985D01*
X63024739Y-72399907D01*
X63015763Y-72399852D01*
X63015762Y-72399852D01*
X62955555Y-72399484D01*
X62881376Y-72399031D01*
X62743529Y-72438428D01*
X62622280Y-72514930D01*
X62527377Y-72622388D01*
X62466447Y-72752163D01*
X62444391Y-72893823D01*
X44857053Y-72893823D01*
X44858396Y-71693823D01*
X48194391Y-71693823D01*
X48195555Y-71702725D01*
X48195555Y-71702728D01*
X48196814Y-71712354D01*
X48212980Y-71835979D01*
X48270720Y-71967203D01*
X48276497Y-71974076D01*
X48276498Y-71974077D01*
X48283792Y-71982754D01*
X48362970Y-72076948D01*
X48482313Y-72156390D01*
X48619157Y-72199142D01*
X48628129Y-72199306D01*
X48628132Y-72199307D01*
X48693463Y-72200504D01*
X48762499Y-72201770D01*
X48771533Y-72199307D01*
X48892158Y-72166421D01*
X48892160Y-72166420D01*
X48900817Y-72164060D01*
X49022991Y-72089045D01*
X49119200Y-71982754D01*
X49181710Y-71853733D01*
X49205496Y-71712354D01*
X49205647Y-71700000D01*
X49185323Y-71558082D01*
X49125984Y-71427572D01*
X49107598Y-71406234D01*
X49038260Y-71325763D01*
X49038257Y-71325760D01*
X49032400Y-71318963D01*
X48912095Y-71240985D01*
X48774739Y-71199907D01*
X48765763Y-71199852D01*
X48765762Y-71199852D01*
X48705555Y-71199484D01*
X48631376Y-71199031D01*
X48493529Y-71238428D01*
X48372280Y-71314930D01*
X48277377Y-71422388D01*
X48216447Y-71552163D01*
X48194391Y-71693823D01*
X44858396Y-71693823D01*
X44859731Y-70500000D01*
X50349570Y-70500000D01*
X50369168Y-70623740D01*
X50373669Y-70632573D01*
X50373669Y-70632574D01*
X50382407Y-70649723D01*
X50426045Y-70735367D01*
X50514633Y-70823955D01*
X50626260Y-70880832D01*
X50750000Y-70900430D01*
X50873740Y-70880832D01*
X50985367Y-70823955D01*
X51059322Y-70750000D01*
X51849570Y-70750000D01*
X51869168Y-70873740D01*
X51926045Y-70985367D01*
X52014633Y-71073955D01*
X52126260Y-71130832D01*
X52250000Y-71150430D01*
X52373740Y-71130832D01*
X52485367Y-71073955D01*
X52573955Y-70985367D01*
X52630832Y-70873740D01*
X52649723Y-70754461D01*
X52651838Y-70750000D01*
X54349570Y-70750000D01*
X54369168Y-70873740D01*
X54426045Y-70985367D01*
X54514633Y-71073955D01*
X54626260Y-71130832D01*
X54750000Y-71150430D01*
X54873740Y-71130832D01*
X54985367Y-71073955D01*
X55073955Y-70985367D01*
X55130832Y-70873740D01*
X55150430Y-70750000D01*
X55130832Y-70626260D01*
X55073955Y-70514633D01*
X55040617Y-70481295D01*
X55006591Y-70418983D01*
X55011656Y-70348168D01*
X55040617Y-70303105D01*
X55102434Y-70241288D01*
X55152095Y-70143823D01*
X55794391Y-70143823D01*
X55795555Y-70152725D01*
X55795555Y-70152728D01*
X55799521Y-70183056D01*
X55812980Y-70285979D01*
X55870720Y-70417203D01*
X55876497Y-70424076D01*
X55876498Y-70424077D01*
X55932086Y-70490207D01*
X55962970Y-70526948D01*
X56082313Y-70606390D01*
X56219157Y-70649142D01*
X56228129Y-70649306D01*
X56228132Y-70649307D01*
X56293463Y-70650504D01*
X56362499Y-70651770D01*
X56371533Y-70649307D01*
X56492158Y-70616421D01*
X56492160Y-70616420D01*
X56500817Y-70614060D01*
X56622991Y-70539045D01*
X56645088Y-70514633D01*
X56713178Y-70439407D01*
X56719200Y-70432754D01*
X56759502Y-70349570D01*
X56777795Y-70311814D01*
X56777795Y-70311813D01*
X56781710Y-70303733D01*
X56805496Y-70162354D01*
X56805647Y-70150000D01*
X56804762Y-70143823D01*
X57994391Y-70143823D01*
X57995555Y-70152725D01*
X57995555Y-70152728D01*
X57999521Y-70183056D01*
X58012980Y-70285979D01*
X58070720Y-70417203D01*
X58076497Y-70424076D01*
X58076498Y-70424077D01*
X58132086Y-70490207D01*
X58162970Y-70526948D01*
X58282313Y-70606390D01*
X58419157Y-70649142D01*
X58428129Y-70649306D01*
X58428132Y-70649307D01*
X58493463Y-70650504D01*
X58562499Y-70651770D01*
X58571533Y-70649307D01*
X58692158Y-70616421D01*
X58692160Y-70616420D01*
X58700817Y-70614060D01*
X58822991Y-70539045D01*
X58845088Y-70514633D01*
X58913178Y-70439407D01*
X58919200Y-70432754D01*
X58959502Y-70349570D01*
X58977795Y-70311814D01*
X58977795Y-70311813D01*
X58981710Y-70303733D01*
X59005496Y-70162354D01*
X59005647Y-70150000D01*
X58985323Y-70008082D01*
X58925984Y-69877572D01*
X58901856Y-69849570D01*
X58838260Y-69775763D01*
X58838257Y-69775760D01*
X58832400Y-69768963D01*
X58712095Y-69690985D01*
X58574739Y-69649907D01*
X58565763Y-69649852D01*
X58565762Y-69649852D01*
X58505555Y-69649484D01*
X58431376Y-69649031D01*
X58293529Y-69688428D01*
X58172280Y-69764930D01*
X58077377Y-69872388D01*
X58016447Y-70002163D01*
X58007210Y-70061490D01*
X57996414Y-70130832D01*
X57994391Y-70143823D01*
X56804762Y-70143823D01*
X56785323Y-70008082D01*
X56725984Y-69877572D01*
X56701856Y-69849570D01*
X56638260Y-69775763D01*
X56638257Y-69775760D01*
X56632400Y-69768963D01*
X56512095Y-69690985D01*
X56374739Y-69649907D01*
X56365763Y-69649852D01*
X56365762Y-69649852D01*
X56305555Y-69649484D01*
X56231376Y-69649031D01*
X56093529Y-69688428D01*
X55972280Y-69764930D01*
X55877377Y-69872388D01*
X55816447Y-70002163D01*
X55807210Y-70061490D01*
X55796414Y-70130832D01*
X55794391Y-70143823D01*
X55152095Y-70143823D01*
X55159311Y-70129661D01*
X55178909Y-70005921D01*
X55159311Y-69882181D01*
X55102434Y-69770554D01*
X55013846Y-69681966D01*
X54902219Y-69625089D01*
X54778479Y-69605491D01*
X54654739Y-69625089D01*
X54543112Y-69681966D01*
X54454524Y-69770554D01*
X54397647Y-69882181D01*
X54378049Y-70005921D01*
X54397647Y-70129661D01*
X54454524Y-70241288D01*
X54487862Y-70274626D01*
X54521888Y-70336938D01*
X54516823Y-70407753D01*
X54487862Y-70452816D01*
X54426045Y-70514633D01*
X54369168Y-70626260D01*
X54349570Y-70750000D01*
X52651838Y-70750000D01*
X52680135Y-70690309D01*
X52740403Y-70652782D01*
X52754457Y-70649724D01*
X52840775Y-70636053D01*
X52863948Y-70632383D01*
X52863949Y-70632383D01*
X52873740Y-70630832D01*
X52985367Y-70573955D01*
X53073955Y-70485367D01*
X53106474Y-70421545D01*
X53126331Y-70382574D01*
X53126331Y-70382573D01*
X53130832Y-70373740D01*
X53150430Y-70250000D01*
X53130832Y-70126260D01*
X53073955Y-70014633D01*
X52985367Y-69926045D01*
X52900051Y-69882574D01*
X52882574Y-69873669D01*
X52882573Y-69873669D01*
X52873740Y-69869168D01*
X52750000Y-69849570D01*
X52626260Y-69869168D01*
X52617427Y-69873669D01*
X52617426Y-69873669D01*
X52599949Y-69882574D01*
X52514633Y-69926045D01*
X52426045Y-70014633D01*
X52369168Y-70126260D01*
X52367617Y-70136051D01*
X52367617Y-70136052D01*
X52350277Y-70245538D01*
X52319865Y-70309691D01*
X52259597Y-70347218D01*
X52245543Y-70350276D01*
X52170123Y-70362221D01*
X52136052Y-70367617D01*
X52136051Y-70367617D01*
X52126260Y-70369168D01*
X52014633Y-70426045D01*
X51926045Y-70514633D01*
X51869168Y-70626260D01*
X51849570Y-70750000D01*
X51059322Y-70750000D01*
X51073955Y-70735367D01*
X51117593Y-70649723D01*
X51126331Y-70632574D01*
X51126331Y-70632573D01*
X51130832Y-70623740D01*
X51150430Y-70500000D01*
X51147468Y-70481295D01*
X51132383Y-70386053D01*
X51130832Y-70376260D01*
X51073955Y-70264633D01*
X50985367Y-70176045D01*
X50873740Y-70119168D01*
X50750000Y-70099570D01*
X50626260Y-70119168D01*
X50514633Y-70176045D01*
X50426045Y-70264633D01*
X50369168Y-70376260D01*
X50367617Y-70386053D01*
X50352533Y-70481295D01*
X50349570Y-70500000D01*
X44859731Y-70500000D01*
X44860570Y-69750000D01*
X49349570Y-69750000D01*
X49369168Y-69873740D01*
X49426045Y-69985367D01*
X49514633Y-70073955D01*
X49626260Y-70130832D01*
X49750000Y-70150430D01*
X49873740Y-70130832D01*
X49985367Y-70073955D01*
X50073955Y-69985367D01*
X50130832Y-69873740D01*
X50150430Y-69750000D01*
X50130832Y-69626260D01*
X50073955Y-69514633D01*
X49985367Y-69426045D01*
X49873740Y-69369168D01*
X49750000Y-69349570D01*
X49626260Y-69369168D01*
X49514633Y-69426045D01*
X49426045Y-69514633D01*
X49369168Y-69626260D01*
X49349570Y-69750000D01*
X44860570Y-69750000D01*
X44861416Y-68993823D01*
X56894391Y-68993823D01*
X56895555Y-69002725D01*
X56895555Y-69002728D01*
X56896814Y-69012354D01*
X56912980Y-69135979D01*
X56970720Y-69267203D01*
X56976497Y-69274076D01*
X56976498Y-69274077D01*
X57056430Y-69369168D01*
X57062970Y-69376948D01*
X57182313Y-69456390D01*
X57319157Y-69499142D01*
X57328129Y-69499306D01*
X57328132Y-69499307D01*
X57393463Y-69500504D01*
X57462499Y-69501770D01*
X57471533Y-69499307D01*
X57592158Y-69466421D01*
X57592160Y-69466420D01*
X57600817Y-69464060D01*
X57722991Y-69389045D01*
X57742387Y-69367617D01*
X57813178Y-69289407D01*
X57819200Y-69282754D01*
X57881710Y-69153733D01*
X57905496Y-69012354D01*
X57905647Y-69000000D01*
X57885323Y-68858082D01*
X57825984Y-68727572D01*
X57807598Y-68706234D01*
X57738260Y-68625763D01*
X57738257Y-68625760D01*
X57732400Y-68618963D01*
X57612095Y-68540985D01*
X57474739Y-68499907D01*
X57465763Y-68499852D01*
X57465762Y-68499852D01*
X57405555Y-68499484D01*
X57331376Y-68499031D01*
X57193529Y-68538428D01*
X57072280Y-68614930D01*
X56977377Y-68722388D01*
X56916447Y-68852163D01*
X56894391Y-68993823D01*
X44861416Y-68993823D01*
X44862478Y-68043823D01*
X48894391Y-68043823D01*
X48895555Y-68052725D01*
X48895555Y-68052728D01*
X48902225Y-68103733D01*
X48912980Y-68185979D01*
X48970720Y-68317203D01*
X48976497Y-68324076D01*
X48976498Y-68324077D01*
X49054121Y-68416421D01*
X49062970Y-68426948D01*
X49182313Y-68506390D01*
X49319157Y-68549142D01*
X49328129Y-68549306D01*
X49328132Y-68549307D01*
X49393463Y-68550504D01*
X49462499Y-68551770D01*
X49471533Y-68549307D01*
X49592158Y-68516421D01*
X49592160Y-68516420D01*
X49600817Y-68514060D01*
X49722991Y-68439045D01*
X49757054Y-68401413D01*
X49813178Y-68339407D01*
X49819200Y-68332754D01*
X49864426Y-68239407D01*
X49877795Y-68211814D01*
X49877795Y-68211813D01*
X49881710Y-68203733D01*
X49905496Y-68062354D01*
X49905647Y-68050000D01*
X49891326Y-67950000D01*
X49890441Y-67943823D01*
X55794391Y-67943823D01*
X55795555Y-67952725D01*
X55795555Y-67952728D01*
X55796814Y-67962354D01*
X55812980Y-68085979D01*
X55870720Y-68217203D01*
X55876497Y-68224076D01*
X55876498Y-68224077D01*
X55883792Y-68232754D01*
X55962970Y-68326948D01*
X56082313Y-68406390D01*
X56219157Y-68449142D01*
X56228129Y-68449306D01*
X56228132Y-68449307D01*
X56293463Y-68450504D01*
X56362499Y-68451770D01*
X56371533Y-68449307D01*
X56492158Y-68416421D01*
X56492160Y-68416420D01*
X56500817Y-68414060D01*
X56622991Y-68339045D01*
X56719200Y-68232754D01*
X56781710Y-68103733D01*
X56805496Y-67962354D01*
X56805647Y-67950000D01*
X56804762Y-67943823D01*
X57994391Y-67943823D01*
X57995555Y-67952725D01*
X57995555Y-67952728D01*
X57996814Y-67962354D01*
X58012980Y-68085979D01*
X58070720Y-68217203D01*
X58076497Y-68224076D01*
X58076498Y-68224077D01*
X58083792Y-68232754D01*
X58162970Y-68326948D01*
X58282313Y-68406390D01*
X58419157Y-68449142D01*
X58428129Y-68449306D01*
X58428132Y-68449307D01*
X58493463Y-68450504D01*
X58562499Y-68451770D01*
X58571533Y-68449307D01*
X58692158Y-68416421D01*
X58692160Y-68416420D01*
X58700817Y-68414060D01*
X58822991Y-68339045D01*
X58919200Y-68232754D01*
X58981710Y-68103733D01*
X59005496Y-67962354D01*
X59005647Y-67950000D01*
X58985323Y-67808082D01*
X58975168Y-67785746D01*
X58965354Y-67764163D01*
X58925984Y-67677572D01*
X58855586Y-67595871D01*
X58838260Y-67575763D01*
X58838257Y-67575760D01*
X58832400Y-67568963D01*
X58712095Y-67490985D01*
X58574739Y-67449907D01*
X58565763Y-67449852D01*
X58565762Y-67449852D01*
X58505555Y-67449484D01*
X58431376Y-67449031D01*
X58293529Y-67488428D01*
X58172280Y-67564930D01*
X58166338Y-67571658D01*
X58166337Y-67571659D01*
X58151527Y-67588428D01*
X58077377Y-67672388D01*
X58016447Y-67802163D01*
X58014907Y-67812057D01*
X57999956Y-67908082D01*
X57994391Y-67943823D01*
X56804762Y-67943823D01*
X56785323Y-67808082D01*
X56775168Y-67785746D01*
X56765354Y-67764163D01*
X56725984Y-67677572D01*
X56655586Y-67595871D01*
X56638260Y-67575763D01*
X56638257Y-67575760D01*
X56632400Y-67568963D01*
X56512095Y-67490985D01*
X56374739Y-67449907D01*
X56365763Y-67449852D01*
X56365762Y-67449852D01*
X56305555Y-67449484D01*
X56231376Y-67449031D01*
X56093529Y-67488428D01*
X55972280Y-67564930D01*
X55966338Y-67571658D01*
X55966337Y-67571659D01*
X55951527Y-67588428D01*
X55877377Y-67672388D01*
X55816447Y-67802163D01*
X55814907Y-67812057D01*
X55799956Y-67908082D01*
X55794391Y-67943823D01*
X49890441Y-67943823D01*
X49886596Y-67916968D01*
X49886595Y-67916965D01*
X49885323Y-67908082D01*
X49825984Y-67777572D01*
X49807598Y-67756234D01*
X49738260Y-67675763D01*
X49738257Y-67675760D01*
X49732400Y-67668963D01*
X49612095Y-67590985D01*
X49474739Y-67549907D01*
X49465763Y-67549852D01*
X49465762Y-67549852D01*
X49405555Y-67549484D01*
X49331376Y-67549031D01*
X49193529Y-67588428D01*
X49072280Y-67664930D01*
X48977377Y-67772388D01*
X48916447Y-67902163D01*
X48894391Y-68043823D01*
X44862478Y-68043823D01*
X44863303Y-67306573D01*
X66257141Y-67306573D01*
X66258305Y-67315475D01*
X66258305Y-67315478D01*
X66259564Y-67325104D01*
X66275730Y-67448729D01*
X66279347Y-67456949D01*
X66329821Y-67571659D01*
X66333470Y-67579953D01*
X66339247Y-67586826D01*
X66339248Y-67586827D01*
X66410557Y-67671659D01*
X66425720Y-67689698D01*
X66545063Y-67769140D01*
X66681907Y-67811892D01*
X66690879Y-67812056D01*
X66690882Y-67812057D01*
X66756213Y-67813254D01*
X66825249Y-67814520D01*
X66834283Y-67812057D01*
X66954908Y-67779171D01*
X66954910Y-67779170D01*
X66963567Y-67776810D01*
X67085741Y-67701795D01*
X67105004Y-67680514D01*
X67175928Y-67602157D01*
X67181950Y-67595504D01*
X67244460Y-67466483D01*
X67268246Y-67325104D01*
X67268397Y-67312750D01*
X67248073Y-67170832D01*
X67188734Y-67040322D01*
X67147423Y-66992378D01*
X67101010Y-66938513D01*
X67101007Y-66938510D01*
X67095150Y-66931713D01*
X66974845Y-66853735D01*
X66837489Y-66812657D01*
X66828513Y-66812602D01*
X66828512Y-66812602D01*
X66768305Y-66812234D01*
X66694126Y-66811781D01*
X66556279Y-66851178D01*
X66435030Y-66927680D01*
X66340127Y-67035138D01*
X66279197Y-67164913D01*
X66277816Y-67173785D01*
X66260850Y-67282754D01*
X66257141Y-67306573D01*
X44863303Y-67306573D01*
X44864485Y-66250000D01*
X51349570Y-66250000D01*
X51369168Y-66373740D01*
X51373669Y-66382573D01*
X51373669Y-66382574D01*
X51385418Y-66405633D01*
X51426045Y-66485367D01*
X51514633Y-66573955D01*
X51626260Y-66630832D01*
X51750000Y-66650430D01*
X51873740Y-66630832D01*
X51882573Y-66626331D01*
X51882577Y-66626330D01*
X51919590Y-66607471D01*
X51989366Y-66594367D01*
X52055151Y-66621067D01*
X52096057Y-66679095D01*
X52100455Y-66730290D01*
X52101121Y-66730290D01*
X52101121Y-66738049D01*
X52101241Y-66739446D01*
X52101121Y-66740204D01*
X52099570Y-66750000D01*
X52119168Y-66873740D01*
X52123669Y-66882573D01*
X52123669Y-66882574D01*
X52129723Y-66894456D01*
X52176045Y-66985367D01*
X52264633Y-67073955D01*
X52376260Y-67130832D01*
X52500000Y-67150430D01*
X52623740Y-67130832D01*
X52735367Y-67073955D01*
X52823955Y-66985367D01*
X52870277Y-66894456D01*
X52876331Y-66882574D01*
X52876331Y-66882573D01*
X52880832Y-66873740D01*
X52900430Y-66750000D01*
X52880832Y-66626260D01*
X52871259Y-66607471D01*
X52867452Y-66600000D01*
X55099570Y-66600000D01*
X55119168Y-66723740D01*
X55123669Y-66732573D01*
X55123669Y-66732574D01*
X55127557Y-66740204D01*
X55176045Y-66835367D01*
X55264633Y-66923955D01*
X55376260Y-66980832D01*
X55500000Y-67000430D01*
X55623740Y-66980832D01*
X55735367Y-66923955D01*
X55742379Y-66916943D01*
X55750399Y-66911116D01*
X55752681Y-66914256D01*
X55798217Y-66889391D01*
X55869032Y-66894456D01*
X55898122Y-66913152D01*
X55899601Y-66911116D01*
X55907621Y-66916943D01*
X55914633Y-66923955D01*
X56026260Y-66980832D01*
X56150000Y-67000430D01*
X56273740Y-66980832D01*
X56385367Y-66923955D01*
X56473955Y-66835367D01*
X56522443Y-66740204D01*
X56526331Y-66732574D01*
X56526331Y-66732573D01*
X56530832Y-66723740D01*
X56550430Y-66600000D01*
X56530832Y-66476260D01*
X56473955Y-66364633D01*
X56385367Y-66276045D01*
X56273740Y-66219168D01*
X56150000Y-66199570D01*
X56026260Y-66219168D01*
X55914633Y-66276045D01*
X55907622Y-66283056D01*
X55899601Y-66288884D01*
X55897319Y-66285744D01*
X55851783Y-66310609D01*
X55780968Y-66305544D01*
X55751878Y-66286848D01*
X55750399Y-66288884D01*
X55742378Y-66283056D01*
X55735367Y-66276045D01*
X55623740Y-66219168D01*
X55500000Y-66199570D01*
X55376260Y-66219168D01*
X55264633Y-66276045D01*
X55176045Y-66364633D01*
X55119168Y-66476260D01*
X55099570Y-66600000D01*
X52867452Y-66600000D01*
X52828455Y-66523465D01*
X52823955Y-66514633D01*
X52735367Y-66426045D01*
X52623740Y-66369168D01*
X52500000Y-66349570D01*
X52376260Y-66369168D01*
X52367427Y-66373669D01*
X52367423Y-66373670D01*
X52330410Y-66392529D01*
X52260634Y-66405633D01*
X52194849Y-66378933D01*
X52153943Y-66320905D01*
X52149545Y-66269710D01*
X52148879Y-66269710D01*
X52148879Y-66261951D01*
X52148759Y-66260554D01*
X52148879Y-66259796D01*
X52148879Y-66259793D01*
X52150430Y-66250000D01*
X52130832Y-66126260D01*
X52073955Y-66014633D01*
X51985367Y-65926045D01*
X51873740Y-65869168D01*
X51750000Y-65849570D01*
X51626260Y-65869168D01*
X51514633Y-65926045D01*
X51426045Y-66014633D01*
X51369168Y-66126260D01*
X51349570Y-66250000D01*
X44864485Y-66250000D01*
X44865044Y-65750000D01*
X47349570Y-65750000D01*
X47369168Y-65873740D01*
X47426045Y-65985367D01*
X47514633Y-66073955D01*
X47626260Y-66130832D01*
X47750000Y-66150430D01*
X47873740Y-66130832D01*
X47985367Y-66073955D01*
X48073955Y-65985367D01*
X48130832Y-65873740D01*
X48150430Y-65750000D01*
X48130832Y-65626260D01*
X48073955Y-65514633D01*
X47985367Y-65426045D01*
X47873740Y-65369168D01*
X47750000Y-65349570D01*
X47626260Y-65369168D01*
X47514633Y-65426045D01*
X47426045Y-65514633D01*
X47369168Y-65626260D01*
X47349570Y-65750000D01*
X44865044Y-65750000D01*
X44865883Y-65000000D01*
X51599570Y-65000000D01*
X51619168Y-65123740D01*
X51676045Y-65235367D01*
X51764633Y-65323955D01*
X51876260Y-65380832D01*
X52000000Y-65400430D01*
X52123740Y-65380832D01*
X52235367Y-65323955D01*
X52323955Y-65235367D01*
X52380832Y-65123740D01*
X52400430Y-65000000D01*
X52380832Y-64876260D01*
X52323955Y-64764633D01*
X52235367Y-64676045D01*
X52123740Y-64619168D01*
X52000000Y-64599570D01*
X51876260Y-64619168D01*
X51764633Y-64676045D01*
X51676045Y-64764633D01*
X51619168Y-64876260D01*
X51599570Y-65000000D01*
X44865883Y-65000000D01*
X44866442Y-64500000D01*
X50349570Y-64500000D01*
X50369168Y-64623740D01*
X50426045Y-64735367D01*
X50514633Y-64823955D01*
X50626260Y-64880832D01*
X50750000Y-64900430D01*
X50873740Y-64880832D01*
X50985367Y-64823955D01*
X51073955Y-64735367D01*
X51130832Y-64623740D01*
X51150430Y-64500000D01*
X58849570Y-64500000D01*
X58869168Y-64623740D01*
X58926045Y-64735367D01*
X59014633Y-64823955D01*
X59126260Y-64880832D01*
X59250000Y-64900430D01*
X59373740Y-64880832D01*
X59485367Y-64823955D01*
X59573955Y-64735367D01*
X59630832Y-64623740D01*
X59650430Y-64500000D01*
X59630832Y-64376260D01*
X59573955Y-64264633D01*
X59485367Y-64176045D01*
X59373740Y-64119168D01*
X59250000Y-64099570D01*
X59126260Y-64119168D01*
X59014633Y-64176045D01*
X58926045Y-64264633D01*
X58869168Y-64376260D01*
X58849570Y-64500000D01*
X51150430Y-64500000D01*
X51130832Y-64376260D01*
X51073955Y-64264633D01*
X50985367Y-64176045D01*
X50873740Y-64119168D01*
X50750000Y-64099570D01*
X50626260Y-64119168D01*
X50514633Y-64176045D01*
X50426045Y-64264633D01*
X50369168Y-64376260D01*
X50349570Y-64500000D01*
X44866442Y-64500000D01*
X44867281Y-63750000D01*
X48849570Y-63750000D01*
X48869168Y-63873740D01*
X48926045Y-63985367D01*
X49014633Y-64073955D01*
X49126260Y-64130832D01*
X49250000Y-64150430D01*
X49373740Y-64130832D01*
X49485367Y-64073955D01*
X49573955Y-63985367D01*
X49630832Y-63873740D01*
X49650430Y-63750000D01*
X49630832Y-63626260D01*
X49573955Y-63514633D01*
X49485367Y-63426045D01*
X49373740Y-63369168D01*
X49250000Y-63349570D01*
X49126260Y-63369168D01*
X49014633Y-63426045D01*
X48926045Y-63514633D01*
X48869168Y-63626260D01*
X48849570Y-63750000D01*
X44867281Y-63750000D01*
X44867840Y-63250000D01*
X54599570Y-63250000D01*
X54619168Y-63373740D01*
X54676045Y-63485367D01*
X54764633Y-63573955D01*
X54876260Y-63630832D01*
X55000000Y-63650430D01*
X55123740Y-63630832D01*
X55235367Y-63573955D01*
X55323955Y-63485367D01*
X55380832Y-63373740D01*
X55400430Y-63250000D01*
X55380832Y-63126260D01*
X55323955Y-63014633D01*
X55235367Y-62926045D01*
X55134552Y-62874677D01*
X55132574Y-62873669D01*
X55132573Y-62873669D01*
X55123740Y-62869168D01*
X55000000Y-62849570D01*
X54876260Y-62869168D01*
X54867427Y-62873669D01*
X54867426Y-62873669D01*
X54865448Y-62874677D01*
X54764633Y-62926045D01*
X54676045Y-63014633D01*
X54619168Y-63126260D01*
X54599570Y-63250000D01*
X44867840Y-63250000D01*
X44868574Y-62593823D01*
X55994391Y-62593823D01*
X55995555Y-62602725D01*
X55995555Y-62602728D01*
X56002225Y-62653733D01*
X56012980Y-62735979D01*
X56070720Y-62867203D01*
X56076497Y-62874076D01*
X56076498Y-62874077D01*
X56157190Y-62970072D01*
X56162970Y-62976948D01*
X56170447Y-62981925D01*
X56247180Y-63033003D01*
X56282313Y-63056390D01*
X56419157Y-63099142D01*
X56428129Y-63099306D01*
X56428132Y-63099307D01*
X56493463Y-63100504D01*
X56562499Y-63101770D01*
X56571533Y-63099307D01*
X56692158Y-63066421D01*
X56692160Y-63066420D01*
X56700817Y-63064060D01*
X56822991Y-62989045D01*
X56919200Y-62882754D01*
X56960052Y-62798436D01*
X56977795Y-62761814D01*
X56977795Y-62761813D01*
X56981710Y-62753733D01*
X57005496Y-62612354D01*
X57005647Y-62600000D01*
X56991326Y-62500000D01*
X59849570Y-62500000D01*
X59869168Y-62623740D01*
X59926045Y-62735367D01*
X60014633Y-62823955D01*
X60023466Y-62828455D01*
X60023465Y-62828455D01*
X60113003Y-62874077D01*
X60126260Y-62880832D01*
X60250000Y-62900430D01*
X60373740Y-62880832D01*
X60386998Y-62874077D01*
X60476535Y-62828455D01*
X60476534Y-62828455D01*
X60485367Y-62823955D01*
X60573955Y-62735367D01*
X60630832Y-62623740D01*
X60650430Y-62500000D01*
X60630832Y-62376260D01*
X60573955Y-62264633D01*
X60485367Y-62176045D01*
X60432455Y-62149085D01*
X60382574Y-62123669D01*
X60382573Y-62123669D01*
X60373740Y-62119168D01*
X60250000Y-62099570D01*
X60126260Y-62119168D01*
X60117427Y-62123669D01*
X60117426Y-62123669D01*
X60067545Y-62149085D01*
X60014633Y-62176045D01*
X59926045Y-62264633D01*
X59869168Y-62376260D01*
X59849570Y-62500000D01*
X56991326Y-62500000D01*
X56986596Y-62466968D01*
X56986595Y-62466965D01*
X56985323Y-62458082D01*
X56925984Y-62327572D01*
X56877196Y-62270952D01*
X56847884Y-62206292D01*
X56858183Y-62136047D01*
X56904824Y-62082520D01*
X56939507Y-62067144D01*
X56950817Y-62064060D01*
X57072991Y-61989045D01*
X57169200Y-61882754D01*
X57231710Y-61753733D01*
X57255496Y-61612354D01*
X57255647Y-61600000D01*
X57247602Y-61543823D01*
X60894391Y-61543823D01*
X60895555Y-61552725D01*
X60895555Y-61552728D01*
X60902094Y-61602728D01*
X60912980Y-61685979D01*
X60916597Y-61694199D01*
X60942793Y-61753733D01*
X60970720Y-61817203D01*
X60976497Y-61824076D01*
X60976498Y-61824077D01*
X61040679Y-61900430D01*
X61062970Y-61926948D01*
X61070447Y-61931925D01*
X61172714Y-62000000D01*
X61182313Y-62006390D01*
X61190888Y-62009069D01*
X61206864Y-62014060D01*
X61319157Y-62049142D01*
X61328129Y-62049306D01*
X61328132Y-62049307D01*
X61393463Y-62050504D01*
X61462499Y-62051770D01*
X61471533Y-62049307D01*
X61592158Y-62016421D01*
X61592160Y-62016420D01*
X61600817Y-62014060D01*
X61722991Y-61939045D01*
X61819200Y-61832754D01*
X61861774Y-61744881D01*
X61877795Y-61711814D01*
X61877795Y-61711813D01*
X61881710Y-61703733D01*
X61905496Y-61562354D01*
X61905647Y-61550000D01*
X61893756Y-61466968D01*
X61886596Y-61416968D01*
X61886595Y-61416965D01*
X61885323Y-61408082D01*
X61870855Y-61376260D01*
X61850055Y-61330514D01*
X61825984Y-61277572D01*
X61793788Y-61240207D01*
X61738260Y-61175763D01*
X61738257Y-61175760D01*
X61732400Y-61168963D01*
X61612095Y-61090985D01*
X61474739Y-61049907D01*
X61465763Y-61049852D01*
X61465762Y-61049852D01*
X61405555Y-61049484D01*
X61331376Y-61049031D01*
X61193529Y-61088428D01*
X61072280Y-61164930D01*
X61066338Y-61171658D01*
X61066337Y-61171659D01*
X61028122Y-61214930D01*
X60977377Y-61272388D01*
X60916447Y-61402163D01*
X60908662Y-61452163D01*
X60904868Y-61476535D01*
X60894391Y-61543823D01*
X57247602Y-61543823D01*
X57239924Y-61490207D01*
X57236596Y-61466968D01*
X57236595Y-61466965D01*
X57235323Y-61458082D01*
X57175984Y-61327572D01*
X57115711Y-61257622D01*
X57088260Y-61225763D01*
X57088257Y-61225760D01*
X57082400Y-61218963D01*
X56962095Y-61140985D01*
X56824739Y-61099907D01*
X56815763Y-61099852D01*
X56815762Y-61099852D01*
X56755555Y-61099484D01*
X56681376Y-61099031D01*
X56543529Y-61138428D01*
X56422280Y-61214930D01*
X56327377Y-61322388D01*
X56266447Y-61452163D01*
X56261277Y-61485367D01*
X56246784Y-61578455D01*
X56244391Y-61593823D01*
X56245555Y-61602725D01*
X56245555Y-61602728D01*
X56247441Y-61617149D01*
X56262980Y-61735979D01*
X56320720Y-61867203D01*
X56374196Y-61930821D01*
X56402716Y-61995834D01*
X56391560Y-62065949D01*
X56344268Y-62118901D01*
X56312372Y-62133042D01*
X56302160Y-62135961D01*
X56302159Y-62135962D01*
X56293529Y-62138428D01*
X56172280Y-62214930D01*
X56166338Y-62221658D01*
X56166337Y-62221659D01*
X56134576Y-62257622D01*
X56077377Y-62322388D01*
X56016447Y-62452163D01*
X56015066Y-62461035D01*
X56002213Y-62543587D01*
X55994391Y-62593823D01*
X44868574Y-62593823D01*
X44869239Y-62000000D01*
X46849570Y-62000000D01*
X46869168Y-62123740D01*
X46873669Y-62132573D01*
X46873669Y-62132574D01*
X46875395Y-62135961D01*
X46926045Y-62235367D01*
X47014633Y-62323955D01*
X47126260Y-62380832D01*
X47250000Y-62400430D01*
X47373740Y-62380832D01*
X47485367Y-62323955D01*
X47573955Y-62235367D01*
X47624605Y-62135961D01*
X47626331Y-62132574D01*
X47626331Y-62132573D01*
X47630832Y-62123740D01*
X47650430Y-62000000D01*
X47630832Y-61876260D01*
X47573955Y-61764633D01*
X47485367Y-61676045D01*
X47373740Y-61619168D01*
X47250000Y-61599570D01*
X47126260Y-61619168D01*
X47014633Y-61676045D01*
X46926045Y-61764633D01*
X46869168Y-61876260D01*
X46849570Y-62000000D01*
X44869239Y-62000000D01*
X44869491Y-61774738D01*
X44889569Y-61706640D01*
X44943277Y-61660207D01*
X44993261Y-61649363D01*
X45000000Y-61650430D01*
X45123740Y-61630832D01*
X45150595Y-61617149D01*
X45226535Y-61578455D01*
X45226534Y-61578455D01*
X45235367Y-61573955D01*
X45309322Y-61500000D01*
X45849570Y-61500000D01*
X45869168Y-61623740D01*
X45926045Y-61735367D01*
X46014633Y-61823955D01*
X46023466Y-61828455D01*
X46023465Y-61828455D01*
X46112995Y-61874073D01*
X46126260Y-61880832D01*
X46250000Y-61900430D01*
X46373740Y-61880832D01*
X46387006Y-61874073D01*
X46476535Y-61828455D01*
X46476534Y-61828455D01*
X46485367Y-61823955D01*
X46573955Y-61735367D01*
X46630832Y-61623740D01*
X46643489Y-61543823D01*
X51144391Y-61543823D01*
X51145555Y-61552725D01*
X51145555Y-61552728D01*
X51152094Y-61602728D01*
X51162980Y-61685979D01*
X51166597Y-61694199D01*
X51192793Y-61753733D01*
X51220720Y-61817203D01*
X51226497Y-61824076D01*
X51226498Y-61824077D01*
X51290679Y-61900430D01*
X51312970Y-61926948D01*
X51320447Y-61931925D01*
X51422714Y-62000000D01*
X51432313Y-62006390D01*
X51440888Y-62009069D01*
X51456864Y-62014060D01*
X51569157Y-62049142D01*
X51578129Y-62049306D01*
X51578132Y-62049307D01*
X51643463Y-62050504D01*
X51712499Y-62051770D01*
X51721533Y-62049307D01*
X51842158Y-62016421D01*
X51842160Y-62016420D01*
X51850817Y-62014060D01*
X51972991Y-61939045D01*
X52069200Y-61832754D01*
X52111774Y-61744881D01*
X52127795Y-61711814D01*
X52127795Y-61711813D01*
X52131710Y-61703733D01*
X52155496Y-61562354D01*
X52155647Y-61550000D01*
X52143756Y-61466968D01*
X52136596Y-61416968D01*
X52136595Y-61416965D01*
X52135323Y-61408082D01*
X52120855Y-61376260D01*
X52100055Y-61330514D01*
X52075984Y-61277572D01*
X52043788Y-61240207D01*
X51988260Y-61175763D01*
X51988257Y-61175760D01*
X51982400Y-61168963D01*
X51862095Y-61090985D01*
X51724739Y-61049907D01*
X51715763Y-61049852D01*
X51715762Y-61049852D01*
X51655555Y-61049484D01*
X51581376Y-61049031D01*
X51443529Y-61088428D01*
X51322280Y-61164930D01*
X51316338Y-61171658D01*
X51316337Y-61171659D01*
X51278122Y-61214930D01*
X51227377Y-61272388D01*
X51166447Y-61402163D01*
X51158662Y-61452163D01*
X51154868Y-61476535D01*
X51144391Y-61543823D01*
X46643489Y-61543823D01*
X46650430Y-61500000D01*
X46630832Y-61376260D01*
X46573955Y-61264633D01*
X46485367Y-61176045D01*
X46373740Y-61119168D01*
X46311870Y-61109369D01*
X46259793Y-61101121D01*
X46250000Y-61099570D01*
X46240207Y-61101121D01*
X46188130Y-61109369D01*
X46126260Y-61119168D01*
X46014633Y-61176045D01*
X45926045Y-61264633D01*
X45869168Y-61376260D01*
X45849570Y-61500000D01*
X45309322Y-61500000D01*
X45323955Y-61485367D01*
X45380832Y-61373740D01*
X45400430Y-61250000D01*
X45380832Y-61126260D01*
X45368716Y-61102480D01*
X45328455Y-61023465D01*
X45323955Y-61014633D01*
X45235367Y-60926045D01*
X45123740Y-60869168D01*
X45000000Y-60849570D01*
X44994402Y-60850457D01*
X44928544Y-60831119D01*
X44882051Y-60777463D01*
X44870665Y-60724980D01*
X44871449Y-60024736D01*
X44891526Y-59956640D01*
X44945234Y-59910207D01*
X44994393Y-59899542D01*
X45000000Y-59900430D01*
X45123740Y-59880832D01*
X45235367Y-59823955D01*
X45323955Y-59735367D01*
X45380832Y-59623740D01*
X45400430Y-59500000D01*
X45380832Y-59376260D01*
X45323955Y-59264633D01*
X45235367Y-59176045D01*
X45123740Y-59119168D01*
X45000000Y-59099570D01*
X44995673Y-59100255D01*
X44930501Y-59081119D01*
X44884008Y-59027463D01*
X44872623Y-58974984D01*
X44873553Y-58143823D01*
X51094391Y-58143823D01*
X51095555Y-58152725D01*
X51095555Y-58152728D01*
X51099913Y-58186053D01*
X51112980Y-58285979D01*
X51170720Y-58417203D01*
X51176497Y-58424076D01*
X51176498Y-58424077D01*
X51183792Y-58432754D01*
X51262970Y-58526948D01*
X51382313Y-58606390D01*
X51519157Y-58649142D01*
X51528129Y-58649306D01*
X51528132Y-58649307D01*
X51593463Y-58650504D01*
X51662499Y-58651770D01*
X51671533Y-58649307D01*
X51792158Y-58616421D01*
X51792160Y-58616420D01*
X51800817Y-58614060D01*
X51922991Y-58539045D01*
X51934315Y-58526535D01*
X52013178Y-58439407D01*
X52019200Y-58432754D01*
X52081710Y-58303733D01*
X52105496Y-58162354D01*
X52105647Y-58150000D01*
X52104762Y-58143823D01*
X61244391Y-58143823D01*
X61245555Y-58152725D01*
X61245555Y-58152728D01*
X61249913Y-58186053D01*
X61262980Y-58285979D01*
X61320720Y-58417203D01*
X61326497Y-58424076D01*
X61326498Y-58424077D01*
X61333792Y-58432754D01*
X61412970Y-58526948D01*
X61532313Y-58606390D01*
X61669157Y-58649142D01*
X61678129Y-58649306D01*
X61678132Y-58649307D01*
X61743463Y-58650504D01*
X61812499Y-58651770D01*
X61821533Y-58649307D01*
X61942158Y-58616421D01*
X61942160Y-58616420D01*
X61950817Y-58614060D01*
X62072991Y-58539045D01*
X62084315Y-58526535D01*
X62163178Y-58439407D01*
X62169200Y-58432754D01*
X62231710Y-58303733D01*
X62232338Y-58300000D01*
X63399570Y-58300000D01*
X63419168Y-58423740D01*
X63476045Y-58535367D01*
X63564633Y-58623955D01*
X63676260Y-58680832D01*
X63800000Y-58700430D01*
X63923740Y-58680832D01*
X64035367Y-58623955D01*
X64123955Y-58535367D01*
X64180832Y-58423740D01*
X64200430Y-58300000D01*
X64180832Y-58176260D01*
X64164305Y-58143823D01*
X64128455Y-58073465D01*
X64123955Y-58064633D01*
X64035367Y-57976045D01*
X63923740Y-57919168D01*
X63800000Y-57899570D01*
X63676260Y-57919168D01*
X63564633Y-57976045D01*
X63476045Y-58064633D01*
X63471545Y-58073465D01*
X63435696Y-58143823D01*
X63419168Y-58176260D01*
X63399570Y-58300000D01*
X62232338Y-58300000D01*
X62255496Y-58162354D01*
X62255647Y-58150000D01*
X62247473Y-58092924D01*
X62236596Y-58016968D01*
X62236595Y-58016965D01*
X62235323Y-58008082D01*
X62223945Y-57983056D01*
X62186691Y-57901121D01*
X62175984Y-57877572D01*
X62157598Y-57856234D01*
X62088260Y-57775763D01*
X62088257Y-57775760D01*
X62082400Y-57768963D01*
X61962095Y-57690985D01*
X61824739Y-57649907D01*
X61815763Y-57649852D01*
X61815762Y-57649852D01*
X61755555Y-57649484D01*
X61681376Y-57649031D01*
X61543529Y-57688428D01*
X61422280Y-57764930D01*
X61327377Y-57872388D01*
X61266447Y-58002163D01*
X61265066Y-58011035D01*
X61255346Y-58073465D01*
X61244391Y-58143823D01*
X52104762Y-58143823D01*
X52097473Y-58092924D01*
X52086596Y-58016968D01*
X52086595Y-58016965D01*
X52085323Y-58008082D01*
X52073945Y-57983056D01*
X52036691Y-57901121D01*
X52025984Y-57877572D01*
X52007598Y-57856234D01*
X51938260Y-57775763D01*
X51938257Y-57775760D01*
X51932400Y-57768963D01*
X51812095Y-57690985D01*
X51674739Y-57649907D01*
X51665763Y-57649852D01*
X51665762Y-57649852D01*
X51605555Y-57649484D01*
X51531376Y-57649031D01*
X51393529Y-57688428D01*
X51272280Y-57764930D01*
X51177377Y-57872388D01*
X51116447Y-58002163D01*
X51115066Y-58011035D01*
X51105346Y-58073465D01*
X51094391Y-58143823D01*
X44873553Y-58143823D01*
X44874497Y-57300000D01*
X66749570Y-57300000D01*
X66769168Y-57423740D01*
X66826045Y-57535367D01*
X66914633Y-57623955D01*
X67026260Y-57680832D01*
X67150000Y-57700430D01*
X67273740Y-57680832D01*
X67385367Y-57623955D01*
X67473955Y-57535367D01*
X67530832Y-57423740D01*
X67550430Y-57300000D01*
X67530832Y-57176260D01*
X67473955Y-57064633D01*
X67385367Y-56976045D01*
X67273740Y-56919168D01*
X67150000Y-56899570D01*
X67026260Y-56919168D01*
X66914633Y-56976045D01*
X66826045Y-57064633D01*
X66769168Y-57176260D01*
X66749570Y-57300000D01*
X44874497Y-57300000D01*
X44875250Y-56626525D01*
X44895327Y-56558429D01*
X44949035Y-56511996D01*
X45003558Y-56500689D01*
X45062499Y-56501770D01*
X45071163Y-56499408D01*
X45192158Y-56466421D01*
X45192160Y-56466420D01*
X45200817Y-56464060D01*
X45322991Y-56389045D01*
X45419200Y-56282754D01*
X45481710Y-56153733D01*
X45505496Y-56012354D01*
X45505647Y-56000000D01*
X45497473Y-55942924D01*
X45486596Y-55866968D01*
X45486595Y-55866965D01*
X45485323Y-55858082D01*
X45425984Y-55727572D01*
X45386652Y-55681925D01*
X45338260Y-55625763D01*
X45338257Y-55625760D01*
X45332400Y-55618963D01*
X45212095Y-55540985D01*
X45074739Y-55499907D01*
X45065763Y-55499852D01*
X45065762Y-55499852D01*
X45037772Y-55499681D01*
X45001880Y-55499462D01*
X44933884Y-55479044D01*
X44887720Y-55425105D01*
X44876652Y-55373325D01*
X44876790Y-55250000D01*
X65599570Y-55250000D01*
X65619168Y-55373740D01*
X65676045Y-55485367D01*
X65764633Y-55573955D01*
X65773466Y-55578455D01*
X65773465Y-55578455D01*
X65866312Y-55625763D01*
X65876260Y-55630832D01*
X66000000Y-55650430D01*
X66123740Y-55630832D01*
X66133689Y-55625763D01*
X66226535Y-55578455D01*
X66226534Y-55578455D01*
X66235367Y-55573955D01*
X66323955Y-55485367D01*
X66380832Y-55373740D01*
X66400430Y-55250000D01*
X66380832Y-55126260D01*
X66323955Y-55014633D01*
X66235367Y-54926045D01*
X66123740Y-54869168D01*
X66118606Y-54868355D01*
X66062162Y-54829759D01*
X66034525Y-54764363D01*
X66046632Y-54694406D01*
X66094638Y-54642100D01*
X66116961Y-54631906D01*
X66123740Y-54630832D01*
X66235367Y-54573955D01*
X66323955Y-54485367D01*
X66380832Y-54373740D01*
X66400430Y-54250000D01*
X66380832Y-54126260D01*
X66376098Y-54116968D01*
X66328455Y-54023465D01*
X66323955Y-54014633D01*
X66235367Y-53926045D01*
X66182455Y-53899085D01*
X66132574Y-53873669D01*
X66132573Y-53873669D01*
X66123740Y-53869168D01*
X66000000Y-53849570D01*
X65876260Y-53869168D01*
X65867427Y-53873669D01*
X65867426Y-53873669D01*
X65817545Y-53899085D01*
X65764633Y-53926045D01*
X65676045Y-54014633D01*
X65671545Y-54023465D01*
X65623903Y-54116968D01*
X65619168Y-54126260D01*
X65599570Y-54250000D01*
X65619168Y-54373740D01*
X65676045Y-54485367D01*
X65764633Y-54573955D01*
X65876260Y-54630832D01*
X65881394Y-54631645D01*
X65937838Y-54670241D01*
X65965475Y-54735637D01*
X65953368Y-54805594D01*
X65905362Y-54857900D01*
X65883039Y-54868094D01*
X65876260Y-54869168D01*
X65764633Y-54926045D01*
X65676045Y-55014633D01*
X65619168Y-55126260D01*
X65599570Y-55250000D01*
X44876790Y-55250000D01*
X44877915Y-54243823D01*
X46994391Y-54243823D01*
X46995555Y-54252725D01*
X46995555Y-54252728D01*
X46999482Y-54282754D01*
X47012980Y-54385979D01*
X47016597Y-54394199D01*
X47062846Y-54499307D01*
X47070720Y-54517203D01*
X47076497Y-54524076D01*
X47076498Y-54524077D01*
X47157190Y-54620072D01*
X47162970Y-54626948D01*
X47282313Y-54706390D01*
X47419157Y-54749142D01*
X47428129Y-54749306D01*
X47428132Y-54749307D01*
X47493463Y-54750504D01*
X47562499Y-54751770D01*
X47571533Y-54749307D01*
X47692158Y-54716421D01*
X47692160Y-54716420D01*
X47700817Y-54714060D01*
X47822991Y-54639045D01*
X47919200Y-54532754D01*
X47981710Y-54403733D01*
X48005496Y-54262354D01*
X48005647Y-54250000D01*
X47990593Y-54144881D01*
X47986596Y-54116968D01*
X47986595Y-54116965D01*
X47985323Y-54108082D01*
X47975274Y-54085979D01*
X47943978Y-54017149D01*
X47925984Y-53977572D01*
X47896904Y-53943823D01*
X51094391Y-53943823D01*
X51095555Y-53952725D01*
X51095555Y-53952728D01*
X51098126Y-53972388D01*
X51112980Y-54085979D01*
X51116597Y-54094199D01*
X51142793Y-54153733D01*
X51170720Y-54217203D01*
X51176497Y-54224076D01*
X51176498Y-54224077D01*
X51232740Y-54290985D01*
X51262970Y-54326948D01*
X51382313Y-54406390D01*
X51390888Y-54409069D01*
X51406864Y-54414060D01*
X51519157Y-54449142D01*
X51528129Y-54449306D01*
X51528132Y-54449307D01*
X51593463Y-54450504D01*
X51662499Y-54451770D01*
X51671533Y-54449307D01*
X51792158Y-54416421D01*
X51792160Y-54416420D01*
X51800817Y-54414060D01*
X51922991Y-54339045D01*
X52019200Y-54232754D01*
X52061774Y-54144881D01*
X52077795Y-54111814D01*
X52077795Y-54111813D01*
X52081710Y-54103733D01*
X52105496Y-53962354D01*
X52105647Y-53950000D01*
X52104762Y-53943823D01*
X53644391Y-53943823D01*
X53645555Y-53952725D01*
X53645555Y-53952728D01*
X53648126Y-53972388D01*
X53662980Y-54085979D01*
X53666597Y-54094199D01*
X53692793Y-54153733D01*
X53720720Y-54217203D01*
X53726497Y-54224076D01*
X53726498Y-54224077D01*
X53782740Y-54290985D01*
X53812970Y-54326948D01*
X53932313Y-54406390D01*
X53940888Y-54409069D01*
X53956864Y-54414060D01*
X54069157Y-54449142D01*
X54078129Y-54449306D01*
X54078132Y-54449307D01*
X54143463Y-54450504D01*
X54212499Y-54451770D01*
X54221533Y-54449307D01*
X54342158Y-54416421D01*
X54342160Y-54416420D01*
X54350817Y-54414060D01*
X54472991Y-54339045D01*
X54569200Y-54232754D01*
X54611774Y-54144881D01*
X54627795Y-54111814D01*
X54627795Y-54111813D01*
X54631710Y-54103733D01*
X54650202Y-53993823D01*
X56394391Y-53993823D01*
X56395555Y-54002725D01*
X56395555Y-54002728D01*
X56396195Y-54007622D01*
X56412980Y-54135979D01*
X56416597Y-54144199D01*
X56465289Y-54254859D01*
X56470720Y-54267203D01*
X56476497Y-54274076D01*
X56476498Y-54274077D01*
X56552868Y-54364930D01*
X56562970Y-54376948D01*
X56570447Y-54381925D01*
X56671425Y-54449142D01*
X56682313Y-54456390D01*
X56819157Y-54499142D01*
X56828129Y-54499306D01*
X56828132Y-54499307D01*
X56893463Y-54500504D01*
X56962499Y-54501770D01*
X56971533Y-54499307D01*
X57092158Y-54466421D01*
X57092160Y-54466420D01*
X57100817Y-54464060D01*
X57222991Y-54389045D01*
X57319200Y-54282754D01*
X57381710Y-54153733D01*
X57405496Y-54012354D01*
X57405647Y-54000000D01*
X57397602Y-53943823D01*
X58744391Y-53943823D01*
X58745555Y-53952725D01*
X58745555Y-53952728D01*
X58748126Y-53972388D01*
X58762980Y-54085979D01*
X58766597Y-54094199D01*
X58792793Y-54153733D01*
X58820720Y-54217203D01*
X58826497Y-54224076D01*
X58826498Y-54224077D01*
X58882740Y-54290985D01*
X58912970Y-54326948D01*
X59032313Y-54406390D01*
X59040888Y-54409069D01*
X59056864Y-54414060D01*
X59169157Y-54449142D01*
X59178129Y-54449306D01*
X59178132Y-54449307D01*
X59243463Y-54450504D01*
X59312499Y-54451770D01*
X59321533Y-54449307D01*
X59442158Y-54416421D01*
X59442160Y-54416420D01*
X59450817Y-54414060D01*
X59572991Y-54339045D01*
X59669200Y-54232754D01*
X59711774Y-54144881D01*
X59727795Y-54111814D01*
X59727795Y-54111813D01*
X59731710Y-54103733D01*
X59755496Y-53962354D01*
X59755647Y-53950000D01*
X59754762Y-53943823D01*
X60844391Y-53943823D01*
X60845555Y-53952725D01*
X60845555Y-53952728D01*
X60848126Y-53972388D01*
X60862980Y-54085979D01*
X60866597Y-54094199D01*
X60892793Y-54153733D01*
X60920720Y-54217203D01*
X60926497Y-54224076D01*
X60926498Y-54224077D01*
X60982740Y-54290985D01*
X61012970Y-54326948D01*
X61132313Y-54406390D01*
X61140888Y-54409069D01*
X61156864Y-54414060D01*
X61269157Y-54449142D01*
X61278129Y-54449306D01*
X61278132Y-54449307D01*
X61343463Y-54450504D01*
X61412499Y-54451770D01*
X61421533Y-54449307D01*
X61542158Y-54416421D01*
X61542160Y-54416420D01*
X61550817Y-54414060D01*
X61672991Y-54339045D01*
X61769200Y-54232754D01*
X61811774Y-54144881D01*
X61827795Y-54111814D01*
X61827795Y-54111813D01*
X61831710Y-54103733D01*
X61855496Y-53962354D01*
X61855647Y-53950000D01*
X61843464Y-53864930D01*
X61836596Y-53816968D01*
X61836595Y-53816965D01*
X61835323Y-53808082D01*
X61775984Y-53677572D01*
X61757598Y-53656234D01*
X61688260Y-53575763D01*
X61688257Y-53575760D01*
X61682400Y-53568963D01*
X61562095Y-53490985D01*
X61424739Y-53449907D01*
X61415763Y-53449852D01*
X61415762Y-53449852D01*
X61355555Y-53449484D01*
X61281376Y-53449031D01*
X61143529Y-53488428D01*
X61022280Y-53564930D01*
X61016338Y-53571658D01*
X61016337Y-53571659D01*
X60978122Y-53614930D01*
X60927377Y-53672388D01*
X60866447Y-53802163D01*
X60858824Y-53851121D01*
X60847860Y-53921545D01*
X60844391Y-53943823D01*
X59754762Y-53943823D01*
X59743464Y-53864930D01*
X59736596Y-53816968D01*
X59736595Y-53816965D01*
X59735323Y-53808082D01*
X59675984Y-53677572D01*
X59657598Y-53656234D01*
X59588260Y-53575763D01*
X59588257Y-53575760D01*
X59582400Y-53568963D01*
X59462095Y-53490985D01*
X59324739Y-53449907D01*
X59315763Y-53449852D01*
X59315762Y-53449852D01*
X59255555Y-53449484D01*
X59181376Y-53449031D01*
X59043529Y-53488428D01*
X58922280Y-53564930D01*
X58916338Y-53571658D01*
X58916337Y-53571659D01*
X58878122Y-53614930D01*
X58827377Y-53672388D01*
X58766447Y-53802163D01*
X58758824Y-53851121D01*
X58747860Y-53921545D01*
X58744391Y-53943823D01*
X57397602Y-53943823D01*
X57387855Y-53875763D01*
X57386596Y-53866968D01*
X57386595Y-53866965D01*
X57385323Y-53858082D01*
X57325984Y-53727572D01*
X57272636Y-53665659D01*
X57238260Y-53625763D01*
X57238257Y-53625760D01*
X57232400Y-53618963D01*
X57112095Y-53540985D01*
X56974739Y-53499907D01*
X56965763Y-53499852D01*
X56965762Y-53499852D01*
X56905555Y-53499484D01*
X56831376Y-53499031D01*
X56693529Y-53538428D01*
X56572280Y-53614930D01*
X56477377Y-53722388D01*
X56416447Y-53852163D01*
X56413412Y-53871659D01*
X56399291Y-53962354D01*
X56394391Y-53993823D01*
X54650202Y-53993823D01*
X54655496Y-53962354D01*
X54655647Y-53950000D01*
X54643464Y-53864930D01*
X54636596Y-53816968D01*
X54636595Y-53816965D01*
X54635323Y-53808082D01*
X54575984Y-53677572D01*
X54557598Y-53656234D01*
X54488260Y-53575763D01*
X54488257Y-53575760D01*
X54482400Y-53568963D01*
X54362095Y-53490985D01*
X54224739Y-53449907D01*
X54215763Y-53449852D01*
X54215762Y-53449852D01*
X54155555Y-53449484D01*
X54081376Y-53449031D01*
X53943529Y-53488428D01*
X53822280Y-53564930D01*
X53816338Y-53571658D01*
X53816337Y-53571659D01*
X53778122Y-53614930D01*
X53727377Y-53672388D01*
X53666447Y-53802163D01*
X53658824Y-53851121D01*
X53647860Y-53921545D01*
X53644391Y-53943823D01*
X52104762Y-53943823D01*
X52093464Y-53864930D01*
X52086596Y-53816968D01*
X52086595Y-53816965D01*
X52085323Y-53808082D01*
X52025984Y-53677572D01*
X52009386Y-53658309D01*
X51960358Y-53601409D01*
X51931044Y-53536746D01*
X51941343Y-53466500D01*
X51987985Y-53412974D01*
X52036100Y-53394713D01*
X52095403Y-53385320D01*
X52113948Y-53382383D01*
X52113949Y-53382383D01*
X52123740Y-53380832D01*
X52235367Y-53323955D01*
X52323955Y-53235367D01*
X52380832Y-53123740D01*
X52400430Y-53000000D01*
X52380832Y-52876260D01*
X52323955Y-52764633D01*
X52273417Y-52714095D01*
X52239391Y-52651783D01*
X52244456Y-52580968D01*
X52273417Y-52535905D01*
X52323955Y-52485367D01*
X52380832Y-52373740D01*
X52400430Y-52250000D01*
X52380832Y-52126260D01*
X52376098Y-52116968D01*
X52328455Y-52023465D01*
X52323955Y-52014633D01*
X52278145Y-51968823D01*
X57219391Y-51968823D01*
X57220555Y-51977725D01*
X57220555Y-51977728D01*
X57225381Y-52014633D01*
X57237980Y-52110979D01*
X57295720Y-52242203D01*
X57301497Y-52249076D01*
X57301498Y-52249077D01*
X57382190Y-52345072D01*
X57387970Y-52351948D01*
X57507313Y-52431390D01*
X57644157Y-52474142D01*
X57653129Y-52474306D01*
X57653132Y-52474307D01*
X57718463Y-52475504D01*
X57787499Y-52476770D01*
X57796533Y-52474307D01*
X57917158Y-52441421D01*
X57917160Y-52441420D01*
X57925817Y-52439060D01*
X58047991Y-52364045D01*
X58144200Y-52257754D01*
X58150949Y-52243823D01*
X59494391Y-52243823D01*
X59495555Y-52252725D01*
X59495555Y-52252728D01*
X59500224Y-52288428D01*
X59512980Y-52385979D01*
X59516597Y-52394199D01*
X59550289Y-52470769D01*
X59570720Y-52517203D01*
X59576497Y-52524076D01*
X59576498Y-52524077D01*
X59654581Y-52616968D01*
X59662970Y-52626948D01*
X59782313Y-52706390D01*
X59919157Y-52749142D01*
X59928129Y-52749306D01*
X59928132Y-52749307D01*
X59993463Y-52750504D01*
X60062499Y-52751770D01*
X60071533Y-52749307D01*
X60192158Y-52716421D01*
X60192160Y-52716420D01*
X60200817Y-52714060D01*
X60322991Y-52639045D01*
X60347168Y-52612335D01*
X60413178Y-52539407D01*
X60419200Y-52532754D01*
X60464594Y-52439060D01*
X60477795Y-52411814D01*
X60477795Y-52411813D01*
X60481710Y-52403733D01*
X60505496Y-52262354D01*
X60505647Y-52250000D01*
X60489329Y-52136053D01*
X60486596Y-52116968D01*
X60486595Y-52116965D01*
X60485323Y-52108082D01*
X60425984Y-51977572D01*
X60403444Y-51951413D01*
X60338260Y-51875763D01*
X60338257Y-51875760D01*
X60332400Y-51868963D01*
X60212095Y-51790985D01*
X60074739Y-51749907D01*
X60065763Y-51749852D01*
X60065762Y-51749852D01*
X60005555Y-51749484D01*
X59931376Y-51749031D01*
X59793529Y-51788428D01*
X59672280Y-51864930D01*
X59666338Y-51871658D01*
X59666337Y-51871659D01*
X59646835Y-51893741D01*
X59577377Y-51972388D01*
X59516447Y-52102163D01*
X59494391Y-52243823D01*
X58150949Y-52243823D01*
X58206710Y-52128733D01*
X58230496Y-51987354D01*
X58230647Y-51975000D01*
X58219010Y-51893741D01*
X58211596Y-51841968D01*
X58211595Y-51841965D01*
X58210323Y-51833082D01*
X58150984Y-51702572D01*
X58132598Y-51681234D01*
X58063260Y-51600763D01*
X58063257Y-51600760D01*
X58057400Y-51593963D01*
X57937095Y-51515985D01*
X57799739Y-51474907D01*
X57790763Y-51474852D01*
X57790762Y-51474852D01*
X57730555Y-51474484D01*
X57656376Y-51474031D01*
X57518529Y-51513428D01*
X57397280Y-51589930D01*
X57302377Y-51697388D01*
X57241447Y-51827163D01*
X57234939Y-51868963D01*
X57220864Y-51959364D01*
X57219391Y-51968823D01*
X52278145Y-51968823D01*
X52235367Y-51926045D01*
X52139009Y-51876948D01*
X52132574Y-51873669D01*
X52132573Y-51873669D01*
X52123740Y-51869168D01*
X52000000Y-51849570D01*
X51876260Y-51869168D01*
X51867427Y-51873669D01*
X51867426Y-51873669D01*
X51860991Y-51876948D01*
X51764633Y-51926045D01*
X51676045Y-52014633D01*
X51671545Y-52023465D01*
X51623903Y-52116968D01*
X51619168Y-52126260D01*
X51599570Y-52250000D01*
X51619168Y-52373740D01*
X51676045Y-52485367D01*
X51726583Y-52535905D01*
X51760609Y-52598217D01*
X51755544Y-52669032D01*
X51726583Y-52714095D01*
X51676045Y-52764633D01*
X51619168Y-52876260D01*
X51599570Y-53000000D01*
X51619168Y-53123740D01*
X51623669Y-53132573D01*
X51623669Y-53132574D01*
X51665189Y-53214060D01*
X51676045Y-53235367D01*
X51683056Y-53242378D01*
X51688086Y-53249301D01*
X51711945Y-53316168D01*
X51695866Y-53385320D01*
X51644952Y-53434801D01*
X51585381Y-53449361D01*
X51531376Y-53449031D01*
X51393529Y-53488428D01*
X51272280Y-53564930D01*
X51266338Y-53571658D01*
X51266337Y-53571659D01*
X51228122Y-53614930D01*
X51177377Y-53672388D01*
X51116447Y-53802163D01*
X51108824Y-53851121D01*
X51097860Y-53921545D01*
X51094391Y-53943823D01*
X47896904Y-53943823D01*
X47838260Y-53875763D01*
X47838257Y-53875760D01*
X47832400Y-53868963D01*
X47712095Y-53790985D01*
X47574739Y-53749907D01*
X47565763Y-53749852D01*
X47565762Y-53749852D01*
X47505555Y-53749484D01*
X47431376Y-53749031D01*
X47293529Y-53788428D01*
X47172280Y-53864930D01*
X47077377Y-53972388D01*
X47016447Y-54102163D01*
X47009902Y-54144199D01*
X46998536Y-54217203D01*
X46994391Y-54243823D01*
X44877915Y-54243823D01*
X44879593Y-52743823D01*
X49244391Y-52743823D01*
X49245555Y-52752725D01*
X49245555Y-52752728D01*
X49246195Y-52757622D01*
X49262980Y-52885979D01*
X49320720Y-53017203D01*
X49326497Y-53024076D01*
X49326498Y-53024077D01*
X49407190Y-53120072D01*
X49412970Y-53126948D01*
X49532313Y-53206390D01*
X49669157Y-53249142D01*
X49678129Y-53249306D01*
X49678132Y-53249307D01*
X49743463Y-53250504D01*
X49812499Y-53251770D01*
X49821555Y-53249301D01*
X49942158Y-53216421D01*
X49942160Y-53216420D01*
X49950817Y-53214060D01*
X50072991Y-53139045D01*
X50081766Y-53129351D01*
X50163178Y-53039407D01*
X50169200Y-53032754D01*
X50231710Y-52903733D01*
X50255496Y-52762354D01*
X50255647Y-52750000D01*
X50244052Y-52669032D01*
X50236596Y-52616968D01*
X50236595Y-52616965D01*
X50235323Y-52608082D01*
X50219807Y-52573955D01*
X50216179Y-52565977D01*
X50175984Y-52477572D01*
X50142800Y-52439060D01*
X50088260Y-52375763D01*
X50088257Y-52375760D01*
X50082400Y-52368963D01*
X49962095Y-52290985D01*
X49824739Y-52249907D01*
X49815763Y-52249852D01*
X49815762Y-52249852D01*
X49755555Y-52249484D01*
X49681376Y-52249031D01*
X49543529Y-52288428D01*
X49422280Y-52364930D01*
X49327377Y-52472388D01*
X49266447Y-52602163D01*
X49258721Y-52651783D01*
X49249020Y-52714095D01*
X49244391Y-52743823D01*
X44879593Y-52743823D01*
X44880894Y-51580312D01*
X44900972Y-51512215D01*
X44954680Y-51465782D01*
X45024965Y-51455757D01*
X45044466Y-51460187D01*
X45169157Y-51499142D01*
X45178129Y-51499306D01*
X45178132Y-51499307D01*
X45243463Y-51500504D01*
X45312499Y-51501770D01*
X45321533Y-51499307D01*
X45341648Y-51493823D01*
X47744391Y-51493823D01*
X47745555Y-51502725D01*
X47745555Y-51502728D01*
X47747289Y-51515985D01*
X47762980Y-51635979D01*
X47766597Y-51644199D01*
X47813110Y-51749907D01*
X47820720Y-51767203D01*
X47826497Y-51774076D01*
X47826498Y-51774077D01*
X47906258Y-51868963D01*
X47912970Y-51876948D01*
X48032313Y-51956390D01*
X48169157Y-51999142D01*
X48178129Y-51999306D01*
X48178132Y-51999307D01*
X48243463Y-52000504D01*
X48312499Y-52001770D01*
X48321533Y-51999307D01*
X48442158Y-51966421D01*
X48442160Y-51966420D01*
X48450817Y-51964060D01*
X48572991Y-51889045D01*
X48592387Y-51867617D01*
X48663178Y-51789407D01*
X48669200Y-51782754D01*
X48731710Y-51653733D01*
X48755496Y-51512354D01*
X48755647Y-51500000D01*
X48740430Y-51393741D01*
X48736596Y-51366968D01*
X48736595Y-51366965D01*
X48735323Y-51358082D01*
X48675984Y-51227572D01*
X48612360Y-51153733D01*
X48588260Y-51125763D01*
X48588257Y-51125760D01*
X48582400Y-51118963D01*
X48462095Y-51040985D01*
X48324739Y-50999907D01*
X48315763Y-50999852D01*
X48315762Y-50999852D01*
X48255555Y-50999484D01*
X48181376Y-50999031D01*
X48043529Y-51038428D01*
X47922280Y-51114930D01*
X47827377Y-51222388D01*
X47766447Y-51352163D01*
X47757210Y-51411490D01*
X47746936Y-51477480D01*
X47744391Y-51493823D01*
X45341648Y-51493823D01*
X45442158Y-51466421D01*
X45442160Y-51466420D01*
X45450817Y-51464060D01*
X45572991Y-51389045D01*
X45669200Y-51282754D01*
X45731710Y-51153733D01*
X45755496Y-51012354D01*
X45755647Y-51000000D01*
X45735323Y-50858082D01*
X45675984Y-50727572D01*
X45657598Y-50706234D01*
X45588260Y-50625763D01*
X45588257Y-50625760D01*
X45582400Y-50618963D01*
X45462095Y-50540985D01*
X45324739Y-50499907D01*
X45315763Y-50499852D01*
X45315762Y-50499852D01*
X45255555Y-50499484D01*
X45181376Y-50499031D01*
X45043529Y-50538428D01*
X45042532Y-50534941D01*
X44989272Y-50542167D01*
X44924928Y-50512161D01*
X44887020Y-50452132D01*
X44882195Y-50417455D01*
X44882942Y-49750000D01*
X47099570Y-49750000D01*
X47119168Y-49873740D01*
X47176045Y-49985367D01*
X47264633Y-50073955D01*
X47376260Y-50130832D01*
X47500000Y-50150430D01*
X47623740Y-50130832D01*
X47735367Y-50073955D01*
X47823955Y-49985367D01*
X47880832Y-49873740D01*
X47900430Y-49750000D01*
X47899452Y-49743823D01*
X49994391Y-49743823D01*
X49995555Y-49752725D01*
X49995555Y-49752728D01*
X49996479Y-49759793D01*
X50012980Y-49885979D01*
X50070720Y-50017203D01*
X50076497Y-50024076D01*
X50076498Y-50024077D01*
X50157190Y-50120072D01*
X50162970Y-50126948D01*
X50282313Y-50206390D01*
X50419157Y-50249142D01*
X50428129Y-50249306D01*
X50428132Y-50249307D01*
X50493463Y-50250504D01*
X50562499Y-50251770D01*
X50571533Y-50249307D01*
X50692158Y-50216421D01*
X50692160Y-50216420D01*
X50700817Y-50214060D01*
X50822991Y-50139045D01*
X50919200Y-50032754D01*
X50981710Y-49903733D01*
X51005496Y-49762354D01*
X51005647Y-49750000D01*
X50990430Y-49643741D01*
X50986596Y-49616968D01*
X50986595Y-49616965D01*
X50985323Y-49608082D01*
X50925984Y-49477572D01*
X50907598Y-49456234D01*
X50838260Y-49375763D01*
X50838257Y-49375760D01*
X50832400Y-49368963D01*
X50712095Y-49290985D01*
X50574739Y-49249907D01*
X50565763Y-49249852D01*
X50565762Y-49249852D01*
X50505555Y-49249484D01*
X50431376Y-49249031D01*
X50293529Y-49288428D01*
X50172280Y-49364930D01*
X50077377Y-49472388D01*
X50016447Y-49602163D01*
X49994391Y-49743823D01*
X47899452Y-49743823D01*
X47880832Y-49626260D01*
X47876098Y-49616968D01*
X47828455Y-49523465D01*
X47823955Y-49514633D01*
X47735367Y-49426045D01*
X47656733Y-49385979D01*
X47632574Y-49373669D01*
X47632573Y-49373669D01*
X47623740Y-49369168D01*
X47500000Y-49349570D01*
X47376260Y-49369168D01*
X47367427Y-49373669D01*
X47367426Y-49373669D01*
X47343267Y-49385979D01*
X47264633Y-49426045D01*
X47176045Y-49514633D01*
X47171545Y-49523465D01*
X47123903Y-49616968D01*
X47119168Y-49626260D01*
X47099570Y-49750000D01*
X44882942Y-49750000D01*
X44883508Y-49243823D01*
X53244391Y-49243823D01*
X53245555Y-49252725D01*
X53245555Y-49252728D01*
X53250224Y-49288428D01*
X53262980Y-49385979D01*
X53283694Y-49433056D01*
X53300289Y-49470769D01*
X53320720Y-49517203D01*
X53326497Y-49524076D01*
X53326498Y-49524077D01*
X53399594Y-49611035D01*
X53412970Y-49626948D01*
X53532313Y-49706390D01*
X53669157Y-49749142D01*
X53678129Y-49749306D01*
X53678132Y-49749307D01*
X53743463Y-49750504D01*
X53812499Y-49751770D01*
X53821533Y-49749307D01*
X53942158Y-49716421D01*
X53942160Y-49716420D01*
X53950817Y-49714060D01*
X54072991Y-49639045D01*
X54169200Y-49532754D01*
X54231710Y-49403733D01*
X54255496Y-49262354D01*
X54255647Y-49250000D01*
X54235323Y-49108082D01*
X54175984Y-48977572D01*
X54157598Y-48956234D01*
X54088260Y-48875763D01*
X54088257Y-48875760D01*
X54082400Y-48868963D01*
X53962095Y-48790985D01*
X53824739Y-48749907D01*
X53815763Y-48749852D01*
X53815762Y-48749852D01*
X53755555Y-48749484D01*
X53681376Y-48749031D01*
X53543529Y-48788428D01*
X53422280Y-48864930D01*
X53327377Y-48972388D01*
X53266447Y-49102163D01*
X53244391Y-49243823D01*
X44883508Y-49243823D01*
X44886025Y-46993823D01*
X54994391Y-46993823D01*
X54995555Y-47002725D01*
X54995555Y-47002728D01*
X54996814Y-47012354D01*
X55012980Y-47135979D01*
X55070720Y-47267203D01*
X55076497Y-47274076D01*
X55076498Y-47274077D01*
X55083792Y-47282754D01*
X55162970Y-47376948D01*
X55282313Y-47456390D01*
X55419157Y-47499142D01*
X55428129Y-47499306D01*
X55428132Y-47499307D01*
X55493463Y-47500504D01*
X55562499Y-47501770D01*
X55571533Y-47499307D01*
X55692158Y-47466421D01*
X55692160Y-47466420D01*
X55700817Y-47464060D01*
X55822991Y-47389045D01*
X55919200Y-47282754D01*
X55981710Y-47153733D01*
X56005496Y-47012354D01*
X56005647Y-47000000D01*
X55985323Y-46858082D01*
X55925984Y-46727572D01*
X55849704Y-46639045D01*
X55838260Y-46625763D01*
X55838257Y-46625760D01*
X55832400Y-46618963D01*
X55712095Y-46540985D01*
X55574739Y-46499907D01*
X55565763Y-46499852D01*
X55565762Y-46499852D01*
X55505555Y-46499484D01*
X55431376Y-46499031D01*
X55293529Y-46538428D01*
X55172280Y-46614930D01*
X55166338Y-46621658D01*
X55166337Y-46621659D01*
X55124828Y-46668659D01*
X55077377Y-46722388D01*
X55016447Y-46852163D01*
X54994391Y-46993823D01*
X44886025Y-46993823D01*
X44887975Y-45250000D01*
X47349570Y-45250000D01*
X47369168Y-45373740D01*
X47426045Y-45485367D01*
X47514633Y-45573955D01*
X47626260Y-45630832D01*
X47750000Y-45650430D01*
X47873740Y-45630832D01*
X47985367Y-45573955D01*
X48073955Y-45485367D01*
X48130832Y-45373740D01*
X48150430Y-45250000D01*
X48149452Y-45243823D01*
X50744391Y-45243823D01*
X50745555Y-45252725D01*
X50745555Y-45252728D01*
X50746479Y-45259793D01*
X50762980Y-45385979D01*
X50820720Y-45517203D01*
X50826497Y-45524076D01*
X50826498Y-45524077D01*
X50907190Y-45620072D01*
X50912970Y-45626948D01*
X51032313Y-45706390D01*
X51169157Y-45749142D01*
X51178129Y-45749306D01*
X51178132Y-45749307D01*
X51243463Y-45750504D01*
X51312499Y-45751770D01*
X51321533Y-45749307D01*
X51442158Y-45716421D01*
X51442160Y-45716420D01*
X51450817Y-45714060D01*
X51572991Y-45639045D01*
X51669200Y-45532754D01*
X51731710Y-45403733D01*
X51755496Y-45262354D01*
X51755647Y-45250000D01*
X51739329Y-45136053D01*
X51736596Y-45116968D01*
X51736595Y-45116965D01*
X51735323Y-45108082D01*
X51675984Y-44977572D01*
X51639109Y-44934777D01*
X51588260Y-44875763D01*
X51588257Y-44875760D01*
X51582400Y-44868963D01*
X51462095Y-44790985D01*
X51324739Y-44749907D01*
X51315763Y-44749852D01*
X51315762Y-44749852D01*
X51255555Y-44749484D01*
X51181376Y-44749031D01*
X51043529Y-44788428D01*
X50922280Y-44864930D01*
X50827377Y-44972388D01*
X50766447Y-45102163D01*
X50744391Y-45243823D01*
X48149452Y-45243823D01*
X48130832Y-45126260D01*
X48126331Y-45117426D01*
X48078457Y-45023468D01*
X48078455Y-45023465D01*
X48073955Y-45014633D01*
X48071410Y-45012088D01*
X48048729Y-44948527D01*
X48064807Y-44879375D01*
X48085428Y-44852234D01*
X48165284Y-44772378D01*
X48222161Y-44660751D01*
X48233024Y-44592166D01*
X48263435Y-44528013D01*
X48323702Y-44490486D01*
X48395045Y-44491609D01*
X48419157Y-44499142D01*
X48428129Y-44499306D01*
X48428132Y-44499307D01*
X48493463Y-44500504D01*
X48562499Y-44501770D01*
X48571533Y-44499307D01*
X48692158Y-44466421D01*
X48692160Y-44466420D01*
X48700817Y-44464060D01*
X48822991Y-44389045D01*
X48919200Y-44282754D01*
X48981710Y-44153733D01*
X49005496Y-44012354D01*
X49005647Y-44000000D01*
X48985323Y-43858082D01*
X48925984Y-43727572D01*
X48907598Y-43706234D01*
X48838260Y-43625763D01*
X48838257Y-43625760D01*
X48832400Y-43618963D01*
X48712095Y-43540985D01*
X48574739Y-43499907D01*
X48565763Y-43499852D01*
X48565762Y-43499852D01*
X48505555Y-43499484D01*
X48431376Y-43499031D01*
X48293529Y-43538428D01*
X48172280Y-43614930D01*
X48077377Y-43722388D01*
X48016447Y-43852163D01*
X47994391Y-43993823D01*
X47995555Y-44002727D01*
X47995446Y-44011698D01*
X47992566Y-44011663D01*
X47983827Y-44067348D01*
X47936647Y-44120401D01*
X47868275Y-44139525D01*
X47851931Y-44138132D01*
X47851122Y-44138132D01*
X47841329Y-44136581D01*
X47717589Y-44156179D01*
X47708756Y-44160680D01*
X47708755Y-44160680D01*
X47658874Y-44186096D01*
X47605962Y-44213056D01*
X47517374Y-44301644D01*
X47460497Y-44413271D01*
X47440899Y-44537011D01*
X47460497Y-44660751D01*
X47517374Y-44772378D01*
X47519919Y-44774923D01*
X47542600Y-44838484D01*
X47526522Y-44907636D01*
X47505901Y-44934777D01*
X47426045Y-45014633D01*
X47421545Y-45023465D01*
X47373903Y-45116968D01*
X47369168Y-45126260D01*
X47349570Y-45250000D01*
X44887975Y-45250000D01*
X44890071Y-43376331D01*
X44890827Y-42700000D01*
X48049570Y-42700000D01*
X48069168Y-42823740D01*
X48126045Y-42935367D01*
X48214633Y-43023955D01*
X48326260Y-43080832D01*
X48450000Y-43100430D01*
X48573740Y-43080832D01*
X48685367Y-43023955D01*
X48709322Y-43000000D01*
X51099570Y-43000000D01*
X51119168Y-43123740D01*
X51176045Y-43235367D01*
X51264633Y-43323955D01*
X51376260Y-43380832D01*
X51500000Y-43400430D01*
X51623740Y-43380832D01*
X51735367Y-43323955D01*
X51823955Y-43235367D01*
X51880832Y-43123740D01*
X51900430Y-43000000D01*
X53099570Y-43000000D01*
X53119168Y-43123740D01*
X53176045Y-43235367D01*
X53264633Y-43323955D01*
X53376260Y-43380832D01*
X53500000Y-43400430D01*
X53623740Y-43380832D01*
X53735367Y-43323955D01*
X53823955Y-43235367D01*
X53880832Y-43123740D01*
X53900430Y-43000000D01*
X53880832Y-42876260D01*
X53823955Y-42764633D01*
X53809322Y-42750000D01*
X64099570Y-42750000D01*
X64119168Y-42873740D01*
X64176045Y-42985367D01*
X64264633Y-43073955D01*
X64376260Y-43130832D01*
X64500000Y-43150430D01*
X64623740Y-43130832D01*
X64735367Y-43073955D01*
X64823955Y-42985367D01*
X64862733Y-42909261D01*
X64911481Y-42857646D01*
X64980396Y-42840580D01*
X65047598Y-42863481D01*
X65087267Y-42909261D01*
X65126045Y-42985367D01*
X65214633Y-43073955D01*
X65326260Y-43130832D01*
X65450000Y-43150430D01*
X65573740Y-43130832D01*
X65685367Y-43073955D01*
X65773955Y-42985367D01*
X65830832Y-42873740D01*
X65850430Y-42750000D01*
X65830832Y-42626260D01*
X65773955Y-42514633D01*
X65685367Y-42426045D01*
X65573740Y-42369168D01*
X65450000Y-42349570D01*
X65326260Y-42369168D01*
X65214633Y-42426045D01*
X65126045Y-42514633D01*
X65121545Y-42523465D01*
X65087267Y-42590739D01*
X65038519Y-42642354D01*
X64969604Y-42659420D01*
X64902402Y-42636519D01*
X64862733Y-42590739D01*
X64828455Y-42523465D01*
X64823955Y-42514633D01*
X64735367Y-42426045D01*
X64623740Y-42369168D01*
X64500000Y-42349570D01*
X64376260Y-42369168D01*
X64264633Y-42426045D01*
X64176045Y-42514633D01*
X64119168Y-42626260D01*
X64099570Y-42750000D01*
X53809322Y-42750000D01*
X53735367Y-42676045D01*
X53623740Y-42619168D01*
X53500000Y-42599570D01*
X53376260Y-42619168D01*
X53264633Y-42676045D01*
X53176045Y-42764633D01*
X53119168Y-42876260D01*
X53099570Y-43000000D01*
X51900430Y-43000000D01*
X51880832Y-42876260D01*
X51823955Y-42764633D01*
X51735367Y-42676045D01*
X51623740Y-42619168D01*
X51500000Y-42599570D01*
X51376260Y-42619168D01*
X51264633Y-42676045D01*
X51176045Y-42764633D01*
X51119168Y-42876260D01*
X51099570Y-43000000D01*
X48709322Y-43000000D01*
X48773955Y-42935367D01*
X48830832Y-42823740D01*
X48850430Y-42700000D01*
X48830832Y-42576260D01*
X48773955Y-42464633D01*
X48685367Y-42376045D01*
X48573740Y-42319168D01*
X48450000Y-42299570D01*
X48326260Y-42319168D01*
X48214633Y-42376045D01*
X48126045Y-42464633D01*
X48069168Y-42576260D01*
X48049570Y-42700000D01*
X44890827Y-42700000D01*
X44892076Y-41583807D01*
X44912154Y-41515709D01*
X44965862Y-41469276D01*
X45036147Y-41459251D01*
X45055643Y-41463679D01*
X45169157Y-41499142D01*
X45178129Y-41499306D01*
X45178132Y-41499307D01*
X45243463Y-41500504D01*
X45312499Y-41501770D01*
X45321533Y-41499307D01*
X45442158Y-41466421D01*
X45442160Y-41466420D01*
X45450817Y-41464060D01*
X45572991Y-41389045D01*
X45669200Y-41282754D01*
X45731710Y-41153733D01*
X45755496Y-41012354D01*
X45755647Y-41000000D01*
X45735323Y-40858082D01*
X45675984Y-40727572D01*
X45657598Y-40706234D01*
X45588260Y-40625763D01*
X45588257Y-40625760D01*
X45582400Y-40618963D01*
X45462095Y-40540985D01*
X45324739Y-40499907D01*
X45315763Y-40499852D01*
X45315762Y-40499852D01*
X45255555Y-40499484D01*
X45181376Y-40499031D01*
X45054008Y-40535433D01*
X44983015Y-40534921D01*
X44923568Y-40496107D01*
X44894541Y-40431315D01*
X44893385Y-40414143D01*
X44894694Y-39243823D01*
X50244391Y-39243823D01*
X50245555Y-39252725D01*
X50245555Y-39252728D01*
X50250329Y-39289235D01*
X50262980Y-39385979D01*
X50320720Y-39517203D01*
X50326497Y-39524076D01*
X50326498Y-39524077D01*
X50407190Y-39620072D01*
X50412970Y-39626948D01*
X50532313Y-39706390D01*
X50669157Y-39749142D01*
X50678129Y-39749306D01*
X50678132Y-39749307D01*
X50743463Y-39750504D01*
X50812499Y-39751770D01*
X50821533Y-39749307D01*
X50942158Y-39716421D01*
X50942160Y-39716420D01*
X50950817Y-39714060D01*
X51072991Y-39639045D01*
X51169200Y-39532754D01*
X51185069Y-39500000D01*
X52099570Y-39500000D01*
X52119168Y-39623740D01*
X52176045Y-39735367D01*
X52264633Y-39823955D01*
X52376260Y-39880832D01*
X52500000Y-39900430D01*
X52623740Y-39880832D01*
X52735367Y-39823955D01*
X52823955Y-39735367D01*
X52880832Y-39623740D01*
X52900430Y-39500000D01*
X54099570Y-39500000D01*
X54119168Y-39623740D01*
X54176045Y-39735367D01*
X54264633Y-39823955D01*
X54376260Y-39880832D01*
X54500000Y-39900430D01*
X54623740Y-39880832D01*
X54735367Y-39823955D01*
X54823955Y-39735367D01*
X54880832Y-39623740D01*
X54900430Y-39500000D01*
X54880832Y-39376260D01*
X54823955Y-39264633D01*
X54735367Y-39176045D01*
X54623740Y-39119168D01*
X54500000Y-39099570D01*
X54376260Y-39119168D01*
X54264633Y-39176045D01*
X54176045Y-39264633D01*
X54119168Y-39376260D01*
X54099570Y-39500000D01*
X52900430Y-39500000D01*
X52880832Y-39376260D01*
X52823955Y-39264633D01*
X52735367Y-39176045D01*
X52623740Y-39119168D01*
X52500000Y-39099570D01*
X52376260Y-39119168D01*
X52264633Y-39176045D01*
X52176045Y-39264633D01*
X52119168Y-39376260D01*
X52099570Y-39500000D01*
X51185069Y-39500000D01*
X51231710Y-39403733D01*
X51255496Y-39262354D01*
X51255647Y-39250000D01*
X51244412Y-39171545D01*
X51236596Y-39116968D01*
X51236595Y-39116965D01*
X51235323Y-39108082D01*
X51175984Y-38977572D01*
X51157598Y-38956234D01*
X51088260Y-38875763D01*
X51088257Y-38875760D01*
X51082400Y-38868963D01*
X50962095Y-38790985D01*
X50824739Y-38749907D01*
X50815763Y-38749852D01*
X50815762Y-38749852D01*
X50755555Y-38749484D01*
X50681376Y-38749031D01*
X50543529Y-38788428D01*
X50422280Y-38864930D01*
X50327377Y-38972388D01*
X50266447Y-39102163D01*
X50244391Y-39243823D01*
X44894694Y-39243823D01*
X44899860Y-34624673D01*
X44919938Y-34556575D01*
X44973646Y-34510142D01*
X45024895Y-34498818D01*
X46303186Y-34489023D01*
X70851615Y-34300912D01*
X70852240Y-34300910D01*
X70874076Y-34300922D01*
G37*
%TD.AperFunction*%
%TD*%
M02*
