%TF.GenerationSoftware,KiCad,Pcbnew,(6.0.7)*%
%TF.CreationDate,2022-11-29T14:59:17+08:00*%
%TF.ProjectId,Rp2040 wearable dev boards w wireless,52703230-3430-4207-9765-617261626c65,rev?*%
%TF.SameCoordinates,Original*%
%TF.FileFunction,Soldermask,Top*%
%TF.FilePolarity,Negative*%
%FSLAX46Y46*%
G04 Gerber Fmt 4.6, Leading zero omitted, Abs format (unit mm)*
G04 Created by KiCad (PCBNEW (6.0.7)) date 2022-11-29 14:59:17*
%MOMM*%
%LPD*%
G01*
G04 APERTURE LIST*
G04 Aperture macros list*
%AMRoundRect*
0 Rectangle with rounded corners*
0 $1 Rounding radius*
0 $2 $3 $4 $5 $6 $7 $8 $9 X,Y pos of 4 corners*
0 Add a 4 corners polygon primitive as box body*
4,1,4,$2,$3,$4,$5,$6,$7,$8,$9,$2,$3,0*
0 Add four circle primitives for the rounded corners*
1,1,$1+$1,$2,$3*
1,1,$1+$1,$4,$5*
1,1,$1+$1,$6,$7*
1,1,$1+$1,$8,$9*
0 Add four rect primitives between the rounded corners*
20,1,$1+$1,$2,$3,$4,$5,0*
20,1,$1+$1,$4,$5,$6,$7,0*
20,1,$1+$1,$6,$7,$8,$9,0*
20,1,$1+$1,$8,$9,$2,$3,0*%
G04 Aperture macros list end*
%ADD10RoundRect,0.135000X-0.135000X-0.185000X0.135000X-0.185000X0.135000X0.185000X-0.135000X0.185000X0*%
%ADD11RoundRect,0.075000X0.075000X-0.125000X0.075000X0.125000X-0.075000X0.125000X-0.075000X-0.125000X0*%
%ADD12RoundRect,0.135000X0.185000X-0.135000X0.185000X0.135000X-0.185000X0.135000X-0.185000X-0.135000X0*%
%ADD13C,0.630000*%
%ADD14C,0.600000*%
%ADD15R,0.520000X1.000000*%
%ADD16R,0.270000X1.000000*%
%ADD17R,1.000000X2.000000*%
%ADD18O,1.158000X2.316000*%
%ADD19O,1.200000X2.400000*%
%ADD20RoundRect,0.075000X-0.125000X-0.075000X0.125000X-0.075000X0.125000X0.075000X-0.125000X0.075000X0*%
%ADD21RoundRect,0.135000X0.135000X0.185000X-0.135000X0.185000X-0.135000X-0.185000X0.135000X-0.185000X0*%
%ADD22RoundRect,0.100000X-0.100000X0.130000X-0.100000X-0.130000X0.100000X-0.130000X0.100000X0.130000X0*%
%ADD23RoundRect,0.100000X0.130000X0.100000X-0.130000X0.100000X-0.130000X-0.100000X0.130000X-0.100000X0*%
%ADD24R,3.500000X2.400000*%
%ADD25RoundRect,0.140000X0.170000X-0.140000X0.170000X0.140000X-0.170000X0.140000X-0.170000X-0.140000X0*%
%ADD26RoundRect,0.100000X-0.100000X0.637500X-0.100000X-0.637500X0.100000X-0.637500X0.100000X0.637500X0*%
%ADD27RoundRect,0.218750X0.256250X-0.218750X0.256250X0.218750X-0.256250X0.218750X-0.256250X-0.218750X0*%
%ADD28RoundRect,0.250000X-1.500000X0.250000X-1.500000X-0.250000X1.500000X-0.250000X1.500000X0.250000X0*%
%ADD29RoundRect,0.250001X-1.449999X0.499999X-1.449999X-0.499999X1.449999X-0.499999X1.449999X0.499999X0*%
%ADD30RoundRect,0.250000X1.250000X0.550000X-1.250000X0.550000X-1.250000X-0.550000X1.250000X-0.550000X0*%
%ADD31RoundRect,0.140000X0.140000X0.170000X-0.140000X0.170000X-0.140000X-0.170000X0.140000X-0.170000X0*%
%ADD32R,0.660400X0.203200*%
%ADD33R,0.203200X0.660400*%
%ADD34R,1.752600X1.600200*%
%ADD35RoundRect,0.135000X-0.185000X0.135000X-0.185000X-0.135000X0.185000X-0.135000X0.185000X0.135000X0*%
%ADD36R,0.850000X0.300000*%
%ADD37R,0.300000X0.850000*%
%ADD38R,2.700000X2.700000*%
%ADD39RoundRect,0.218750X0.218750X0.256250X-0.218750X0.256250X-0.218750X-0.256250X0.218750X-0.256250X0*%
%ADD40RoundRect,0.150000X0.650000X0.150000X-0.650000X0.150000X-0.650000X-0.150000X0.650000X-0.150000X0*%
%ADD41RoundRect,0.250000X-0.325000X-0.650000X0.325000X-0.650000X0.325000X0.650000X-0.325000X0.650000X0*%
%ADD42R,2.500000X1.800000*%
%ADD43RoundRect,0.150000X-0.150000X0.512500X-0.150000X-0.512500X0.150000X-0.512500X0.150000X0.512500X0*%
%ADD44RoundRect,0.100000X0.100000X-0.130000X0.100000X0.130000X-0.100000X0.130000X-0.100000X-0.130000X0*%
%ADD45RoundRect,0.147500X-0.172500X0.147500X-0.172500X-0.147500X0.172500X-0.147500X0.172500X0.147500X0*%
%ADD46RoundRect,0.075000X-0.075000X0.125000X-0.075000X-0.125000X0.075000X-0.125000X0.075000X0.125000X0*%
%ADD47RoundRect,0.050000X0.387500X0.050000X-0.387500X0.050000X-0.387500X-0.050000X0.387500X-0.050000X0*%
%ADD48RoundRect,0.050000X0.050000X0.387500X-0.050000X0.387500X-0.050000X-0.387500X0.050000X-0.387500X0*%
%ADD49R,3.200000X3.200000*%
%ADD50R,4.560000X0.850000*%
%ADD51R,4.560000X1.000000*%
%ADD52RoundRect,0.250000X-1.250000X-0.550000X1.250000X-0.550000X1.250000X0.550000X-1.250000X0.550000X0*%
%ADD53R,0.900000X1.700000*%
%ADD54R,0.800000X1.100000*%
%ADD55RoundRect,0.150000X-0.587500X-0.150000X0.587500X-0.150000X0.587500X0.150000X-0.587500X0.150000X0*%
%ADD56RoundRect,0.075000X0.125000X0.075000X-0.125000X0.075000X-0.125000X-0.075000X0.125000X-0.075000X0*%
%ADD57R,0.610000X2.000000*%
%ADD58R,2.680000X3.600000*%
%ADD59R,1.400000X1.150000*%
%ADD60RoundRect,0.100000X-0.130000X-0.100000X0.130000X-0.100000X0.130000X0.100000X-0.130000X0.100000X0*%
%ADD61R,2.000000X0.610000*%
%ADD62R,3.600000X2.680000*%
%ADD63RoundRect,0.250000X1.500000X-0.250000X1.500000X0.250000X-1.500000X0.250000X-1.500000X-0.250000X0*%
%ADD64RoundRect,0.250001X1.449999X-0.499999X1.449999X0.499999X-1.449999X0.499999X-1.449999X-0.499999X0*%
%ADD65R,1.500000X2.000000*%
%ADD66R,3.800000X2.000000*%
%ADD67R,0.200000X0.565000*%
%ADD68R,0.400000X0.565000*%
%ADD69RoundRect,0.147500X0.172500X-0.147500X0.172500X0.147500X-0.172500X0.147500X-0.172500X-0.147500X0*%
G04 APERTURE END LIST*
D10*
%TO.C,R2*%
X71640000Y-89250000D03*
X72660000Y-89250000D03*
%TD*%
D11*
%TO.C,C30*%
X38500000Y-57750000D03*
X38500000Y-57250000D03*
%TD*%
D12*
%TO.C,R16*%
X48250000Y-60010000D03*
X48250000Y-58990000D03*
%TD*%
D13*
%TO.C,J2*%
X46276000Y-95400000D03*
D14*
X52276000Y-95400000D03*
D13*
X52276000Y-95400000D03*
D15*
X46176000Y-94300000D03*
X46926000Y-94300000D03*
D16*
X47526000Y-94300000D03*
X48026000Y-94300000D03*
X48526000Y-94300000D03*
X49026000Y-94300000D03*
X49526000Y-94300000D03*
X50026000Y-94300000D03*
X50526000Y-94300000D03*
X51026000Y-94300000D03*
D15*
X51626000Y-94300000D03*
X52376000Y-94300000D03*
D17*
X47876000Y-98500000D03*
X50676000Y-98500000D03*
D18*
X44956000Y-94675000D03*
X53596000Y-94675000D03*
D19*
X44956000Y-98500000D03*
X53596000Y-98500000D03*
%TD*%
D20*
%TO.C,C32*%
X43250000Y-48000000D03*
X43750000Y-48000000D03*
%TD*%
D21*
%TO.C,R19*%
X47010000Y-57500000D03*
X45990000Y-57500000D03*
%TD*%
D22*
%TO.C,C10*%
X53500000Y-74280000D03*
X53500000Y-74920000D03*
%TD*%
D23*
%TO.C,C14*%
X50820000Y-68050000D03*
X50180000Y-68050000D03*
%TD*%
D24*
%TO.C,Y1*%
X54050000Y-58000000D03*
X59250000Y-58000000D03*
%TD*%
D25*
%TO.C,C8*%
X52250000Y-88480000D03*
X52250000Y-87520000D03*
%TD*%
D26*
%TO.C,U6*%
X62275000Y-44887500D03*
X61625000Y-44887500D03*
X60975000Y-44887500D03*
X60325000Y-44887500D03*
X59675000Y-44887500D03*
X59025000Y-44887500D03*
X58375000Y-44887500D03*
X57725000Y-44887500D03*
X57725000Y-50612500D03*
X58375000Y-50612500D03*
X59025000Y-50612500D03*
X59675000Y-50612500D03*
X60325000Y-50612500D03*
X60975000Y-50612500D03*
X61625000Y-50612500D03*
X62275000Y-50612500D03*
%TD*%
D11*
%TO.C,C31*%
X38000000Y-53000000D03*
X38000000Y-52500000D03*
%TD*%
D27*
%TO.C,D3*%
X52300000Y-82787500D03*
X52300000Y-81212500D03*
%TD*%
D10*
%TO.C,R1*%
X62540000Y-82350000D03*
X63560000Y-82350000D03*
%TD*%
D12*
%TO.C,R9*%
X46750000Y-84010000D03*
X46750000Y-82990000D03*
%TD*%
D28*
%TO.C,SW2*%
X43800000Y-73550000D03*
X43800000Y-75550000D03*
D29*
X38050000Y-77900000D03*
X38050000Y-71200000D03*
%TD*%
D30*
%TO.C,C19*%
X44450000Y-67000000D03*
X40050000Y-67000000D03*
%TD*%
D23*
%TO.C,C16*%
X50070000Y-71700000D03*
X49430000Y-71700000D03*
%TD*%
D31*
%TO.C,C24*%
X40480000Y-56000000D03*
X39520000Y-56000000D03*
%TD*%
D10*
%TO.C,R4*%
X54040000Y-60900000D03*
X55060000Y-60900000D03*
%TD*%
D21*
%TO.C,R14*%
X41260000Y-63500000D03*
X40240000Y-63500000D03*
%TD*%
D32*
%TO.C,U7*%
X47475999Y-46523999D03*
X47475999Y-46924001D03*
X47475999Y-47324000D03*
X47475999Y-47724000D03*
X47475999Y-48123999D03*
X47475999Y-48524001D03*
D33*
X47999998Y-49048000D03*
X48400000Y-49048000D03*
X48799999Y-49048000D03*
X49199999Y-49048000D03*
X49599998Y-49048000D03*
X50000000Y-49048000D03*
D32*
X50523999Y-48524001D03*
X50523999Y-48123999D03*
X50523999Y-47724000D03*
X50523999Y-47324000D03*
X50523999Y-46924001D03*
X50523999Y-46523999D03*
D33*
X50000000Y-46000000D03*
X49599998Y-46000000D03*
X49199999Y-46000000D03*
X48799999Y-46000000D03*
X48400000Y-46000000D03*
X47999998Y-46000000D03*
D34*
X48999999Y-47524000D03*
%TD*%
D35*
%TO.C,R17*%
X48250000Y-61990000D03*
X48250000Y-63010000D03*
%TD*%
D36*
%TO.C,IC1*%
X43950000Y-60500000D03*
X43950000Y-60000000D03*
X43950000Y-59500000D03*
X43950000Y-59000000D03*
X43950000Y-58500000D03*
D37*
X43000000Y-57550000D03*
X42500000Y-57550000D03*
X42000000Y-57550000D03*
X41500000Y-57550000D03*
X41000000Y-57550000D03*
D36*
X40050000Y-58500000D03*
X40050000Y-59000000D03*
X40050000Y-59500000D03*
X40050000Y-60000000D03*
X40050000Y-60500000D03*
D37*
X41000000Y-61450000D03*
X41500000Y-61450000D03*
X42000000Y-61450000D03*
X42500000Y-61450000D03*
X43000000Y-61450000D03*
D38*
X42000000Y-59500000D03*
%TD*%
D12*
%TO.C,R18*%
X66500000Y-85010000D03*
X66500000Y-83990000D03*
%TD*%
D39*
%TO.C,D1*%
X73037500Y-85100000D03*
X71462500Y-85100000D03*
%TD*%
D10*
%TO.C,R13*%
X41990000Y-51250000D03*
X43010000Y-51250000D03*
%TD*%
D11*
%TO.C,C29*%
X37750000Y-57750000D03*
X37750000Y-57250000D03*
%TD*%
D40*
%TO.C,U2*%
X66650000Y-80655000D03*
X66650000Y-79385000D03*
X66650000Y-78115000D03*
X66650000Y-76845000D03*
X59450000Y-76845000D03*
X59450000Y-78115000D03*
X59450000Y-79385000D03*
X59450000Y-80655000D03*
%TD*%
D22*
%TO.C,C18*%
X62000000Y-72230000D03*
X62000000Y-72870000D03*
%TD*%
D41*
%TO.C,C21*%
X52525000Y-47000000D03*
X55475000Y-47000000D03*
%TD*%
D23*
%TO.C,C12*%
X55320000Y-49250000D03*
X54680000Y-49250000D03*
%TD*%
D42*
%TO.C,D2*%
X58700000Y-87300000D03*
X54700000Y-87300000D03*
%TD*%
D11*
%TO.C,C1*%
X59250000Y-55250000D03*
X59250000Y-54750000D03*
%TD*%
D22*
%TO.C,C13*%
X56950000Y-73580000D03*
X56950000Y-74220000D03*
%TD*%
D43*
%TO.C,U1*%
X70250000Y-86962500D03*
X69300000Y-86962500D03*
X68350000Y-86962500D03*
X68350000Y-89237500D03*
X70250000Y-89237500D03*
%TD*%
D12*
%TO.C,R8*%
X48000000Y-84010000D03*
X48000000Y-82990000D03*
%TD*%
D44*
%TO.C,C17*%
X56850000Y-64170000D03*
X56850000Y-63530000D03*
%TD*%
D21*
%TO.C,R5*%
X53710000Y-84900000D03*
X52690000Y-84900000D03*
%TD*%
D25*
%TO.C,C25*%
X44250000Y-51730000D03*
X44250000Y-50770000D03*
%TD*%
D45*
%TO.C,L3*%
X36750000Y-60015000D03*
X36750000Y-60985000D03*
%TD*%
%TO.C,L1*%
X38250000Y-59015000D03*
X38250000Y-59985000D03*
%TD*%
D20*
%TO.C,C27*%
X42250000Y-63750000D03*
X42750000Y-63750000D03*
%TD*%
D22*
%TO.C,C3*%
X59500000Y-82030000D03*
X59500000Y-82670000D03*
%TD*%
D46*
%TO.C,C22*%
X47500000Y-52500000D03*
X47500000Y-53000000D03*
%TD*%
D47*
%TO.C,U5*%
X60837500Y-71650000D03*
X60837500Y-71250000D03*
X60837500Y-70850000D03*
X60837500Y-70450000D03*
X60837500Y-70050000D03*
X60837500Y-69650000D03*
X60837500Y-69250000D03*
X60837500Y-68850000D03*
X60837500Y-68450000D03*
X60837500Y-68050000D03*
X60837500Y-67650000D03*
X60837500Y-67250000D03*
X60837500Y-66850000D03*
X60837500Y-66450000D03*
D48*
X60000000Y-65612500D03*
X59600000Y-65612500D03*
X59200000Y-65612500D03*
X58800000Y-65612500D03*
X58400000Y-65612500D03*
X58000000Y-65612500D03*
X57600000Y-65612500D03*
X57200000Y-65612500D03*
X56800000Y-65612500D03*
X56400000Y-65612500D03*
X56000000Y-65612500D03*
X55600000Y-65612500D03*
X55200000Y-65612500D03*
X54800000Y-65612500D03*
D47*
X53962500Y-66450000D03*
X53962500Y-66850000D03*
X53962500Y-67250000D03*
X53962500Y-67650000D03*
X53962500Y-68050000D03*
X53962500Y-68450000D03*
X53962500Y-68850000D03*
X53962500Y-69250000D03*
X53962500Y-69650000D03*
X53962500Y-70050000D03*
X53962500Y-70450000D03*
X53962500Y-70850000D03*
X53962500Y-71250000D03*
X53962500Y-71650000D03*
D48*
X54800000Y-72487500D03*
X55200000Y-72487500D03*
X55600000Y-72487500D03*
X56000000Y-72487500D03*
X56400000Y-72487500D03*
X56800000Y-72487500D03*
X57200000Y-72487500D03*
X57600000Y-72487500D03*
X58000000Y-72487500D03*
X58400000Y-72487500D03*
X58800000Y-72487500D03*
X59200000Y-72487500D03*
X59600000Y-72487500D03*
X60000000Y-72487500D03*
D49*
X57400000Y-69050000D03*
%TD*%
D10*
%TO.C,R11*%
X47240000Y-70500000D03*
X48260000Y-70500000D03*
%TD*%
D50*
%TO.C,J6*%
X38428500Y-46260750D03*
D51*
X38428500Y-43490750D03*
X38428500Y-49030750D03*
%TD*%
D31*
%TO.C,C5*%
X56930000Y-91850000D03*
X55970000Y-91850000D03*
%TD*%
D52*
%TO.C,C11*%
X66800000Y-46500000D03*
X71200000Y-46500000D03*
%TD*%
D20*
%TO.C,C28*%
X43750000Y-63750000D03*
X44250000Y-63750000D03*
%TD*%
D22*
%TO.C,C4*%
X55450000Y-74280000D03*
X55450000Y-74920000D03*
%TD*%
%TO.C,C20*%
X54800000Y-74280000D03*
X54800000Y-74920000D03*
%TD*%
D25*
%TO.C,C9*%
X61000000Y-90255000D03*
X61000000Y-89295000D03*
%TD*%
D27*
%TO.C,D4*%
X63900000Y-73487500D03*
X63900000Y-71912500D03*
%TD*%
D53*
%TO.C,SW1*%
X53950000Y-81050000D03*
X57350000Y-81050000D03*
D54*
X55650000Y-82690000D03*
%TD*%
D12*
%TO.C,R6*%
X56700000Y-77410000D03*
X56700000Y-76390000D03*
%TD*%
D55*
%TO.C,Q1*%
X63012500Y-87000000D03*
X63012500Y-88900000D03*
X64887500Y-87950000D03*
%TD*%
D35*
%TO.C,R3*%
X74900000Y-85090000D03*
X74900000Y-86110000D03*
%TD*%
D56*
%TO.C,C26*%
X39000000Y-61750000D03*
X38500000Y-61750000D03*
%TD*%
D57*
%TO.C,J4*%
X65450000Y-41000000D03*
X64450000Y-41000000D03*
X63450000Y-41000000D03*
X62450000Y-41000000D03*
X61450000Y-41000000D03*
X60450000Y-41000000D03*
X59450000Y-41000000D03*
X58450000Y-41000000D03*
X57450000Y-41000000D03*
X56450000Y-41000000D03*
X55450000Y-41000000D03*
X54450000Y-41000000D03*
X53450000Y-41000000D03*
X52450000Y-41000000D03*
X51450000Y-41000000D03*
X50450000Y-41000000D03*
X49450000Y-41000000D03*
X48450000Y-41000000D03*
X47450000Y-41000000D03*
X46450000Y-41000000D03*
D58*
X43460000Y-38200000D03*
X68440000Y-38200000D03*
%TD*%
D22*
%TO.C,C7*%
X57600000Y-73580000D03*
X57600000Y-74220000D03*
%TD*%
D44*
%TO.C,C6*%
X56200000Y-64170000D03*
X56200000Y-63530000D03*
%TD*%
D59*
%TO.C,Y2*%
X41000000Y-54550000D03*
X44000000Y-54550000D03*
X44000000Y-52950000D03*
X41000000Y-52950000D03*
%TD*%
D22*
%TO.C,C23*%
X49750000Y-51180000D03*
X49750000Y-51820000D03*
%TD*%
D11*
%TO.C,C2*%
X54050000Y-55250000D03*
X54050000Y-54750000D03*
%TD*%
D22*
%TO.C,C15*%
X54150000Y-74280000D03*
X54150000Y-74920000D03*
%TD*%
D60*
%TO.C,C33*%
X65342750Y-67487250D03*
X65982750Y-67487250D03*
%TD*%
D61*
%TO.C,J3*%
X69250000Y-74300000D03*
X69250000Y-73300000D03*
X69250000Y-72300000D03*
X69250000Y-71300000D03*
X69250000Y-70300000D03*
X69250000Y-69300000D03*
X69250000Y-68300000D03*
X69250000Y-67300000D03*
X69250000Y-66300000D03*
X69250000Y-65300000D03*
X69250000Y-64300000D03*
X69250000Y-63300000D03*
X69250000Y-62300000D03*
X69250000Y-61300000D03*
X69250000Y-60300000D03*
X69250000Y-59300000D03*
X69250000Y-58300000D03*
X69250000Y-57300000D03*
X69250000Y-56300000D03*
X69250000Y-55300000D03*
D62*
X72050000Y-52310000D03*
X72050000Y-77290000D03*
%TD*%
D63*
%TO.C,J1*%
X68150000Y-96000000D03*
X68150000Y-94000000D03*
D64*
X73900000Y-91650000D03*
X73900000Y-98350000D03*
%TD*%
D12*
%TO.C,R7*%
X55700000Y-77410000D03*
X55700000Y-76390000D03*
%TD*%
D35*
%TO.C,R10*%
X65500000Y-51240000D03*
X65500000Y-52260000D03*
%TD*%
D65*
%TO.C,U4*%
X63300000Y-91850000D03*
X61000000Y-91850000D03*
X58700000Y-91850000D03*
D66*
X61000000Y-98150000D03*
%TD*%
D10*
%TO.C,R12*%
X47240000Y-69500000D03*
X48260000Y-69500000D03*
%TD*%
D67*
%TO.C,U3*%
X48000000Y-86918000D03*
X48500000Y-86918000D03*
D68*
X49000000Y-86918000D03*
D67*
X49500000Y-86918000D03*
X50000000Y-86918000D03*
X50000000Y-86082000D03*
X49500000Y-86082000D03*
D68*
X49000000Y-86082000D03*
D67*
X48500000Y-86082000D03*
X48000000Y-86082000D03*
%TD*%
D12*
%TO.C,R15*%
X65350000Y-73360000D03*
X65350000Y-72340000D03*
%TD*%
D69*
%TO.C,L2*%
X36750000Y-58735000D03*
X36750000Y-57765000D03*
%TD*%
M02*
